<svg xmlns="http://www.w3.org/2000/svg" xmlns:xlink="http://www.w3.org/1999/xlink" width="208" height="64" viewBox="0 0 208 64">
  <defs>
    <clipPath id="clip-path">
      <rect id="Rectangle_19" data-name="Rectangle 19" width="64" height="64" fill="#fff" stroke="#707070" stroke-width="1"/>
    </clipPath>
    <clipPath id="clip-path-2">
      <rect id="Rectangle_20" data-name="Rectangle 20" width="64.323" height="59.912"/>
    </clipPath>
  </defs>
  <g id="Group_25" data-name="Group 25" transform="translate(-85 -86)">
    <g id="Mask_Group_13" data-name="Mask Group 13" transform="translate(85 86)" clip-path="url(#clip-path)">
      <g id="logo" transform="translate(0 2.206)">
        <g id="Group_1" data-name="Group 1" transform="translate(0)" clip-path="url(#clip-path-2)">
          <path id="Path_1" data-name="Path 1" d="M61.183,45.144a27.73,27.73,0,0,1-4.339,7.471c.031.007.065.01.1.017,1.111.268,2.207.571,3.321.822a1.68,1.68,0,0,0,2.18-.856c.529-.939,1.093-1.857,1.619-2.8a1.6,1.6,0,0,0-.278-1.912c-.8-.849-1.6-1.7-2.414-2.537a2.08,2.08,0,0,1-.186-.21M7.958,30.8c-1.186.378-2.389.684-3.583,1.035-.605.175-1.121.529-1.155,1.19-.028.581-.041,1.162-.048,1.743H3.165v.6c0,.062,0,.12,0,.182h0c0,.4,0,.791,0,1.186a1.564,1.564,0,0,0,1.172,1.654c.959.316,1.932.605,2.912.86a4.537,4.537,0,0,1,.7.237,28.031,28.031,0,0,1,0-8.688m1.513-5.625A27.578,27.578,0,0,1,13.806,17.7c-.031-.007-.062-.01-.093-.017-1.111-.268-2.211-.571-3.321-.822a1.681,1.681,0,0,0-2.18.856c-.529.939-1.093,1.857-1.619,2.8a1.592,1.592,0,0,0,.278,1.912c.8.849,1.6,1.7,2.414,2.537a1.5,1.5,0,0,1,.186.206m8.475-11.6a27.7,27.7,0,0,1,7.461-4.3c-.01-.01-.021-.017-.031-.028q-1.3-1.233-2.6-2.489a1.673,1.673,0,0,0-2.156-.313c-.86.5-1.719.994-2.585,1.485a1.748,1.748,0,0,0-.959,2.218c.175.839.688,2.386.866,3.428m17.383-6.13a27.814,27.814,0,0,1,4.311.333c-.364-1.145-.688-2.3-1.007-3.459a1.625,1.625,0,0,0-1.716-1.365c-1.045-.007-2.094-.007-3.139,0A1.567,1.567,0,0,0,32.1,4.151c-.316.976-.609,1.96-.87,2.953a4.324,4.324,0,0,1-.241.684,27.746,27.746,0,0,1,4.339-.34m18.26,2.768a1.692,1.692,0,0,0-.863-2.176c-.877-.523-1.774-1.014-2.651-1.537a1.642,1.642,0,0,0-2.059.2q-1.274,1.2-2.537,2.41a2.513,2.513,0,0,1-.21.179,27.72,27.72,0,0,1,7.471,4.318.535.535,0,0,1,.014-.072q.4-1.666.835-3.318m-4.071,43.5-1.7-2.218-.141.107c-.344.265-.21.584.4,1.382.712.928.952,1.1,1.289.842ZM14.4,42.761l.461-.089-.151-.426-.423.22c-.694.354-.976.492-.99.505l.007.017c.021,0,.33-.065,1.1-.227m6.777-24.589c.151-.127.144-.371-.113-.674s-.481-.361-.667-.206l-.165.138.76.9Zm8.375-4.033.437-.117-.189-.437c-.3-.719-.419-1.011-.43-1.028l-.017,0c0,.021.038.333.141,1.111Zm18.019,2.946.2-.43c.337-.7.478-.983.485-1l-.014-.01c-.014.014-.223.251-.739.842l-.313.351Zm6.608,4.256c-.2-.268-.43-.186-1.379.5-.97.708-1.121.918-.932,1.179s.419.189,1.375-.509c.983-.715,1.124-.915.935-1.172m1.688,2.644c-.162-.289-.406-.237-1.427.333-1.049.584-1.224.774-1.066,1.059s.392.237,1.427-.34c1.056-.591,1.221-.774,1.066-1.052m1.3,2.9-.048-.127-1.2.457.048.127c.1.258.316.292.725.138s.578-.33.478-.595m1.41,6.044-.021-.213-1.172.1.021.237c.017.2.22.33.615.3s.581-.186.557-.423m.158,3.294v-.017c-.017-.007-.33-.062-1.1-.2l-.464-.086-.017.454.474-.048c.78-.076,1.093-.1,1.111-.107m.918,6.14c-.065.223-.251.309-.509.23a.362.362,0,0,1-.3-.471c.065-.223.251-.3.5-.227s.368.244.3.468m-.206-7.076-.062,1.63-3.562.44-.007.21-.746-.028.048-1.269.746.028-.007.213.529-.055.024-.667-.523-.093-.007.213-.746-.028L55.18,34.7l.746.028-.007.206,2.159.433c.292.048.584.107.609.113l.014-.017a.963.963,0,0,1,0-.141l0-.069Zm-.113-2.31c.065.732-.471,1.131-1.241,1.2a1.058,1.058,0,0,1-1.076-.409L55.9,34.29l.021.23-.743.065-.079-.884,1.643-.674-.007-.069-.007-.079-.945.083.017.189-.746.065-.113-1.276.743-.065.024.282,2.781-.248-.024-.282.746-.065Zm-.285-2.3-1.245.3-.182-.743.519-.127-.11-.447-.945.23.165.674-.725.175-.165-.674-1.042.254.113.471.56-.138.182.75-1.286.313-.564-2.3.725-.179.065.275,2.716-.664-.065-.275.725-.179Zm-2.063-2.427c-.863.33-1.413.093-1.661-.554l-.086-.223-.732.278.11.285-.7.265-.505-1.327.7-.265.1.265,2.613-.994-.1-.265.7-.265.478,1.255c.248.65-.024,1.207-.915,1.544m-1.757-2.472c-1.54.86-2.139.719-2.555-.024s-.237-1.313,1.331-2.19c1.544-.863,2.139-.719,2.551.021s.234,1.32-1.327,2.194m-1.465-2.579c-1.427,1.042-2.035.97-2.537.282s-.392-1.276,1.059-2.334c1.43-1.045,2.035-.97,2.534-.289s.389,1.286-1.055,2.341m-.193-3.833-.533.523-.144-.148-1.028.165L50.9,21.7l.144.148-.533.523-.856-.877.533-.523.124.127.571-1.028-.481.076-.523.509.138.141-.533.523-.9-.921.533-.523.2.2,2-1.953-.2-.2.533-.523.921.942-.533.523-.158-.162-.3.3-.523.5.017.017c.034-.007.278-.065.6-.124l.749-.134-.168-.172.533-.523Zm-4.387-3.916L47.72,18.729l.175.113-.409.622-1.059-.7.409-.626.179.117.227-.481-.557-.368-.351.4.179.117-.409.622-.987-.65.409-.622.175.113,1.489-1.626c.193-.227.4-.444.413-.461L47.6,15.28a.743.743,0,0,1-.12-.072l-.055-.038.409-.622Zm-2.451-1.582-.3.684-.258-.113L45.055,17l.258.113-.3.684-1.183-.519.3-.684.213.093.21-.481c.3-.691.66-1.465.653-1.465l-.024-.01c-.007,0-.3.413-.609.839l-.5.66-.512-.223.158-.808c.107-.516.22-1.007.213-1.011l-.024-.01c-.007,0-.33.784-.633,1.475l-.21.481.213.093-.3.684-1.124-.492.3-.684.258.113,1.121-2.558-.258-.113.3-.684,1.3.567-.426,1.784.021.01L45.5,13.334Zm-4.04-1.688-.179.725-.275-.069L41.4,16.284l-.894-.217-.138-2.823-.024-.007c0,.007-.117.526-.282,1.207l-.172.7.275.065-.179.725-1.166-.285L39,14.926l.275.065.664-2.713-.275-.065.175-.725,1.148.278.148,2.857.024.007c0-.007.131-.588.285-1.217l.175-.722-.275-.065.179-.725Zm-3.486-.777-.1.739-.278-.038-.389,2.768.278.038-.1.739-1.382-.193.1-.739.278.038L38,11.993l-.278-.038.1-.739Zm-2.077-.282-.01.746-.206,0-.612.842.581,1.949.21,0-.01.746L35.858,15.4l.01-.746.179,0-.323-1.131-.285.4-.01.729.2,0-.01.746-1.286-.017.01-.746.282,0,.034-2.792-.282,0,.01-.746,1.317.017-.01.746-.227,0,0,.423L35.442,13h.024c.017-.031.151-.244.337-.512l.437-.626-.237,0,.01-.746Zm-2.991,4.28-2.29.261-.086-.743.278-.031-.316-2.775-.278.031-.086-.743,1.389-.158.086.743-.278.031.316,2.775.413-.048-.062-.543.767-.089ZM31.32,15l.2-.055.2.722L30.495,16l-.2-.722.206-.055-.21-.488-.646.175.065.529.206-.055.2.722-1.141.309-.2-.722.2-.055-.23-2.19c-.041-.292-.072-.591-.072-.615l-.021-.007a1.236,1.236,0,0,1-.134.041l-.065.017-.2-.722,1.575-.426Zm-3.9-1.808-.193.083-.21,1.021,1.334,1.537.193-.083.3.684-1.124.492-.3-.684.162-.072-.76-.9-.1.478.292.667.179-.079.3.684-1.179.516-.3-.684.258-.113L25.149,14.18l-.258.113-.292-.684,1.207-.529.3.684-.206.089.168.389.285.664.024-.01c0-.034.038-.282.1-.605l.141-.75-.22.1-.3-.684,1.028-.45ZM22.828,15.5l1.537,2.334.237-.155.409.622-1.166.767-.409-.622.234-.155-1.537-2.334-.234.155-.409-.622,1.166-.767.409.622Zm-1-.736a.354.354,0,0,1-.529-.148.358.358,0,0,1,.069-.55.364.364,0,0,1,.54.151.358.358,0,0,1-.079.547m-.134,2.2a1.06,1.06,0,0,1,.285,1.114l1.069.622.179-.151.481.571-.677.574-1.5-.956-.052.045-.062.052.615.725.144-.124.481.571-.976.825-.481-.571.217-.182-1.805-2.135-.217.182-.481-.571,1.086-.918c.557-.471,1.193-.261,1.692.327M18.379,18.1l.935.873-.523.56-.392-.364-.313.337.715.664.471-.505.547.509-.471.505.784.732.33-.354-.423-.392.526-.564.97.9-1.616,1.736-.547-.509.193-.206-2.046-1.9-.193.206-.547-.509Zm-2.156,3.748,2.3,1.592.237-.344-.447-.309.44-.633,1.062.736L18.5,24.776l-.615-.426.162-.23-2.3-1.592-.162.23-.615-.426.794-1.148.615.426Zm-1.561,1.031.653.364-.138.248,2.441,1.365.138-.244.653.364-.681,1.217-.653-.364.138-.244-2.441-1.365-.138.248-.653-.364Zm-.712.416a.357.357,0,0,1-.54.113c-.234-.131-.306-.32-.193-.523a.423.423,0,0,1,.732.409m-.87,2.551a.65.65,0,0,1,.5-.447l.007-.017-.175-.1.275-.629,1.413.619-.306.7-.117-.052c-.358-.158-.67-.213-.787.058-.131.3.158.478,1.055.87,1.155.505,1.437.55,1.561.268.1-.223-.1-.371-.447-.571l.505-.636c.433.265.89.564.774,1.2a.628.628,0,0,1,.478.021.564.564,0,0,1,.3.815,1,1,0,0,1-.254.364l-.512-.223a.3.3,0,0,0,.141-.158.156.156,0,0,0-.079-.234c-.162-.072-.268.089-.33.251l-.141-.062c-.358.33-.99.354-2.273-.206-1.709-.756-1.805-1.327-1.588-1.826m-.6,1.733,1.348.364-.2.739-.289-.079c-.32-.086-.454.01-.5.182-.041.155,0,.285.258.354.32.086.536-.083.784-.289a1.654,1.654,0,0,1,1.705-.457c.691.189.963.54.894,1.011a.65.65,0,0,1,.468-.038.57.57,0,0,1,.416.767.887.887,0,0,1-.2.392l-.54-.144a.287.287,0,0,0,.117-.179.164.164,0,0,0-.113-.223c-.172-.045-.251.131-.289.3l-.141-.038-.168.626-1.382-.375.2-.739.289.079c.3.079.461-.014.512-.2s-.031-.333-.316-.409-.509.048-.832.289a1.662,1.662,0,0,1-1.678.461c-.633-.172-.9-.557-.767-1.066.1-.385.275-.523.4-.564l.007-.024-.168-.062Zm-.719,2.778.739.124-.045.278,2.757.457.045-.278.739.124-.227,1.379-.739-.124.045-.278-2.757-.457-.045.278-.739-.124Zm-.485,3.583.746-.01,0,.289,2.259-.028c.987-.014,1.365.306,1.375,1.111.01.822-.358,1.152-1.344,1.162l-2.259.028,0,.282-.746.01L11.3,35.448l.746-.01,0,.2,2.286-.028c.313,0,.533-.024.529-.337s-.223-.323-.536-.32l-2.286.028,0,.2-.746.01Zm-.041-2.95c-.038.23-.21.33-.471.289s-.4-.2-.358-.426.21-.337.478-.292.389.2.351.43m.127,6.6.739-.124.045.278,2.757-.457-.045-.278.736-.124.213,1.276-.739.124-.038-.23-.519.086c-.743.124-1.585.244-1.585.251l0,.024c0,.007.505.021,1.035.052l.822.055.089.55-.763.306c-.488.193-.963.364-.963.371l0,.024c0,.007.839-.151,1.582-.275l.519-.086-.038-.23.739-.124.2,1.21-.739.124-.045-.278-2.757.457.045.278-.736.124-.23-1.4,1.729-.615,0-.024-1.836-.031Zm1.076,4.971,3.149-1.719-.069-.2.7-.248.423,1.2-.7.248-.072-.2-.474.244.223.629.523-.107-.072-.2.7-.248.392,1.114-.7.248-.069-.2-2.166.392c-.289.062-.584.113-.609.117l-.007.021a1.149,1.149,0,0,1,.052.131l.024.062-.7.248Zm.994,2.64.66-.347.1.186,1.035.134,1.437-1.444-.1-.186.66-.347.571,1.083-.66.347-.083-.158-.839.825.485.062.646-.34-.093-.175.66-.347.6,1.138-.66.347-.131-.248-2.472,1.3.131.248-.66.347-.615-1.166.66-.347.107.2.375-.2.643-.333-.01-.021c-.034,0-.285-.017-.609-.052l-.76-.086.11.21-.66.347Zm38.634,1.932,2.218,1.7.172-.223.591.454L54.2,50.174l-.591-.454.172-.223L51.56,47.8l-.254.33.433.33-.471.612-1.025-.787,1.4-1.829.591.454Zm-2.207,1.537.523.533-.21.206,1.953,2,.223-.22-.419-.43.43-.419.942.963-1.9,1.857-.942-.963.43-.419.419.43.223-.22-1.953-2-.21.206-.523-.533ZM48.717,50.81,48.473,51l1.7,2.218.244-.186.454.591-1.114.853c-.811.622-1.5.165-2.345-.935C46.592,52.47,46.3,51.717,47.1,51.1l1.155-.887Zm-2.709,2.149a.508.508,0,0,1-.516-.873.463.463,0,0,1,.66.2.456.456,0,0,1-.144.674m9.582-6.127.131-.251-2.472-1.3-.131.251-.66-.347.653-1.234.66.347-.131.251,2.472,1.3.131-.251.66.347-.653,1.234Zm1.361-.086a.354.354,0,0,1,.536-.124c.237.127.313.309.206.516a.362.362,0,0,1-.547.127.357.357,0,0,1-.2-.519m1.1-3.455-.87,2.128L56,44.934l.292-.715.492.2.155-.382-.98-.4-.258.629-.688-.282.258-.629-.918-.375-.138.34-.691-.282.56-1.372.691.282-.107.261,2.585,1.056.107-.261Zm.4-4.779-.591-.1.1-.591,1.331.22-.433,2.623-1.331-.22.1-.591.591.1.052-.309-2.757-.457-.048.289-.736-.124.234-1.4.736.124-.048.289,2.757.457Zm-.206,4.177-.715-.213.079-.272-2.678-.8-.079.272-.715-.213.4-1.337.715.213-.079.272,2.678.8.079-.272.715.213Zm3.679-7.529a26.565,26.565,0,1,0-50,12.511c.034.031.086.079.148.131a.075.075,0,0,1,.017.014,5.931,5.931,0,0,0,1.038.688,6.665,6.665,0,0,0,1.379.54c.117.031.241.062.364.089l.141.031c.1.021.21.038.32.055.089.014.182.024.278.034s.165.021.251.028c.189.017.385.028.588.028h.021a8.84,8.84,0,0,0,1.337-.1,10.576,10.576,0,0,0,1.716-.4s1.836-.664,3.28-1.214c.22-.086.11-.041.323-.127l.313-.124a17.263,17.263,0,0,1-5.154-12.2A17.068,17.068,0,1,1,40.885,51.3l5.023,5.927,1.41,1.643A26.542,26.542,0,0,0,61.926,35.159m1.733-12.539a1.678,1.678,0,0,0,.254-2.293q-.712-1.191-1.375-2.407a1.751,1.751,0,0,0-2.056-1.069c-1.19.3-2.383.574-3.576.86-.014,0-.031,0-.045.007a27.719,27.719,0,0,1,4.329,7.474c.815-.866,1.643-1.716,2.469-2.572m3.83,12.143h0c0-.4,0-.791,0-1.186a1.558,1.558,0,0,0-1.172-1.65c-.959-.316-1.932-.6-2.912-.86a4.537,4.537,0,0,1-.7-.237,27.892,27.892,0,0,1-.007,8.688c1.186-.378,2.393-.688,3.586-1.035.6-.175,1.121-.529,1.155-1.19.028-.581.041-1.162.048-1.743h.007v-.605c0-.058,0-.12,0-.182" transform="translate(-3.165 -2.951)" fill="#fff"/>
        </g>
        <g id="Group_2" data-name="Group 2" transform="translate(0)" clip-path="url(#clip-path-2)">
          <path id="Path_2" data-name="Path 2" d="M33.948,53.575l.1.083.158-.055a2.081,2.081,0,0,1-.148-.382,2.806,2.806,0,0,1-.048-.588,2.059,2.059,0,0,0-.168-.715c-.113-.254-.272-.5-.4-.753a2.479,2.479,0,0,1-.141-.426q-.026-.113-.041-.227a1.9,1.9,0,0,1-.014-.244,1.768,1.768,0,0,0-.5,1.451,2.226,2.226,0,0,0,.241.715,2.642,2.642,0,0,0,.485.605,2.415,2.415,0,0,1,.327.292.985.985,0,0,1,.148.244m1.248-1.41a1.87,1.87,0,0,0-.265,1.186c.251-.083.5-.162.75-.234a1.2,1.2,0,0,1-.083-.1,2.947,2.947,0,0,1-.241-.389,2.594,2.594,0,0,1-.162-.461m-4.944-1.437a2.62,2.62,0,0,0-1.485-.6,3.718,3.718,0,0,1,.6.746c.158.234.261.471.382.684a3.524,3.524,0,0,0,.378.581,1.474,1.474,0,0,0,.588.392,2.543,2.543,0,0,0,1.145.058,2.173,2.173,0,0,1,.6-.017l-.168-.179-.024-.017c-.12-.014-.241-.028-.358-.048a.88.88,0,0,1-.454-.237,4.956,4.956,0,0,1-.344-.378c-.076-.083-.148-.165-.217-.251s-.134-.172-.2-.258-.138-.165-.213-.244a2.428,2.428,0,0,0-.23-.23m2.62,2.984a3.978,3.978,0,0,0-.55-.375,2.3,2.3,0,0,0-.681-.241,3.722,3.722,0,0,0-.939-.028,5.332,5.332,0,0,1,1.306,1.21l.1.113c.313-.127.684-.272,1.09-.426-.11-.086-.22-.172-.33-.254m-4.49-15.351a2.809,2.809,0,0,0-.4-.715,3.491,3.491,0,0,1-.113.842c-.031.12-.069.234-.107.344s-.072.213-.107.316a2.389,2.389,0,0,0-.151.6,1.165,1.165,0,0,0,.1.622,2.214,2.214,0,0,0,.65.791,1.921,1.921,0,0,1,.368.392c.007-.072.01-.141.021-.213,0-.014,0-.028-.007-.041l-.179-.261a.753.753,0,0,1-.113-.444,3.771,3.771,0,0,1,.041-.454,8.434,8.434,0,0,0,.12-1.162,1.84,1.84,0,0,0-.127-.615M32.514,32.2a2.065,2.065,0,0,0,.206-1.282,2.977,2.977,0,0,1-.237.333,2.649,2.649,0,0,1-.241.268c-.165.158-.323.289-.474.413-.076.062-.148.124-.213.186a1.67,1.67,0,0,0-.179.206,1.053,1.053,0,0,0-.213.529,2.033,2.033,0,0,0,.134.925,1.731,1.731,0,0,1,.1.468c.041-.052.079-.107.12-.158,0-.01.007-.017.01-.028l-.014-.282a1.238,1.238,0,0,1,.368-.732c.11-.144.223-.282.337-.416a2.966,2.966,0,0,0,.3-.43M34.739,31.1c-.01.021-.017.048-.028.065h0c.01-.017.017-.045.028-.065m-.763.643h0a.668.668,0,0,1-.083.007h0a.571.571,0,0,0,.083-.007m-.086.01c-.089.086-.168.175-.254.265h0c.086-.089.165-.179.254-.265m-1.712,1.692c-.007,0-.014,0-.021,0h0l-.213.316h0l.213-.316h0c.01,0,.017,0,.024,0m-.791.849a.487.487,0,0,1-.017.162h0a.477.477,0,0,0,.017-.162m-.77,1.365-.089.2h0Zm-.457.571c-.024.107-.045.213-.065.32.021-.107.041-.213.065-.32h0m-.987,2.438,0,.392,0-.392Zm-.371,5h0c-.017-.093-.031-.189-.045-.285.014.1.028.193.045.285m-.089-1.925h0c-.021-.086-.031-.172-.045-.261.014.089.028.175.045.261m0,2.6-.062-.162h0Zm.584,2.156a.044.044,0,0,0,0-.021.044.044,0,0,1,0,.021Zm.007.767a.615.615,0,0,1,.162.148.679.679,0,0,0-.162-.148m.846,1.609h0l.241.382Zm.3.966.144.151.172.165-.172-.165ZM36.4,29.516a1.89,1.89,0,0,0,.557-1.083,2.523,2.523,0,0,1-.6.4,4.553,4.553,0,0,1-.543.223,1.311,1.311,0,0,0-.811.636,1.936,1.936,0,0,0-.162.86,1.619,1.619,0,0,1-.052.433h0c-.134.093-.278.2-.437.313A14.9,14.9,0,0,0,33.137,32.3l.01-.021.031-.268a1.192,1.192,0,0,1,.471-.639c.131-.12.261-.23.389-.344a2.241,2.241,0,0,0,.358-.364,1.7,1.7,0,0,0,.268-.481,1.923,1.923,0,0,0,.083-.323,3,3,0,0,0,.048-.389,3.69,3.69,0,0,1-1.066.822,2.07,2.07,0,0,0-.44.313,1.034,1.034,0,0,0-.289.468,2.01,2.01,0,0,0-.024.9,1.794,1.794,0,0,1,.021.457c.021-.021.045-.041.065-.062-.021.021-.045.041-.065.062h0A14.191,14.191,0,0,0,31.51,34.1c-.038.052-.079.1-.12.158-.065.086-.127.175-.193.265a13.822,13.822,0,0,0-1.038,1.709c0-.01,0-.024.007-.034l-.065-.285a.708.708,0,0,1,.052-.43c.055-.134.127-.265.189-.385.086-.165.182-.323.268-.485a2.564,2.564,0,0,0,.23-.492,2.135,2.135,0,0,0-.014-1.341,4.046,4.046,0,0,1-.787,1.2,2.359,2.359,0,0,0-.333.471,1.1,1.1,0,0,0-.124.574,1.62,1.62,0,0,0,.076.413,2.909,2.909,0,0,0,.223.5,1.926,1.926,0,0,1,.186.461l.062-.124-.062.124h0a14.585,14.585,0,0,0-.9,2.259v-.041c-.041-.093-.079-.186-.117-.278a.782.782,0,0,1-.031-.444c.031-.148.086-.289.124-.426.048-.186.124-.361.182-.54a3.242,3.242,0,0,0,.144-.543,2.017,2.017,0,0,0,.021-.292,2.052,2.052,0,0,0-.024-.316,2.814,2.814,0,0,0-.254-.753,3.065,3.065,0,0,1-.261.777,5.79,5.79,0,0,1-.323.588,3.163,3.163,0,0,0-.251.54,1.2,1.2,0,0,0-.017.609,2.216,2.216,0,0,0,.474.873,2.134,2.134,0,0,1,.278.433h0a14.563,14.563,0,0,0-.351,1.54c-.052.309-.089.626-.124.942h0c-.007.069-.014.141-.021.21.014.021.017.041.031.062a.52.52,0,0,0-.031-.062c-.017.206-.034.413-.041.622a14.876,14.876,0,0,0,.045,1.833c.007.058.014.117.021.172l-.017-.041c-.083-.076-.155-.151-.234-.227a.836.836,0,0,1-.21-.423c-.028-.158-.031-.32-.048-.468-.028-.2-.024-.406-.034-.605a4.273,4.273,0,0,0-.072-.591,1.975,1.975,0,0,0-.1-.3,1.881,1.881,0,0,0-.148-.3,3.193,3.193,0,0,0-.543-.643,3.562,3.562,0,0,1,.048.873,6.844,6.844,0,0,1-.086.712,3.059,3.059,0,0,0-.031.633,1.288,1.288,0,0,0,.227.609,2.334,2.334,0,0,0,.815.667,2.086,2.086,0,0,1,.454.316.634.634,0,0,1,.127.172h0a.545.545,0,0,0-.127-.172,13.157,13.157,0,0,0,.244,1.458l.048.23.058.227.12.454.093.3-.021-.031-.289-.182a.851.851,0,0,1-.292-.385,3.573,3.573,0,0,1-.148-.461c-.058-.2-.11-.406-.165-.6a2.965,2.965,0,0,0-.2-.581,1.892,1.892,0,0,0-.368-.554,3.142,3.142,0,0,0-.677-.536,3.187,3.187,0,0,1,.148.457,3.366,3.366,0,0,1,.083.413c.034.265.045.505.062.732a2.4,2.4,0,0,0,.1.643,1.24,1.24,0,0,0,.351.567,2.36,2.36,0,0,0,.959.505,2.006,2.006,0,0,1,.519.227c.041.131.083.258.134.385a13.636,13.636,0,0,0,1.011,2.194l-.021-.021-.33-.124a.775.775,0,0,1-.378-.323c-.1-.141-.172-.292-.251-.43-.1-.193-.193-.385-.292-.571a3.084,3.084,0,0,0-.32-.543,2.3,2.3,0,0,0-.485-.481,2.6,2.6,0,0,0-.354-.21,4.536,4.536,0,0,0-.44-.193,4.837,4.837,0,0,1,.629,1.557,2.591,2.591,0,0,0,.237.629,1.323,1.323,0,0,0,.193.268,1.382,1.382,0,0,0,.285.227,1.859,1.859,0,0,0,.447.193,3.316,3.316,0,0,0,.629.107,2.133,2.133,0,0,1,.574.117h0A14.328,14.328,0,0,0,32.3,52.375l.21.134-.21-.134c.055.062.11.12.168.179a.689.689,0,0,1,.22.069.689.689,0,0,0-.22-.069,14.306,14.306,0,0,0,1.124,1.073c.052.041.1.083.151.127.072-.028.148-.052.22-.079a.05.05,0,0,1,.024-.007l0,0h0a.724.724,0,0,0-.034-.1l-.179-.144a14.116,14.116,0,0,1-1.681-1.681h0a2.608,2.608,0,0,1-.141-.715,2.39,2.39,0,0,1,.076-.567,2.01,2.01,0,0,0-.007-.719c-.041-.272-.165-.523-.217-.8a1.991,1.991,0,0,1-.048-.433,2.716,2.716,0,0,1,.045-.464,1.972,1.972,0,0,0-.557.581,1.649,1.649,0,0,0-.155.337,1.744,1.744,0,0,0-.069.354,2.19,2.19,0,0,0,0,.368,2.214,2.214,0,0,0,.076.364,3.4,3.4,0,0,0,.134.354,2.831,2.831,0,0,0,.2.327,3.414,3.414,0,0,1,.248.351.731.731,0,0,1,.089.265c.041.055.086.107.131.158-.045-.055-.086-.107-.131-.158a1.041,1.041,0,0,1,.007.107v0c.1.113.217.22.327.327-.113-.107-.223-.213-.327-.327v0a1.043,1.043,0,0,0-.007-.107,14.06,14.06,0,0,1-1.375-2.118v.024h0v-.024c-.021-.038-.038-.076-.058-.113.021.038.038.076.058.113A2.921,2.921,0,0,1,30.4,48.5a3.1,3.1,0,0,1,.193-.526,1.663,1.663,0,0,0,.1-.347,1.918,1.918,0,0,0,.041-.34c0-.265-.041-.533-.041-.811a1.835,1.835,0,0,1,.045-.426,2.613,2.613,0,0,1,.134-.433,1.685,1.685,0,0,0-1,1.055,2.043,2.043,0,0,0-.079.712,2.391,2.391,0,0,0,.175.719,2.545,2.545,0,0,1,.165.385.909.909,0,0,1,.028.278h0a.27.27,0,0,1-.007.048c0-.017,0-.031.007-.048a12.431,12.431,0,0,1-.509-1.207c-.058-.144-.107-.289-.151-.437l-.141-.44-.058-.217a1.882,1.882,0,0,1,.447-1.141,1.894,1.894,0,0,0,.275-.626c.028-.127.045-.258.062-.389s.031-.265.055-.4a2.213,2.213,0,0,1,.347-.787,1.8,1.8,0,0,0-.712.3,1.614,1.614,0,0,0-.461.516,1.9,1.9,0,0,0-.213.667,2.428,2.428,0,0,0,.024.722,2.35,2.35,0,0,1,.083.4.82.82,0,0,1-.031.272l0,.01,0-.01c-.01.028-.021.055-.031.086a.524.524,0,0,0,.031-.086l-.045-.2a14.2,14.2,0,0,1-.292-1.812c-.01-.113-.017-.227-.028-.34h0a2.584,2.584,0,0,1,.285-.622,2.2,2.2,0,0,1,.364-.385,1.791,1.791,0,0,0,.382-.547,2.629,2.629,0,0,0,.134-.358q.057-.186.134-.371a2.182,2.182,0,0,1,.478-.688,1.6,1.6,0,0,0-1.269.55,1.748,1.748,0,0,0-.333.595,2.148,2.148,0,0,0-.12.691,3.035,3.035,0,0,1,0,.4.672.672,0,0,1-.079.254c-.01-.33-.014-.657,0-.983.017-.447.055-.887.11-1.32,0,.007-.007.01-.01.017h0a.075.075,0,0,1,.01-.017c.021-.144.038-.289.062-.433l-.062.433a2.482,2.482,0,0,1,.392-.536,2.428,2.428,0,0,1,.419-.3,1.737,1.737,0,0,0,.471-.45c.148-.2.248-.43.4-.646a2.063,2.063,0,0,1,.588-.567,1.73,1.73,0,0,0-.729,0,1.512,1.512,0,0,0-.588.285,2.036,2.036,0,0,0-.677,1.141,2.377,2.377,0,0,1-.076.378.752.752,0,0,1-.127.227,13.9,13.9,0,0,1,.54-2.169l-.017.017h0c.028-.134.058-.261.093-.4h0c.028-.017.048-.034.072-.052a14.242,14.242,0,0,1,.9-1.96h0a2.485,2.485,0,0,1,.529-.337,2.66,2.66,0,0,1,.474-.117,1.679,1.679,0,0,0,.567-.237c.193-.131.371-.3.567-.44a2.039,2.039,0,0,1,.715-.306,1.483,1.483,0,0,0-1.262-.186,1.866,1.866,0,0,0-.55.3,2.391,2.391,0,0,0-.433.478,1.874,1.874,0,0,1-.2.306.694.694,0,0,1-.189.155h0s-.01,0-.014.007.01,0,.014-.007c.179-.3.364-.584.554-.853.21-.3.423-.584.639-.849h0a2.217,2.217,0,0,1,.564-.23,2.483,2.483,0,0,1,.471-.034,1.518,1.518,0,0,0,.584-.131c.21-.086.4-.22.619-.323a1.945,1.945,0,0,1,.736-.175,1.436,1.436,0,0,0-1.176-.389,1.853,1.853,0,0,0-1.073.578,2.454,2.454,0,0,1-.241.258.667.667,0,0,1-.206.117c-.062.072-.124.144-.186.22.062-.072.124-.148.186-.217h0A14.086,14.086,0,0,1,33.652,32h0q.144-.046.278-.083a1.748,1.748,0,0,1,.3-.041,2.467,2.467,0,0,1,.454.045,1.481,1.481,0,0,0,.581-.027c.217-.048.423-.144.646-.21a2.053,2.053,0,0,1,.732-.052,1.4,1.4,0,0,0-1.062-.56,1.822,1.822,0,0,0-1.121.378,3.135,3.135,0,0,1-.272.206.638.638,0,0,1-.213.076c.155-.127.306-.244.447-.351.22-.162.413-.306.591-.419s.323-.217.45-.289l.282-.172c.038-.024.062-.038.079-.048L35.7,30.4s0,0-.007,0c-.065.038-.162.1-.285.172s-.278.172-.454.289h0L34.832,31a.539.539,0,0,0-.058.072c.021-.024.038-.045.058-.072.048-.055.093-.11.117-.134h0c.01,0,.014,0,.014,0l.072-.248c.076-.272.347-.4.547-.54a7.346,7.346,0,0,0,.822-.56M29.647,37.8h0a.657.657,0,0,1-.072.052h0c-.034.131-.069.261-.1.392l.017-.017a2.528,2.528,0,0,1,.471-.437,2.1,2.1,0,0,1,.457-.206,1.678,1.678,0,0,0,.529-.344,2.259,2.259,0,0,0,.244-.268c.079-.093.162-.189.251-.278a2.034,2.034,0,0,1,.664-.44,1.5,1.5,0,0,0-1.306.038,1.934,1.934,0,0,0-.853.97,2.551,2.551,0,0,1-.144.347.839.839,0,0,1-.162.193m7.488-7.351c.526-.337.7-.763,1.31-.949a1.474,1.474,0,0,0-1.489-.2c-.526.285-.66.767-1.135,1.028a1.428,1.428,0,0,0-.12.083l.124.052a1.317,1.317,0,0,0,1.31-.01" transform="translate(-10.359 -10.616)" fill="#fff"/>
        </g>
        <g id="Group_3" data-name="Group 3" transform="translate(0)" clip-path="url(#clip-path-2)">
          <path id="Path_3" data-name="Path 3" d="M60.318,32.3c.045.045.093.086.141.134a1.534,1.534,0,0,1,.021-.457,2.01,2.01,0,0,0-.024-.9,1,1,0,0,0-.289-.468,2.07,2.07,0,0,0-.44-.313,3.629,3.629,0,0,1-1.066-.822,3,3,0,0,0,.048.389,1.922,1.922,0,0,0,.083.323,1.579,1.579,0,0,0,.268.481,2.391,2.391,0,0,0,.358.364c.127.113.258.227.389.344a1.192,1.192,0,0,1,.471.639l.031.268.01.021m4.421,9.431h0c.031-.131.048-.265.069-.4h0c-.021.134-.038.265-.069.4m.055,2.585c.007-.048.01-.1.017-.144h0c-.007.048-.014.1-.017.144m-.117.189-.017.048h0Zm-.1-3.634h0s0-.007-.007-.01,0,.007.007.01l-.017-.416h0Zm-.6-2.634Zm-.093-.392Zm-.956-2h0l-.038-.083Zm-.839-1.4c-.017-.052-.041-.1-.058-.151.017.052.038.1.058.151Zm-.574-.688s-.01,0-.014-.007.007,0,.014.007l-.213-.316h0Zm-1.695-1.75h0c-.034-.034-.069-.072-.1-.11.034.038.069.072.1.11m-1.073-.853h0a.44.44,0,0,1-.045-.1.381.381,0,0,0,.045.1m5.57,14.925h0a.193.193,0,0,1-.014-.041.287.287,0,0,1,.014.041Zm-.065.041-.031.117-.024.086.024-.086Zm-1.437,3.961a.543.543,0,0,0-.117.065h0a.941.941,0,0,1,.117-.065m-1.128,1.365c-.1.113-.217.22-.327.327.11-.107.223-.213.327-.327Zm-.526.935h0l-.134.086ZM58.7,54.535c-.148.052-.292.1-.437.151h0C58.4,54.635,58.551,54.587,58.7,54.535ZM56.75,55.4h0l-.457.158.457-.158Zm-1.011.7c-.052.021-.1.038-.148.055.048-.017.1-.034.148-.055h0m-.426.045c-.021,0-.045,0-.065.007a.381.381,0,0,0,.065-.007M66.053,43.4a1.312,1.312,0,0,0,.227-.609,3.048,3.048,0,0,0-.031-.633,6.839,6.839,0,0,1-.086-.712,3.562,3.562,0,0,1,.048-.873,3.193,3.193,0,0,0-.543.643,1.88,1.88,0,0,0-.148.3,2.111,2.111,0,0,0-.1.3,3.811,3.811,0,0,0-.076.591c-.014.2-.01.4-.034.605-.017.148-.021.309-.048.468a.836.836,0,0,1-.21.423c-.079.079-.151.155-.234.23l-.017.041c.007-.058.014-.117.017-.172a15.584,15.584,0,0,0,.045-1.833c-.01-.21-.024-.416-.041-.622,0-.017,0-.034,0-.048,0,.017,0,.034,0,.048a1.836,1.836,0,0,1,.368-.392,2.213,2.213,0,0,0,.65-.791,1.2,1.2,0,0,0,.1-.622,2.454,2.454,0,0,0-.148-.6c-.034-.1-.072-.206-.107-.316s-.076-.223-.107-.344a3.467,3.467,0,0,1-.113-.842,2.753,2.753,0,0,0-.4.715,1.805,1.805,0,0,0-.12.615,8.432,8.432,0,0,0,.12,1.162,3.837,3.837,0,0,1,.041.454A.786.786,0,0,1,65,41.03l-.179.261c0,.014,0,.024-.007.038-.031-.316-.072-.633-.124-.942a14.367,14.367,0,0,0-.351-1.54.57.57,0,0,0-.052.2h0a.506.506,0,0,1,.052-.2c-.014-.048-.027-.1-.041-.148.014.048.028.1.041.148h0a1.942,1.942,0,0,1,.278-.437,2.216,2.216,0,0,0,.474-.873,1.243,1.243,0,0,0-.017-.609,3.047,3.047,0,0,0-.251-.54A5.79,5.79,0,0,1,64.5,35.8a3.161,3.161,0,0,1-.261-.777,3.035,3.035,0,0,0-.254.753,2.051,2.051,0,0,0-.024.316,1.982,1.982,0,0,0,.021.292,3.24,3.24,0,0,0,.144.543c.058.179.134.354.182.54.038.134.093.278.124.426a.782.782,0,0,1-.031.444c-.041.093-.076.186-.117.278v.041a14.586,14.586,0,0,0-.9-2.259h0a1.744,1.744,0,0,1,.186-.461,2.82,2.82,0,0,0,.223-.505,1.647,1.647,0,0,0,.076-.413,1.1,1.1,0,0,0-.124-.574,2.359,2.359,0,0,0-.333-.471,3.98,3.98,0,0,1-.787-1.2,2.134,2.134,0,0,0-.014,1.341,2.578,2.578,0,0,0,.234.492c.086.162.182.32.268.485.062.12.134.251.189.385a.7.7,0,0,1,.052.426l-.065.285c0,.01,0,.024.007.034h0c.028.127.055.254.076.382h0c-.021-.127-.048-.254-.076-.382a13.82,13.82,0,0,0-1.038-1.709c-.062-.089-.127-.179-.193-.265a1.731,1.731,0,0,1,.1-.468,2.038,2.038,0,0,0,.134-.925,1.066,1.066,0,0,0-.213-.529,2.023,2.023,0,0,0-.179-.206c-.065-.065-.141-.124-.213-.186-.151-.124-.309-.258-.474-.413a2.649,2.649,0,0,1-.241-.268,3.034,3.034,0,0,1-.237-.337,2.064,2.064,0,0,0,.206,1.282,2.385,2.385,0,0,0,.3.433c.11.138.223.275.337.416a1.229,1.229,0,0,1,.368.732l-.017.282c0,.01.007.017.01.028.028.034.052.069.079.107-.028-.034-.052-.069-.079-.107h0a13.885,13.885,0,0,0-1.485-1.657c0,.014.01.028.01.041a.145.145,0,0,1-.01-.041c-.048-.045-.1-.089-.141-.134.065.11.131.217.2.327h0c-.062-.11-.131-.217-.2-.327A14.44,14.44,0,0,0,59.1,31.283c-.158-.113-.3-.22-.437-.313h0a1.634,1.634,0,0,1-.052-.433,1.925,1.925,0,0,0-.162-.86,1.335,1.335,0,0,0-.811-.636,4.552,4.552,0,0,1-.543-.223,2.456,2.456,0,0,1-.6-.4,1.932,1.932,0,0,0,.557,1.083,7.042,7.042,0,0,0,.822.56c.2.144.471.272.547.54l.072.248a.041.041,0,0,0,.014.014h0l.117.134c.048.055.086.1.107.127-.021-.028-.058-.072-.107-.127s-.093-.11-.117-.134h0c-.175-.117-.327-.217-.454-.289s-.223-.134-.285-.172c0,0,0,0-.007,0-.038-.021-.069-.052-.12-.083-.478-.261-.609-.746-1.135-1.028a1.49,1.49,0,0,0-1.489.2c.612.182.787.612,1.31.949a1.311,1.311,0,0,0,1.306.01c.017.01.041.024.079.048.065.038.158.1.282.172s.275.172.45.289.371.258.591.419c.141.107.292.223.45.351a.571.571,0,0,0,.083.007h0a.571.571,0,0,1-.083-.007h0a.638.638,0,0,1-.213-.076A2.688,2.688,0,0,1,59,31.452a1.844,1.844,0,0,0-1.121-.378,1.4,1.4,0,0,0-1.062.56,2.049,2.049,0,0,1,.732.048c.223.065.43.162.646.21a1.419,1.419,0,0,0,.581.028,2.222,2.222,0,0,1,.454-.045,2.134,2.134,0,0,1,.292.041c.089.024.182.052.282.083-.1-.089-.2-.172-.3-.251.1.079.2.162.3.251.007,0,.014,0,.021.007h0c-.007,0-.014,0-.021-.007a14.087,14.087,0,0,1,1.42,1.417h0c.058.069.12.141.179.213-.058-.072-.12-.144-.179-.213a.667.667,0,0,1-.206-.117,2.848,2.848,0,0,1-.241-.258,1.853,1.853,0,0,0-1.073-.578,1.436,1.436,0,0,0-1.176.389,2.011,2.011,0,0,1,.736.175c.217.1.406.237.619.323a1.518,1.518,0,0,0,.584.131,2.229,2.229,0,0,1,.471.034,2.294,2.294,0,0,1,.564.23h0c.217.265.43.547.639.849.189.268.375.554.554.853.024.014.048.024.076.038h0c-.027-.014-.052-.024-.076-.038a.75.75,0,0,1-.189-.155,1.923,1.923,0,0,1-.2-.306,2.3,2.3,0,0,0-.433-.478,1.956,1.956,0,0,0-.55-.3,1.5,1.5,0,0,0-1.262.186,2.155,2.155,0,0,1,.712.306c.2.144.375.309.567.44a1.751,1.751,0,0,0,.567.237,2.66,2.66,0,0,1,.474.117,2.573,2.573,0,0,1,.529.337h0s.007,0,.007.007,0,0-.007-.007a14.058,14.058,0,0,1,.9,1.96.7.7,0,0,1-.158-.193,3.045,3.045,0,0,1-.148-.344,1.95,1.95,0,0,0-.853-.97,1.52,1.52,0,0,0-1.31-.041,2.079,2.079,0,0,1,.664.444c.089.089.172.186.251.278a2.6,2.6,0,0,0,.244.268,1.717,1.717,0,0,0,.529.344,2.1,2.1,0,0,1,.457.206,2.528,2.528,0,0,1,.471.437.047.047,0,0,1,.01.014.047.047,0,0,1-.01-.014,13.9,13.9,0,0,1,.54,2.169c.017.021.034.038.052.058-.017-.021-.038-.038-.052-.055h0a.685.685,0,0,1-.127-.227,2.377,2.377,0,0,1-.076-.378,2.013,2.013,0,0,0-.677-1.141,1.536,1.536,0,0,0-.588-.285,1.733,1.733,0,0,0-.729,0,2.063,2.063,0,0,1,.588.567c.144.213.248.447.4.646a1.69,1.69,0,0,0,.471.45,2.7,2.7,0,0,1,.419.3,2.569,2.569,0,0,1,.392.536h0c.055.433.093.873.11,1.32.007.327.007.653,0,.983a.739.739,0,0,1-.079-.254,3.035,3.035,0,0,1,0-.4,2.116,2.116,0,0,0-.12-.691,1.748,1.748,0,0,0-.334-.595,1.6,1.6,0,0,0-1.269-.55,2.17,2.17,0,0,1,.474.688c.052.124.1.248.138.371a2.469,2.469,0,0,0,.134.358,1.853,1.853,0,0,0,.382.547,2.336,2.336,0,0,1,.364.385,2.524,2.524,0,0,1,.285.622c0,.007,0,.014.007.021h0c0-.007,0-.014-.007-.021-.007.113-.014.227-.028.34a14.2,14.2,0,0,1-.292,1.812l-.045.2h0l0,.014,0-.014a.68.68,0,0,1-.031-.272,2.35,2.35,0,0,1,.083-.4,2.427,2.427,0,0,0,.021-.722,2,2,0,0,0-.213-.667,1.614,1.614,0,0,0-.461-.516,1.907,1.907,0,0,0-.712-.3,2.213,2.213,0,0,1,.347.787c.028.134.038.268.055.4s.034.261.062.389a1.884,1.884,0,0,0,.272.626,2.942,2.942,0,0,1,.289.461,2.6,2.6,0,0,1,.158.681h0c0,.007,0,.014,0,.024h0c0-.007,0-.014,0-.024l-.058.217-.141.44c-.045.148-.093.292-.151.437a12.429,12.429,0,0,1-.509,1.207c0,.014,0,.024,0,.038,0-.01,0-.024,0-.038a.9.9,0,0,1,.028-.278,2.7,2.7,0,0,1,.165-.385,2.5,2.5,0,0,0,.175-.719,1.965,1.965,0,0,0-.079-.712,1.682,1.682,0,0,0-1.007-1.055,2.613,2.613,0,0,1,.134.433,1.816,1.816,0,0,1,.045.426c0,.278-.048.55-.041.811a1.918,1.918,0,0,0,.041.34,1.7,1.7,0,0,0,.1.344,3.136,3.136,0,0,1,.2.526,3.1,3.1,0,0,1,.014.719c.062-.113.117-.23.175-.347-.058.117-.113.234-.175.347a.051.051,0,0,1,0,.024h0l.241-.382h0l-.241.382h0v-.024a13.888,13.888,0,0,1-1.375,2.118.154.154,0,0,0,0,.038.129.129,0,0,1,0-.038h0a.731.731,0,0,1,.089-.265,4.043,4.043,0,0,1,.248-.351,3.157,3.157,0,0,0,.2-.327,2.767,2.767,0,0,0,.134-.354,1.908,1.908,0,0,0,.076-.364,1.88,1.88,0,0,0,0-.368,1.745,1.745,0,0,0-.069-.354,1.569,1.569,0,0,0-.155-.337,1.934,1.934,0,0,0-.557-.581,2.409,2.409,0,0,1,.045.464,1.991,1.991,0,0,1-.048.433c-.052.282-.172.533-.217.8a1.934,1.934,0,0,0-.007.719,2.368,2.368,0,0,1,.076.567,2.743,2.743,0,0,1-.141.715c.065-.076.127-.158.193-.234-.062.079-.127.158-.193.234,0,.007,0,.014-.007.021s0-.014.007-.021a13.623,13.623,0,0,1-1.681,1.681c-.058.052-.12.1-.179.148,0,.01-.007.024-.01.034,0-.01.007-.024.01-.038a.985.985,0,0,1,.148-.244,2.643,2.643,0,0,1,.327-.292,2.624,2.624,0,0,0,.485-.605,2.2,2.2,0,0,0,.241-.715,1.768,1.768,0,0,0-.5-1.451c0,.083-.007.165-.014.244s-.028.155-.041.227a2.479,2.479,0,0,1-.141.426c-.127.261-.285.5-.4.753a2.159,2.159,0,0,0-.168.715,3.082,3.082,0,0,1-.048.588,3.315,3.315,0,0,1-.3.677h0a14.2,14.2,0,0,1-2.279,1.4.219.219,0,0,0-.028.048c.01-.017.021-.034.028-.048h0a.862.862,0,0,1,.2-.206,2.92,2.92,0,0,1,.4-.213,2.267,2.267,0,0,0,1.025-1.152,1.8,1.8,0,0,0-.172-1.561,2.8,2.8,0,0,1-.162.461,2.624,2.624,0,0,1-.241.389,3.421,3.421,0,0,1-.289.33,3.5,3.5,0,0,0-.275.33,1.976,1.976,0,0,0-.33.677,3.091,3.091,0,0,1-.186.571,2.849,2.849,0,0,1-.457.609c.072-.031.144-.069.217-.1l-.217.1a.173.173,0,0,0-.024.028h0a.172.172,0,0,0,.024-.028,13.544,13.544,0,0,1-2.19.763c-.024.007-.048.01-.072.017,0,.01,0,.021,0,.031.079.079.155.162.234.244.4-.107.8-.234,1.214-.385h0a1.492,1.492,0,0,1,.172.069,2.953,2.953,0,0,1,.382.22,3.381,3.381,0,0,0,.6.337,1.9,1.9,0,0,0,.509.141,1.494,1.494,0,0,0,.392,0,1.616,1.616,0,0,0,.347-.1,2.749,2.749,0,0,0,.629-.371c.21-.151.426-.309.677-.471a4.262,4.262,0,0,1,.416-.223,3.571,3.571,0,0,1,.5-.206,3.7,3.7,0,0,0-.945-.189,2.178,2.178,0,0,0-.736.083,3.411,3.411,0,0,0-.639.244c-.21.089-.416.193-.633.285a1.558,1.558,0,0,1-1.042.206l-.364-.12a.021.021,0,0,0-.014,0A14.553,14.553,0,0,0,58.5,54.676c-.007,0-.014,0-.021,0H58.5c.062-.041.124-.083.186-.127-.062.041-.124.086-.186.127a2.427,2.427,0,0,1,.595.151,2.49,2.49,0,0,0,1.155.2,1.771,1.771,0,0,0,1.193-.75,5.327,5.327,0,0,1,1.306-1.207,3.722,3.722,0,0,0-.939.028,2.341,2.341,0,0,0-.681.241,3.6,3.6,0,0,0-.55.375c-.179.134-.347.282-.536.413-.138.093-.278.206-.433.3a.875.875,0,0,1-.509.131l-.371-.031-.034.01a14.645,14.645,0,0,0,1.169-.894,13.729,13.729,0,0,0,1.124-1.073.689.689,0,0,0-.22.069h0a.689.689,0,0,1,.22-.069,1.058,1.058,0,0,1,.086-.089c-.027.031-.058.062-.086.093a2.178,2.178,0,0,1,.6.014,2.6,2.6,0,0,0,1.145-.058,1.427,1.427,0,0,0,.588-.392,3.02,3.02,0,0,0,.378-.581c.12-.21.223-.447.382-.684a3.8,3.8,0,0,1,.6-.743,2.63,2.63,0,0,0-1.485.6c-.083.072-.155.151-.23.23s-.144.162-.213.244-.134.172-.2.258-.144.168-.217.251a4.382,4.382,0,0,1-.344.378.906.906,0,0,1-.454.237c-.117.021-.237.034-.358.048l-.024.017a14.211,14.211,0,0,0,1.733-2.345h0a2.107,2.107,0,0,1,.574-.117,3.317,3.317,0,0,0,.629-.107,1.733,1.733,0,0,0,.447-.2,1.612,1.612,0,0,0,.285-.223,1.426,1.426,0,0,0,.193-.268,2.747,2.747,0,0,0,.241-.629,5,5,0,0,1,.629-1.557,4.194,4.194,0,0,0-.444.189,2.293,2.293,0,0,0-.354.21,2.136,2.136,0,0,0-.485.478,3.623,3.623,0,0,0-.32.543c-.1.186-.189.382-.292.571-.079.138-.155.292-.251.43a.791.791,0,0,1-.378.323l-.33.124-.021.021a13.6,13.6,0,0,0,1.011-2.19c.048-.127.093-.254.131-.385a.615.615,0,0,0-.162.148h0l.065-.107-.065.1a.615.615,0,0,1,.162-.148h0l.021-.062.048-.148-.045.148-.021.062a1.9,1.9,0,0,1,.519-.227,2.336,2.336,0,0,0,.959-.505,1.24,1.24,0,0,0,.351-.567,2.441,2.441,0,0,0,.1-.643c.014-.227.027-.471.062-.732a4.162,4.162,0,0,1,.083-.413,3.188,3.188,0,0,1,.148-.457,3.142,3.142,0,0,0-.677.536,1.916,1.916,0,0,0-.368.554,2.966,2.966,0,0,0-.2.581c-.055.2-.1.4-.165.6a3.57,3.57,0,0,1-.148.461.833.833,0,0,1-.292.385l-.289.182-.021.031.093-.3.12-.454.058-.227.048-.23a13.154,13.154,0,0,0,.244-1.458h0a.7.7,0,0,0-.045.062.7.7,0,0,1,.045-.062h0a1.973,1.973,0,0,1,.454-.316,2.342,2.342,0,0,0,.815-.67" transform="translate(-18.473 -10.613)" fill="#fff"/>
        </g>
        <g id="Group_4" data-name="Group 4" transform="translate(0)" clip-path="url(#clip-path-2)">
          <path id="Path_4" data-name="Path 4" d="M45.853,50.418c1.086.182,1.227.01,1.379-.206.127.4.822.34,1.344.354-1.413.67-1.059,2.059-1.458,3.459-.272-1.427.2-2.761-1.265-3.607M45.5,38.148c-1.588-.674-3.166-1.375-4.741-2.083a.877.877,0,0,0-1.331.516c-.725,1.506-1.472,3-2.279,4.466a1.511,1.511,0,0,0,.155,1.833c1.417,1.967,2.744,4,4.2,5.938a3.568,3.568,0,0,1,.681,2.716c-.076.746-.131,1.492-.179,2.245a9.9,9.9,0,0,1,5.735,2.661,13.069,13.069,0,0,0,3.225-.945c-.065-1.372-.138-2.713-.155-4.054a4.186,4.186,0,0,1,.3-1.6c.626-1.547,1.368-3.05,1.96-4.611a15.231,15.231,0,0,0,.488-2.524c-.994,1.038-1.8,1.843-2.565,2.692a.826.826,0,0,1-1.169.223c-.571-.327-1.155-.626-1.8-.973-.285,1.437-.557,2.788-.825,4.143-.6-.966-.976-1.977-1.468-2.929a5.881,5.881,0,0,0-1.214-1.626c-1.066-.97-2.211-1.85-3.335-2.775l.688-1.475c.454.138.822.272,1.2.358a2.315,2.315,0,0,0,2.792-1.255c.155-.423.124-.729-.364-.939m-.825-3c1.028-1.867.952-2.063-1.111-2.775A2.006,2.006,0,0,0,42.9,32.2a.654.654,0,0,0-.5.285c-.519.966-.99,1.96-1.5,2.984l2.916,1.217c.32-.574.591-1.055.86-1.544m3.8,1.74c.5-.77,1.241-1.52.739-2.08a6.944,6.944,0,0,0-2.049-1.368,1.789,1.789,0,0,0-.454-.134.534.534,0,0,0-.478.3c-.619,1.076-1.193,2.18-1.76,3.239.8.877,2.83.581,2.29,2.61.547-.87,1.155-1.712,1.712-2.568m3.507,1.826c.134-.165.419-.468.364-.633a1.153,1.153,0,0,0-.337-.45c-.509-.471-1.031-.932-1.568-1.375-.444-.368-.76-.261-1.069.237-.7,1.138-1.458,2.245-2.194,3.359-1.025,1.551-1.014,1.626.55,2.692.024.017.052.024.069.045.423.385.743.309,1.1-.138,1.007-1.258,2.056-2.489,3.084-3.737m.925.664c-.107-.086-.227-.155-.4-.275q-1.449,1.692-2.885,3.362c-.839.973-.8,1.365.3,2.049a.876.876,0,0,0,.815-.055c.794-.7,1.523-1.468,2.29-2.2,1.389-1.32,1.382-1.633-.117-2.885" transform="translate(-13.318 -11.75)" fill="#fff"/>
        </g>
        <g id="Group_5" data-name="Group 5" transform="translate(0)" clip-path="url(#clip-path-2)">
          <path id="Path_5" data-name="Path 5" d="M43.923,68.518A11.742,11.742,0,0,0,37.662,64.4c-2.513-.591-5.969.8-5.969.8l-5.054,2.07A21.2,21.2,0,0,1,21.881,68.6a6.131,6.131,0,0,1-5.088-1.516A7.008,7.008,0,0,0,20.984,69.5c2.634.34,6.147-1.093,6.147-1.093,2.393-1.093,6.147-2.482,6.147-2.482a11.417,11.417,0,0,1,4.366-.708,9.1,9.1,0,0,1,6.278,3.3m.151.193s-.055-.076-.151-.193c.048.065.1.124.151.193m-6.268.763c-.272-.168-.54-.34-.811-.512.069-.313.141-.622.21-.939-.007.007-.01.007-.014.01-.223.2-.45.4-.674.605a.018.018,0,0,1-.028,0c-.258-.168-.516-.337-.77-.505l-.017-.01a.049.049,0,0,0,.007.021c.124.289.244.574.368.863,0,.01.007.017,0,.028-.193.168-.388.333-.581.5-.038.034-.076.065-.117.1h.014c.3-.024.6-.045.9-.069a.027.027,0,0,1,.031.021c.117.289.234.574.351.863,0,.007,0,.01.007.017a.049.049,0,0,0,.007-.021c.062-.3.124-.6.186-.9a.023.023,0,0,1,.024-.021c.275-.014.55-.031.829-.045.028,0,.055,0,.083-.007,0,0,0,0,0,0M35.08,68.229h0m1.1,2.651c0-.024,0-.048.007-.072h0s0,.01,0,.014a2.286,2.286,0,0,1-.344.743,2.26,2.26,0,0,1-.756.674,2.3,2.3,0,0,1-.509.2,2.2,2.2,0,0,1-1.557-.175,2.284,2.284,0,0,1-1.031-1.045,2.218,2.218,0,0,1-.2-.609,2.267,2.267,0,0,1,.065-1.083,2.221,2.221,0,0,1,.581-.952,2.179,2.179,0,0,1,.839-.512,2.212,2.212,0,0,1,.447-.1,2.246,2.246,0,0,1,1.124.158c.083.034.162.076.241.113l-.007-.007A2.929,2.929,0,0,0,34,67.672a2.715,2.715,0,0,0-2.159.306,2.665,2.665,0,0,0-.488.389,2.758,2.758,0,0,0-.7,1.179,2.994,2.994,0,0,0,.058,1.915,2.866,2.866,0,0,0,.265.547,3.02,3.02,0,0,0,.406.526,2.933,2.933,0,0,0,1.337.8A2.728,2.728,0,0,0,34,73.376a2.485,2.485,0,0,0,.44-.131,2.579,2.579,0,0,0,.619-.34,2.659,2.659,0,0,0,.612-.629,2.9,2.9,0,0,0,.512-1.4m14.017,5.1a9.886,9.886,0,0,0-8.172-3.71,18.305,18.305,0,0,0-4.934,1.389,57.636,57.636,0,0,1-5.47,2.2,12.488,12.488,0,0,1-3.514.694c-2.943.1-5.487-2.52-5.487-2.52,2.953,3.7,6.147,3.517,6.147,3.517a17.28,17.28,0,0,0,5.583-1.331c2.011-.928,5.969-2.42,5.969-2.42a10.776,10.776,0,0,1,4.136-.564A10.14,10.14,0,0,1,50.2,75.975" transform="translate(-7.266 -21.392)" fill="#fff"/>
        </g>
        <g id="Group_6" data-name="Group 6" transform="translate(0)" clip-path="url(#clip-path-2)">
          <path id="Path_6" data-name="Path 6" d="M42.232,85.2l1.183-.925-.846-.158-1.083.88.2-1.045-.715-.134-.481,2.579.715.134.124-.667.316-.241.471,1.08.86.162Zm1.912,1.771.083-.725-.736-.086-.083.725Zm2.242-1.348,1.038-1.083-.86-.034-.945,1.025.045-1.062-.725-.031-.11,2.62.725.031.028-.677.278-.285.619,1,.873.038Zm2.125.746-.743.024.024.729.743-.024Zm1.5-1.375.784-.076-.062-.633-2.29.217.058.636.784-.076.186,1.977.725-.069Zm1.124,1.86.732-.117-.113-.722-.732.117Zm1.647-1.64a.651.651,0,0,1,.444-.822.709.709,0,0,1,.629.162l.433-.54a1.284,1.284,0,0,0-1.21-.268A1.344,1.344,0,0,0,52.054,85.4V85.4a1.383,1.383,0,0,0,2.627.151l-.626-.251a.715.715,0,0,1-.5.45.649.649,0,0,1-.774-.533Zm3.266.433-.234-.691-.7.237.234.691Z" transform="translate(-14.393 -27.241)" fill="#fff"/>
        </g>
        <g id="Group_7" data-name="Group 7" transform="translate(0)" clip-path="url(#clip-path-2)">
          <path id="Path_7" data-name="Path 7" d="M45.376,28.7l1.265-.179-.045-.323-.746.107.248-.254c.268-.278.4-.44.354-.725v0a.531.531,0,0,0-.664-.444.729.729,0,0,0-.588.444l.3.175c.1-.175.186-.261.316-.278a.211.211,0,0,1,.261.189c.021.141-.052.248-.237.454l-.5.547Zm2.63-1.093c.007.313-.134.547-.361.554s-.385-.223-.392-.54v0c-.007-.316.134-.547.361-.554s.385.227.392.54Zm.389-.014v0a.774.774,0,1,0-1.53.041v0a.774.774,0,1,0,1.53-.041m.949.942.134-1.733-.258-.021-.505.11.055.316.306-.052-.1,1.348Zm1.63-.664v0c-.048.309-.23.516-.457.478s-.337-.292-.285-.6v0c.052-.309.23-.512.457-.478s.333.292.285.6m-.227-.942a.812.812,0,0,0-.9.756v0a.774.774,0,1,0,1.513.241v0a.807.807,0,0,0-.612-1" transform="translate(-15.812 -10.1)" fill="#fff"/>
        </g>
      </g>
    </g>
    <text id="KAMU_-_İŞ_KALKINMA_KOOPERATİFİ" data-name="KAMU - İŞ KALKINMA
KOOPERATİFİ" transform="translate(164 114)" fill="#fff" font-size="12" font-family="OpenSans-Extrabold, Open Sans" font-weight="800"><tspan x="0" y="0">KAMU - İŞ KALKINMA</tspan><tspan x="0" y="17">KOOPERATİFİ</tspan></text>
  </g>
</svg>
