<?xml version="1.0" encoding="utf-8"?>
<!-- Generator: Adobe Illustrator 23.0.1, SVG Export Plug-In . SVG Version: 6.00 Build 0)  -->
<svg version="1.1" id="Layer_1" xmlns="http://www.w3.org/2000/svg" xmlns:xlink="http://www.w3.org/1999/xlink" x="0px" y="0px"
	 viewBox="0 0 371 115" style="enable-background:new 0 0 371 115;" xml:space="preserve">
<style type="text/css">
	.st0{fill:none;}
	.st1{fill:#D60812;}
	.st2{fill:#00A12F;}
	.st3{fill:#FFFFFF;}
	.st4{enable-background:new    ;}
	.st5{fill:#919191;}
</style>
<rect x="2" class="st0" width="111.3" height="111.3"/>
<g id="Group_18">
	<path id="Path_16" class="st1" d="M102.4,79c-1.8,4.9-4.3,9.5-7.5,13.6c0.1,0,0.1,0,0.2,0c1.9,0.5,3.8,1,5.7,1.5
		c1.4,0.6,3.1,0,3.7-1.4c0,0,0-0.1,0.1-0.1c0.9-1.7,1.9-3.4,2.8-5.1c0.6-1.1,0.4-2.5-0.5-3.5c-1.4-1.5-2.8-3.1-4.2-4.6
		C102.6,79.2,102.5,79.1,102.4,79 M10.3,52.8c-2,0.7-4.1,1.3-6.2,1.9c-1.1,0.2-1.9,1.1-2,2.2C2.1,57.9,2,59,2,60h0
		c0,0.4,0,0.7,0,1.1c0,0.1,0,0.2,0,0.3l0,0c0,0.7,0,1.4,0,2.2c-0.1,1.4,0.7,2.6,2,3c1.7,0.6,3.3,1.1,5,1.6c0.4,0.1,0.8,0.3,1.2,0.4
		C9.5,63.4,9.5,58.1,10.3,52.8 M12.9,42.5c1.8-4.9,4.3-9.5,7.5-13.6c-0.1,0-0.1,0-0.2,0c-1.9-0.5-3.8-1-5.7-1.5
		c-1.4-0.6-3.1,0-3.7,1.4c0,0,0,0.1-0.1,0.1c-0.9,1.7-1.9,3.4-2.8,5.1c-0.6,1.1-0.4,2.5,0.5,3.5c1.4,1.5,2.8,3.1,4.2,4.6
		C12.7,42.3,12.8,42.4,12.9,42.5 M27.6,21.4c3.8-3.3,8.2-5.9,12.9-7.8c0,0,0,0-0.1,0c-1.5-1.5-3-3-4.5-4.5c-0.9-1.1-2.5-1.4-3.7-0.6
		c-1.5,0.9-3,1.8-4.5,2.7c-1.5,0.7-2.2,2.5-1.7,4C26.4,16.7,27.3,19.5,27.6,21.4 M57.7,10.2c2.5,0,5,0.2,7.5,0.6
		c-0.6-2.1-1.2-4.2-1.7-6.3c-0.2-1.5-1.5-2.5-3-2.5c-1.8,0-3.6,0-5.4,0c-1.4-0.1-2.6,0.8-2.9,2.2c-0.5,1.8-1,3.6-1.5,5.4
		c-0.1,0.4-0.2,0.8-0.4,1.2C52.6,10.4,55.1,10.2,57.7,10.2 M89.2,15.2c0.6-1.5,0-3.2-1.5-4c-1.5-1-3.1-1.9-4.6-2.8
		c-1.1-0.8-2.6-0.6-3.6,0.4c-1.5,1.5-2.9,2.9-4.4,4.4c-0.1,0.1-0.2,0.2-0.4,0.3c4.7,1.9,9.1,4.6,12.9,7.9c0,0,0-0.1,0-0.1
		C88.3,19.3,88.8,17.3,89.2,15.2 M103.7,60.7c0-26.8-20.6-48.5-46-48.5s-46,21.7-46,48.5c0,7.9,1.8,15.7,5.4,22.8
		c0.7,0.7,5.2,4.8,13.1,2.1c0,0,3.9-1.5,6.8-2.7c-5.7-6-8.9-14-8.9-22.3c0-17.2,13.2-31.1,29.5-31.1s29.5,13.9,29.5,31.1
		c0.3,13-7.7,24.7-20,29.5L76,101l2.4,3C94.2,95.2,103.9,78.6,103.7,60.7 M106.7,37.9c1.2-1.1,1.4-2.9,0.4-4.2
		c-0.8-1.4-1.6-2.9-2.4-4.4c-0.9-1.7-2.1-2.3-3.6-2c-2.1,0.5-4.1,1-6.2,1.6c0,0-0.1,0-0.1,0c3.2,4.1,5.7,8.7,7.5,13.6
		C103.8,41,105.2,39.4,106.7,37.9 M113.3,60L113.3,60c0-0.7,0-1.4,0-2.2c0.1-1.4-0.7-2.6-2-3c-1.7-0.6-3.3-1.1-5-1.6
		c-0.4-0.1-0.8-0.3-1.2-0.4c0.8,5.3,0.8,10.6,0,15.9c2.1-0.7,4.1-1.3,6.2-1.9c1.1-0.2,1.9-1.1,2-2.2c0-1.1,0.1-2.1,0.1-3.2h0
		c0-0.4,0-0.7,0-1.1C113.3,60.3,113.3,60.1,113.3,60"/>
	<path id="Path_17" class="st2" d="M45,77.8c-0.4,0.7-0.5,1.4-0.5,2.2c0.4-0.1,0.9-0.3,1.3-0.4c-0.1-0.1-0.1-0.1-0.2-0.2
		c-0.2-0.2-0.3-0.5-0.4-0.7C45.1,78.4,45,78.1,45,77.8 M42.8,80.4c0.1,0.1,0.1,0.1,0.2,0.2l0.3-0.1c-0.1-0.2-0.2-0.5-0.3-0.7
		c-0.1-0.4-0.1-0.7-0.1-1.1c0-0.4-0.1-0.9-0.3-1.3c-0.2-0.5-0.5-0.9-0.7-1.4c-0.1-0.3-0.2-0.5-0.2-0.8c0-0.1-0.1-0.3-0.1-0.4
		c0-0.1,0-0.3,0-0.4c-0.7,0.7-1,1.7-0.9,2.6c0.1,0.5,0.2,0.9,0.4,1.3c0.2,0.4,0.5,0.8,0.8,1.1c0.2,0.2,0.4,0.3,0.6,0.5
		C42.7,80.1,42.7,80.2,42.8,80.4 M37.2,79.4c0.9,0.6,1.6,1.4,2.3,2.2l0.2,0.2c0.5-0.2,1.2-0.5,1.9-0.8c-0.2-0.2-0.4-0.3-0.6-0.5
		c-0.3-0.3-0.6-0.5-1-0.7c-0.4-0.2-0.8-0.4-1.2-0.4C38.3,79.4,37.7,79.4,37.2,79.4 M36.4,75.2c-0.7-0.6-1.6-1-2.6-1.1
		c0.4,0.4,0.8,0.9,1,1.4c0.3,0.4,0.5,0.9,0.7,1.2c0.2,0.4,0.4,0.7,0.7,1.1c0.3,0.3,0.6,0.6,1,0.7c0.6,0.2,1.3,0.2,2,0.1
		c0.3-0.1,0.7-0.1,1,0c-0.1-0.1-0.2-0.2-0.3-0.3l0,0c-0.2,0-0.4-0.1-0.6-0.1c-0.3-0.1-0.6-0.2-0.8-0.4c-0.2-0.2-0.4-0.4-0.6-0.7
		c-0.1-0.2-0.3-0.3-0.4-0.5l-0.3-0.5c-0.1-0.2-0.2-0.3-0.4-0.4C36.7,75.5,36.6,75.3,36.4,75.2 M33.2,52.6c-0.2-0.5-0.4-0.9-0.7-1.3
		c0,0.5-0.1,1-0.2,1.5c-0.1,0.2-0.1,0.4-0.2,0.6c-0.1,0.2-0.1,0.4-0.2,0.6c-0.1,0.4-0.2,0.7-0.3,1.1c0,0.4,0,0.8,0.2,1.1
		c0.3,0.6,0.6,1.1,1.1,1.4c0.2,0.2,0.5,0.4,0.6,0.7c0-0.1,0-0.3,0-0.4c0,0,0,0,0-0.1l-0.3-0.5c-0.1-0.2-0.2-0.5-0.2-0.8
		c0-0.3,0-0.6,0.1-0.8c0.1-0.7,0.2-1.4,0.2-2.1C33.4,53.4,33.3,53,33.2,52.6 M40.3,41.4c0.4-0.7,0.5-1.5,0.4-2.3
		c-0.1,0.2-0.3,0.4-0.4,0.6c-0.1,0.2-0.3,0.3-0.4,0.5c-0.3,0.3-0.6,0.5-0.8,0.8c-0.1,0.1-0.3,0.2-0.4,0.3c-0.1,0.1-0.2,0.2-0.3,0.4
		c-0.2,0.3-0.3,0.6-0.4,1c0,0.6,0,1.1,0.2,1.7c0.1,0.3,0.2,0.6,0.2,0.9l0.2-0.3l0,0l0-0.5c0.1-0.5,0.3-1,0.6-1.3
		c0.2-0.3,0.4-0.5,0.6-0.8C40,41.9,40.2,41.7,40.3,41.4 M44.2,39.4c0,0,0,0.1-0.1,0.1l0,0C44.2,39.4,44.2,39.4,44.2,39.4 M42.9,40.5
		L42.9,40.5c0,0-0.1,0-0.1,0l0,0C42.8,40.5,42.8,40.5,42.9,40.5 M42.7,40.6c-0.2,0.2-0.3,0.3-0.4,0.5l0,0
		C42.4,40.9,42.6,40.7,42.7,40.6 M39.8,43.6L39.8,43.6L39.8,43.6l-0.4,0.6L39.8,43.6L39.8,43.6L39.8,43.6 M38.4,45.2
		c0,0.1,0,0.2,0,0.3l0,0C38.4,45.4,38.4,45.3,38.4,45.2 M37.1,47.7L36.9,48l0,0L37.1,47.7z M36.3,48.7c0,0.2-0.1,0.4-0.1,0.6
		C36.2,49.1,36.2,48.9,36.3,48.7L36.3,48.7 M34.6,53.2v0.7V53.2L34.6,53.2z M33.9,62.3L33.9,62.3c0-0.2-0.1-0.3-0.1-0.5
		C33.9,61.9,33.9,62.1,33.9,62.3 M33.8,58.8L33.8,58.8c0-0.2-0.1-0.3-0.1-0.5C33.7,58.5,33.7,58.6,33.8,58.8 M33.8,63.5l-0.1-0.3
		l0,0L33.8,63.5z M34.8,67.4C34.8,67.4,34.8,67.4,34.8,67.4C34.8,67.4,34.8,67.4,34.8,67.4L34.8,67.4z M34.8,68.8
		c0.1,0.1,0.2,0.2,0.3,0.3l0,0C35,69,34.9,68.9,34.8,68.8 M36.2,71.8L36.2,71.8l0.4,0.7L36.2,71.8z M36.7,73.5l0.2,0.3l0.3,0.3
		L37,73.8L36.7,73.5z M47.1,36.5c0.5-0.5,0.9-1.2,1-2c-0.3,0.3-0.7,0.5-1,0.7c-0.3,0.2-0.6,0.3-0.9,0.4c-0.6,0.2-1.1,0.6-1.4,1.2
		c-0.2,0.5-0.3,1-0.3,1.6c0,0.3,0,0.5-0.1,0.8l0,0c-0.2,0.2-0.5,0.4-0.8,0.6c-0.7,0.6-1.4,1.2-2.1,1.8l0,0l0.1-0.5
		c0.1-0.5,0.4-0.9,0.8-1.2c0.2-0.2,0.5-0.4,0.7-0.6c0.2-0.2,0.4-0.4,0.6-0.7c0.2-0.3,0.4-0.6,0.5-0.9c0.1-0.2,0.1-0.4,0.1-0.6
		c0-0.2,0.1-0.5,0.1-0.7c-0.5,0.6-1.1,1.1-1.8,1.5c-0.3,0.2-0.5,0.3-0.8,0.6c-0.2,0.2-0.4,0.5-0.5,0.9c-0.1,0.5-0.1,1.1,0,1.6
		c0,0.3,0.1,0.6,0,0.8l0.1-0.1l-0.1,0.1c-0.9,0.9-1.8,2-2.6,3c-0.1,0.1-0.1,0.2-0.2,0.3c-0.1,0.2-0.2,0.3-0.3,0.5
		c-0.7,1-1.3,2-1.8,3.1c0,0,0,0,0-0.1l-0.1-0.5c0-0.3,0-0.5,0.1-0.8c0.1-0.2,0.2-0.5,0.3-0.7c0.2-0.3,0.3-0.6,0.5-0.9
		c0.2-0.3,0.3-0.6,0.4-0.9c0.2-0.8,0.2-1.7,0-2.4c-0.3,0.8-0.8,1.5-1.4,2.2c-0.2,0.3-0.4,0.5-0.6,0.9c-0.2,0.3-0.2,0.7-0.2,1.1
		c0,0.3,0.1,0.5,0.1,0.8c0.1,0.3,0.2,0.6,0.4,0.9c0.1,0.3,0.2,0.5,0.3,0.8l0.1-0.2c0,0.1-0.1,0.1-0.1,0.2c-0.6,1.3-1.1,2.7-1.6,4.1
		v-0.1c-0.1-0.2-0.1-0.3-0.2-0.5c-0.1-0.3-0.1-0.5-0.1-0.8c0.1-0.3,0.1-0.5,0.2-0.8c0.1-0.3,0.2-0.7,0.3-1c0.1-0.3,0.2-0.7,0.3-1
		c0-0.2,0-0.4,0-0.5c0-0.2,0-0.4,0-0.6c-0.1-0.5-0.2-0.9-0.4-1.4c-0.1,0.5-0.2,1-0.5,1.4c-0.2,0.4-0.4,0.7-0.6,1.1
		c-0.2,0.3-0.3,0.6-0.4,1c-0.1,0.4-0.1,0.7,0,1.1c0.2,0.6,0.4,1.1,0.8,1.6c0.2,0.2,0.4,0.5,0.5,0.8l0,0c-0.3,0.9-0.5,1.9-0.6,2.8
		c-0.1,0.6-0.2,1.1-0.2,1.7l0,0c0,0.1,0,0.3,0,0.4c0,0,0,0.1,0.1,0.1c0,0,0-0.1-0.1-0.1c0,0.4-0.1,0.8-0.1,1.1c0,1.1,0,2.2,0.1,3.3
		c0,0.1,0,0.2,0,0.3l0-0.1c-0.1-0.1-0.3-0.3-0.4-0.4c-0.2-0.2-0.3-0.5-0.4-0.8c0-0.3-0.1-0.6-0.1-0.9c0-0.4,0-0.7-0.1-1.1
		c0-0.4-0.1-0.7-0.1-1.1c0-0.2-0.1-0.4-0.2-0.5c-0.1-0.2-0.2-0.4-0.3-0.5c-0.3-0.4-0.6-0.8-0.9-1.2c0.1,0.5,0.1,1.1,0.1,1.6
		c0,0.4-0.1,0.9-0.1,1.3c-0.1,0.4-0.1,0.8-0.1,1.2c0,0.4,0.2,0.8,0.4,1.1c0.4,0.5,0.9,0.9,1.4,1.2c0.3,0.2,0.5,0.4,0.8,0.6
		c0.1,0.1,0.2,0.2,0.2,0.3l0,0c-0.1-0.1-0.1-0.2-0.2-0.3c0.1,0.9,0.2,1.8,0.4,2.7l0.1,0.4l0.1,0.4l0.2,0.8l0.2,0.5l0-0.1l-0.5-0.3
		c-0.2-0.2-0.4-0.4-0.5-0.7c-0.1-0.3-0.2-0.6-0.3-0.8c-0.1-0.4-0.2-0.7-0.3-1.1c-0.1-0.4-0.2-0.7-0.3-1.1c-0.2-0.4-0.4-0.7-0.6-1
		c-0.3-0.4-0.7-0.7-1.2-1c0.1,0.3,0.2,0.6,0.3,0.8c0.1,0.2,0.1,0.5,0.1,0.8c0.1,0.5,0.1,0.9,0.1,1.3c0,0.4,0.1,0.8,0.2,1.2
		c0.1,0.4,0.3,0.7,0.6,1c0.5,0.4,1,0.7,1.7,0.9c0.3,0.1,0.6,0.2,0.9,0.4c0.1,0.2,0.1,0.5,0.2,0.7c0.5,1.4,1.1,2.7,1.7,4l0,0
		l-0.6-0.2c-0.3-0.1-0.5-0.3-0.7-0.6c-0.2-0.3-0.3-0.5-0.4-0.8c-0.2-0.3-0.3-0.7-0.5-1c-0.2-0.3-0.3-0.7-0.6-1
		c-0.2-0.3-0.5-0.6-0.8-0.9c-0.2-0.1-0.4-0.3-0.6-0.4c-0.2-0.1-0.5-0.2-0.8-0.3c0.5,0.9,0.9,1.8,1.1,2.8c0.1,0.4,0.2,0.8,0.4,1.1
		c0.2,0.4,0.5,0.7,0.8,0.9c0.2,0.2,0.5,0.3,0.8,0.4c0.4,0.1,0.7,0.2,1.1,0.2c0.3,0,0.7,0.1,1,0.2l0,0c0.9,1.5,1.9,2.9,3,4.3l0.4,0.2
		l-0.4-0.2c0.1,0.1,0.2,0.2,0.3,0.3c0.1,0,0.3,0.1,0.4,0.1l0,0c-0.1-0.1-0.2-0.1-0.4-0.1c0.6,0.7,1.3,1.3,1.9,2
		c0.1,0.1,0.2,0.2,0.3,0.2l0.4-0.2l0,0l0,0c0-0.1,0-0.1-0.1-0.2c-0.1-0.1-0.2-0.2-0.3-0.3c-1.1-0.9-2-2-2.9-3.1l0,0
		c-0.1-0.4-0.2-0.9-0.2-1.3c0-0.3,0-0.7,0.1-1c0.1-0.4,0.1-0.9,0-1.3c-0.1-0.5-0.3-1-0.4-1.5C39,71.7,39,71.4,39,71.1
		c0-0.3,0-0.6,0.1-0.9c-0.4,0.3-0.7,0.6-1,1.1c-0.1,0.2-0.2,0.4-0.3,0.6c-0.1,0.2-0.1,0.4-0.1,0.6c0,0.2,0,0.4,0,0.7
		c0,0.2,0.1,0.4,0.1,0.7c0.1,0.2,0.1,0.4,0.2,0.6c0.1,0.2,0.2,0.4,0.3,0.6c0.2,0.2,0.3,0.4,0.4,0.6c0.1,0.2,0.1,0.3,0.2,0.5
		c0.1,0.1,0.1,0.2,0.2,0.3c-0.1-0.1-0.2-0.2-0.2-0.3c0,0.1,0,0.1,0,0.2l0,0c0.2,0.2,0.4,0.4,0.6,0.6c-0.2-0.2-0.4-0.4-0.6-0.6l0,0
		c0-0.1,0-0.1,0-0.2c-0.9-1.2-1.7-2.5-2.4-3.9c0,0,0,0,0,0l0,0v-0.1c0-0.1-0.1-0.1-0.1-0.2c0,0.1,0.1,0.1,0.1,0.2c0-0.4,0-0.9,0-1.3
		c0.1-0.3,0.2-0.6,0.3-1c0.1-0.2,0.1-0.4,0.2-0.6c0-0.2,0.1-0.4,0.1-0.6c0-0.5-0.1-1-0.1-1.5c0-0.3,0-0.5,0.1-0.8
		c0.1-0.3,0.1-0.5,0.2-0.8c-0.8,0.4-1.5,1.1-1.7,1.9c-0.1,0.4-0.2,0.9-0.1,1.3c0,0.4,0.1,0.9,0.3,1.3c0.1,0.2,0.2,0.5,0.3,0.7
		c0,0.2,0.1,0.3,0,0.5l0,0c0,0,0,0.1,0,0.1c0,0,0-0.1,0-0.1c-0.3-0.7-0.6-1.5-0.9-2.2c-0.1-0.3-0.2-0.5-0.3-0.8l-0.2-0.8l-0.1-0.4
		c0-0.4,0.1-0.8,0.3-1.2c0.1-0.3,0.3-0.6,0.5-0.8c0.2-0.4,0.4-0.7,0.5-1.1c0-0.2,0.1-0.5,0.1-0.7c0-0.2,0.1-0.5,0.1-0.7
		c0.1-0.5,0.3-1,0.6-1.4c-0.4,0.1-0.9,0.3-1.2,0.5c-0.3,0.3-0.6,0.6-0.8,0.9c-0.2,0.4-0.3,0.8-0.4,1.2c0,0.4,0,0.9,0,1.3
		c0.1,0.2,0.1,0.5,0.1,0.7c0,0.2,0,0.3-0.1,0.5v0v0c0,0.1,0,0.1-0.1,0.2c0-0.1,0-0.1,0.1-0.2l-0.1-0.4c-0.2-1.1-0.4-2.2-0.5-3.3
		c0-0.2,0-0.4,0-0.6l0,0c0.1-0.4,0.3-0.8,0.5-1.1c0.2-0.3,0.4-0.5,0.6-0.7c0.3-0.3,0.5-0.6,0.7-1c0.1-0.2,0.2-0.4,0.2-0.7
		c0.1-0.2,0.1-0.5,0.2-0.7c0.2-0.5,0.5-0.9,0.8-1.3c-0.9,0-1.7,0.3-2.2,1c-0.3,0.3-0.5,0.7-0.6,1.1c-0.1,0.4-0.2,0.8-0.2,1.3
		c0,0.2,0,0.5,0,0.7c0,0.2-0.1,0.3-0.1,0.5c0-0.6,0-1.2,0-1.8c0-0.8,0.1-1.6,0.2-2.4l0,0l0,0l0,0c0-0.3,0.1-0.5,0.1-0.8
		c0,0.3-0.1,0.5-0.1,0.8c0.2-0.4,0.4-0.7,0.7-1c0.2-0.2,0.5-0.4,0.7-0.5c0.3-0.2,0.6-0.5,0.8-0.8c0.3-0.4,0.4-0.8,0.7-1.2
		c0.3-0.4,0.6-0.8,1-1c-0.4-0.1-0.8-0.1-1.3,0c-0.4,0.1-0.7,0.3-1,0.5c-0.6,0.6-1,1.3-1.2,2.1c0,0.2-0.1,0.5-0.1,0.7
		c0,0.1-0.1,0.3-0.2,0.4c0.2-1.3,0.5-2.7,0.9-4l0,0l0,0c0-0.2,0.1-0.5,0.2-0.7l0,0c0,0,0.1-0.1,0.1-0.1c0.4-1.2,0.9-2.4,1.6-3.6l0,0
		c0.3-0.2,0.6-0.4,0.9-0.6c0.3-0.1,0.5-0.2,0.8-0.2c0.4-0.1,0.7-0.2,1-0.4c0.3-0.2,0.6-0.5,1-0.8c0.4-0.3,0.8-0.5,1.2-0.6
		c-0.6-0.5-1.4-0.6-2.2-0.3c-0.3,0.1-0.7,0.3-1,0.5c-0.3,0.3-0.5,0.6-0.8,0.9c-0.1,0.2-0.2,0.4-0.3,0.6c-0.1,0.1-0.2,0.2-0.3,0.3
		l0,0l0,0l0,0c0.3-0.5,0.6-1.1,1-1.6c0.4-0.5,0.7-1.1,1.1-1.5l0,0c0.3-0.2,0.6-0.3,1-0.4c0.3,0,0.5-0.1,0.8-0.1c0.4,0,0.7-0.1,1-0.2
		c0.4-0.2,0.7-0.4,1.1-0.6c0.4-0.2,0.8-0.3,1.3-0.3c-0.5-0.5-1.3-0.8-2-0.7c-0.7,0.1-1.4,0.5-1.9,1.1c-0.1,0.2-0.3,0.3-0.4,0.5
		c-0.1,0.1-0.2,0.2-0.4,0.2c-0.1,0.1-0.2,0.3-0.3,0.4c0.1-0.1,0.2-0.3,0.3-0.4l0,0c0.8-0.9,1.6-1.8,2.5-2.6l0,0
		c0.2-0.1,0.3-0.1,0.5-0.2c0.2,0,0.3-0.1,0.5-0.1c0.3,0,0.5,0,0.8,0.1c0.3,0.1,0.7,0,1-0.1c0.4-0.1,0.7-0.3,1.1-0.4
		c0.4-0.1,0.8-0.1,1.3-0.1c-0.4-0.6-1.1-1-1.8-1c-0.7,0-1.4,0.2-1.9,0.7c-0.1,0.1-0.3,0.3-0.5,0.4c-0.1,0.1-0.2,0.1-0.4,0.1
		c0.3-0.2,0.5-0.4,0.8-0.6c0.4-0.3,0.7-0.6,1-0.8c0.3-0.2,0.6-0.4,0.8-0.5l0.5-0.3l0.1-0.1c-0.1,0-0.1-0.1-0.2-0.1h0l-0.5,0.3
		c-0.2,0.1-0.5,0.3-0.8,0.5l0,0l-0.2,0.2c0,0-0.1,0.1-0.1,0.1c0,0,0.1-0.1,0.1-0.1l0.2-0.2l0,0l0,0l0.1-0.5c0.1-0.5,0.6-0.7,0.9-1
		C46.1,37.2,46.6,36.8,47.1,36.5 M35.4,51.6L35.4,51.6c0,0-0.1,0.1-0.1,0.1l0,0c-0.1,0.2-0.1,0.5-0.2,0.7l0,0
		c0.2-0.3,0.5-0.6,0.8-0.8c0.2-0.2,0.5-0.3,0.8-0.4c0.3-0.2,0.7-0.4,0.9-0.6c0.2-0.2,0.3-0.3,0.4-0.5c0.1-0.2,0.3-0.3,0.4-0.5
		c0.3-0.3,0.7-0.6,1.1-0.8c-0.7-0.3-1.6-0.3-2.3,0.1c-0.7,0.4-1.2,1-1.5,1.8c-0.1,0.2-0.2,0.4-0.3,0.6
		C35.6,51.3,35.5,51.5,35.4,51.6 M50.6,36.4c-0.9-0.5-1.7-0.9-2.6-0.4c-0.9,0.5-1.1,1.4-2,1.9C46,38,45.9,38,45.9,38.1
		c0.1,0,0.1,0.1,0.2,0.1c0.7,0.4,1.6,0.4,2.3,0C49.2,37.5,49.6,36.8,50.6,36.4"/>
	<path id="Path_18" class="st2" d="M74.4,41.6l0.2,0.2c0-0.3,0-0.6,0-0.8c0.1-0.5,0.1-1.1,0-1.6c-0.1-0.3-0.3-0.6-0.5-0.9
		c-0.2-0.2-0.5-0.4-0.8-0.6c-0.7-0.4-1.3-0.9-1.8-1.5c0,0.2,0,0.5,0.1,0.7c0,0.2,0.1,0.4,0.1,0.6c0.1,0.3,0.3,0.6,0.5,0.9
		c0.2,0.2,0.4,0.5,0.6,0.7c0.2,0.2,0.4,0.4,0.7,0.6c0.4,0.3,0.7,0.7,0.8,1.2L74.4,41.6L74.4,41.6 M82.1,58.8L82.1,58.8
		c0.1-0.2,0.1-0.5,0.1-0.7l0,0C82.1,58.3,82.1,58.5,82.1,58.8 M82.1,63.5c0-0.1,0-0.2,0-0.3l0,0C82.2,63.3,82.2,63.4,82.1,63.5
		 M81.9,63.8L81.9,63.8L81.9,63.8L81.9,63.8z M81.8,57.2L81.8,57.2L81.8,57.2L81.8,57.2l0-0.8l0,0L81.8,57.2z M80.7,52.4l-0.2-0.7
		l0,0L80.7,52.4z M79.1,48.8L79.1,48.8L79,48.6L79.1,48.8z M77.6,46.2c0-0.1-0.1-0.2-0.1-0.3C77.6,46,77.6,46.1,77.6,46.2z
		 M76.6,44.9L76.6,44.9L76.6,44.9l-0.4-0.6l0,0L76.6,44.9z M73.7,41.7L73.7,41.7c-0.1-0.1-0.1-0.1-0.2-0.2
		C73.6,41.6,73.6,41.7,73.7,41.7 M71.8,40.2L71.8,40.2c0-0.1-0.1-0.1-0.1-0.2C71.8,40.1,71.8,40.1,71.8,40.2 M81.5,67.4L81.5,67.4
		C81.5,67.4,81.5,67.4,81.5,67.4L81.5,67.4L81.5,67.4z M81.4,67.5l-0.1,0.2l0,0.2l0-0.2L81.4,67.5z M78.9,74.7
		c-0.1,0-0.1,0.1-0.2,0.1l0,0C78.7,74.8,78.8,74.8,78.9,74.7 M76.9,77.2c-0.2,0.2-0.4,0.4-0.6,0.6C76.6,77.6,76.8,77.4,76.9,77.2
		L76.9,77.2z M76,78.9L76,78.9l-0.2,0.2L76,78.9z M71.6,82.1c-0.3,0.1-0.5,0.2-0.8,0.3l0,0C71.1,82.3,71.3,82.2,71.6,82.1z
		 M68.2,83.7L68.2,83.7L67.4,84L68.2,83.7z M66.5,85l-0.3,0.1L66.5,85L66.5,85 M65.8,85.1l-0.1,0L65.8,85.1 M84.3,61.8
		c0.2-0.3,0.4-0.7,0.4-1.1c0-0.4,0-0.8-0.1-1.2c-0.1-0.4-0.1-0.9-0.1-1.3c0-0.5,0-1.1,0.1-1.6c-0.4,0.3-0.7,0.7-0.9,1.2
		c-0.1,0.2-0.2,0.4-0.3,0.5c-0.1,0.2-0.1,0.4-0.2,0.5c-0.1,0.4-0.1,0.7-0.1,1.1c0,0.4,0,0.7-0.1,1.1c0,0.3,0,0.6-0.1,0.9
		c0,0.3-0.2,0.6-0.4,0.8c-0.1,0.1-0.3,0.3-0.4,0.4l0,0.1c0-0.1,0-0.2,0-0.3c0.1-1.1,0.1-2.2,0.1-3.3c0-0.4,0-0.8-0.1-1.1
		c0,0,0-0.1,0-0.1c0,0,0,0.1,0,0.1c0.2-0.3,0.4-0.5,0.6-0.7c0.5-0.4,0.9-0.9,1.1-1.4c0.2-0.4,0.2-0.7,0.2-1.1c0-0.4-0.1-0.7-0.3-1.1
		l-0.2-0.6c-0.1-0.2-0.1-0.4-0.2-0.6c-0.1-0.5-0.2-1-0.2-1.5c-0.3,0.4-0.5,0.8-0.7,1.3c-0.1,0.4-0.2,0.7-0.2,1.1
		c0,0.7,0.1,1.4,0.2,2.1c0,0.3,0.1,0.6,0.1,0.8c0,0.3-0.1,0.6-0.2,0.8L82.2,58l0,0.1c-0.1-0.6-0.1-1.2-0.2-1.7
		c-0.2-0.9-0.4-1.9-0.6-2.8c-0.1,0.1-0.1,0.2-0.1,0.4l0,0c0-0.1,0-0.3,0.1-0.4l-0.1-0.3c0,0.1,0.1,0.2,0.1,0.3l0,0
		c0.1-0.3,0.3-0.6,0.5-0.8c0.4-0.5,0.7-1,0.8-1.6c0.1-0.4,0.1-0.7,0-1.1c-0.1-0.3-0.3-0.7-0.4-1c-0.2-0.3-0.4-0.7-0.6-1.1
		c-0.2-0.5-0.4-0.9-0.5-1.4c-0.2,0.4-0.4,0.9-0.4,1.4c0,0.2,0,0.4,0,0.6c0,0.2,0,0.4,0,0.5c0.1,0.3,0.1,0.7,0.3,1
		c0.1,0.3,0.2,0.6,0.3,1c0.1,0.2,0.2,0.5,0.2,0.8c0.1,0.3,0,0.6-0.1,0.8c-0.1,0.2-0.1,0.3-0.2,0.5v0.1c-0.4-1.4-0.9-2.8-1.6-4.1l0,0
		c0.1-0.3,0.2-0.6,0.3-0.8c0.2-0.3,0.3-0.6,0.4-0.9c0.1-0.2,0.1-0.5,0.1-0.8c0-0.4-0.1-0.7-0.2-1.1c-0.2-0.3-0.3-0.6-0.6-0.9
		c-0.6-0.6-1-1.4-1.4-2.2c-0.3,0.8-0.3,1.6,0,2.4c0.1,0.3,0.2,0.6,0.4,0.9c0.1,0.3,0.3,0.6,0.5,0.9c0.1,0.2,0.2,0.5,0.3,0.7
		c0.1,0.2,0.1,0.5,0.1,0.8l-0.1,0.5c0,0,0,0,0,0.1l0,0c0.1,0.2,0.1,0.5,0.1,0.7l0,0c0-0.2-0.1-0.5-0.1-0.7c-0.5-1.1-1.1-2.1-1.8-3.1
		c-0.1-0.2-0.2-0.3-0.3-0.5c0-0.3,0.1-0.6,0.2-0.9c0.2-0.5,0.3-1.1,0.2-1.7c0-0.3-0.2-0.7-0.4-1c-0.1-0.1-0.2-0.3-0.3-0.4
		c-0.1-0.1-0.2-0.2-0.4-0.3c-0.3-0.2-0.5-0.5-0.8-0.8c-0.1-0.2-0.3-0.3-0.4-0.5c-0.1-0.2-0.3-0.4-0.4-0.6c-0.1,0.8,0,1.6,0.3,2.3
		c0.1,0.3,0.3,0.5,0.5,0.8c0.2,0.2,0.4,0.5,0.6,0.8c0.4,0.4,0.6,0.8,0.6,1.3l0,0.5l0,0l0.1,0.2l-0.1-0.2l0,0c-0.8-1.1-1.6-2.1-2.6-3
		c0,0,0,0,0,0.1c0,0,0,0,0-0.1l-0.2-0.2c0.1,0.2,0.2,0.4,0.3,0.6l0,0c-0.1-0.2-0.2-0.4-0.3-0.6c-0.7-0.7-1.4-1.3-2.1-1.8
		c-0.3-0.2-0.5-0.4-0.8-0.6l0,0c-0.1-0.3-0.1-0.5-0.1-0.8c0-0.5-0.1-1.1-0.3-1.6c-0.3-0.6-0.8-1-1.4-1.2c-0.3-0.1-0.6-0.3-0.9-0.4
		c-0.4-0.2-0.7-0.4-1-0.7c0.1,0.7,0.4,1.4,1,2c0.4,0.4,0.9,0.7,1.4,1c0.3,0.3,0.8,0.5,0.9,1l0.1,0.5l0,0l0,0l0.2,0.2
		c0.1,0.1,0.1,0.2,0.2,0.2c0,0-0.1-0.1-0.2-0.2l-0.2-0.2l0,0c-0.3-0.2-0.6-0.4-0.8-0.5L70,38.1h0c-0.1,0-0.1-0.1-0.2-0.1
		c-0.8-0.5-1.1-1.4-2-1.9c-0.9-0.5-1.7-0.1-2.6,0.4c1.1,0.3,1.4,1.1,2.3,1.7c0.7,0.4,1.6,0.4,2.3,0l0.1,0.1l0.5,0.3
		c0.2,0.1,0.5,0.3,0.8,0.5c0.3,0.2,0.6,0.5,1,0.8c0.2,0.2,0.5,0.4,0.8,0.6c0,0,0.1,0,0.1,0l0,0c0,0-0.1,0-0.1,0l0,0
		c-0.1,0-0.3-0.1-0.4-0.1c-0.2-0.1-0.3-0.2-0.5-0.4c-0.5-0.4-1.2-0.7-1.9-0.7c-0.7,0-1.4,0.4-1.8,1c0.4-0.1,0.9,0,1.3,0.1
		c0.4,0.1,0.7,0.3,1.1,0.4c0.3,0.1,0.7,0.1,1,0.1c0.3-0.1,0.5-0.1,0.8-0.1c0.2,0,0.3,0,0.5,0.1c0.2,0,0.3,0.1,0.5,0.2
		c-0.2-0.2-0.3-0.3-0.5-0.5c0.2,0.1,0.3,0.3,0.5,0.5l0,0l0,0l0,0c0.9,0.8,1.7,1.7,2.5,2.6l0,0c0.1,0.1,0.2,0.3,0.3,0.4
		c-0.1-0.1-0.2-0.3-0.3-0.4c-0.1,0-0.3-0.1-0.4-0.2c-0.1-0.1-0.3-0.3-0.4-0.5c-0.5-0.6-1.1-0.9-1.9-1.1c-0.8-0.1-1.5,0.2-2,0.7
		c0.4,0,0.9,0.1,1.3,0.3c0.4,0.2,0.7,0.4,1.1,0.6c0.3,0.1,0.7,0.2,1,0.2c0.3,0,0.5,0,0.8,0.1c0.3,0.1,0.7,0.2,1,0.4l0,0
		c0.4,0.5,0.7,1,1.1,1.5c0.3,0.5,0.6,1,1,1.6c0,0,0.1,0,0.1,0.1l0,0c0,0-0.1,0-0.1-0.1c-0.1-0.1-0.2-0.2-0.3-0.3
		c-0.1-0.2-0.2-0.4-0.3-0.6c-0.2-0.3-0.5-0.6-0.8-0.9c-0.3-0.2-0.6-0.4-0.9-0.5c-0.7-0.2-1.6-0.1-2.2,0.3c0.4,0.1,0.9,0.3,1.2,0.6
		c0.3,0.3,0.6,0.6,1,0.8c0.3,0.2,0.6,0.4,1,0.4c0.3,0,0.6,0.1,0.8,0.2c0.3,0.2,0.6,0.4,0.9,0.6l0,0l0,0l0,0c0.6,1.2,1.1,2.3,1.6,3.6
		c-0.1-0.1-0.2-0.2-0.3-0.4c-0.1-0.2-0.2-0.4-0.3-0.6c-0.3-0.7-0.8-1.4-1.5-1.8c-0.7-0.4-1.5-0.4-2.3-0.1c0.4,0.2,0.8,0.5,1.1,0.8
		c0.2,0.2,0.3,0.3,0.4,0.5c0.1,0.2,0.3,0.3,0.4,0.5c0.3,0.3,0.6,0.5,0.9,0.6c0.3,0.1,0.5,0.2,0.8,0.4c0.3,0.2,0.6,0.5,0.8,0.8l0,0
		l0,0c0.4,1.3,0.7,2.6,0.9,4c0,0,0.1,0.1,0.1,0.1c0,0-0.1-0.1-0.1-0.1l0,0c-0.1-0.1-0.2-0.3-0.2-0.4c-0.1-0.2-0.1-0.5-0.1-0.7
		c-0.1-0.8-0.6-1.5-1.2-2.1c-0.3-0.2-0.6-0.4-1-0.5c-0.4-0.1-0.8-0.1-1.3,0c0.4,0.3,0.8,0.6,1,1c0.3,0.4,0.4,0.8,0.7,1.2
		c0.2,0.3,0.5,0.6,0.8,0.8c0.3,0.2,0.5,0.3,0.7,0.5c0.3,0.3,0.5,0.6,0.7,1l0,0c0.1,0.8,0.2,1.6,0.2,2.4c0,0.6,0,1.2,0,1.8
		c-0.1-0.1-0.1-0.3-0.1-0.5c0-0.2,0-0.5,0-0.7c0-0.4-0.1-0.9-0.2-1.3c-0.1-0.4-0.3-0.8-0.6-1.1c-0.5-0.7-1.3-1-2.2-1
		c0.4,0.4,0.6,0.8,0.8,1.3c0.1,0.2,0.2,0.5,0.2,0.7c0.1,0.2,0.1,0.4,0.2,0.7c0.2,0.4,0.4,0.7,0.7,1c0.2,0.2,0.4,0.4,0.6,0.7
		c0.2,0.4,0.4,0.7,0.5,1.1l0,0l0,0c0,0,0,0,0,0c0,0.2,0,0.4,0,0.6c-0.1,1.1-0.3,2.2-0.5,3.3l-0.1,0.4l0,0v0v0c0-0.2-0.1-0.3-0.1-0.5
		c0-0.2,0.1-0.5,0.1-0.7c0.1-0.4,0.1-0.9,0-1.3c-0.1-0.4-0.2-0.8-0.4-1.2c-0.2-0.4-0.5-0.7-0.8-0.9c-0.4-0.3-0.8-0.4-1.2-0.5
		c0.3,0.4,0.5,0.9,0.6,1.4c0,0.2,0.1,0.5,0.1,0.7s0.1,0.5,0.1,0.7c0.1,0.4,0.2,0.8,0.5,1.1c0.2,0.3,0.4,0.5,0.5,0.8
		c0.1,0.4,0.2,0.8,0.3,1.2l0,0c0,0,0,0,0,0l0,0c0,0,0,0,0,0L81,67.8l-0.2,0.8c-0.1,0.3-0.2,0.5-0.3,0.8c-0.3,0.8-0.6,1.5-0.9,2.2
		c0,0,0,0,0,0.1c0,0,0,0,0-0.1c0-0.2,0-0.3,0-0.5c0.1-0.2,0.2-0.5,0.3-0.7c0.2-0.4,0.3-0.9,0.3-1.3c0-0.4,0-0.9-0.1-1.3
		c-0.3-0.9-0.9-1.6-1.7-1.9c0.1,0.3,0.2,0.5,0.2,0.8c0.1,0.3,0.1,0.5,0.1,0.8c0,0.5-0.1,1-0.1,1.5c0,0.2,0,0.4,0.1,0.6
		c0,0.2,0.1,0.4,0.2,0.6c0.1,0.3,0.3,0.6,0.3,1c0.1,0.4,0.1,0.9,0,1.3c0.1-0.2,0.2-0.4,0.3-0.6c-0.1,0.2-0.2,0.4-0.3,0.6
		c0,0,0,0,0,0l0,0l0.4-0.7l0,0l-0.4,0.7l0,0c0,0,0,0,0,0c-0.7,1.4-1.5,2.6-2.4,3.9c0,0,0,0,0,0.1c0,0,0,0,0-0.1l0,0
		c0-0.2,0.1-0.3,0.2-0.5c0.1-0.2,0.3-0.4,0.4-0.6c0.1-0.2,0.2-0.4,0.3-0.6c0.1-0.2,0.2-0.4,0.2-0.6c0.1-0.2,0.1-0.4,0.1-0.7
		c0-0.2,0-0.4,0-0.7c0-0.2-0.1-0.4-0.1-0.6c-0.1-0.2-0.2-0.4-0.3-0.6c-0.2-0.4-0.6-0.8-1-1.1c0,0.3,0.1,0.6,0.1,0.9
		c0,0.3,0,0.5-0.1,0.8c-0.1,0.5-0.3,1-0.4,1.5c-0.1,0.4-0.1,0.9,0,1.3c0.1,0.3,0.1,0.7,0.1,1c0,0.4-0.1,0.9-0.2,1.3
		c0.1-0.1,0.2-0.3,0.3-0.4c-0.1,0.1-0.2,0.3-0.3,0.4l0,0l0,0c-0.9,1.1-1.8,2.1-2.9,3.1c-0.1,0.1-0.2,0.2-0.3,0.3c0,0,0,0,0,0.1
		c0,0,0,0,0-0.1c0.1-0.2,0.2-0.3,0.3-0.4c0.2-0.2,0.4-0.4,0.6-0.5c0.3-0.3,0.6-0.7,0.8-1.1c0.2-0.4,0.4-0.8,0.4-1.3
		c0.1-1-0.2-1.9-0.9-2.6c0,0.2,0,0.3,0,0.4c0,0.1,0,0.3-0.1,0.4c-0.1,0.3-0.1,0.5-0.2,0.8c-0.2,0.5-0.5,0.9-0.7,1.4
		c-0.2,0.4-0.3,0.9-0.3,1.3c0,0.4,0,0.7-0.1,1.1c-0.1,0.4-0.3,0.8-0.5,1.2l0,0c-1.2,1-2.6,1.8-3.9,2.6c0,0,0,0.1-0.1,0.1
		c0,0,0-0.1,0.1-0.1l0,0c0.1-0.1,0.2-0.3,0.3-0.4c0.2-0.1,0.4-0.3,0.7-0.4c0.8-0.5,1.4-1.2,1.8-2.1c0.3-0.9,0.2-2-0.3-2.8
		c-0.1,0.3-0.2,0.6-0.3,0.8c-0.1,0.2-0.3,0.5-0.4,0.7c-0.2,0.2-0.3,0.4-0.5,0.6c-0.2,0.2-0.3,0.4-0.5,0.6c-0.3,0.4-0.5,0.8-0.6,1.2
		c-0.1,0.4-0.2,0.7-0.3,1c-0.2,0.4-0.5,0.8-0.8,1.1c0.1-0.1,0.3-0.1,0.4-0.2c-0.1,0.1-0.3,0.1-0.4,0.2l0,0.1l0,0l0-0.1
		c-1.2,0.6-2.5,1-3.8,1.4l-0.1,0l0,0.1c0.1,0.1,0.3,0.3,0.4,0.4c0.7-0.2,1.4-0.4,2.1-0.7l0,0c0.1,0,0.2,0.1,0.3,0.1
		c0.2,0.1,0.5,0.3,0.7,0.4c0.3,0.2,0.7,0.4,1,0.6c0.3,0.1,0.6,0.2,0.9,0.3c0.2,0,0.5,0,0.7,0c0.2,0,0.4-0.1,0.6-0.2
		c0.4-0.2,0.8-0.4,1.1-0.7c0.4-0.3,0.7-0.6,1.2-0.9c0.2-0.2,0.5-0.3,0.7-0.4c0.3-0.1,0.6-0.3,0.9-0.4c-0.5-0.2-1.1-0.3-1.6-0.3
		c-0.4,0-0.9,0-1.3,0.1c-0.4,0.1-0.8,0.3-1.1,0.4c-0.4,0.2-0.7,0.4-1.1,0.5c-0.6,0.2-1.2,0.6-1.8,0.4L66.5,85h0
		c1.7-0.7,3.3-1.6,4.8-2.6c0,0,0,0,0,0c0,0,0,0,0,0c0.1-0.1,0.2-0.2,0.3-0.2c-0.1,0.1-0.2,0.2-0.3,0.2c0.4,0,0.7,0.1,1,0.3
		c0.6,0.3,1.3,0.4,2,0.4c0.9-0.2,1.6-0.6,2.1-1.4c0.6-0.9,1.4-1.6,2.3-2.2c-0.5-0.1-1.1,0-1.6,0.1c-0.4,0.1-0.8,0.2-1.2,0.4
		c-0.3,0.2-0.7,0.4-1,0.7c-0.3,0.2-0.6,0.5-0.9,0.8c-0.2,0.2-0.5,0.4-0.7,0.5c-0.3,0.2-0.6,0.3-0.9,0.2l-0.6-0.1l-0.1,0
		c1.5-1,2.8-2.3,4-3.6c-0.1,0-0.3,0.1-0.4,0.1l0,0c0.1-0.1,0.2-0.1,0.4-0.1l0.1-0.2l-0.1,0.2c0.3,0,0.7,0,1,0c0.7,0.1,1.3,0.1,2-0.1
		c0.4-0.1,0.7-0.4,1-0.7c0.3-0.3,0.5-0.7,0.7-1.1c0.2-0.4,0.4-0.8,0.7-1.2c0.3-0.5,0.6-0.9,1-1.4c-1,0.1-1.9,0.5-2.6,1.1
		c-0.1,0.1-0.3,0.3-0.4,0.4c-0.1,0.1-0.3,0.3-0.4,0.4l-0.3,0.5c-0.1,0.2-0.2,0.3-0.4,0.5c-0.2,0.2-0.4,0.5-0.6,0.7
		c-0.2,0.2-0.5,0.4-0.8,0.4c-0.2,0-0.4,0.1-0.6,0.1l0,0c1.1-1.3,2.1-2.8,3-4.3l0,0c0.3-0.1,0.7-0.2,1-0.2c0.4,0,0.7-0.1,1.1-0.2
		c0.3-0.1,0.5-0.2,0.8-0.4c0.4-0.2,0.6-0.5,0.8-0.9c0.2-0.4,0.3-0.8,0.4-1.1c0.2-1,0.6-2,1.1-2.8c-0.3,0.1-0.5,0.2-0.8,0.3
		c-0.2,0.1-0.4,0.2-0.6,0.4c-0.3,0.2-0.6,0.5-0.8,0.9c-0.2,0.3-0.4,0.6-0.6,1c-0.2,0.3-0.3,0.7-0.5,1c-0.1,0.2-0.3,0.5-0.4,0.8
		c-0.1,0.3-0.4,0.5-0.7,0.6l-0.6,0.2l0,0c0.7-1.3,1.3-2.6,1.7-4c0.1-0.2,0.2-0.5,0.2-0.7c-0.1,0.1-0.2,0.2-0.3,0.3l0,0l0.1-0.2
		l-0.1,0.2c0.1-0.1,0.2-0.2,0.3-0.3l0,0c0,0,0-0.1,0-0.1l0.1-0.3l-0.1,0.3c0,0,0,0.1,0,0.1c0.3-0.2,0.6-0.3,0.9-0.4
		c0.6-0.2,1.2-0.5,1.7-0.9c0.3-0.3,0.5-0.6,0.6-1c0.1-0.4,0.2-0.8,0.2-1.2c0-0.4,0-0.9,0.1-1.3c0-0.3,0.1-0.5,0.1-0.8
		c0.1-0.3,0.1-0.6,0.3-0.8c-0.4,0.3-0.8,0.6-1.2,1c-0.3,0.3-0.5,0.6-0.6,1c-0.2,0.3-0.3,0.7-0.3,1.1c-0.1,0.4-0.2,0.7-0.3,1.1
		c-0.1,0.3-0.2,0.6-0.3,0.8c-0.1,0.3-0.3,0.5-0.5,0.7l-0.5,0.3l0,0.1l0.2-0.5l0.2-0.8l0.1-0.4l0.1-0.4c0.2-0.9,0.3-1.8,0.4-2.7l0,0
		c0,0,0,0.1-0.1,0.1c0,0,0-0.1,0.1-0.1l0,0c0.2-0.2,0.5-0.4,0.8-0.6C83.5,62.8,84,62.3,84.3,61.8"/>
	<path id="Path_19" class="st1" d="M58.3,72.5c1.9,0.3,2.1,0,2.4-0.4c0.2,0.7,1.4,0.6,2.3,0.6c-2.4,1.2-1.8,3.8-2.5,6.3
		C60,76.5,60.8,74.1,58.3,72.5 M57.7,50.2c-2.7-1.2-5.5-2.5-8.2-3.8c-1.1-0.5-1.8-0.2-2.3,0.9c-1.3,2.7-2.5,5.5-3.9,8.1
		c-0.6,1.1-0.5,2.4,0.3,3.3c2.5,3.6,4.7,7.3,7.3,10.8c1,1.4,1.4,3.2,1.2,5c-0.1,1.4-0.2,2.8-0.3,4.2c3.7,0.5,7.2,2.2,9.8,4.8
		c2-0.3,3.9-0.9,5.7-1.7c-0.1-2.5-0.2-5-0.3-7.4c0-1,0.2-2,0.5-2.9c1.1-2.8,2.4-5.6,3.4-8.4c0.4-1.5,0.7-3.1,0.8-4.6
		c-1.7,1.9-3.1,3.4-4.4,4.9c-0.4,0.6-1.2,0.9-1.9,0.5c-0.1,0-0.1-0.1-0.2-0.1c-1-0.6-2-1.1-3.1-1.8l-1.4,7.6c-1-1.8-1.7-3.6-2.5-5.3
		c-0.5-1.1-1.2-2.1-2.1-3c-1.8-1.8-3.8-3.4-5.8-5.1l1.2-2.7c0.8,0.2,1.4,0.5,2.1,0.6c2,0.6,4.1-0.4,4.8-2.3
		C58.6,51.1,58.5,50.5,57.7,50.2 M56.3,44.7c1.8-3.4,1.6-3.8-1.9-5.1c-0.4-0.2-0.8-0.3-1.2-0.3c-0.4,0-0.7,0.2-0.9,0.5
		c-0.9,1.8-1.7,3.6-2.6,5.4l5,2.2C55.3,46.4,55.8,45.6,56.3,44.7 M62.8,47.9c0.9-1.4,2.1-2.8,1.3-3.8c-1-1-2.2-1.9-3.5-2.5
		c-0.2-0.1-0.5-0.2-0.8-0.2c-0.4,0-0.7,0.2-0.8,0.6c-1.1,2-2.1,4-3,5.9c1.4,1.6,4.9,1.1,4,4.8C60.8,51,61.9,49.4,62.8,47.9
		 M68.9,51.2c0.2-0.3,0.7-0.9,0.6-1.2c-0.1-0.3-0.3-0.6-0.6-0.8c-0.9-0.9-1.8-1.7-2.7-2.5c-0.8-0.7-1.3-0.5-1.8,0.4
		c-1.2,2.1-2.5,4.1-3.8,6.1c-1.8,2.8-1.8,3,1,4.9c0,0,0.1,0.1,0.1,0.1c0.7,0.7,1.3,0.6,1.9-0.3C65.3,55.7,67.1,53.5,68.9,51.2
		 M70.5,52.4c-0.2-0.2-0.4-0.3-0.7-0.5c-1.7,2-3.3,4.1-5,6.1c-1.5,1.8-1.4,2.5,0.5,3.7c0.5,0.2,1,0.2,1.4-0.1c1.4-1.3,2.6-2.7,4-4
		C73.1,55.2,73.1,54.7,70.5,52.4"/>
	<path id="Path_20" class="st3" d="M76,101l-7.2-8.8l-1.6-2l0.1,0l-1.5-1.9c-6-8.3-11.9-9.7-15.1-9.7l0,0c-0.8,0-1.7,0.1-2.5,0.3
		c-3.2,0.8-6.4,1.9-9.4,3.3c-0.5,0.2-1,0.5-1.7,0.7c-2.8,1.2-6.8,2.7-6.8,2.7c-8,2.7-12.4-1.4-13.1-2.1c-0.1-0.1-0.1-0.1-0.1-0.1
		l0.1,0.2l0,0l0,0l11,13.9c1.9,2.5,4.2,4.8,6.6,6.8c5.7,3.4,12.7,0.1,12.7,0.1c1.9-0.9,9.1-3.9,9.1-3.9c7.6-3.4,12.2-2.3,12.2-2.3
		c3.7,0.8,7,2.9,9.4,5.7L76,101z"/>
	<path id="Path_21" class="st1" d="M65.4,88c-2.6-3.6-6.5-6.3-10.8-7.5c-4.3-1.1-10.3,1.5-10.3,1.5l-8.7,3.8c-2.6,1.1-5.4,2-8.2,2.4
		c-3.2,0.5-6.5-0.5-8.8-2.8c1.8,2.3,4.4,3.9,7.3,4.4c4.6,0.6,10.6-2,10.6-2c4.1-2,10.6-4.5,10.6-4.5c2.4-0.9,5-1.4,7.6-1.3
		C58.9,82.4,62.8,84.6,65.4,88 M65.7,88.3c0,0-0.1-0.1-0.3-0.4C65.5,88.1,65.6,88.2,65.7,88.3 M54.8,89.7l-1.4-0.9l0.4-1.7l0,0
		l-1.2,1.1c0,0,0,0,0,0c0,0,0,0,0,0l-1.3-0.9l0,0c0,0,0,0,0,0l0.6,1.6c0,0,0,0,0,0.1l-1,0.9L50.6,90h0l1.6-0.1c0,0,0,0,0.1,0
		c0.2,0.5,0.4,1,0.6,1.6l0,0c0,0,0,0,0,0c0.1-0.5,0.2-1.1,0.3-1.6c0,0,0,0,0,0l1.4-0.1L54.8,89.7L54.8,89.7 M50.1,87.4L50.1,87.4
		L50.1,87.4L50.1,87.4 M52,92.3c0,0,0-0.1,0-0.1l0,0c0,0,0,0,0,0c-0.1,0.5-0.3,0.9-0.6,1.4c-0.3,0.5-0.8,0.9-1.3,1.2
		c-0.3,0.2-0.6,0.3-0.9,0.4c-0.3,0.1-0.6,0.1-0.9,0.1c-0.6,0-1.3-0.1-1.8-0.4c-0.8-0.4-1.4-1.1-1.8-1.9c-0.2-0.4-0.3-0.7-0.3-1.1
		c-0.1-0.7-0.1-1.3,0.1-2c0.2-0.7,0.5-1.2,1-1.7c0.4-0.4,0.9-0.7,1.5-0.9c0.9-0.3,1.9-0.3,2.7,0.1c0.1,0.1,0.3,0.1,0.4,0.2l0,0
		c-0.5-0.5-1.2-0.8-1.9-1c-0.9-0.3-1.9-0.2-2.8,0.1c-0.3,0.1-0.7,0.3-1,0.5c-0.3,0.2-0.6,0.4-0.8,0.7c-0.6,0.6-1,1.3-1.2,2.1
		c-0.3,1.1-0.3,2.4,0.1,3.5c0.1,0.3,0.3,0.7,0.5,1c0.2,0.3,0.4,0.7,0.7,1c0.6,0.7,1.4,1.2,2.3,1.5c0.7,0.2,1.5,0.2,2.2,0.1
		c0.3-0.1,0.5-0.1,0.8-0.2c0.4-0.2,0.7-0.4,1.1-0.6c0.4-0.3,0.8-0.7,1.1-1.1C51.7,94.1,52,93.2,52,92.3 M76.3,101.6
		c-6.5-7.8-14.1-6.8-14.1-6.8c-3,0.4-5.8,1.3-8.5,2.5c-3.1,1.5-6.2,2.8-9.5,4c-1.9,0.7-4,1.2-6.1,1.3c-5.1,0.2-9.5-4.6-9.5-4.6
		c5.1,6.8,10.6,6.4,10.6,6.4c3.3-0.2,6.6-1.1,9.7-2.4c3.5-1.7,10.3-4.4,10.3-4.4c2.3-0.8,4.7-1.2,7.2-1
		C70.1,97.1,73.6,98.9,76.3,101.6"/>
	<path id="Path_22" class="st1" d="M50.2,107.7l2-1.7l-1.5-0.3l-1.9,1.6l0.3-1.9l-1.2-0.2l-0.8,4.7l1.2,0.2l0.2-1.2l0.5-0.4l0.8,2
		l1.5,0.3L50.2,107.7z M53.5,111l0.1-1.3l-1.3-0.2l-0.1,1.3L53.5,111z M57.4,108.5l1.8-2l-1.5-0.1l-1.6,1.9l0.1-1.9l-1.3-0.1
		l-0.2,4.8l1.3,0.1l0-1.2l0.5-0.5l1.1,1.8l1.5,0.1L57.4,108.5z M61,109.9l-1.3,0l0,1.3l1.3,0L61,109.9z M63.6,107.3l1.4-0.1
		l-0.1-1.2l-4,0.4l0.1,1.2l1.4-0.1l0.3,3.6l1.3-0.1L63.6,107.3z M65.6,110.7l1.3-0.2l-0.2-1.3l-1.3,0.2L65.6,110.7z M68.4,107.8
		c-0.2-0.6,0.1-1.3,0.8-1.5c0.4-0.1,0.8,0,1.1,0.3l0.7-1c-0.6-0.5-1.4-0.7-2.1-0.5c-1.3,0.4-2.1,1.7-1.8,3v0
		c0.2,1.2,1.4,2.1,2.6,1.9c0.1,0,0.1,0,0.2,0c0.8-0.2,1.5-0.8,1.7-1.5l-1.1-0.5c-0.1,0.4-0.5,0.7-0.9,0.8c-0.6,0.1-1.2-0.3-1.3-0.9
		C68.4,107.8,68.4,107.8,68.4,107.8L68.4,107.8z M74.1,108.5l-0.4-1.3l-1.2,0.4l0.4,1.3L74.1,108.5z"/>
	<path id="Path_23" class="st1" d="M53.2,35.9l2.2-0.3L55.3,35L54,35.2l0.4-0.5c0.5-0.5,0.7-0.8,0.6-1.3v0c0-0.5-0.5-0.9-1-0.8
		c0,0-0.1,0-0.1,0c-0.5,0.1-0.9,0.4-1,0.8l0.5,0.3c0.2-0.3,0.3-0.5,0.5-0.5c0.2,0,0.4,0.1,0.4,0.3c0,0,0,0,0,0.1
		c0,0.3-0.1,0.4-0.4,0.8l-0.9,1L53.2,35.9z M57.7,33.9c0,0.6-0.2,1-0.6,1s-0.7-0.4-0.7-1v0c0-0.6,0.2-1,0.6-1
		C57.4,32.9,57.7,33.4,57.7,33.9L57.7,33.9z M58.4,33.9L58.4,33.9c0-0.9-0.6-1.6-1.4-1.6c-0.8,0.1-1.4,0.8-1.3,1.6c0,0,0,0,0,0.1v0
		c0,0.9,0.6,1.6,1.4,1.6C57.9,35.5,58.4,34.8,58.4,33.9 M60,35.6l0.2-3.2l-0.4,0l-0.9,0.2l0.1,0.6l0.5-0.1l-0.2,2.5L60,35.6z
		 M62.8,34.4L62.8,34.4c-0.1,0.6-0.4,0.9-0.8,0.9c-0.4-0.1-0.6-0.5-0.5-1.1v0c0.1-0.6,0.4-0.9,0.8-0.9S62.9,33.8,62.8,34.4
		 M62.5,32.7c-0.8-0.1-1.4,0.5-1.6,1.4v0c-0.2,0.8,0.2,1.6,1,1.8c0,0,0,0,0,0c0.8,0.1,1.4-0.5,1.6-1.4v0
		C63.7,33.7,63.3,32.9,62.5,32.7C62.5,32.7,62.5,32.7,62.5,32.7"/>
	<path id="Path_24" class="st3" d="M75.2,91.6c-0.4,0.3-0.5,0.8-0.3,1.2c0,0,0,0,0,0c0.1,0.4,0.6,0.6,1,0.4c0.1,0,0.1,0,0.2-0.1
		c0.4-0.3,0.5-0.8,0.3-1.2c0,0,0,0,0,0c-0.2-0.4-0.6-0.6-1-0.4C75.3,91.6,75.3,91.6,75.2,91.6 M79.3,90.6l2.9,4l-0.3,0.2
		c-0.6,0.5-1,0.2-2.2-1.5c-1.1-1.5-1.3-2-0.7-2.5L79.3,90.6z M84.5,94.4l-0.8-1.1l-0.4,0.3l-2.9-4l0.4-0.3L80,88.2l-2,1.6
		c-1.4,1.1-0.9,2.5,0.5,4.4c1.5,2,2.7,2.8,4.1,1.7L84.5,94.4z M83.8,91.8l1.6,1.8l3.3-3.4l-1.6-1.8l-0.7,0.8l0.7,0.8l-0.4,0.4
		l-3.4-3.6l0.4-0.4l-0.9-1L81,87.2l0.9,1l0.4-0.4l3.4,3.6l-0.4,0.4l-0.7-0.8L83.8,91.8z M83.5,84.7l1.8,1.4L86,85l-0.7-0.6l0.4-0.6
		l3.8,3.1l-0.3,0.4l1,0.8l1.5-2l-1-0.8l-0.3,0.4l-3.8-3.1l0.3-0.4l-1-0.8L83.5,84.7z M88.7,79.2l4.3,2.4L92.7,82l1.1,0.6l1.1-2.3
		l-1.1-0.6l-0.2,0.5l-4.3-2.4l0.2-0.5l-1.1-0.6L87.3,79l1.1,0.6L88.7,79.2z M95.1,81.9c-0.2,0.3,0,0.7,0.3,0.9c0,0,0,0,0.1,0
		c0.3,0.2,0.6,0.2,0.9-0.1c0,0,0.1-0.1,0.1-0.1c0.2-0.3,0.1-0.7-0.3-0.9c0,0,0,0-0.1,0c-0.3-0.2-0.6-0.2-0.8,0.1
		C95.1,81.8,95.1,81.8,95.1,81.9 M93.4,78.6l2.1,0.9l1.5-3.9l-1.2-0.5l-0.2,0.5l-4.5-1.9l0.2-0.5l-1.2-0.5l-1,2.5l1.2,0.5l0.2-0.6
		l1.6,0.7l-0.4,1.1l1.2,0.5l0.4-1.1l1.7,0.7l-0.3,0.7l-0.9-0.4L93.4,78.6z M91.6,72.2l4.6,1.5l-0.1,0.5l1.2,0.4L98,72l-1.2-0.4
		l-0.1,0.5L92,70.7l0.1-0.5l-1.2-0.4l-0.7,2.4l1.2,0.4L91.6,72.2z M98.4,73.5c-0.1,0.3,0.1,0.7,0.4,0.8c0,0,0.1,0,0.1,0
		c0.3,0.2,0.7,0,0.8-0.3c0,0,0-0.1,0.1-0.2c0.1-0.3-0.1-0.7-0.4-0.8c0,0-0.1,0-0.1,0c-0.3-0.1-0.7,0-0.8,0.3
		C98.4,73.3,98.4,73.4,98.4,73.5 M96.1,70.4l2.3,0.4l0.8-4.8l-2.3-0.4l-0.2,1.1l1,0.2l-0.1,0.6l-4.8-0.8l0.1-0.5l-1.3-0.2l-0.4,2.6
		l1.3,0.2l0.1-0.5l4.8,0.8l-0.1,0.6l-1-0.2L96.1,70.4z M95.4,63l0-0.8l0.8,0.2c1.3,0.2,1.9,0.3,1.9,0.4v0c0,0-0.6,0.1-1.9,0.2
		L95.4,63z M93.1,65.1l0-0.4l6.2-0.8l0.1-3l-1.3,0v0.1c0,0.1,0,0.2,0,0.3l0,0c0,0-0.5-0.1-1.1-0.2l-3.7-0.8l0-0.4L92,59.9l-0.1,2.2
		l1.3,0.1l0-0.4l0.9,0.2l0,1.2l-0.9,0.1l0-0.4l-1.3-0.1l-0.1,2.3L93.1,65.1z M95.8,56.5l2-0.2l0,0.4c0,0.4-0.3,0.7-1,0.8
		c-0.7,0.1-1-0.2-1.1-0.5L95.8,56.5z M92,59.7l1.3-0.1l0-0.4l1.9-0.9c0.4,0.6,1.1,0.9,1.9,0.7c1.3-0.1,2.3-0.9,2.1-2.2L99,54.2
		l-1.3,0.1l0,0.5l-4.8,0.5l0-0.5l-1.3,0.1l0.2,2.3l1.3-0.1l0-0.3l1.6-0.2l0,0.1l0,0.1l-2.8,1.2L92,59.7z M91.5,54.5l2.2-0.6
		l-0.3-1.4l-1,0.2L92.2,52l1.8-0.5l0.3,1.2l1.3-0.3l-0.3-1.2l1.6-0.4l0.2,0.8l-0.9,0.2l0.3,1.4l2.2-0.6l-1-4.2l-1.3,0.3l0.1,0.5
		l-4.7,1.2L91.8,50l-1.3,0.3L91.5,54.5z M93.3,46.3l2.1-0.8l0.1,0.2c0.2,0.5-0.1,0.8-0.8,1.1c-0.7,0.3-1.1,0.2-1.3-0.2L93.3,46.3z
		 M95.9,43l-1.2,0.5l0.2,0.5l-4.5,1.8l-0.2-0.5l-1.2,0.5l0.9,2.4l1.2-0.5l-0.2-0.5l1.3-0.5l0.1,0.4c0.4,1.2,1.4,1.6,2.9,1
		c1.5-0.6,2-1.6,1.6-2.8L95.9,43z M90.7,41c1.8-1,2.2-1.1,2.5-0.6s0,0.8-1.8,1.9c-1.8,1.1-2.2,1.1-2.5,0.6
		C88.6,42.4,88.9,42,90.7,41 M90,39.6c-2.7,1.6-3,2.7-2.3,4c0.7,1.4,1.8,1.6,4.4,0c2.7-1.6,3-2.7,2.3-4C93.7,38.3,92.6,38,90,39.6
		 M87.9,36.5c1.6-1.3,2-1.4,2.4-0.9c0.3,0.5,0.1,0.8-1.6,2.1c-1.7,1.3-2.1,1.4-2.4,0.9C85.9,38.1,86.2,37.8,87.9,36.5 M87,35.2
		c-2.5,1.9-2.7,3-1.8,4.3c0.9,1.3,1.9,1.4,4.4-0.5c2.5-1.9,2.7-3,1.8-4.3S89.5,33.3,87,35.2 M84.8,36.5l-0.3-0.3l1.7-3.3l1.8-0.3
		l0.3,0.3l0.9-1l-1.4-1.5l-0.9,1l0.3,0.3L85.9,32c-0.6,0.1-1,0.2-1,0.2l0,0l0.9-0.9l0.5-0.5l0.3,0.3l0.9-0.9l-1.6-1.7l-0.9,1
		l0.3,0.4l-3.5,3.6l-0.3-0.4l-0.9,1l1.6,1.7l0.9-1l-0.2-0.3l0.9-0.9l0.8-0.1l-1,1.9l-0.2-0.2l-0.9,1l1.5,1.6L84.8,36.5z M78.8,27.8
		l-0.7-0.5l0.5-0.6c0.9-1.1,1.3-1.5,1.3-1.5l0,0c0,0-0.3,0.5-0.8,1.8L78.8,27.8z M79.4,31l-0.3-0.2l2.5-6l-2.4-1.6l-0.7,1.1l0.1,0.1
		c0.1,0,0.1,0.1,0.2,0.1l0,0c0,0-0.4,0.4-0.7,0.8l-2.6,3l-0.3-0.2l-0.7,1.1l1.7,1.2l0.7-1.1l-0.3-0.2l0.6-0.7l1,0.7l-0.4,0.9
		l-0.3-0.2l-0.7,1.1l1.8,1.3L79.4,31z M74.5,27.6l1.9-4.7l0.4,0.2l0.5-1.2l-2.1-1l-1.8,2.8l0,0l0.7-3.3l-2.2-1l-0.5,1.3l0.4,0.2
		l-1.9,4.7l-0.4-0.2L69,26.6l1.9,0.9l0.5-1.3l-0.4-0.2l0.4-0.9c0.5-1.3,1.1-2.7,1.1-2.7l0,0c0,0-0.2,0.9-0.4,1.8l-0.3,1.5l0.9,0.4
		l0.9-1.2c0.5-0.8,1-1.5,1-1.5l0,0c0,0-0.6,1.4-1.1,2.7l-0.4,0.9l-0.4-0.2l-0.5,1.3l2,0.9l0.5-1.3L74.5,27.6z M69.6,20.1l0.5,0.1
		l0.3-1.3l-2-0.5l-0.3,1.3l0.5,0.1l-0.3,1.3c-0.3,1.2-0.5,2.2-0.5,2.2l0,0l-0.3-5.2l-2-0.5l-0.3,1.3l0.5,0.1l-1.1,5L64,23.9
		l-0.3,1.3l2,0.5l0.3-1.3l-0.5-0.1l0.3-1.3c0.3-1.2,0.5-2.2,0.5-2.2l0,0l0.2,5.1l1.5,0.4L69.6,20.1z M63,23.8l0.7-5l0.5,0.1l0.2-1.4
		L62,17.1l-0.2,1.4l0.5,0.1l-0.7,5l-0.5-0.1l-0.2,1.4l2.4,0.4l0.2-1.4L63,23.8z M60.7,23.4h-0.4l-1-3.6l1.1-1.5h0.4l0-1.4l-1.9,0
		l0,1.4h0.4l-0.8,1.1c-0.3,0.5-0.6,0.9-0.6,0.9h0l0-1.3l0-0.8h0.4l0-1.4l-2.3,0l0,1.4h0.5l-0.1,5.1h-0.5l0,1.4l2.2,0l0-1.4h-0.3
		l0-1.3l0.5-0.7l0.6,2.1h-0.3l0,1.4l2.1,0L60.7,23.4z M55.6,24.7l-0.3-2.3L54,22.5l0.1,1l-0.7,0.1l-0.5-5.1l0.5-0.1l-0.1-1.4
		l-2.4,0.3l0.1,1.4l0.5-0.1l0.5,5.1l-0.5,0.1l0.1,1.4L55.6,24.7z M48.4,22.2l-0.8,0.2l-0.1-0.9c-0.2-1.4-0.2-2-0.2-2l0,0
		c0,0,0.2,0.6,0.7,1.9L48.4,22.2z M51.1,23.9L50.7,24l-2.6-6l-2.7,0.8l0.3,1.3l0.1,0c0.1,0,0.2,0,0.2-0.1l0,0c0,0,0.1,0.6,0.1,1.1
		l0.4,4l-0.3,0.1l0.3,1.3l2-0.6l-0.3-1.3l-0.4,0.1l-0.1-1l1.1-0.3l0.4,0.9l-0.4,0.1l0.3,1.3l2.1-0.6L51.1,23.9z M45.9,25.3l-0.3,0.2
		l-2.3-2.8l0.4-1.9l0.3-0.2l-0.5-1.3l-1.8,0.8l0.5,1.3l0.4-0.2l-0.2,1.4c-0.1,0.6-0.2,1-0.2,1.1l0,0l-0.5-1.2l-0.3-0.7l0.4-0.2
		l-0.5-1.3l-2.1,1l0.5,1.3l0.4-0.2l1.9,4.7l-0.4,0.2l0.5,1.3l2-0.9l-0.5-1.2l-0.3,0.1l-0.5-1.2l0.2-0.9l1.3,1.6L44,26.2l0.5,1.3
		l1.9-0.9L45.9,25.3z M38.7,29.2L36,24.9l0.4-0.3l-0.7-1.1l-2,1.4l0.7,1.1l0.4-0.3l2.7,4.3l-0.4,0.3l0.7,1.1l2-1.4l-0.7-1.1
		L38.7,29.2z M34.3,23.6c0.3-0.2,0.4-0.6,0.2-1c0,0,0,0,0-0.1c-0.3-0.4-0.6-0.5-0.9-0.3c-0.3,0.2-0.4,0.6-0.2,1c0,0,0,0,0,0.1
		C33.6,23.7,34,23.8,34.3,23.6 M32.8,30l-1.3-1.6l0.3-0.3c0.3-0.3,0.7-0.2,1.2,0.4c0.4,0.5,0.5,1,0.2,1.2L32.8,30z M37.6,31.5
		l-0.8-1l-0.3,0.3l-1.9-1.1c0.2-0.7,0-1.5-0.5-2c-0.9-1.1-2-1.5-2.9-0.6l-1.9,1.7l0.8,1l0.4-0.3l3.1,3.9l-0.4,0.3l0.8,1l1.7-1.5
		l-0.8-1l-0.3,0.2L33.6,31l0.1-0.1l0.1-0.1l2.6,1.7L37.6,31.5z M33.8,34.9l-1.7-1.6l-0.9,1l0.7,0.7l-0.6,0.6L30,34.3l0.8-0.9
		l-0.9-0.9l-0.8,0.9l-1.2-1.2l0.5-0.6l0.7,0.7l0.9-1l-1.6-1.6l-2.8,3.1l0.9,0.9l0.3-0.4l3.5,3.5l-0.3,0.4l0.9,0.9L33.8,34.9z
		 M30.8,38.4L29,37l-0.8,1.2l0.8,0.6l-0.4,0.6l-4-2.9l0.3-0.4l-1.1-0.8l-1.4,2.1l1.1,0.8l0.3-0.4l4,2.9L27.5,41l1.1,0.8L30.8,38.4z
		 M27,41.9l-4.2-2.5L23,39l-1.1-0.7l-1.2,2.2l1.1,0.7l0.2-0.4l4.2,2.5l-0.2,0.4l1.1,0.7l1.2-2.2l-1.1-0.7L27,41.9z M20.7,39.1
		c0.2-0.3,0.1-0.7-0.3-0.9c0,0,0,0-0.1,0c-0.3-0.2-0.6-0.2-0.9,0.1c0,0-0.1,0.1-0.1,0.1c-0.2,0.3-0.1,0.7,0.3,0.9c0,0,0.1,0,0.1,0
		c0.2,0.2,0.6,0.2,0.8-0.1C20.6,39.2,20.6,39.2,20.7,39.1 M22.1,44l0.5-1.3l-2.4-1.1l-0.5,1.1l0.3,0.2l0,0c-0.4,0.1-0.6,0.3-0.9,0.8
		c-0.4,0.9-0.2,2,2.8,3.3c2.2,1,3.3,1,3.9,0.4l0.2,0.1c0.1-0.3,0.3-0.6,0.6-0.5c0.2,0.1,0.2,0.2,0.2,0.4c0,0,0,0,0,0
		c0,0.1-0.1,0.2-0.2,0.3l0.9,0.4c0.2-0.2,0.3-0.4,0.4-0.7c0.3-0.5,0.1-1.1-0.4-1.4c0,0-0.1,0-0.1-0.1c-0.3-0.1-0.6-0.1-0.8,0
		c0.2-1.2-0.6-1.7-1.3-2.2L24.3,45c0.6,0.4,0.9,0.6,0.8,1c-0.2,0.5-0.7,0.4-2.7-0.5c-1.6-0.7-2.1-1-1.8-1.6c0.2-0.5,0.7-0.4,1.4-0.1
		L22.1,44z M23.5,48.4c-1.1-0.3-2.2,0-3,0.8c-0.4,0.4-0.8,0.7-1.4,0.5c-0.4-0.1-0.5-0.4-0.4-0.6c0.1-0.3,0.3-0.5,0.9-0.3l0.5,0.1
		l0.3-1.3l-2.3-0.7l-0.3,1.2l0.3,0.1l0,0c-0.2,0.1-0.5,0.3-0.7,1c-0.2,0.9,0.2,1.6,1.3,1.9c1.1,0.3,2.2,0,2.9-0.8
		c0.6-0.4,0.9-0.7,1.4-0.5c0.5,0.1,0.6,0.4,0.5,0.7c-0.1,0.3-0.4,0.5-0.9,0.4l-0.5-0.1l-0.3,1.3l2.4,0.7l0.3-1.1l0.2,0.1
		c0.1-0.3,0.2-0.6,0.5-0.5c0.2,0,0.3,0.2,0.2,0.4c0,0,0,0,0,0c0,0.1-0.1,0.2-0.2,0.3l0.9,0.3c0.2-0.2,0.3-0.5,0.3-0.7
		c0.2-0.6-0.1-1.2-0.7-1.4c-0.3-0.1-0.6-0.1-0.9,0.1C25.2,49.4,24.7,48.7,23.5,48.4 M22.8,53.5l-4.8-0.8l0.1-0.5L16.9,52l-0.4,2.5
		l1.3,0.2l0.1-0.5l4.8,0.8l-0.1,0.5l1.3,0.2l0.4-2.5L22.9,53L22.8,53.5z M16,53.1c0.1-0.3-0.1-0.7-0.5-0.8c0,0-0.1,0-0.1,0
		c-0.3-0.1-0.7,0.1-0.8,0.4c0,0,0,0.1,0,0.1c-0.1,0.3,0.1,0.7,0.5,0.8c0,0,0.1,0,0.1,0c0.3,0.1,0.7-0.1,0.8-0.4
		C15.9,53.2,16,53.2,16,53.1 M17.3,59v-0.5l-1.3,0l0,2.3l1.3,0v-0.4l4-0.1c0.5,0,0.9,0,0.9,0.6s-0.4,0.6-0.9,0.6l-4,0.1v-0.4l-1.3,0
		l0,2.4l1.3,0v-0.5l3.9-0.1c1.7,0,2.3-0.6,2.3-2.1c0-1.5-0.7-2-2.4-2L17.3,59z M22.3,64.6l-4.8,0.8L17.5,65l-1.3,0.2l0.4,2.4
		l3.2,0.1v0l-3,1.1l0.4,2.5l1.3-0.2l-0.1-0.5l4.8-0.8l0.1,0.5l1.3-0.2l-0.3-2.2l-1.3,0.2l0.1,0.4L22,68.7c-1.3,0.2-2.7,0.5-2.7,0.5
		v0c0,0,0.8-0.3,1.7-0.7l1.3-0.6l-0.2-1l-1.4-0.1c-0.9-0.1-1.8-0.1-1.8-0.1v0c0,0,1.5-0.2,2.7-0.5l0.9-0.2l0.1,0.4l1.3-0.2l-0.4-2.3
		l-1.3,0.2L22.3,64.6z M22,73.7l0.3,0.8l-0.8,0.2c-1.3,0.3-1.9,0.4-1.9,0.4l0,0c0,0,0.5-0.3,1.7-0.9L22,73.7z M23.4,70.8l0.1,0.4
		l-5.4,3.1l0.9,2.8l1.2-0.5l0-0.1c0-0.1-0.1-0.2-0.1-0.2l0,0c0,0,0.6-0.1,1.1-0.2l3.8-0.7l0.1,0.4l1.2-0.5l-0.7-2l-1.2,0.5l0.1,0.4
		l-0.9,0.2L23.2,73l0.8-0.4l0.1,0.4l1.2-0.5l-0.7-2.2L23.4,70.8z M25.2,76l0.2,0.3L22.9,79l-1.8-0.2l-0.2-0.3l-1.1,0.6l0.9,1.8
		l1.1-0.6l-0.2-0.4l1.3,0.2c0.6,0.1,1,0.1,1.1,0.1l0,0l-1.1,0.6l-0.6,0.4l-0.2-0.4l-1.1,0.6l1.1,2.1l1.1-0.6l-0.2-0.5l4.3-2.4
		l0.2,0.5l1.1-0.6l-1-2.1l-1.1,0.6l0.2,0.3l-1.1,0.6l-0.8-0.1l1.5-1.5l0.1,0.3l1.1-0.6l-1-2L25.2,76z"/>
</g>
<g class="st4">
	<path class="st5" d="M153.7,48.7h-4.5l-2.9-5.7l-1.2,0.7v5h-4V33.8h4v6.5c0.2-0.4,0.6-1,1.2-1.9l3.1-4.6h4.4l-4.7,6.7L153.7,48.7z"
		/>
	<path class="st5" d="M164.5,48.7l-0.7-2.8h-4.8l-0.8,2.8h-4.4l4.9-15h5.4l4.9,15H164.5z M162.9,42.6l-0.6-2.4
		c-0.1-0.5-0.3-1.2-0.5-2.1c-0.2-0.9-0.4-1.5-0.4-1.9c-0.1,0.3-0.2,0.9-0.4,1.7c-0.2,0.8-0.6,2.4-1.2,4.7H162.9z"/>
	<path class="st5" d="M177,48.7l-3-10.7h-0.1c0.1,1.8,0.2,3.2,0.2,4.3v6.5h-3.6V33.8h5.4l3.1,10.6h0.1l3-10.6h5.4v14.9h-3.7v-6.5
		c0-0.3,0-0.7,0-1.1s0.1-1.4,0.1-3h-0.1l-3,10.7H177z"/>
	<path class="st5" d="M203.3,33.8v9c0,1.9-0.6,3.5-1.7,4.5c-1.1,1.1-2.7,1.6-4.8,1.6c-2,0-3.6-0.5-4.7-1.6s-1.6-2.5-1.6-4.5v-9.1h4
		v8.7c0,1.1,0.2,1.8,0.6,2.3c0.4,0.5,1,0.7,1.7,0.7c0.8,0,1.4-0.2,1.8-0.7c0.4-0.5,0.6-1.2,0.6-2.3v-8.7H203.3z"/>
	<path class="st5" d="M210.7,44.7v-3.2h5.8v3.2H210.7z"/>
	<path class="st5" d="M223.8,30.8c0-0.6,0.2-1,0.5-1.3c0.3-0.3,0.9-0.4,1.6-0.4c0.7,0,1.3,0.1,1.6,0.4s0.5,0.7,0.5,1.3
		c0,1.2-0.7,1.8-2.1,1.8C224.5,32.6,223.8,32,223.8,30.8z M223.9,48.7V33.8h4v14.9H223.9z"/>
	<path class="st5" d="M240.9,44.2c0,0.9-0.2,1.7-0.7,2.5c-0.5,0.7-1.1,1.3-2,1.7c-0.9,0.4-1.9,0.6-3.1,0.6c-1,0-1.8-0.1-2.5-0.2
		c-0.7-0.1-1.4-0.4-2.1-0.7v-3.6c0.8,0.4,1.6,0.7,2.4,0.9c0.8,0.2,1.6,0.3,2.3,0.3c0.6,0,1-0.1,1.3-0.3c0.3-0.2,0.4-0.5,0.4-0.8
		c0-0.2-0.1-0.4-0.2-0.5c-0.1-0.2-0.3-0.3-0.5-0.5c-0.2-0.2-0.9-0.5-2-1c-1-0.4-1.7-0.9-2.2-1.3c-0.5-0.4-0.8-0.9-1.1-1.4
		s-0.4-1.2-0.4-1.9c0-1.4,0.5-2.4,1.5-3.2s2.4-1.2,4.1-1.2c1.5,0,3.1,0.4,4.7,1.1l-1.2,3.1c-1.4-0.6-2.6-1-3.6-1
		c-0.5,0-0.9,0.1-1.1,0.3c-0.2,0.2-0.4,0.4-0.4,0.7c0,0.3,0.2,0.6,0.5,0.8c0.3,0.2,1.1,0.7,2.5,1.3c1.3,0.6,2.2,1.2,2.7,1.9
		C240.7,42.3,240.9,43.2,240.9,44.2z M237.6,51.3c0,0.7-0.3,1.3-0.8,1.8c-0.5,0.4-1.2,0.7-2,0.7c-0.9,0-1.6-0.1-2.2-0.3v-2.1
		c0.6,0.2,1.1,0.3,1.5,0.3c0.4,0,0.5-0.2,0.5-0.5c0-0.2-0.1-0.4-0.4-0.6s-0.6-0.3-1.1-0.4l0.7-1.4h2.1l-0.1,0.3
		c0.7,0.3,1.1,0.6,1.4,0.9S237.6,50.7,237.6,51.3z"/>
	<path class="st5" d="M261.4,48.7h-4.5l-2.9-5.7l-1.2,0.7v5h-4V33.8h4v6.5c0.2-0.4,0.6-1,1.2-1.9l3.1-4.6h4.4l-4.7,6.7L261.4,48.7z"
		/>
	<path class="st5" d="M272.1,48.7l-0.7-2.8h-4.8l-0.8,2.8h-4.4l4.9-15h5.4l4.9,15H272.1z M270.6,42.6l-0.6-2.4
		c-0.1-0.5-0.3-1.2-0.5-2.1c-0.2-0.9-0.4-1.5-0.4-1.9c-0.1,0.3-0.2,0.9-0.4,1.7c-0.2,0.8-0.6,2.4-1.2,4.7H270.6z"/>
	<path class="st5" d="M278.1,48.7V33.8h4v11.6h5.7v3.3H278.1z"/>
	<path class="st5" d="M303,48.7h-4.5l-2.9-5.7l-1.2,0.7v5h-4V33.8h4v6.5c0.2-0.4,0.6-1,1.2-1.9l3.1-4.6h4.4l-4.7,6.7L303,48.7z"/>
	<path class="st5" d="M304.6,48.7V33.8h4v14.9H304.6z"/>
	<path class="st5" d="M326.1,48.7h-5.3l-5.4-10.5h-0.1c0.1,1.7,0.2,2.9,0.2,3.8v6.7h-3.6V33.8h5.3l5.4,10.4h0.1
		c-0.1-1.5-0.1-2.7-0.1-3.6v-6.7h3.6V48.7z"/>
	<path class="st5" d="M335.8,48.7l-3-10.7h-0.1c0.1,1.8,0.2,3.2,0.2,4.3v6.5h-3.6V33.8h5.4l3.1,10.6h0.1l3-10.6h5.4v14.9h-3.7v-6.5
		c0-0.3,0-0.7,0-1.1s0.1-1.4,0.1-3h-0.1l-3,10.7H335.8z"/>
	<path class="st5" d="M358.6,48.7l-0.7-2.8H353l-0.8,2.8h-4.4l4.9-15h5.4l4.9,15H358.6z M357,42.6l-0.6-2.4
		c-0.1-0.5-0.3-1.2-0.5-2.1c-0.2-0.9-0.4-1.5-0.4-1.9c-0.1,0.3-0.2,0.9-0.4,1.7c-0.2,0.8-0.6,2.4-1.2,4.7H357z"/>
</g>
<g class="st4">
	<path class="st5" d="M153.7,78.3h-4.5l-2.9-5.7l-1.2,0.7v5h-4V63.4h4v6.5c0.2-0.4,0.6-1,1.2-1.9l3.1-4.6h4.4l-4.7,6.7L153.7,78.3z"
		/>
	<path class="st5" d="M169.3,70.8c0,2.5-0.6,4.4-1.8,5.7c-1.2,1.3-3,2-5.4,2c-2.3,0-4.1-0.7-5.4-2c-1.2-1.3-1.9-3.2-1.9-5.7
		c0-2.5,0.6-4.4,1.9-5.7c1.2-1.3,3-2,5.4-2c2.4,0,4.2,0.6,5.4,1.9C168.7,66.4,169.3,68.3,169.3,70.8z M159,70.8c0,2.9,1,4.3,3,4.3
		c1,0,1.8-0.3,2.3-1c0.5-0.7,0.7-1.8,0.7-3.3c0-1.5-0.2-2.6-0.7-3.3c-0.5-0.7-1.2-1.1-2.2-1.1C160,66.4,159,67.9,159,70.8z"/>
	<path class="st5" d="M185.9,70.8c0,2.5-0.6,4.4-1.8,5.7c-1.2,1.3-3,2-5.4,2c-2.3,0-4.1-0.7-5.4-2c-1.2-1.3-1.9-3.2-1.9-5.7
		c0-2.5,0.6-4.4,1.9-5.7c1.2-1.3,3-2,5.4-2c2.4,0,4.2,0.6,5.4,1.9C185.3,66.4,185.9,68.3,185.9,70.8z M175.6,70.8c0,2.9,1,4.3,3,4.3
		c1,0,1.8-0.3,2.3-1c0.5-0.7,0.7-1.8,0.7-3.3c0-1.5-0.2-2.6-0.7-3.3s-1.2-1.1-2.2-1.1C176.7,66.4,175.6,67.9,175.6,70.8z"/>
	<path class="st5" d="M199.4,68.1c0,1.7-0.5,2.9-1.5,3.9c-1,0.9-2.4,1.4-4.2,1.4h-1.1v4.9h-4V63.4h5.2c1.9,0,3.3,0.4,4.2,1.2
		C198.9,65.4,199.4,66.6,199.4,68.1z M192.6,70h0.7c0.6,0,1.1-0.2,1.4-0.5c0.4-0.3,0.5-0.8,0.5-1.4c0-1-0.6-1.5-1.7-1.5h-1V70z"/>
	<path class="st5" d="M210.6,78.3h-8.8V63.4h8.8v3.2h-4.8v2.3h4.5v3.2h-4.5V75h4.8V78.3z"/>
	<path class="st5" d="M217.2,72.8v5.4h-4V63.4h4.9c4,0,6.1,1.5,6.1,4.4c0,1.7-0.8,3.1-2.5,4l4.3,6.5h-4.6l-3.2-5.4H217.2z
		 M217.2,69.8h0.8c1.4,0,2.1-0.6,2.1-1.9c0-1-0.7-1.5-2.1-1.5h-0.8V69.8z"/>
	<path class="st5" d="M236.5,78.3l-0.7-2.8h-4.8l-0.8,2.8h-4.4l4.9-15h5.4l4.9,15H236.5z M234.9,72.2l-0.6-2.4
		c-0.1-0.5-0.3-1.2-0.5-2.1s-0.4-1.5-0.4-1.9c-0.1,0.3-0.2,0.9-0.4,1.7c-0.2,0.8-0.6,2.4-1.2,4.7H234.9z"/>
	<path class="st5" d="M249.1,78.3h-4V66.6h-3.6v-3.3h11.3v3.3h-3.6V78.3z"/>
	<path class="st5" d="M254.7,60.4c0-0.6,0.2-1,0.5-1.3c0.3-0.3,0.9-0.4,1.6-0.4c0.7,0,1.3,0.1,1.6,0.4c0.3,0.3,0.5,0.7,0.5,1.3
		c0,1.2-0.7,1.8-2.1,1.8C255.4,62.1,254.7,61.6,254.7,60.4z M254.8,78.3V63.4h4v14.9H254.8z"/>
	<path class="st5" d="M266.1,78.3h-4V63.4h8.8v3.2h-4.8v2.8h4.5v3.2h-4.5V78.3z"/>
	<path class="st5" d="M273.2,60.4c0-0.6,0.2-1,0.5-1.3c0.3-0.3,0.9-0.4,1.6-0.4c0.7,0,1.3,0.1,1.6,0.4c0.3,0.3,0.5,0.7,0.5,1.3
		c0,1.2-0.7,1.8-2.1,1.8C273.9,62.1,273.2,61.6,273.2,60.4z M273.3,78.3V63.4h4v14.9H273.3z"/>
	<path class="st5" d="M286,78.3V63.4h4V75h5.7v3.3H286z"/>
	<path class="st5" d="M304.7,78.3h-4V66.6h-3.6v-3.3h11.3v3.3h-3.6V78.3z"/>
	<path class="st5" d="M323.1,70.5c0,2.5-0.7,4.4-2.1,5.7c-1.4,1.3-3.3,2-5.8,2h-4.8V63.4h5.2c2.4,0,4.2,0.6,5.5,1.8
		C322.5,66.4,323.1,68.2,323.1,70.5z M319,70.6c0-1.4-0.3-2.4-0.8-3s-1.4-1-2.5-1h-1.2V75h0.9c1.2,0,2.1-0.4,2.7-1.1
		C318.7,73.2,319,72.1,319,70.6z"/>
	<path class="st5" d="M325.1,76.6c0-0.6,0.2-1.1,0.6-1.4c0.4-0.3,0.9-0.5,1.6-0.5c0.7,0,1.2,0.2,1.5,0.5c0.4,0.3,0.5,0.8,0.5,1.4
		c0,0.6-0.2,1.1-0.6,1.4s-0.9,0.5-1.5,0.5c-0.7,0-1.2-0.2-1.6-0.5C325.3,77.7,325.1,77.2,325.1,76.6z"/>
</g>
</svg>
