<?xml version="1.0" encoding="utf-8"?>
<!-- Generator: Adobe Illustrator 23.0.1, SVG Export Plug-In . SVG Version: 6.00 Build 0)  -->
<svg version="1.1" id="Layer_1" xmlns="http://www.w3.org/2000/svg" xmlns:xlink="http://www.w3.org/1999/xlink" x="0px" y="0px"
	 viewBox="0 0 208 64" style="enable-background:new 0 0 208 64;" xml:space="preserve">
<style type="text/css">
	.st0{clip-path:url(#SVGID_2_);}
	.st1{clip-path:url(#SVGID_4_);}
	.st2{fill:#FFFFFF;}
	.st3{clip-path:url(#SVGID_6_);}
	.st4{clip-path:url(#SVGID_8_);}
	.st5{clip-path:url(#SVGID_10_);}
	.st6{clip-path:url(#SVGID_12_);}
	.st7{clip-path:url(#SVGID_14_);}
	.st8{clip-path:url(#SVGID_16_);}
	.st9{enable-background:new    ;}
</style>
<g id="Group_25" transform="translate(-85 -86)">
	<g>
		<defs>
			<rect id="SVGID_1_" x="85" y="86" width="64" height="64"/>
		</defs>
		<clipPath id="SVGID_2_">
			<use xlink:href="#SVGID_1_"  style="overflow:visible;"/>
		</clipPath>
		<g id="Mask_Group_13" transform="translate(85 86)" class="st0">
			<g id="logo" transform="translate(0 2.206)">
				<g>
					<defs>
						<rect id="SVGID_3_" y="0" width="64.3" height="59.9"/>
					</defs>
					<clipPath id="SVGID_4_">
						<use xlink:href="#SVGID_3_"  style="overflow:visible;"/>
					</clipPath>
					<g id="Group_1" transform="translate(0)" class="st1">
						<path id="Path_1" class="st2" d="M58,42.2c-1,2.7-2.5,5.2-4.3,7.5c0,0,0.1,0,0.1,0c1.1,0.3,2.2,0.6,3.3,0.8
							c0.8,0.4,1.8,0,2.2-0.9c0.5-0.9,1.1-1.9,1.6-2.8c0.3-0.6,0.2-1.4-0.3-1.9c-0.8-0.8-1.6-1.7-2.4-2.5
							C58.1,42.3,58.1,42.3,58,42.2 M4.8,27.8c-1.2,0.4-2.4,0.7-3.6,1c-0.6,0.2-1.1,0.5-1.2,1.2c0,0.6,0,1.2,0,1.7h0v0.6
							c0,0.1,0,0.1,0,0.2l0,0c0,0.4,0,0.8,0,1.2c-0.1,0.8,0.4,1.5,1.2,1.7c1,0.3,1.9,0.6,2.9,0.9c0.2,0.1,0.5,0.1,0.7,0.2
							C4.3,33.7,4.3,30.7,4.8,27.8 M6.3,22.2c1-2.7,2.5-5.2,4.3-7.5c0,0-0.1,0-0.1,0c-1.1-0.3-2.2-0.6-3.3-0.8
							c-0.8-0.4-1.8,0-2.2,0.9c-0.5,0.9-1.1,1.9-1.6,2.8c-0.3,0.6-0.2,1.4,0.3,1.9c0.8,0.8,1.6,1.7,2.4,2.5
							C6.2,22.1,6.3,22.1,6.3,22.2 M14.8,10.6c2.2-1.8,4.8-3.3,7.5-4.3c0,0,0,0,0,0c-0.9-0.8-1.7-1.7-2.6-2.5
							c-0.5-0.6-1.5-0.8-2.2-0.3c-0.9,0.5-1.7,1-2.6,1.5c-0.9,0.4-1.3,1.3-1,2.2C14.1,8,14.6,9.6,14.8,10.6 M32.2,4.5
							c1.4,0,2.9,0.1,4.3,0.3c-0.4-1.1-0.7-2.3-1-3.5c-0.1-0.8-0.9-1.4-1.7-1.4c-1,0-2.1,0-3.1,0c-0.8-0.1-1.5,0.4-1.7,1.2
							c-0.3,1-0.6,2-0.9,3c-0.1,0.2-0.1,0.5-0.2,0.7C29.3,4.6,30.7,4.5,32.2,4.5 M50.4,7.3c0.3-0.8,0-1.8-0.9-2.2
							c-0.9-0.5-1.8-1-2.7-1.5c-0.6-0.4-1.5-0.3-2.1,0.2c-0.8,0.8-1.7,1.6-2.5,2.4c-0.1,0.1-0.1,0.1-0.2,0.2c2.7,1,5.2,2.5,7.5,4.3
							c0,0,0,0,0-0.1C49.9,9.5,50.1,8.4,50.4,7.3 M46.4,50.8l-1.7-2.2l-0.1,0.1c-0.3,0.3-0.2,0.6,0.4,1.4c0.7,0.9,1,1.1,1.3,0.8
							L46.4,50.8z M11.2,39.8l0.5-0.1l-0.2-0.4l-0.4,0.2c-0.7,0.4-1,0.5-1,0.5l0,0C10.2,40,10.5,40,11.2,39.8 M18,15.2
							c0.2-0.1,0.1-0.4-0.1-0.7s-0.5-0.4-0.7-0.2l-0.2,0.1l0.8,0.9L18,15.2z M26.4,11.2l0.4-0.1l-0.2-0.4c-0.3-0.7-0.4-1-0.4-1h0
							c0,0,0,0.3,0.1,1.1L26.4,11.2z M44.4,14.1l0.2-0.4c0.3-0.7,0.5-1,0.5-1l0,0c0,0-0.2,0.3-0.7,0.8L44,13.9L44.4,14.1z M51,18.4
							c-0.2-0.3-0.4-0.2-1.4,0.5c-1,0.7-1.1,0.9-0.9,1.2s0.4,0.2,1.4-0.5C51.1,18.8,51.2,18.6,51,18.4 M52.7,21
							c-0.2-0.3-0.4-0.2-1.4,0.3c-1,0.6-1.2,0.8-1.1,1.1s0.4,0.2,1.4-0.3C52.7,21.5,52.9,21.3,52.7,21 M54,23.9l0-0.1l-1.2,0.5
							l0,0.1c0.1,0.3,0.3,0.3,0.7,0.1S54.1,24.2,54,23.9 M55.4,30l0-0.2l-1.2,0.1l0,0.2c0,0.2,0.2,0.3,0.6,0.3S55.4,30.2,55.4,30
							 M55.6,33.3L55.6,33.3c0,0-0.3-0.1-1.1-0.2L54,33l0,0.5l0.5,0C55.2,33.3,55.6,33.3,55.6,33.3 M56.5,39.4
							c-0.1,0.2-0.3,0.3-0.5,0.2c-0.2,0-0.3-0.2-0.3-0.4c0,0,0,0,0-0.1c0.1-0.2,0.3-0.3,0.5-0.2S56.6,39.2,56.5,39.4 M56.3,32.3
							L56.2,34l-3.6,0.4l0,0.2l-0.7,0l0-1.3l0.7,0l0,0.2l0.5-0.1l0-0.7l-0.5-0.1l0,0.2l-0.7,0l0-1.2l0.7,0l0,0.2l2.2,0.4
							c0.3,0,0.6,0.1,0.6,0.1l0,0c0,0,0-0.1,0-0.1v-0.1L56.3,32.3z M56.2,30c0.1,0.7-0.5,1.1-1.2,1.2c-0.4,0.1-0.8-0.1-1.1-0.4
							l-1.1,0.5l0,0.2L52,31.6l-0.1-0.9l1.6-0.7l0-0.1l0-0.1L52.6,30l0,0.2l-0.7,0.1L51.8,29l0.7-0.1l0,0.3l2.8-0.2l0-0.3l0.7-0.1
							L56.2,30z M55.9,27.7L54.6,28l-0.2-0.7l0.5-0.1l-0.1-0.4l-0.9,0.2l0.2,0.7l-0.7,0.2l-0.2-0.7l-1,0.3l0.1,0.5l0.6-0.1l0.2,0.8
							l-1.3,0.3l-0.6-2.3l0.7-0.2l0.1,0.3l2.7-0.7l-0.1-0.3l0.7-0.2L55.9,27.7z M53.8,25.3c-0.9,0.3-1.4,0.1-1.7-0.6l-0.1-0.2
							l-0.7,0.3l0.1,0.3l-0.7,0.3L50.2,24l0.7-0.3L51,24l2.6-1l-0.1-0.3l0.7-0.3l0.5,1.3C55,24.4,54.7,25,53.8,25.3 M52.1,22.8
							c-1.5,0.9-2.1,0.7-2.6,0s-0.2-1.3,1.3-2.2c1.5-0.9,2.1-0.7,2.6,0S53.6,21.9,52.1,22.8 M50.6,20.2c-1.4,1-2,1-2.5,0.3
							s-0.4-1.3,1.1-2.3c1.4-1,2-1,2.5-0.3S52,19.2,50.6,20.2 M50.4,16.4l-0.5,0.5l-0.1-0.1l-1,0.2l-1,1.8l0.1,0.1l-0.5,0.5
							l-0.9-0.9L47,18l0.1,0.1l0.6-1l-0.5,0.1l-0.5,0.5l0.1,0.1l-0.5,0.5l-0.9-0.9l0.5-0.5l0.2,0.2l2-2L48,15l0.5-0.5l0.9,0.9
							l-0.5,0.5l-0.2-0.2l-0.3,0.3l-0.5,0.5l0,0c0,0,0.3-0.1,0.6-0.1l0.7-0.1l-0.2-0.2l0.5-0.5L50.4,16.4z M46,12.5l-1.5,3.3
							l0.2,0.1l-0.4,0.6l-1.1-0.7l0.4-0.6l0.2,0.1l0.2-0.5l-0.6-0.4l-0.4,0.4l0.2,0.1l-0.4,0.6l-1-0.6l0.4-0.6l0.2,0.1l1.5-1.6
							c0.2-0.2,0.4-0.4,0.4-0.5l0,0c0,0-0.1,0-0.1-0.1l-0.1,0l0.4-0.6L46,12.5z M43.6,10.9l-0.3,0.7L43,11.5L41.9,14l0.3,0.1
							l-0.3,0.7l-1.2-0.5l0.3-0.7l0.2,0.1l0.2-0.5c0.3-0.7,0.7-1.5,0.7-1.5l0,0c0,0-0.3,0.4-0.6,0.8l-0.5,0.7l-0.5-0.2l0.2-0.8
							c0.1-0.5,0.2-1,0.2-1l0,0c0,0-0.3,0.8-0.6,1.5l-0.2,0.5l0.2,0.1L39.8,14l-1.1-0.5l0.3-0.7l0.3,0.1l1.1-2.6l-0.3-0.1l0.3-0.7
							l1.3,0.6l-0.4,1.8l0,0l1-1.5L43.6,10.9z M39.5,9.2l-0.2,0.7l-0.3-0.1l-0.8,3.5l-0.9-0.2l-0.1-2.8l0,0c0,0-0.1,0.5-0.3,1.2
							l-0.2,0.7l0.3,0.1L36.8,13l-1.2-0.3l0.2-0.7l0.3,0.1l0.7-2.7l-0.3-0.1l0.2-0.7l1.1,0.3l0.1,2.9l0,0c0,0,0.1-0.6,0.3-1.2
							l0.2-0.7l-0.3-0.1l0.2-0.7L39.5,9.2z M36,8.4l-0.1,0.7l-0.3,0l-0.4,2.8l0.3,0l-0.1,0.7l-1.4-0.2l0.1-0.7l0.3,0L34.8,9l-0.3,0
							l0.1-0.7L36,8.4z M34,8.2l0,0.7h-0.2l-0.6,0.8l0.6,1.9h0.2l0,0.7l-1.2,0l0-0.7h0.2l-0.3-1.1L32.3,11l0,0.7h0.2l0,0.7l-1.3,0
							l0-0.7h0.3l0-2.8h-0.3l0-0.7l1.3,0l0,0.7h-0.2v0.4l0,0.7h0c0,0,0.2-0.2,0.3-0.5l0.4-0.6h-0.2l0-0.7L34,8.2z M31,12.4l-2.3,0.3
							L28.6,12l0.3,0l-0.3-2.8l-0.3,0l-0.1-0.7l1.4-0.2L29.7,9l-0.3,0l0.3,2.8l0.4,0l-0.1-0.5l0.8-0.1L31,12.4z M28.2,12l0.2-0.1
							l0.2,0.7L27.3,13l-0.2-0.7l0.2-0.1l-0.2-0.5L26.5,12l0.1,0.5l0.2-0.1l0.2,0.7l-1.1,0.3l-0.2-0.7l0.2-0.1l-0.2-2.2
							c0-0.3-0.1-0.6-0.1-0.6l0,0c0,0-0.1,0-0.1,0l-0.1,0l-0.2-0.7l1.6-0.4L28.2,12z M24.3,10.2l-0.2,0.1l-0.2,1l1.3,1.5l0.2-0.1
							l0.3,0.7L24.6,14l-0.3-0.7l0.2-0.1l-0.8-0.9l-0.1,0.5l0.3,0.7l0.2-0.1l0.3,0.7l-1.2,0.5l-0.3-0.7l0.3-0.1L22,11.2l-0.3,0.1
							l-0.3-0.7l1.2-0.5l0.3,0.7l-0.2,0.1l0.2,0.4l0.3,0.7l0,0c0,0,0-0.3,0.1-0.6l0.1-0.8l-0.2,0.1L22.9,10l1-0.4L24.3,10.2z
							 M19.7,12.5l1.5,2.3l0.2-0.2l0.4,0.6l-1.2,0.8l-0.4-0.6l0.2-0.2L19,13l-0.2,0.2l-0.4-0.6l1.2-0.8l0.4,0.6L19.7,12.5z
							 M18.7,11.8c-0.2,0.1-0.4,0.1-0.5-0.1c0,0,0,0,0-0.1c-0.1-0.1-0.1-0.4,0-0.5c0,0,0,0,0.1,0c0.2-0.1,0.4-0.1,0.5,0.1
							c0,0,0,0,0,0.1C18.9,11.4,18.9,11.6,18.7,11.8C18.7,11.8,18.7,11.8,18.7,11.8 M18.5,14c0.3,0.3,0.4,0.7,0.3,1.1l1.1,0.6
							l0.2-0.2l0.5,0.6l-0.7,0.6l-1.5-1l-0.1,0l-0.1,0.1l0.6,0.7l0.1-0.1l0.5,0.6l-1,0.8L18,17.3l0.2-0.2L16.4,15l-0.2,0.2l-0.5-0.6
							l1.1-0.9C17.4,13.2,18,13.4,18.5,14 M15.2,15.1l0.9,0.9l-0.5,0.6l-0.4-0.4l-0.3,0.3l0.7,0.7l0.5-0.5l0.5,0.5l-0.5,0.5l0.8,0.7
							l0.3-0.4l-0.4-0.4l0.5-0.6l1,0.9l-1.6,1.7l-0.5-0.5l0.2-0.2l-2-1.9l-0.2,0.2l-0.5-0.5L15.2,15.1z M13.1,18.9l2.3,1.6l0.2-0.3
							l-0.4-0.3l0.4-0.6l1.1,0.7l-1.3,1.9l-0.6-0.4l0.2-0.2l-2.3-1.6l-0.2,0.2l-0.6-0.4l0.8-1.1l0.6,0.4L13.1,18.9z M11.5,19.9
							l0.7,0.4L12,20.5l2.4,1.4l0.1-0.2l0.7,0.4l-0.7,1.2l-0.7-0.4l0.1-0.2l-2.4-1.4l-0.1,0.2l-0.7-0.4L11.5,19.9z M10.8,20.3
							c-0.1,0.2-0.3,0.2-0.5,0.2c0,0,0,0-0.1,0c-0.2-0.1-0.3-0.3-0.2-0.5c0.1-0.2,0.4-0.2,0.6-0.1C10.8,20,10.9,20.2,10.8,20.3
							 M9.9,22.9c0.1-0.2,0.3-0.4,0.5-0.4l0,0l-0.2-0.1l0.3-0.6l1.4,0.6L11.6,23L11.5,23c-0.4-0.2-0.7-0.2-0.8,0.1
							c-0.1,0.3,0.2,0.5,1.1,0.9c1.2,0.5,1.4,0.5,1.6,0.3c0.1-0.2-0.1-0.4-0.4-0.6l0.5-0.6c0.4,0.3,0.9,0.6,0.8,1.2
							c0.2-0.1,0.3,0,0.5,0c0.3,0.1,0.4,0.4,0.3,0.7c0,0,0,0.1,0,0.1c-0.1,0.1-0.1,0.3-0.3,0.4l-0.5-0.2c0.1,0,0.1-0.1,0.1-0.2
							c0-0.1,0-0.2,0-0.2c0,0,0,0,0,0c-0.2-0.1-0.3,0.1-0.3,0.3l-0.1-0.1c-0.4,0.3-1,0.4-2.3-0.2C9.8,24,9.7,23.4,9.9,22.9
							 M9.3,24.6l1.3,0.4l-0.2,0.7l-0.3-0.1c-0.3-0.1-0.5,0-0.5,0.2c0,0.2,0,0.3,0.3,0.4c0.3,0.1,0.5-0.1,0.8-0.3
							c0.4-0.5,1.1-0.6,1.7-0.5c0.7,0.2,1,0.5,0.9,1c0.1-0.1,0.3-0.1,0.5,0c0.3,0.1,0.5,0.4,0.4,0.7c0,0,0,0.1,0,0.1
							c0,0.1-0.1,0.3-0.2,0.4l-0.5-0.1c0.1,0,0.1-0.1,0.1-0.2c0-0.1,0-0.2-0.1-0.2c0,0,0,0,0,0c-0.2,0-0.3,0.1-0.3,0.3l-0.1,0
							l-0.2,0.6l-1.4-0.4l0.2-0.7l0.3,0.1c0.3,0.1,0.5,0,0.5-0.2s0-0.3-0.3-0.4s-0.5,0-0.8,0.3c-0.4,0.5-1.1,0.6-1.7,0.5
							C9,26.9,8.8,26.5,8.9,26c0.1-0.4,0.3-0.5,0.4-0.6l0,0l-0.2-0.1L9.3,24.6z M8.6,27.4l0.7,0.1l0,0.3l2.8,0.5l0-0.3l0.7,0.1
							l-0.2,1.4l-0.7-0.1l0-0.3l-2.8-0.5l0,0.3l-0.7-0.1L8.6,27.4z M8.1,31l0.7,0v0.3l2.3,0c1,0,1.4,0.3,1.4,1.1
							c0,0.8-0.4,1.2-1.3,1.2l-2.3,0v0.3l-0.7,0l0-1.3l0.7,0v0.2l2.3,0c0.3,0,0.5,0,0.5-0.3S11.5,32,11.2,32l-2.3,0v0.2l-0.7,0
							L8.1,31z M8.1,28c0,0.2-0.2,0.3-0.5,0.3s-0.4-0.2-0.4-0.4s0.2-0.3,0.5-0.3S8.1,27.8,8.1,28 M8.2,34.6l0.7-0.1l0,0.3l2.8-0.5
							l0-0.3l0.7-0.1l0.2,1.3l-0.7,0.1l0-0.2l-0.5,0.1c-0.7,0.1-1.6,0.2-1.6,0.3v0c0,0,0.5,0,1,0.1l0.8,0.1l0.1,0.5l-0.8,0.3
							c-0.5,0.2-1,0.4-1,0.4v0c0,0,0.8-0.2,1.6-0.3l0.5-0.1l0-0.2l0.7-0.1l0.2,1.2l-0.7,0.1l0-0.3l-2.8,0.5l0,0.3L8.7,38l-0.2-1.4
							l1.7-0.6v0l-1.8,0L8.2,34.6z M9.3,39.6l3.1-1.7l-0.1-0.2l0.7-0.2l0.4,1.2l-0.7,0.2l-0.1-0.2l-0.5,0.2l0.2,0.6l0.5-0.1
							l-0.1-0.2l0.7-0.2l0.4,1.1l-0.7,0.2l-0.1-0.2l-2.2,0.4c-0.3,0.1-0.6,0.1-0.6,0.1l0,0c0,0,0,0.1,0.1,0.1l0,0.1l-0.7,0.2
							L9.3,39.6z M10.3,42.3l0.7-0.3l0.1,0.2l1,0.1l1.4-1.4l-0.1-0.2l0.7-0.3l0.6,1.1L14,41.7l-0.1-0.2L13,42.3l0.5,0.1l0.6-0.3
							l-0.1-0.2l0.7-0.3l0.6,1.1L14.7,43l-0.1-0.2l-2.5,1.3l0.1,0.2l-0.7,0.3l-0.6-1.2l0.7-0.3l0.1,0.2l0.4-0.2l0.6-0.3l0,0
							c0,0-0.3,0-0.6-0.1l-0.8-0.1l0.1,0.2l-0.7,0.3L10.3,42.3z M48.9,44.2l2.2,1.7l0.2-0.2l0.6,0.5L51,47.2l-0.6-0.5l0.2-0.2
							l-2.2-1.7l-0.3,0.3l0.4,0.3l-0.5,0.6l-1-0.8l1.4-1.8l0.6,0.5L48.9,44.2z M46.7,45.7l0.5,0.5L47,46.5l2,2l0.2-0.2l-0.4-0.4
							l0.4-0.4l0.9,1l-1.9,1.9l-0.9-1l0.4-0.4l0.4,0.4l0.2-0.2l-2-2l-0.2,0.2l-0.5-0.5L46.7,45.7z M45.6,47.9L45.3,48l1.7,2.2
							l0.2-0.2l0.5,0.6l-1.1,0.9c-0.8,0.6-1.5,0.2-2.3-0.9c-0.8-1.1-1.1-1.8-0.3-2.4l1.2-0.9L45.6,47.9z M42.8,50
							c-0.2,0.1-0.6,0-0.7-0.2c-0.1-0.2,0-0.5,0.2-0.7c0.2-0.1,0.5-0.1,0.6,0.2c0,0,0,0,0,0C43.1,49.5,43.1,49.8,42.8,50
							C42.9,50,42.9,50,42.8,50 M52.4,43.9l0.1-0.3l-2.5-1.3L50,42.6l-0.7-0.3l0.7-1.2l0.7,0.3l-0.1,0.3l2.5,1.3l0.1-0.3l0.7,0.3
							l-0.7,1.2L52.4,43.9z M53.8,43.8c0.1-0.2,0.3-0.2,0.5-0.2c0,0,0,0,0.1,0c0.2,0.1,0.3,0.3,0.2,0.5c-0.1,0.2-0.3,0.3-0.5,0.2
							c0,0,0,0-0.1,0C53.8,44.3,53.7,44.1,53.8,43.8C53.8,43.8,53.8,43.8,53.8,43.8 M54.9,40.3L54,42.5L52.8,42l0.3-0.7l0.5,0.2
							l0.2-0.4l-1-0.4l-0.3,0.6L51.8,41l0.3-0.6L51.2,40L51,40.4l-0.7-0.3l0.6-1.4l0.7,0.3l-0.1,0.3l2.6,1.1l0.1-0.3L54.9,40.3z
							 M55.3,35.6l-0.6-0.1l0.1-0.6l1.3,0.2l-0.4,2.6l-1.3-0.2l0.1-0.6L55,37l0.1-0.3l-2.8-0.5l0,0.3l-0.7-0.1l0.2-1.4l0.7,0.1
							l0,0.3l2.8,0.5L55.3,35.6z M55.1,39.7l-0.7-0.2l0.1-0.3l-2.7-0.8l-0.1,0.3L51,38.5l0.4-1.3l0.7,0.2L52,37.7l2.7,0.8l0.1-0.3
							l0.7,0.2L55.1,39.7z M58.8,32.2c0-14.7-11.9-26.6-26.6-26.6S5.6,17.5,5.6,32.2c0,4.4,1.1,8.7,3.1,12.5c0,0,0.1,0.1,0.1,0.1
							c0,0,0,0,0,0c0.3,0.3,0.7,0.5,1,0.7c0.4,0.2,0.9,0.4,1.4,0.5c0.1,0,0.2,0.1,0.4,0.1l0.1,0c0.1,0,0.2,0,0.3,0.1
							c0.1,0,0.2,0,0.3,0s0.2,0,0.3,0c0.2,0,0.4,0,0.6,0h0c0.4,0,0.9,0,1.3-0.1c0.6-0.1,1.2-0.2,1.7-0.4c0,0,1.8-0.7,3.3-1.2
							c0.2-0.1,0.1,0,0.3-0.1l0.3-0.1c-3.3-3.2-5.1-7.6-5.2-12.2c0-9.4,7.7-17.1,17.1-17.1c9.4,0,17.1,7.7,17.1,17.1
							c0,7.3-4.6,13.8-11.5,16.1l5,5.9l1.4,1.6C53.1,51.4,58.8,42.2,58.8,32.2 M60.5,19.7c0.7-0.6,0.8-1.6,0.3-2.3
							c-0.5-0.8-0.9-1.6-1.4-2.4c-0.3-0.8-1.2-1.3-2.1-1.1c-1.2,0.3-2.4,0.6-3.6,0.9c0,0,0,0,0,0c1.8,2.2,3.3,4.8,4.3,7.5
							C58.8,21.4,59.7,20.5,60.5,19.7 M64.3,31.8L64.3,31.8c0-0.4,0-0.8,0-1.2c0.1-0.8-0.4-1.5-1.2-1.6c-1-0.3-1.9-0.6-2.9-0.9
							c-0.2-0.1-0.5-0.1-0.7-0.2c0.5,2.9,0.4,5.8,0,8.7c1.2-0.4,2.4-0.7,3.6-1c0.6-0.2,1.1-0.5,1.2-1.2c0-0.6,0-1.2,0-1.7h0V32
							C64.3,31.9,64.3,31.9,64.3,31.8"/>
					</g>
				</g>
				<g>
					<defs>
						<rect id="SVGID_5_" y="0" width="64.3" height="59.9"/>
					</defs>
					<clipPath id="SVGID_6_">
						<use xlink:href="#SVGID_5_"  style="overflow:visible;"/>
					</clipPath>
					<g id="Group_2" transform="translate(0)" class="st3">
						<path id="Path_2" class="st2" d="M23.6,43L23.6,43l0.3,0c-0.1-0.1-0.1-0.3-0.1-0.4c0-0.2-0.1-0.4,0-0.6c0-0.2-0.1-0.5-0.2-0.7
							c-0.1-0.3-0.3-0.5-0.4-0.8c-0.1-0.1-0.1-0.3-0.1-0.4c0-0.1,0-0.2,0-0.2c0-0.1,0-0.2,0-0.2c-0.4,0.4-0.6,0.9-0.5,1.5
							c0,0.3,0.1,0.5,0.2,0.7c0.1,0.2,0.3,0.4,0.5,0.6c0.1,0.1,0.2,0.2,0.3,0.3C23.5,42.8,23.6,42.9,23.6,43 M24.8,41.5
							c-0.2,0.4-0.3,0.8-0.3,1.2c0.3-0.1,0.5-0.2,0.8-0.2c0,0-0.1-0.1-0.1-0.1c-0.1-0.1-0.2-0.3-0.2-0.4
							C24.9,41.9,24.9,41.7,24.8,41.5 M19.9,40.1c-0.4-0.4-0.9-0.6-1.5-0.6c0.2,0.2,0.4,0.5,0.6,0.7c0.2,0.2,0.3,0.5,0.4,0.7
							c0.1,0.2,0.2,0.4,0.4,0.6c0.2,0.2,0.4,0.3,0.6,0.4c0.4,0.1,0.8,0.1,1.1,0.1c0.2,0,0.4,0,0.6,0l-0.2-0.2l0,0
							c-0.1,0-0.2,0-0.4,0c-0.2,0-0.3-0.1-0.5-0.2c-0.1-0.1-0.2-0.2-0.3-0.4c-0.1-0.1-0.1-0.2-0.2-0.3c-0.1-0.1-0.1-0.2-0.2-0.3
							c-0.1-0.1-0.1-0.2-0.2-0.2C20,40.3,20,40.2,19.9,40.1 M22.5,43.1c-0.2-0.1-0.4-0.3-0.5-0.4c-0.2-0.1-0.4-0.2-0.7-0.2
							c-0.3,0-0.6-0.1-0.9,0c0.5,0.3,0.9,0.7,1.3,1.2l0.1,0.1c0.3-0.1,0.7-0.3,1.1-0.4C22.7,43.3,22.6,43.2,22.5,43.1 M18,27.7
							c-0.1-0.3-0.2-0.5-0.4-0.7c0,0.3,0,0.6-0.1,0.8c0,0.1-0.1,0.2-0.1,0.3c0,0.1-0.1,0.2-0.1,0.3c-0.1,0.2-0.1,0.4-0.2,0.6
							c0,0.2,0,0.4,0.1,0.6c0.2,0.3,0.4,0.6,0.6,0.8c0.1,0.1,0.3,0.2,0.4,0.4c0-0.1,0-0.1,0-0.2c0,0,0,0,0,0l-0.2-0.3
							C18,30.3,18,30.1,18,30c0-0.2,0-0.3,0-0.5c0.1-0.4,0.1-0.8,0.1-1.2C18.1,28.2,18.1,27.9,18,27.7 M22.2,21.6
							c0.2-0.4,0.3-0.8,0.2-1.3c-0.1,0.1-0.2,0.2-0.2,0.3c-0.1,0.1-0.2,0.2-0.2,0.3c-0.2,0.2-0.3,0.3-0.5,0.4
							c-0.1,0.1-0.1,0.1-0.2,0.2c-0.1,0.1-0.1,0.1-0.2,0.2c-0.1,0.2-0.2,0.3-0.2,0.5c0,0.3,0,0.6,0.1,0.9c0.1,0.2,0.1,0.3,0.1,0.5
							c0-0.1,0.1-0.1,0.1-0.2c0,0,0,0,0,0l0-0.3c0-0.3,0.2-0.5,0.4-0.7c0.1-0.1,0.2-0.3,0.3-0.4C22,21.9,22.1,21.7,22.2,21.6
							 M24.4,20.5C24.4,20.5,24.4,20.5,24.4,20.5L24.4,20.5C24.4,20.5,24.4,20.5,24.4,20.5 M23.6,21.1L23.6,21.1
							C23.6,21.1,23.6,21.1,23.6,21.1L23.6,21.1C23.6,21.1,23.6,21.1,23.6,21.1 M23.5,21.1c-0.1,0.1-0.2,0.2-0.3,0.3l0,0
							C23.4,21.3,23.4,21.2,23.5,21.1 M21.8,22.8C21.8,22.8,21.8,22.8,21.8,22.8L21.8,22.8l-0.2,0.3l0,0L21.8,22.8L21.8,22.8
							C21.8,22.8,21.8,22.8,21.8,22.8 M21,23.7c0,0.1,0,0.1,0,0.2l0,0C21,23.8,21,23.7,21,23.7 M20.3,25l-0.1,0.2l0,0L20.3,25z
							 M19.8,25.6c0,0.1,0,0.2-0.1,0.3C19.8,25.8,19.8,25.7,19.8,25.6L19.8,25.6 M18.8,28.1v0.4V28.1z M18.4,33.1L18.4,33.1
							c0-0.1,0-0.2,0-0.3C18.4,32.9,18.4,33,18.4,33.1 M18.4,31.1L18.4,31.1c0-0.1,0-0.2,0-0.3C18.3,31,18.3,31,18.4,31.1
							 M18.4,33.7l-0.1-0.2l0,0L18.4,33.7z M18.9,35.9C18.9,35.9,18.9,35.9,18.9,35.9C18.9,35.9,18.9,35.9,18.9,35.9z M18.9,36.6
							c0.1,0,0.1,0.1,0.2,0.1C19.1,36.7,19,36.7,18.9,36.6 M19.8,38.3L19.8,38.3l0.2,0.4L19.8,38.3z M20.1,39.2l0.1,0.2l0.2,0.2
							l-0.2-0.2L20.1,39.2z M26,18.9c0.3-0.3,0.5-0.7,0.6-1.1c-0.2,0.2-0.4,0.3-0.6,0.4c-0.2,0.1-0.4,0.2-0.5,0.2
							c-0.3,0.1-0.6,0.3-0.8,0.6c-0.1,0.3-0.2,0.6-0.2,0.9c0,0.1,0,0.3-0.1,0.4l0,0c-0.1,0.1-0.3,0.2-0.4,0.3
							c-0.4,0.3-0.8,0.6-1.2,1l0,0l0-0.3c0.1-0.3,0.2-0.5,0.5-0.6c0.1-0.1,0.3-0.2,0.4-0.3c0.1-0.1,0.3-0.2,0.4-0.4
							c0.1-0.1,0.2-0.3,0.3-0.5c0-0.1,0.1-0.2,0.1-0.3c0-0.1,0-0.3,0-0.4c-0.3,0.3-0.7,0.6-1.1,0.8c-0.2,0.1-0.3,0.2-0.4,0.3
							c-0.1,0.1-0.2,0.3-0.3,0.5c-0.1,0.3-0.1,0.6,0,0.9c0,0.2,0,0.3,0,0.5c0,0,0,0,0.1-0.1c0,0,0,0-0.1,0.1l0,0
							c-0.5,0.5-1,1.1-1.5,1.7c0,0.1-0.1,0.1-0.1,0.2c-0.1,0.1-0.1,0.2-0.2,0.3c-0.4,0.5-0.7,1.1-1,1.7c0,0,0,0,0,0l-0.1-0.3
							c0-0.1,0-0.3,0.1-0.4c0.1-0.1,0.1-0.3,0.2-0.4c0.1-0.2,0.2-0.3,0.3-0.5c0.1-0.2,0.2-0.3,0.2-0.5c0.1-0.4,0.1-0.9,0-1.3
							c-0.2,0.4-0.5,0.9-0.8,1.2c-0.1,0.1-0.2,0.3-0.3,0.5c-0.1,0.2-0.1,0.4-0.1,0.6c0,0.1,0,0.3,0.1,0.4c0.1,0.2,0.1,0.3,0.2,0.5
							c0.1,0.1,0.1,0.3,0.2,0.5l0.1-0.1l-0.1,0.1l0,0c-0.4,0.7-0.7,1.5-0.9,2.3v0c0-0.1-0.1-0.2-0.1-0.3c-0.1-0.1-0.1-0.3,0-0.4
							c0-0.1,0.1-0.3,0.1-0.4c0-0.2,0.1-0.4,0.2-0.5c0.1-0.2,0.1-0.4,0.1-0.5c0-0.1,0-0.2,0-0.3c0-0.1,0-0.2,0-0.3
							c0-0.3-0.1-0.5-0.3-0.8c-0.1,0.3-0.1,0.5-0.3,0.8c-0.1,0.2-0.2,0.4-0.3,0.6c-0.1,0.2-0.2,0.4-0.3,0.5c-0.1,0.2-0.1,0.4,0,0.6
							c0.1,0.3,0.3,0.6,0.5,0.9c0.1,0.1,0.2,0.3,0.3,0.4l0,0c-0.1,0.5-0.3,1-0.4,1.5c-0.1,0.3-0.1,0.6-0.1,0.9l0,0
							c0,0.1,0,0.1,0,0.2c0,0,0,0,0,0.1c0,0,0,0,0-0.1c0,0.2,0,0.4,0,0.6c0,0.6,0,1.2,0,1.8c0,0.1,0,0.1,0,0.2l0,0
							c-0.1-0.1-0.2-0.2-0.2-0.2c-0.1-0.1-0.2-0.3-0.2-0.4c0-0.2,0-0.3,0-0.5c0-0.2,0-0.4,0-0.6c0-0.2,0-0.4-0.1-0.6
							c0-0.1-0.1-0.2-0.1-0.3c0-0.1-0.1-0.2-0.1-0.3c-0.2-0.2-0.3-0.5-0.5-0.6c0.1,0.3,0.1,0.6,0,0.9c0,0.2,0,0.5-0.1,0.7
							c0,0.2,0,0.4,0,0.6c0,0.2,0.1,0.4,0.2,0.6c0.2,0.3,0.5,0.5,0.8,0.7c0.2,0.1,0.3,0.2,0.5,0.3c0.1,0,0.1,0.1,0.1,0.2l0,0
							c0-0.1-0.1-0.1-0.1-0.2c0.1,0.5,0.1,1,0.2,1.5l0,0.2l0.1,0.2l0.1,0.5l0.1,0.3l0,0l-0.3-0.2c-0.1-0.1-0.2-0.2-0.3-0.4
							c-0.1-0.2-0.1-0.3-0.1-0.5C18.1,35.2,18,35,18,34.8c0-0.2-0.1-0.4-0.2-0.6c-0.1-0.2-0.2-0.4-0.4-0.6c-0.2-0.2-0.4-0.4-0.7-0.5
							c0.1,0.1,0.1,0.3,0.1,0.5c0,0.1,0.1,0.3,0.1,0.4c0,0.3,0,0.5,0.1,0.7c0,0.2,0,0.4,0.1,0.6c0.1,0.2,0.2,0.4,0.4,0.6
							c0.3,0.2,0.6,0.4,1,0.5c0.2,0.1,0.4,0.1,0.5,0.2c0,0.1,0.1,0.3,0.1,0.4c0.3,0.8,0.6,1.5,1,2.2l0,0l-0.3-0.1
							c-0.2-0.1-0.3-0.2-0.4-0.3c-0.1-0.1-0.2-0.3-0.3-0.4c-0.1-0.2-0.2-0.4-0.3-0.6c-0.1-0.2-0.2-0.4-0.3-0.5
							c-0.1-0.2-0.3-0.3-0.5-0.5c-0.1-0.1-0.2-0.1-0.4-0.2c-0.1-0.1-0.3-0.1-0.4-0.2c0.3,0.5,0.5,1,0.6,1.6c0.1,0.2,0.1,0.4,0.2,0.6
							c0.1,0.1,0.1,0.2,0.2,0.3c0.1,0.1,0.2,0.2,0.3,0.2c0.1,0.1,0.3,0.1,0.4,0.2c0.2,0.1,0.4,0.1,0.6,0.1c0.2,0,0.4,0.1,0.6,0.1
							l0,0c0.5,0.8,1.1,1.6,1.7,2.3l0.2,0.1l-0.2-0.1c0.1,0.1,0.1,0.1,0.2,0.2c0.1,0,0.2,0,0.2,0.1c-0.1,0-0.1-0.1-0.2-0.1
							c0.4,0.4,0.7,0.7,1.1,1.1c0.1,0,0.1,0.1,0.2,0.1c0.1,0,0.1-0.1,0.2-0.1c0,0,0,0,0,0l0,0l0,0c0,0,0-0.1,0-0.1l-0.2-0.1
							c-0.6-0.5-1.2-1.1-1.7-1.7l0,0c-0.1-0.2-0.1-0.5-0.1-0.7c0-0.2,0-0.4,0.1-0.6c0-0.2,0-0.5,0-0.7c0-0.3-0.2-0.5-0.2-0.8
							c0-0.1,0-0.3,0-0.4c0-0.2,0-0.3,0-0.5c-0.2,0.2-0.4,0.4-0.6,0.6c-0.1,0.1-0.1,0.2-0.2,0.3c0,0.1-0.1,0.2-0.1,0.4
							c0,0.1,0,0.2,0,0.4c0,0.1,0,0.2,0.1,0.4c0,0.1,0.1,0.2,0.1,0.4c0.1,0.1,0.1,0.2,0.2,0.3c0.1,0.1,0.2,0.2,0.2,0.4
							c0,0.1,0.1,0.2,0.1,0.3c0,0.1,0.1,0.1,0.1,0.2c0-0.1-0.1-0.1-0.1-0.2c0,0,0,0.1,0,0.1l0,0c0.1,0.1,0.2,0.2,0.3,0.3
							c-0.1-0.1-0.2-0.2-0.3-0.3l0,0c0,0,0-0.1,0-0.1c-0.5-0.7-1-1.4-1.4-2.1v0l0,0v0c0,0,0-0.1-0.1-0.1c0,0,0,0.1,0.1,0.1
							c0-0.2,0-0.5,0-0.7c0-0.2,0.1-0.4,0.2-0.5c0-0.1,0.1-0.2,0.1-0.3c0-0.1,0-0.2,0-0.3c0-0.3,0-0.5,0-0.8c0-0.1,0-0.3,0-0.4
							c0-0.1,0.1-0.3,0.1-0.4c-0.5,0.2-0.8,0.6-1,1.1c-0.1,0.2-0.1,0.5-0.1,0.7c0,0.2,0.1,0.5,0.2,0.7c0.1,0.1,0.1,0.3,0.2,0.4
							c0,0.1,0,0.2,0,0.3l0,0c0,0,0,0,0,0c0,0,0,0,0,0c-0.2-0.4-0.4-0.8-0.5-1.2c-0.1-0.1-0.1-0.3-0.2-0.4L19,36.1l-0.1-0.2
							c0-0.4,0.2-0.8,0.4-1.1c0.1-0.2,0.2-0.4,0.3-0.6c0-0.1,0-0.3,0.1-0.4c0-0.1,0-0.3,0.1-0.4c0.1-0.3,0.2-0.5,0.3-0.8
							c-0.3,0-0.5,0.1-0.7,0.3c-0.2,0.1-0.3,0.3-0.5,0.5c-0.1,0.2-0.2,0.4-0.2,0.7c0,0.2,0,0.5,0,0.7c0,0.1,0.1,0.3,0.1,0.4
							c0,0.1,0,0.2,0,0.3v0v0c0,0,0,0.1,0,0.1c0,0,0-0.1,0-0.1l0-0.2c-0.1-0.6-0.2-1.2-0.3-1.8c0-0.1,0-0.2,0-0.3l0,0
							c0.1-0.2,0.2-0.4,0.3-0.6c0.1-0.1,0.2-0.3,0.4-0.4c0.2-0.2,0.3-0.3,0.4-0.5c0.1-0.1,0.1-0.2,0.1-0.4c0-0.1,0.1-0.2,0.1-0.4
							c0.1-0.3,0.3-0.5,0.5-0.7c-0.5,0-1,0.2-1.3,0.5c-0.1,0.2-0.3,0.4-0.3,0.6c-0.1,0.2-0.1,0.5-0.1,0.7c0,0.1,0,0.3,0,0.4
							c0,0.1,0,0.2-0.1,0.3c0-0.3,0-0.7,0-1c0-0.4,0.1-0.9,0.1-1.3c0,0,0,0,0,0l0,0c0,0,0,0,0,0c0-0.1,0-0.3,0.1-0.4l-0.1,0.4
							c0.1-0.2,0.2-0.4,0.4-0.5c0.1-0.1,0.3-0.2,0.4-0.3c0.2-0.1,0.3-0.3,0.5-0.5c0.1-0.2,0.2-0.4,0.4-0.6c0.2-0.2,0.4-0.4,0.6-0.6
							c-0.2-0.1-0.5-0.1-0.7,0c-0.2,0.1-0.4,0.1-0.6,0.3c-0.3,0.3-0.6,0.7-0.7,1.1c0,0.1,0,0.3-0.1,0.4c0,0.1-0.1,0.2-0.1,0.2
							c0.1-0.7,0.3-1.5,0.5-2.2l0,0l0,0c0-0.1,0.1-0.3,0.1-0.4l0,0c0,0,0,0,0.1-0.1c0.3-0.7,0.6-1.3,0.9-2l0,0
							c0.2-0.1,0.3-0.2,0.5-0.3c0.2-0.1,0.3-0.1,0.5-0.1c0.2,0,0.4-0.1,0.6-0.2c0.2-0.1,0.4-0.3,0.6-0.4c0.2-0.1,0.5-0.3,0.7-0.3
							c-0.4-0.2-0.8-0.3-1.3-0.2c-0.2,0.1-0.4,0.2-0.5,0.3c-0.2,0.1-0.3,0.3-0.4,0.5c-0.1,0.1-0.1,0.2-0.2,0.3
							c-0.1,0.1-0.1,0.1-0.2,0.2l0,0c0,0,0,0,0,0c0,0,0,0,0,0c0.2-0.3,0.4-0.6,0.6-0.9c0.2-0.3,0.4-0.6,0.6-0.8l0,0
							c0.2-0.1,0.4-0.2,0.6-0.2c0.2,0,0.3,0,0.5,0c0.2,0,0.4,0,0.6-0.1c0.2-0.1,0.4-0.2,0.6-0.3c0.2-0.1,0.5-0.2,0.7-0.2
							c-0.3-0.3-0.7-0.4-1.2-0.4c-0.4,0.1-0.8,0.3-1.1,0.6c-0.1,0.1-0.2,0.2-0.2,0.3c-0.1,0.1-0.1,0.1-0.2,0.1
							c-0.1,0.1-0.1,0.1-0.2,0.2c0.1-0.1,0.1-0.1,0.2-0.2l0,0c0.4-0.5,0.9-1,1.4-1.4l0,0c0.1,0,0.2-0.1,0.3-0.1c0.1,0,0.2,0,0.3,0
							c0.2,0,0.3,0,0.5,0c0.2,0,0.4,0,0.6,0c0.2,0,0.4-0.1,0.6-0.2C25.8,21,26,21,26.3,21c-0.3-0.3-0.6-0.5-1.1-0.6
							c-0.4,0-0.8,0.1-1.1,0.4C24,20.9,23.9,21,23.8,21c-0.1,0-0.1,0.1-0.2,0.1c0.2-0.1,0.3-0.2,0.4-0.4c0.2-0.2,0.4-0.3,0.6-0.4
							s0.3-0.2,0.5-0.3l0.3-0.2c0,0,0.1,0,0.1,0l-0.1-0.1c0,0,0,0,0,0c-0.1,0-0.2,0.1-0.3,0.2s-0.3,0.2-0.5,0.3l0,0l-0.1,0.1
							c0,0,0,0-0.1,0.1c0,0,0,0,0.1-0.1c0-0.1,0.1-0.1,0.1-0.1l0,0c0,0,0,0,0,0l0.1-0.2c0.1-0.3,0.3-0.4,0.5-0.5
							C25.5,19.3,25.8,19.1,26,18.9 M19.3,27.2L19.3,27.2C19.3,27.2,19.2,27.2,19.3,27.2L19.3,27.2c-0.1,0.2-0.1,0.3-0.2,0.4l0,0
							c0.1-0.2,0.3-0.3,0.5-0.4c0.1-0.1,0.3-0.2,0.5-0.2c0.2-0.1,0.4-0.2,0.5-0.3c0.1-0.1,0.2-0.2,0.2-0.3c0.1-0.1,0.2-0.2,0.3-0.3
							c0.2-0.2,0.4-0.3,0.7-0.4c-0.4-0.2-0.9-0.2-1.3,0c-0.4,0.2-0.7,0.6-0.9,1c0,0.1-0.1,0.2-0.1,0.3
							C19.4,27.1,19.3,27.1,19.3,27.2 M26.8,19.8c0.5-0.3,0.7-0.8,1.3-0.9c-0.4-0.3-1-0.4-1.5-0.2c-0.5,0.3-0.7,0.8-1.1,1
							c0,0-0.1,0.1-0.1,0.1l0.1,0.1C25.9,20.1,26.4,20.1,26.8,19.8"/>
					</g>
				</g>
				<g>
					<defs>
						<rect id="SVGID_7_" y="0" width="64.3" height="59.9"/>
					</defs>
					<clipPath id="SVGID_8_">
						<use xlink:href="#SVGID_7_"  style="overflow:visible;"/>
					</clipPath>
					<g id="Group_3" transform="translate(0)" class="st4">
						<path id="Path_3" class="st2" d="M41.8,21.7c0,0,0.1,0.1,0.1,0.1c0-0.2,0-0.3,0-0.5c0.1-0.3,0.1-0.6,0-0.9
							c-0.1-0.2-0.2-0.3-0.3-0.5c-0.1-0.1-0.3-0.2-0.4-0.3c-0.4-0.2-0.8-0.5-1.1-0.8c0,0.1,0,0.3,0,0.4c0,0.1,0,0.2,0.1,0.3
							c0.1,0.2,0.2,0.3,0.3,0.5c0.1,0.1,0.2,0.3,0.4,0.4c0.1,0.1,0.3,0.2,0.4,0.3c0.2,0.2,0.4,0.4,0.5,0.6L41.8,21.7L41.8,21.7
							 M46.3,31.1L46.3,31.1c0-0.1,0-0.3,0.1-0.4l0,0C46.3,30.9,46.3,31,46.3,31.1 M46.3,33.7c0,0,0-0.1,0-0.1l0,0
							C46.3,33.6,46.3,33.7,46.3,33.7 M46.2,33.9L46.2,33.9L46.2,33.9L46.2,33.9z M46.1,30.3L46.1,30.3
							C46.1,30.3,46.1,30.3,46.1,30.3C46.1,30.2,46.1,30.3,46.1,30.3l0-0.4l0,0L46.1,30.3z M44.5,25.2L44.5,25.2L44.5,25.2
							L44.5,25.2z M43.6,23.8c0-0.1,0-0.1-0.1-0.2C43.6,23.7,43.6,23.8,43.6,23.8z M43,23.1C43,23.1,43,23.1,43,23.1
							C43,23.1,43,23.1,43,23.1l-0.2-0.3l0,0L43,23.1z M41.3,21.4L41.3,21.4c0,0-0.1-0.1-0.1-0.1C41.3,21.3,41.3,21.4,41.3,21.4
							 M40.3,20.5L40.3,20.5c0,0,0-0.1,0-0.1C40.2,20.5,40.3,20.5,40.3,20.5 M45.8,35.5L45.8,35.5C45.8,35.5,45.8,35.4,45.8,35.5
							C45.8,35.4,45.8,35.5,45.8,35.5z M45.8,35.5l0,0.1l0,0.1l0-0.1L45.8,35.5z M44.3,39.5c0,0-0.1,0-0.1,0.1l0,0
							C44.3,39.5,44.3,39.5,44.3,39.5 M43.2,40.8c-0.1,0.1-0.2,0.2-0.3,0.3C43,41.1,43.1,41,43.2,40.8z M42.7,41.8L42.7,41.8
							l-0.1,0.1L42.7,41.8z M40.2,43.9c-0.1,0.1-0.3,0.1-0.4,0.2l0,0C39.9,44,40.1,44,40.2,43.9z M38.3,44.8L38.3,44.8l-0.5,0.2
							L38.3,44.8z M37.3,45.5c-0.1,0-0.1,0-0.1,0.1C37.2,45.5,37.2,45.5,37.3,45.5L37.3,45.5 M36.8,45.5
							C36.8,45.5,36.8,45.5,36.8,45.5C36.8,45.5,36.8,45.5,36.8,45.5 M47.6,32.8c0.1-0.2,0.2-0.4,0.2-0.6c0-0.2,0-0.4,0-0.6
							c0-0.2-0.1-0.5-0.1-0.7c0-0.3,0-0.6,0-0.9c-0.2,0.2-0.4,0.4-0.5,0.6c-0.1,0.1-0.1,0.2-0.1,0.3c0,0.1-0.1,0.2-0.1,0.3
							c0,0.2-0.1,0.4-0.1,0.6c0,0.2,0,0.4,0,0.6c0,0.1,0,0.3,0,0.5c0,0.2-0.1,0.3-0.2,0.4c-0.1,0.1-0.2,0.2-0.2,0.2l0,0
							c0-0.1,0-0.1,0-0.2c0.1-0.6,0.1-1.2,0-1.8c0-0.2,0-0.4,0-0.6c0,0,0,0,0,0c0,0,0,0,0,0c0.1-0.1,0.2-0.3,0.4-0.4
							c0.3-0.2,0.5-0.5,0.7-0.8c0.1-0.2,0.1-0.4,0.1-0.6c0-0.2-0.1-0.4-0.1-0.6c0-0.1-0.1-0.2-0.1-0.3s-0.1-0.2-0.1-0.3
							C47,27.6,47,27.3,47,27c-0.2,0.2-0.3,0.5-0.4,0.7c-0.1,0.2-0.1,0.4-0.1,0.6c0,0.4,0.1,0.8,0.1,1.2c0,0.2,0,0.3,0,0.5
							c0,0.2,0,0.3-0.1,0.4l-0.2,0.3c0,0,0,0,0,0c0-0.3-0.1-0.6-0.1-0.9c-0.1-0.5-0.2-1-0.4-1.5c0,0.1,0,0.1-0.1,0.2l0,0
							c0-0.1,0-0.1,0.1-0.2c0,0,0-0.1,0-0.1c0,0,0,0.1,0,0.1l0,0c0.1-0.2,0.2-0.3,0.3-0.4c0.2-0.3,0.4-0.5,0.5-0.9
							c0-0.2,0-0.4,0-0.6c-0.1-0.2-0.1-0.4-0.3-0.5c-0.1-0.2-0.2-0.4-0.3-0.6c-0.1-0.2-0.2-0.5-0.3-0.8c-0.1,0.2-0.2,0.5-0.3,0.8
							c0,0.1,0,0.2,0,0.3c0,0.1,0,0.2,0,0.3c0,0.2,0.1,0.4,0.1,0.5c0.1,0.2,0.1,0.4,0.2,0.5c0,0.1,0.1,0.3,0.1,0.4
							c0,0.1,0,0.3,0,0.4c0,0.1-0.1,0.2-0.1,0.3v0c-0.2-0.8-0.5-1.5-0.9-2.3l0,0c0-0.2,0.1-0.3,0.2-0.5c0.1-0.2,0.2-0.3,0.2-0.5
							c0-0.1,0.1-0.3,0.1-0.4c0-0.2,0-0.4-0.1-0.6c-0.1-0.2-0.2-0.3-0.3-0.5c-0.3-0.3-0.6-0.8-0.8-1.2c-0.1,0.4-0.2,0.9,0,1.3
							c0.1,0.2,0.1,0.3,0.2,0.5c0.1,0.2,0.2,0.3,0.3,0.5c0.1,0.1,0.1,0.3,0.2,0.4c0.1,0.1,0.1,0.3,0.1,0.4l-0.1,0.3c0,0,0,0,0,0l0,0
							c0,0.1,0.1,0.3,0.1,0.4l0,0c0-0.1,0-0.3-0.1-0.4c-0.3-0.6-0.7-1.2-1-1.7c-0.1-0.1-0.1-0.2-0.2-0.3c0-0.2,0-0.3,0.1-0.5
							c0.1-0.3,0.2-0.6,0.1-0.9c0-0.2-0.1-0.4-0.2-0.5c-0.1-0.1-0.1-0.1-0.2-0.2c-0.1-0.1-0.1-0.1-0.2-0.2c-0.2-0.1-0.3-0.3-0.5-0.4
							c-0.1-0.1-0.2-0.2-0.2-0.3c-0.1-0.1-0.2-0.2-0.2-0.3c-0.1,0.4,0,0.9,0.2,1.3c0.1,0.2,0.2,0.3,0.3,0.4c0.1,0.1,0.2,0.3,0.3,0.4
							c0.2,0.2,0.3,0.5,0.4,0.7l0,0.3c0,0,0,0,0,0c0,0,0.1,0.1,0.1,0.1c0,0-0.1-0.1-0.1-0.1l0,0c-0.4-0.6-0.9-1.1-1.5-1.7
							c0,0,0,0,0,0c0,0,0,0,0,0c0,0-0.1-0.1-0.1-0.1c0.1,0.1,0.1,0.2,0.2,0.3l0,0c-0.1-0.1-0.1-0.2-0.2-0.3c-0.4-0.4-0.8-0.7-1.2-1
							c-0.2-0.1-0.3-0.2-0.4-0.3l0,0c0-0.1-0.1-0.3-0.1-0.4c0-0.3,0-0.6-0.2-0.9c-0.2-0.3-0.5-0.5-0.8-0.6c-0.2-0.1-0.4-0.1-0.5-0.2
							c-0.2-0.1-0.4-0.2-0.6-0.4c0.1,0.4,0.3,0.8,0.6,1.1c0.3,0.2,0.5,0.4,0.8,0.6c0.2,0.1,0.5,0.3,0.5,0.5l0.1,0.2c0,0,0,0,0,0l0,0
							l0.1,0.1c0,0.1,0.1,0.1,0.1,0.1c0,0-0.1-0.1-0.1-0.1s-0.1-0.1-0.1-0.1l0,0c-0.2-0.1-0.3-0.2-0.5-0.3s-0.2-0.1-0.3-0.2
							c0,0,0,0,0,0c0,0-0.1-0.1-0.1-0.1c-0.5-0.3-0.6-0.7-1.1-1c-0.5-0.2-1.1-0.1-1.5,0.2c0.6,0.2,0.8,0.6,1.3,0.9
							c0.4,0.2,0.9,0.2,1.3,0c0,0,0,0,0.1,0c0.1,0,0.2,0.1,0.3,0.2s0.3,0.2,0.5,0.3s0.4,0.3,0.6,0.4c0.1,0.1,0.3,0.2,0.5,0.4
							c0,0,0.1,0,0.1,0l0,0c0,0-0.1,0-0.1,0l0,0c-0.1,0-0.1,0-0.2-0.1c-0.1-0.1-0.2-0.1-0.3-0.2c-0.3-0.2-0.7-0.4-1.1-0.4
							c-0.4,0-0.8,0.2-1.1,0.6c0.2,0,0.5,0,0.7,0c0.2,0.1,0.4,0.2,0.6,0.2c0.2,0,0.4,0.1,0.6,0c0.1,0,0.3,0,0.5,0c0.1,0,0.2,0,0.3,0
							c0.1,0,0.2,0.1,0.3,0.1c-0.1-0.1-0.2-0.2-0.3-0.3c0.1,0.1,0.2,0.2,0.3,0.3c0,0,0,0,0,0l0,0c0,0,0,0,0,0c0.5,0.4,1,0.9,1.4,1.4
							l0,0c0.1,0.1,0.1,0.1,0.2,0.2c-0.1-0.1-0.1-0.1-0.2-0.2c-0.1,0-0.1-0.1-0.2-0.1c-0.1-0.1-0.2-0.2-0.2-0.3
							c-0.3-0.3-0.7-0.5-1.1-0.6c-0.4-0.1-0.9,0.1-1.2,0.4c0.3,0,0.5,0.1,0.7,0.2c0.2,0.1,0.4,0.2,0.6,0.3c0.2,0.1,0.4,0.1,0.6,0.1
							c0.2,0,0.3,0,0.5,0c0.2,0.1,0.4,0.1,0.6,0.2l0,0c0.2,0.3,0.4,0.5,0.6,0.8c0.2,0.3,0.4,0.6,0.6,0.9c0,0,0,0,0.1,0l0,0
							c0,0-0.1,0-0.1,0c-0.1,0-0.1-0.1-0.2-0.2c-0.1-0.1-0.1-0.2-0.2-0.3c-0.1-0.2-0.3-0.3-0.4-0.5c-0.2-0.1-0.4-0.2-0.5-0.3
							c-0.4-0.1-0.9-0.1-1.3,0.2c0.3,0.1,0.5,0.2,0.7,0.3c0.2,0.1,0.4,0.3,0.6,0.4c0.2,0.1,0.4,0.2,0.6,0.2c0.2,0,0.3,0.1,0.5,0.1
							c0.2,0.1,0.4,0.2,0.5,0.3l0,0c0,0,0,0,0,0s0,0,0,0c0.3,0.6,0.7,1.3,0.9,2c-0.1-0.1-0.1-0.1-0.2-0.2c-0.1-0.1-0.1-0.2-0.1-0.3
							c-0.2-0.4-0.5-0.8-0.9-1c-0.4-0.2-0.9-0.2-1.3,0c0.2,0.1,0.5,0.3,0.7,0.4c0.1,0.1,0.2,0.2,0.3,0.3c0.1,0.1,0.2,0.2,0.2,0.3
							c0.2,0.1,0.3,0.3,0.5,0.3c0.2,0.1,0.3,0.1,0.5,0.2c0.2,0.1,0.3,0.3,0.5,0.4c0,0,0,0,0,0c0,0,0,0,0,0c0.2,0.7,0.4,1.4,0.5,2.2
							c0,0,0,0,0.1,0.1c0,0,0,0-0.1-0.1l0,0c-0.1-0.1-0.1-0.1-0.1-0.2c0-0.1-0.1-0.3-0.1-0.4c-0.1-0.4-0.3-0.8-0.7-1.1
							c-0.2-0.1-0.4-0.2-0.6-0.3c-0.2-0.1-0.5-0.1-0.7,0c0.2,0.1,0.4,0.3,0.6,0.6c0.1,0.2,0.2,0.4,0.4,0.6c0.1,0.2,0.3,0.3,0.5,0.5
							c0.1,0.1,0.3,0.2,0.4,0.3c0.2,0.2,0.3,0.3,0.4,0.5l0,0c0.1,0.4,0.1,0.9,0.1,1.3c0,0.3,0,0.7,0,1c0-0.1-0.1-0.2-0.1-0.3
							c0-0.1,0-0.3,0-0.4c0-0.2,0-0.5-0.1-0.7c-0.1-0.2-0.2-0.4-0.3-0.6c-0.3-0.4-0.8-0.6-1.3-0.5c0.2,0.2,0.4,0.4,0.5,0.7
							c0.1,0.1,0.1,0.2,0.1,0.4c0,0.1,0.1,0.2,0.1,0.4c0.1,0.2,0.2,0.4,0.4,0.5c0.1,0.1,0.3,0.2,0.4,0.4c0.1,0.2,0.2,0.4,0.3,0.6
							c0,0,0,0,0,0l0,0c0,0,0,0,0,0c0,0.1,0,0.2,0,0.3c-0.1,0.6-0.2,1.2-0.3,1.8l0,0.2l0,0v0v0c0-0.1,0-0.2,0-0.3
							c0-0.1,0-0.3,0.1-0.4c0-0.2,0.1-0.5,0-0.7c0-0.2-0.1-0.5-0.2-0.7c-0.1-0.2-0.3-0.4-0.5-0.5c-0.2-0.1-0.5-0.2-0.7-0.3
							c0.2,0.2,0.3,0.5,0.3,0.8c0,0.1,0,0.3,0.1,0.4s0,0.3,0.1,0.4c0.1,0.2,0.1,0.4,0.3,0.6c0.1,0.1,0.2,0.3,0.3,0.5
							c0.1,0.2,0.1,0.4,0.2,0.7l0,0c0,0,0,0,0,0l0,0c0,0,0,0,0,0l-0.1,0.2l-0.1,0.4c0,0.1-0.1,0.3-0.2,0.4c-0.1,0.4-0.3,0.8-0.5,1.2
							c0,0,0,0,0,0c0,0,0,0,0,0c0-0.1,0-0.2,0-0.3c0-0.1,0.1-0.3,0.2-0.4c0.1-0.2,0.2-0.5,0.2-0.7c0-0.2,0-0.5-0.1-0.7
							c-0.2-0.5-0.5-0.9-1-1.1c0.1,0.1,0.1,0.3,0.1,0.4c0,0.1,0,0.3,0,0.4c0,0.3,0,0.5,0,0.8c0,0.1,0,0.2,0,0.3
							c0,0.1,0.1,0.2,0.1,0.3c0.1,0.2,0.1,0.3,0.2,0.5c0,0.2,0,0.5,0,0.7c0.1-0.1,0.1-0.2,0.2-0.3c-0.1,0.1-0.1,0.2-0.2,0.3
							c0,0,0,0,0,0l0,0l0.2-0.4l0,0l-0.2,0.4l0,0v0c-0.4,0.7-0.9,1.5-1.4,2.1c0,0,0,0,0,0c0,0,0,0,0,0l0,0c0-0.1,0-0.2,0.1-0.3
							c0.1-0.1,0.2-0.2,0.2-0.4c0.1-0.1,0.1-0.2,0.2-0.3c0.1-0.1,0.1-0.2,0.1-0.4c0-0.1,0.1-0.2,0.1-0.4c0-0.1,0-0.2,0-0.4
							c0-0.1,0-0.2-0.1-0.4c0-0.1-0.1-0.2-0.2-0.3c-0.1-0.2-0.3-0.4-0.6-0.6c0,0.2,0,0.3,0,0.5c0,0.1,0,0.3,0,0.4
							c-0.1,0.3-0.2,0.5-0.2,0.8c0,0.2,0,0.5,0,0.7c0,0.2,0.1,0.4,0.1,0.6c0,0.2-0.1,0.5-0.1,0.7C43,41,43,41,43.1,40.9
							C43,41,43,41,42.9,41.1c0,0,0,0,0,0s0,0,0,0c-0.5,0.6-1.1,1.2-1.7,1.7c-0.1,0.1-0.1,0.1-0.2,0.1c0,0,0,0,0,0c0,0,0,0,0,0
							c0-0.1,0.1-0.2,0.1-0.2c0.1-0.1,0.2-0.2,0.3-0.3c0.2-0.2,0.4-0.4,0.5-0.6c0.1-0.2,0.2-0.5,0.2-0.7c0.1-0.5-0.1-1.1-0.5-1.5
							c0,0.1,0,0.2,0,0.2s0,0.2,0,0.2c0,0.1-0.1,0.3-0.1,0.4c-0.1,0.3-0.3,0.5-0.4,0.8C41.1,41.5,41,41.8,41,42c0,0.2,0,0.4,0,0.6
							c-0.1,0.2-0.2,0.5-0.3,0.7l0,0c-0.7,0.5-1.5,1-2.3,1.4c0,0,0,0,0,0c0,0,0,0,0,0l0,0c0.1-0.1,0.1-0.1,0.2-0.2
							c0.1-0.1,0.3-0.2,0.4-0.2c0.5-0.3,0.8-0.7,1-1.2c0.2-0.5,0.1-1.1-0.2-1.6c0,0.2-0.1,0.3-0.2,0.5c-0.1,0.1-0.1,0.3-0.2,0.4
							c-0.1,0.1-0.2,0.2-0.3,0.3c-0.1,0.1-0.2,0.2-0.3,0.3c-0.2,0.2-0.3,0.4-0.3,0.7c0,0.2-0.1,0.4-0.2,0.6
							c-0.1,0.2-0.3,0.4-0.5,0.6c0.1,0,0.1-0.1,0.2-0.1l-0.2,0.1c0,0,0,0,0,0l0,0c0,0,0,0,0,0c-0.7,0.3-1.4,0.6-2.2,0.8
							c0,0,0,0-0.1,0c0,0,0,0,0,0c0.1,0.1,0.2,0.2,0.2,0.2c0.4-0.1,0.8-0.2,1.2-0.4l0,0c0.1,0,0.1,0,0.2,0.1
							c0.1,0.1,0.3,0.1,0.4,0.2c0.2,0.1,0.4,0.2,0.6,0.3c0.2,0.1,0.3,0.1,0.5,0.1c0.1,0,0.3,0,0.4,0c0.1,0,0.2-0.1,0.3-0.1
							c0.2-0.1,0.4-0.2,0.6-0.4c0.2-0.2,0.4-0.3,0.7-0.5c0.1-0.1,0.3-0.2,0.4-0.2c0.2-0.1,0.3-0.2,0.5-0.2c-0.3-0.1-0.6-0.2-0.9-0.2
							c-0.2,0-0.5,0-0.7,0.1c-0.2,0.1-0.4,0.1-0.6,0.2c-0.2,0.1-0.4,0.2-0.6,0.3c-0.3,0.2-0.7,0.3-1,0.2l-0.4-0.1c0,0,0,0,0,0
							c1-0.4,1.9-0.8,2.7-1.4c0,0,0,0,0,0h0c0.1,0,0.1-0.1,0.2-0.1c-0.1,0-0.1,0.1-0.2,0.1c0.2,0,0.4,0.1,0.6,0.2
							c0.4,0.2,0.8,0.2,1.2,0.2c0.5-0.1,0.9-0.3,1.2-0.8c0.4-0.5,0.8-0.9,1.3-1.2c-0.3,0-0.6,0-0.9,0c-0.2,0-0.5,0.1-0.7,0.2
							c-0.2,0.1-0.4,0.2-0.5,0.4c-0.2,0.1-0.3,0.3-0.5,0.4c-0.1,0.1-0.3,0.2-0.4,0.3c-0.2,0.1-0.3,0.1-0.5,0.1l-0.4,0l0,0
							c0.4-0.3,0.8-0.6,1.2-0.9c0.4-0.3,0.8-0.7,1.1-1.1c-0.1,0-0.2,0-0.2,0.1l0,0c0.1,0,0.1-0.1,0.2-0.1c0,0,0.1-0.1,0.1-0.1
							c0,0-0.1,0.1-0.1,0.1c0.2,0,0.4,0,0.6,0c0.4,0.1,0.8,0,1.1-0.1c0.2-0.1,0.4-0.2,0.6-0.4c0.1-0.2,0.3-0.4,0.4-0.6
							c0.1-0.2,0.2-0.4,0.4-0.7c0.2-0.3,0.4-0.5,0.6-0.7c-0.5,0-1.1,0.3-1.5,0.6c-0.1,0.1-0.2,0.2-0.2,0.2s-0.1,0.2-0.2,0.2
							s-0.1,0.2-0.2,0.3s-0.1,0.2-0.2,0.3c-0.1,0.1-0.2,0.3-0.3,0.4c-0.1,0.1-0.3,0.2-0.5,0.2c-0.1,0-0.2,0-0.4,0l0,0
							c0.7-0.7,1.2-1.5,1.7-2.3l0,0c0.2-0.1,0.4-0.1,0.6-0.1c0.2,0,0.4-0.1,0.6-0.1c0.2,0,0.3-0.1,0.4-0.2c0.1-0.1,0.2-0.1,0.3-0.2
							c0.1-0.1,0.1-0.2,0.2-0.3c0.1-0.2,0.2-0.4,0.2-0.6c0.1-0.6,0.3-1.1,0.6-1.6c-0.2,0.1-0.3,0.1-0.4,0.2
							c-0.1,0.1-0.2,0.1-0.4,0.2c-0.2,0.1-0.3,0.3-0.5,0.5c-0.1,0.2-0.2,0.4-0.3,0.5c-0.1,0.2-0.2,0.4-0.3,0.6
							c-0.1,0.1-0.2,0.3-0.3,0.4c-0.1,0.1-0.2,0.3-0.4,0.3l-0.3,0.1l0,0c0.4-0.7,0.7-1.4,1-2.2c0-0.1,0.1-0.3,0.1-0.4
							c-0.1,0-0.1,0.1-0.2,0.1l0,0l0.1-0.1l-0.1,0.1c0-0.1,0.1-0.1,0.2-0.1l0,0l0-0.1l0-0.1l0,0.1l0,0.1c0.2-0.1,0.3-0.2,0.5-0.2
							c0.4-0.1,0.7-0.3,1-0.5c0.2-0.2,0.3-0.3,0.4-0.6c0.1-0.2,0.1-0.4,0.1-0.6c0-0.2,0-0.5,0.1-0.7c0-0.1,0-0.3,0.1-0.4
							c0-0.2,0.1-0.3,0.1-0.5c-0.2,0.1-0.5,0.3-0.7,0.5c-0.2,0.2-0.3,0.3-0.4,0.6c-0.1,0.2-0.2,0.4-0.2,0.6
							c-0.1,0.2-0.1,0.4-0.2,0.6c0,0.2-0.1,0.3-0.1,0.5c-0.1,0.2-0.2,0.3-0.3,0.4l-0.3,0.2l0,0l0.1-0.3l0.1-0.5l0.1-0.2l0-0.2
							c0.1-0.5,0.2-1,0.2-1.5l0,0c0,0,0,0,0,0.1c0,0,0,0,0-0.1l0,0c0.1-0.1,0.3-0.2,0.5-0.3C47.1,33.3,47.4,33.1,47.6,32.8"/>
					</g>
				</g>
				<g>
					<defs>
						<rect id="SVGID_9_" y="0" width="64.3" height="59.9"/>
					</defs>
					<clipPath id="SVGID_10_">
						<use xlink:href="#SVGID_9_"  style="overflow:visible;"/>
					</clipPath>
					<g id="Group_4" transform="translate(0)" class="st5">
						<path id="Path_4" class="st2" d="M32.5,38.7c1.1,0.2,1.2,0,1.4-0.2c0.1,0.4,0.8,0.3,1.3,0.4c-1.4,0.7-1.1,2.1-1.5,3.5
							C33.5,40.8,34,39.5,32.5,38.7 M32.2,26.4c-1.6-0.7-3.2-1.4-4.7-2.1c-0.4-0.3-0.9-0.2-1.2,0.3c-0.1,0.1-0.1,0.2-0.1,0.3
							c-0.7,1.5-1.5,3-2.3,4.5c-0.4,0.6-0.3,1.3,0.2,1.8c1.4,2,2.7,4,4.2,5.9c0.6,0.8,0.8,1.8,0.7,2.7c-0.1,0.7-0.1,1.5-0.2,2.2
							c2.2,0.2,4.2,1.2,5.7,2.7c1.1-0.2,2.2-0.5,3.2-0.9c-0.1-1.4-0.1-2.7-0.2-4.1c0-0.5,0.1-1.1,0.3-1.6c0.6-1.5,1.4-3,2-4.6
							c0.2-0.8,0.4-1.7,0.5-2.5c-1,1-1.8,1.8-2.6,2.7c-0.2,0.4-0.8,0.5-1.1,0.2c0,0,0,0,0,0c-0.6-0.3-1.2-0.6-1.8-1
							c-0.3,1.4-0.6,2.8-0.8,4.1c-0.6-1-1-2-1.5-2.9c-0.3-0.6-0.7-1.2-1.2-1.6c-1.1-1-2.2-1.8-3.3-2.8l0.7-1.5
							c0.5,0.1,0.8,0.3,1.2,0.4c1.1,0.3,2.3-0.2,2.8-1.3C32.7,26.9,32.7,26.6,32.2,26.4 M31.4,23.4c1-1.9,1-2.1-1.1-2.8
							c-0.2-0.1-0.4-0.2-0.7-0.2c-0.2,0-0.4,0.1-0.5,0.3c-0.5,1-1,2-1.5,3l2.9,1.2C30.8,24.4,31.1,23.9,31.4,23.4 M35.2,25.1
							c0.5-0.8,1.2-1.5,0.7-2.1c-0.6-0.6-1.3-1-2-1.4c-0.1-0.1-0.3-0.1-0.5-0.1c-0.2,0-0.4,0.1-0.5,0.3c-0.6,1.1-1.2,2.2-1.8,3.2
							c0.8,0.9,2.8,0.6,2.3,2.6C34,26.8,34.6,26,35.2,25.1 M38.7,27c0.1-0.2,0.4-0.5,0.4-0.6c-0.1-0.2-0.2-0.3-0.3-0.5
							c-0.5-0.5-1-0.9-1.6-1.4c-0.4-0.4-0.8-0.3-1.1,0.2c-0.7,1.1-1.5,2.2-2.2,3.4c-1,1.6-1,1.6,0.5,2.7c0,0,0.1,0,0.1,0
							c0.4,0.4,0.7,0.3,1.1-0.1C36.6,29.4,37.6,28.2,38.7,27 M39.6,27.6c-0.1-0.1-0.2-0.2-0.4-0.3c-1,1.1-1.9,2.2-2.9,3.4
							c-0.8,1-0.8,1.4,0.3,2c0.3,0.1,0.6,0.1,0.8-0.1c0.8-0.7,1.5-1.5,2.3-2.2C41.1,29.2,41.1,28.9,39.6,27.6"/>
					</g>
				</g>
				<g>
					<defs>
						<rect id="SVGID_11_" y="0" width="64.3" height="59.9"/>
					</defs>
					<clipPath id="SVGID_12_">
						<use xlink:href="#SVGID_11_"  style="overflow:visible;"/>
					</clipPath>
					<g id="Group_5" transform="translate(0)" class="st6">
						<path id="Path_5" class="st2" d="M36.7,47.1c-1.6-2-3.8-3.5-6.3-4.1c-2.5-0.6-6,0.8-6,0.8l-5.1,2.1c-1.5,0.6-3.1,1.1-4.8,1.3
							c-1.8,0.3-3.7-0.3-5.1-1.5c1.1,1.3,2.6,2.1,4.2,2.4c2.6,0.3,6.1-1.1,6.1-1.1c2.4-1.1,6.1-2.5,6.1-2.5c1.4-0.5,2.9-0.8,4.4-0.7
							C32.8,44,35.1,45.2,36.7,47.1 M36.8,47.3c0,0-0.1-0.1-0.2-0.2C36.7,47.2,36.8,47.2,36.8,47.3 M30.5,48.1
							c-0.3-0.2-0.5-0.3-0.8-0.5c0.1-0.3,0.1-0.6,0.2-0.9c0,0,0,0,0,0c-0.2,0.2-0.5,0.4-0.7,0.6c0,0,0,0,0,0c0,0,0,0,0,0
							c-0.3-0.2-0.5-0.3-0.8-0.5l0,0c0,0,0,0,0,0c0.1,0.3,0.2,0.6,0.4,0.9c0,0,0,0,0,0c-0.2,0.2-0.4,0.3-0.6,0.5
							c0,0-0.1,0.1-0.1,0.1h0c0.3,0,0.6,0,0.9-0.1c0,0,0,0,0,0c0.1,0.3,0.2,0.6,0.4,0.9c0,0,0,0,0,0c0,0,0,0,0,0
							c0.1-0.3,0.1-0.6,0.2-0.9c0,0,0,0,0,0C29.9,48.1,30.2,48.1,30.5,48.1C30.5,48.1,30.5,48.1,30.5,48.1L30.5,48.1 M27.8,46.8
							L27.8,46.8 M28.9,49.5C28.9,49.5,28.9,49.4,28.9,49.5L28.9,49.5C28.9,49.4,28.9,49.4,28.9,49.5c-0.1,0.2-0.2,0.5-0.3,0.7
							c-0.2,0.3-0.5,0.5-0.8,0.7c-0.2,0.1-0.3,0.2-0.5,0.2c-0.5,0.1-1.1,0.1-1.6-0.2c-0.4-0.2-0.8-0.6-1-1c-0.1-0.2-0.2-0.4-0.2-0.6
							c-0.1-0.4,0-0.7,0.1-1.1c0.1-0.4,0.3-0.7,0.6-1c0.2-0.2,0.5-0.4,0.8-0.5c0.1,0,0.3-0.1,0.4-0.1c0.4,0,0.8,0,1.1,0.2
							c0.1,0,0.2,0.1,0.2,0.1l0,0c-0.3-0.3-0.7-0.4-1.1-0.6c-0.7-0.2-1.5-0.1-2.2,0.3c-0.2,0.1-0.3,0.2-0.5,0.4
							c-0.3,0.3-0.6,0.7-0.7,1.2c-0.2,0.6-0.2,1.3,0.1,1.9c0.1,0.2,0.2,0.4,0.3,0.5c0.1,0.2,0.3,0.4,0.4,0.5
							c0.4,0.4,0.8,0.7,1.3,0.8c0.4,0.1,0.9,0.1,1.3,0c0.2,0,0.3-0.1,0.4-0.1c0.2-0.1,0.4-0.2,0.6-0.3c0.2-0.2,0.4-0.4,0.6-0.6
							C28.7,50.5,28.9,50,28.9,49.5 M42.9,54.6c-2-2.5-5-3.9-8.2-3.7c-1.7,0.2-3.4,0.7-4.9,1.4c-1.8,0.8-3.6,1.6-5.5,2.2
							c-1.1,0.4-2.3,0.6-3.5,0.7c-2.9,0.1-5.5-2.5-5.5-2.5c3,3.7,6.1,3.5,6.1,3.5c1.9-0.1,3.8-0.6,5.6-1.3c2-0.9,6-2.4,6-2.4
							c1.3-0.5,2.7-0.6,4.1-0.6C39.4,52.1,41.4,53.1,42.9,54.6"/>
					</g>
				</g>
				<g>
					<defs>
						<rect id="SVGID_13_" y="0" width="64.3" height="59.9"/>
					</defs>
					<clipPath id="SVGID_14_">
						<use xlink:href="#SVGID_13_"  style="overflow:visible;"/>
					</clipPath>
					<g id="Group_6" transform="translate(0)" class="st7">
						<path id="Path_6" class="st2" d="M27.8,58L29,57l-0.8-0.2l-1.1,0.9l0.2-1l-0.7-0.1l-0.5,2.6l0.7,0.1l0.1-0.7l0.3-0.2l0.5,1.1
							l0.9,0.2L27.8,58z M29.8,59.7l0.1-0.7l-0.7-0.1L29,59.6L29.8,59.7z M32,58.4l1-1.1l-0.9,0l-0.9,1l0-1.1l-0.7,0l-0.1,2.6l0.7,0
							l0-0.7l0.3-0.3l0.6,1l0.9,0L32,58.4z M34.1,59.1l-0.7,0l0,0.7l0.7,0L34.1,59.1z M35.6,57.8l0.8-0.1L36.3,57L34,57.3l0.1,0.6
							l0.8-0.1l0.2,2l0.7-0.1L35.6,57.8z M36.7,59.6l0.7-0.1l-0.1-0.7l-0.7,0.1L36.7,59.6z M38.4,58c-0.1-0.3,0.1-0.7,0.4-0.8
							c0,0,0,0,0,0c0.2-0.1,0.5,0,0.6,0.2l0.4-0.5c-0.3-0.3-0.8-0.4-1.2-0.3c-0.7,0.2-1.2,0.9-1,1.6c0,0,0,0,0,0.1l0,0
							c0.2,0.7,0.9,1.2,1.7,1c0.4-0.1,0.8-0.4,0.9-0.8l-0.6-0.3c-0.1,0.2-0.3,0.4-0.5,0.4C38.8,58.6,38.5,58.4,38.4,58
							C38.4,58,38.4,58,38.4,58L38.4,58z M41.7,58.4l-0.2-0.7L40.7,58l0.2,0.7L41.7,58.4z"/>
					</g>
				</g>
				<g>
					<defs>
						<rect id="SVGID_15_" y="0" width="64.3" height="59.9"/>
					</defs>
					<clipPath id="SVGID_16_">
						<use xlink:href="#SVGID_15_"  style="overflow:visible;"/>
					</clipPath>
					<g id="Group_7" transform="translate(0)" class="st8">
						<path id="Path_7" class="st2" d="M29.6,18.6l1.3-0.2l0-0.3L30,18.2l0.2-0.3c0.3-0.3,0.4-0.4,0.4-0.7l0,0
							c0-0.3-0.3-0.5-0.6-0.5c0,0,0,0-0.1,0c-0.3,0-0.5,0.2-0.6,0.4l0.3,0.2c0.1-0.2,0.2-0.3,0.3-0.3c0.1,0,0.2,0,0.3,0.2
							c0,0,0,0,0,0c0,0.1-0.1,0.2-0.2,0.5l-0.5,0.5L29.6,18.6z M32.2,17.5c0,0.3-0.1,0.5-0.4,0.6s-0.4-0.2-0.4-0.5l0,0
							c0-0.3,0.1-0.5,0.4-0.6S32.2,17.2,32.2,17.5z M32.6,17.5L32.6,17.5c0.1-0.4-0.2-0.8-0.7-0.9c-0.4-0.1-0.8,0.2-0.9,0.7
							c0,0.1,0,0.2,0,0.2l0,0c-0.1,0.4,0.2,0.8,0.7,0.9c0.4,0.1,0.8-0.2,0.9-0.7C32.6,17.6,32.6,17.6,32.6,17.5 M33.5,18.4l0.1-1.7
							l-0.3,0l-0.5,0.1l0.1,0.3l0.3-0.1l-0.1,1.3L33.5,18.4z M35.2,17.8L35.2,17.8c0,0.3-0.2,0.5-0.5,0.5s-0.3-0.3-0.3-0.6l0,0
							c0.1-0.3,0.2-0.5,0.5-0.5S35.2,17.5,35.2,17.8 M34.9,16.8c-0.4,0-0.8,0.3-0.9,0.7c0,0,0,0,0,0l0,0c-0.1,0.4,0.1,0.8,0.5,1
							c0.4,0.1,0.8-0.1,1-0.5c0-0.1,0-0.1,0-0.2l0,0C35.7,17.4,35.4,17,34.9,16.8C35,16.8,35,16.8,34.9,16.8"/>
					</g>
				</g>
			</g>
		</g>
	</g>
	<g class="st9">
		<path class="st2" d="M172.2,114h-2.6l-1.7-3.3l-0.7,0.4v2.9h-2.3v-8.6h2.3v3.7c0.1-0.2,0.4-0.6,0.7-1.1l1.8-2.6h2.5l-2.7,3.8
			L172.2,114z"/>
		<path class="st2" d="M178.4,114l-0.4-1.6h-2.8l-0.4,1.6h-2.5l2.8-8.6h3.1l2.8,8.6H178.4z M177.5,110.5l-0.4-1.4
			c-0.1-0.3-0.2-0.7-0.3-1.2s-0.2-0.9-0.2-1.1c0,0.2-0.1,0.5-0.2,1s-0.3,1.4-0.7,2.7H177.5z"/>
		<path class="st2" d="M185.6,114l-1.8-6.2h-0.1c0.1,1.1,0.1,1.9,0.1,2.4v3.7h-2.1v-8.6h3.1l1.8,6.1h0l1.8-6.1h3.1v8.6h-2.1v-3.8
			c0-0.2,0-0.4,0-0.7s0-0.8,0.1-1.8h-0.1l-1.7,6.2H185.6z"/>
		<path class="st2" d="M200.8,105.4v5.2c0,1.1-0.3,2-1,2.6s-1.5,0.9-2.7,0.9c-1.2,0-2.1-0.3-2.7-0.9s-0.9-1.5-0.9-2.6v-5.2h2.3v5
			c0,0.6,0.1,1,0.3,1.3s0.6,0.4,1,0.4c0.5,0,0.8-0.1,1-0.4s0.3-0.7,0.3-1.3v-5H200.8z"/>
		<path class="st2" d="M205,111.7v-1.8h3.3v1.8H205z"/>
		<path class="st2" d="M212.6,103.7c0-0.3,0.1-0.6,0.3-0.8s0.5-0.3,0.9-0.3s0.7,0.1,0.9,0.3s0.3,0.4,0.3,0.8c0,0.7-0.4,1-1.2,1
			C213,104.7,212.6,104.4,212.6,103.7z M212.6,114v-8.6h2.3v8.6H212.6z"/>
		<path class="st2" d="M222.4,111.4c0,0.5-0.1,1-0.4,1.4s-0.7,0.7-1.2,1s-1.1,0.3-1.8,0.3c-0.6,0-1,0-1.4-0.1s-0.8-0.2-1.2-0.4v-2.1
			c0.4,0.2,0.9,0.4,1.4,0.5s0.9,0.2,1.3,0.2c0.3,0,0.6-0.1,0.8-0.2s0.2-0.3,0.2-0.5c0-0.1,0-0.2-0.1-0.3s-0.2-0.2-0.3-0.3
			s-0.5-0.3-1.1-0.6c-0.6-0.3-1-0.5-1.3-0.7s-0.5-0.5-0.6-0.8s-0.2-0.7-0.2-1.1c0-0.8,0.3-1.4,0.9-1.8s1.4-0.7,2.4-0.7
			c0.9,0,1.8,0.2,2.7,0.6l-0.7,1.8c-0.8-0.4-1.5-0.6-2.1-0.6c-0.3,0-0.5,0.1-0.7,0.2s-0.2,0.2-0.2,0.4c0,0.2,0.1,0.3,0.3,0.5
			s0.6,0.4,1.4,0.7c0.7,0.3,1.3,0.7,1.5,1.1S222.4,110.8,222.4,111.4z M220.5,115.5c0,0.4-0.1,0.8-0.4,1s-0.7,0.4-1.2,0.4
			c-0.5,0-0.9-0.1-1.2-0.2v-1.2c0.3,0.1,0.6,0.2,0.9,0.2c0.2,0,0.3-0.1,0.3-0.3c0-0.1-0.1-0.2-0.2-0.3s-0.4-0.2-0.6-0.2l0.4-0.8h1.2
			l-0.1,0.2c0.4,0.2,0.6,0.3,0.8,0.5S220.5,115.2,220.5,115.5z"/>
		<path class="st2" d="M234.2,114h-2.6l-1.7-3.3l-0.7,0.4v2.9h-2.3v-8.6h2.3v3.7c0.1-0.2,0.4-0.6,0.7-1.1l1.8-2.6h2.5l-2.7,3.8
			L234.2,114z"/>
		<path class="st2" d="M240.3,114l-0.4-1.6h-2.8l-0.4,1.6h-2.5l2.8-8.6h3.1l2.8,8.6H240.3z M239.4,110.5l-0.4-1.4
			c-0.1-0.3-0.2-0.7-0.3-1.2s-0.2-0.9-0.2-1.1c0,0.2-0.1,0.5-0.2,1s-0.3,1.4-0.7,2.7H239.4z"/>
		<path class="st2" d="M243.8,114v-8.6h2.3v6.7h3.3v1.9H243.8z"/>
		<path class="st2" d="M258.1,114h-2.6l-1.7-3.3l-0.7,0.4v2.9h-2.3v-8.6h2.3v3.7c0.1-0.2,0.4-0.6,0.7-1.1l1.8-2.6h2.5l-2.7,3.8
			L258.1,114z"/>
		<path class="st2" d="M259,114v-8.6h2.3v8.6H259z"/>
		<path class="st2" d="M271.4,114h-3l-3.1-6h-0.1c0.1,0.9,0.1,1.7,0.1,2.2v3.9h-2.1v-8.6h3l3.1,6h0c-0.1-0.9-0.1-1.6-0.1-2.1v-3.9
			h2.1V114z"/>
		<path class="st2" d="M276.9,114l-1.8-6.2h-0.1c0.1,1.1,0.1,1.9,0.1,2.4v3.7h-2.1v-8.6h3.1l1.8,6.1h0l1.8-6.1h3.1v8.6h-2.1v-3.8
			c0-0.2,0-0.4,0-0.7s0-0.8,0.1-1.8h-0.1l-1.7,6.2H276.9z"/>
		<path class="st2" d="M290.1,114l-0.4-1.6h-2.8l-0.4,1.6h-2.5l2.8-8.6h3.1l2.8,8.6H290.1z M289.2,110.5l-0.4-1.4
			c-0.1-0.3-0.2-0.7-0.3-1.2s-0.2-0.9-0.2-1.1c0,0.2-0.1,0.5-0.2,1s-0.3,1.4-0.7,2.7H289.2z"/>
	</g>
	<g class="st9">
		<path class="st2" d="M172.2,131h-2.6l-1.7-3.3l-0.7,0.4v2.9h-2.3v-8.6h2.3v3.7c0.1-0.2,0.4-0.6,0.7-1.1l1.8-2.6h2.5l-2.7,3.8
			L172.2,131z"/>
		<path class="st2" d="M181.2,126.7c0,1.4-0.4,2.5-1.1,3.3s-1.7,1.1-3.1,1.1c-1.3,0-2.4-0.4-3.1-1.1s-1.1-1.9-1.1-3.3
			c0-1.4,0.4-2.5,1.1-3.3s1.7-1.1,3.1-1.1c1.4,0,2.4,0.4,3.1,1.1S181.2,125.3,181.2,126.7z M175.3,126.7c0,1.7,0.6,2.5,1.7,2.5
			c0.6,0,1-0.2,1.3-0.6s0.4-1,0.4-1.9c0-0.9-0.1-1.5-0.4-1.9s-0.7-0.6-1.3-0.6C175.9,124.2,175.3,125,175.3,126.7z"/>
		<path class="st2" d="M190.7,126.7c0,1.4-0.4,2.5-1.1,3.3s-1.7,1.1-3.1,1.1c-1.3,0-2.4-0.4-3.1-1.1s-1.1-1.9-1.1-3.3
			c0-1.4,0.4-2.5,1.1-3.3s1.7-1.1,3.1-1.1c1.4,0,2.4,0.4,3.1,1.1S190.7,125.3,190.7,126.7z M184.9,126.7c0,1.7,0.6,2.5,1.7,2.5
			c0.6,0,1-0.2,1.3-0.6s0.4-1,0.4-1.9c0-0.9-0.1-1.5-0.4-1.9s-0.7-0.6-1.3-0.6C185.4,124.2,184.9,125,184.9,126.7z"/>
		<path class="st2" d="M198.5,125.2c0,1-0.3,1.7-0.8,2.2s-1.4,0.8-2.4,0.8h-0.7v2.8h-2.3v-8.6h3c1.1,0,1.9,0.2,2.4,0.7
			S198.5,124.3,198.5,125.2z M194.6,126.3h0.4c0.3,0,0.6-0.1,0.8-0.3s0.3-0.5,0.3-0.8c0-0.6-0.3-0.9-1-0.9h-0.6V126.3z"/>
		<path class="st2" d="M205,131h-5.1v-8.6h5.1v1.9h-2.8v1.3h2.6v1.9h-2.6v1.6h2.8V131z"/>
		<path class="st2" d="M208.8,127.9v3.1h-2.3v-8.6h2.8c2.3,0,3.5,0.8,3.5,2.5c0,1-0.5,1.8-1.5,2.3l2.5,3.7h-2.6l-1.8-3.1H208.8z
			 M208.8,126.1h0.4c0.8,0,1.2-0.4,1.2-1.1c0-0.6-0.4-0.9-1.2-0.9h-0.5V126.1z"/>
		<path class="st2" d="M219.8,131l-0.4-1.6h-2.8l-0.4,1.6h-2.5l2.8-8.6h3.1l2.8,8.6H219.8z M218.9,127.5l-0.4-1.4
			c-0.1-0.3-0.2-0.7-0.3-1.2s-0.2-0.9-0.2-1.1c0,0.2-0.1,0.5-0.2,1s-0.3,1.4-0.7,2.7H218.9z"/>
		<path class="st2" d="M227.1,131h-2.3v-6.7h-2.1v-1.9h6.5v1.9h-2.1V131z"/>
		<path class="st2" d="M230.3,120.7c0-0.3,0.1-0.6,0.3-0.8s0.5-0.3,0.9-0.3s0.7,0.1,0.9,0.3s0.3,0.4,0.3,0.8c0,0.7-0.4,1-1.2,1
			C230.7,121.7,230.3,121.4,230.3,120.7z M230.4,131v-8.6h2.3v8.6H230.4z"/>
		<path class="st2" d="M236.8,131h-2.3v-8.6h5.1v1.9h-2.8v1.6h2.6v1.9h-2.6V131z"/>
		<path class="st2" d="M241,120.7c0-0.3,0.1-0.6,0.3-0.8s0.5-0.3,0.9-0.3s0.7,0.1,0.9,0.3s0.3,0.4,0.3,0.8c0,0.7-0.4,1-1.2,1
			C241.4,121.7,241,121.4,241,120.7z M241,131v-8.6h2.3v8.6H241z"/>
	</g>
</g>
</svg>
