<?xml version="1.0" encoding="utf-8"?>
<!-- Generator: Adobe Illustrator 23.0.1, SVG Export Plug-In . SVG Version: 6.00 Build 0)  -->
<svg version="1.1" id="Layer_1" xmlns="http://www.w3.org/2000/svg" xmlns:xlink="http://www.w3.org/1999/xlink" x="0px" y="0px"
	 viewBox="0 0 64 64" style="enable-background:new 0 0 64 64;" xml:space="preserve">
<style type="text/css">
	.st0{clip-path:url(#SVGID_2_);}
	.st1{fill:#D60812;}
	.st2{fill:#00A12F;}
	.st3{fill:#FFFFFF;}
</style>
<g>
	<defs>
		<rect id="SVGID_1_" x="1.5" y="2.9" width="61" height="58.2"/>
	</defs>
	<clipPath id="SVGID_2_">
		<use xlink:href="#SVGID_1_"  style="overflow:visible;"/>
	</clipPath>
	<g class="st0">
		<path class="st1" d="M56.5,43.9c-1,2.6-2.4,5-4.1,7.3c0,0,0.1,0,0.1,0c1,0.3,2.1,0.6,3.1,0.8c0.8,0.3,1.7,0,2-0.8c0,0,0,0,0-0.1
			c0.5-0.9,1-1.8,1.5-2.7c0.3-0.6,0.2-1.4-0.3-1.9c-0.8-0.8-1.5-1.6-2.3-2.5C56.6,44,56.6,44,56.5,43.9 M6.1,30
			c-1.1,0.4-2.3,0.7-3.4,1c-0.6,0.1-1,0.6-1.1,1.2c0,0.6,0,1.1,0,1.7h0v0.6v0.2v1.2c-0.1,0.7,0.4,1.4,1.1,1.6
			c0.9,0.3,1.8,0.6,2.8,0.8c0.2,0.1,0.5,0.1,0.7,0.2C5.6,35.6,5.6,32.8,6.1,30 M7.5,24.5c1-2.6,2.4-5,4.1-7.3c0,0-0.1,0-0.1,0
			c-1-0.3-2.1-0.6-3.1-0.8c-0.8-0.3-1.7,0-2,0.8c0,0,0,0,0,0.1c-0.5,0.9-1,1.8-1.5,2.7c-0.3,0.6-0.2,1.3,0.3,1.8
			c0.8,0.8,1.5,1.6,2.3,2.5C7.4,24.3,7.4,24.4,7.5,24.5 M15.5,13.2c2.1-1.7,4.5-3.2,7.1-4.2c0,0,0,0,0,0c-0.8-0.8-1.6-1.6-2.5-2.4
			c-0.5-0.6-1.4-0.7-2-0.3c-0.8,0.5-1.6,1-2.5,1.4c-0.8,0.4-1.2,1.3-0.9,2.2C14.9,10.7,15.3,12.2,15.5,13.2 M32,7.3
			c1.4,0,2.7,0.1,4.1,0.3c-0.3-1.1-0.7-2.2-1-3.4c-0.1-0.8-0.8-1.4-1.6-1.3c-1,0-2,0-3,0c-0.8-0.1-1.4,0.4-1.6,1.2
			C28.6,5,28.4,6,28.1,6.9c-0.1,0.2-0.1,0.4-0.2,0.7C29.2,7.4,30.6,7.3,32,7.3 M49.3,10c0.3-0.8,0-1.7-0.8-2.1
			c-0.8-0.5-1.7-1-2.5-1.5c-0.6-0.4-1.4-0.3-2,0.2c-0.8,0.8-1.6,1.6-2.4,2.3c-0.1,0.1-0.1,0.1-0.2,0.2c2.6,1,5,2.4,7.1,4.2
			c0,0,0,0,0-0.1C48.8,12.1,49,11,49.3,10 M57.2,34.2C57.2,19.9,45.9,8.4,32,8.4S6.8,19.9,6.8,34.2c0,4.2,1,8.4,3,12.2
			c0.4,0.4,2.8,2.5,7.2,1.1c0,0,2.2-0.8,3.7-1.4c-3.1-3.2-4.9-7.5-4.9-11.8c0-9.2,7.2-16.6,16.2-16.6S48.2,25,48.2,34.2
			c0.1,6.9-4.2,13.1-10.9,15.7l4.8,5.8l1.3,1.6C52.1,52.5,57.4,43.7,57.2,34.2 M58.9,22c0.6-0.6,0.7-1.5,0.2-2.2
			c-0.4-0.8-0.9-1.5-1.3-2.3c-0.5-0.9-1.1-1.2-1.9-1c-1.1,0.3-2.3,0.6-3.4,0.8c0,0,0,0,0,0c1.7,2.2,3.1,4.7,4.1,7.3
			C57.3,23.7,58.1,22.8,58.9,22 M62.5,33.8c0-0.4,0-0.8,0-1.2c0.1-0.7-0.4-1.4-1.1-1.6c-0.9-0.3-1.8-0.6-2.8-0.8
			c-0.2-0.1-0.5-0.1-0.7-0.2c0.4,2.8,0.4,5.6,0,8.4c1.1-0.4,2.3-0.7,3.4-1c0.6-0.1,1-0.6,1.1-1.2c0-0.6,0-1.1,0-1.7h0
			c0-0.2,0-0.4,0-0.6C62.5,33.9,62.5,33.9,62.5,33.8"/>
		<path class="st2" d="M25.1,43.3c-0.2,0.4-0.3,0.8-0.3,1.2c0.2-0.1,0.5-0.2,0.7-0.2c0,0-0.1-0.1-0.1-0.1c-0.1-0.1-0.2-0.2-0.2-0.4
			C25.1,43.6,25.1,43.4,25.1,43.3 M23.9,44.6C23.9,44.6,23.9,44.7,23.9,44.6l0.2,0c-0.1-0.1-0.1-0.2-0.1-0.4c0-0.2,0-0.4,0-0.6
			c0-0.2-0.1-0.5-0.2-0.7c-0.1-0.2-0.3-0.5-0.4-0.7c-0.1-0.1-0.1-0.3-0.1-0.4c0-0.1,0-0.1,0-0.2c0-0.1,0-0.2,0-0.2
			c-0.4,0.4-0.5,0.9-0.5,1.4c0,0.2,0.1,0.5,0.2,0.7c0.1,0.2,0.3,0.4,0.5,0.6c0.1,0.1,0.2,0.2,0.3,0.3C23.8,44.5,23.8,44.5,23.9,44.6
			 M20.8,44.1c0.5,0.3,0.9,0.7,1.2,1.2l0.1,0.1c0.3-0.1,0.6-0.3,1-0.4c-0.1-0.1-0.2-0.2-0.3-0.2c-0.2-0.1-0.3-0.3-0.5-0.4
			c-0.2-0.1-0.4-0.2-0.6-0.2C21.4,44.1,21.1,44.1,20.8,44.1 M20.4,41.9c-0.4-0.3-0.9-0.5-1.4-0.6c0.2,0.2,0.4,0.5,0.6,0.7
			c0.1,0.2,0.2,0.5,0.4,0.7c0.1,0.2,0.2,0.4,0.4,0.6c0.1,0.2,0.3,0.3,0.6,0.4c0.4,0.1,0.7,0.1,1.1,0.1c0.2,0,0.4,0,0.6,0
			c-0.1-0.1-0.1-0.1-0.2-0.2l0,0c-0.1,0-0.2,0-0.3,0c-0.2,0-0.3-0.1-0.4-0.2c-0.1-0.1-0.2-0.2-0.3-0.4c-0.1-0.1-0.1-0.2-0.2-0.2
			l-0.2-0.2c-0.1-0.1-0.1-0.2-0.2-0.2C20.5,42,20.4,41.9,20.4,41.9 M18.6,29.9c-0.1-0.2-0.2-0.5-0.4-0.7c0,0.3,0,0.6-0.1,0.8
			c0,0.1-0.1,0.2-0.1,0.3s-0.1,0.2-0.1,0.3c-0.1,0.2-0.1,0.4-0.1,0.6c0,0.2,0,0.4,0.1,0.6c0.1,0.3,0.4,0.6,0.6,0.8
			c0.1,0.1,0.3,0.2,0.3,0.4c0-0.1,0-0.1,0-0.2c0,0,0,0,0,0l-0.2-0.3c-0.1-0.1-0.1-0.3-0.1-0.4c0-0.1,0-0.3,0-0.4
			c0.1-0.4,0.1-0.8,0.1-1.1C18.7,30.2,18.7,30,18.6,29.9 M22.5,23.9c0.2-0.4,0.3-0.8,0.2-1.2c-0.1,0.1-0.1,0.2-0.2,0.3
			c-0.1,0.1-0.1,0.2-0.2,0.3c-0.2,0.2-0.3,0.3-0.4,0.4c-0.1,0.1-0.1,0.1-0.2,0.2c-0.1,0.1-0.1,0.1-0.2,0.2c-0.1,0.2-0.2,0.3-0.2,0.5
			c0,0.3,0,0.6,0.1,0.9c0.1,0.1,0.1,0.3,0.1,0.5l0.1-0.2l0,0l0-0.3c0-0.3,0.2-0.5,0.3-0.7c0.1-0.1,0.2-0.3,0.3-0.4
			C22.3,24.2,22.4,24,22.5,23.9 M24.6,22.8C24.6,22.8,24.6,22.8,24.6,22.8C24.6,22.8,24.6,22.8,24.6,22.8 M23.9,23.4
			C23.9,23.4,23.9,23.4,23.9,23.4C23.9,23.4,23.9,23.4,23.9,23.4 M23.8,23.4c-0.1,0.1-0.2,0.2-0.2,0.3
			C23.7,23.6,23.7,23.5,23.8,23.4 M22.2,25.1L22.2,25.1L22,25.4L22.2,25.1L22.2,25.1z M21.4,25.9c0,0.1,0,0.1,0,0.2
			C21.4,26,21.5,26,21.4,25.9 M20.7,27.2l-0.1,0.2L20.7,27.2z M20.3,27.8c0,0.1,0,0.2-0.1,0.3C20.2,28,20.3,27.9,20.3,27.8
			 M19.3,30.1v0.4V30.1L19.3,30.1z M19,35c0-0.1,0-0.2,0-0.3C19,34.8,19,34.9,19,35 M18.9,33.1c0-0.1,0-0.2,0-0.3
			C18.9,33,18.9,33,18.9,33.1 M18.9,35.7l-0.1-0.2L18.9,35.7z M19.5,37.7C19.5,37.7,19.5,37.7,19.5,37.7L19.5,37.7z M19.5,38.5
			c0.1,0,0.1,0.1,0.2,0.1C19.6,38.6,19.5,38.5,19.5,38.5 M20.3,40.1l0.2,0.4L20.3,40.1z M20.5,41l0.1,0.1l0.2,0.2l-0.2-0.2L20.5,41z
			 M26.2,21.3c0.3-0.3,0.5-0.7,0.5-1.1c-0.2,0.2-0.4,0.3-0.6,0.4c-0.2,0.1-0.3,0.2-0.5,0.2c-0.3,0.1-0.6,0.3-0.8,0.6
			c-0.1,0.3-0.2,0.5-0.2,0.8c0,0.1,0,0.3-0.1,0.4c-0.1,0.1-0.3,0.2-0.4,0.3c-0.4,0.3-0.8,0.6-1.2,1l0,0l0-0.3
			c0.1-0.2,0.2-0.5,0.4-0.6c0.1-0.1,0.2-0.2,0.4-0.3c0.1-0.1,0.2-0.2,0.3-0.4c0.1-0.1,0.2-0.3,0.3-0.5c0-0.1,0.1-0.2,0.1-0.3
			c0-0.1,0-0.3,0-0.4c-0.3,0.3-0.6,0.6-1,0.8c-0.2,0.1-0.3,0.2-0.4,0.3c-0.1,0.1-0.2,0.3-0.3,0.5c-0.1,0.3-0.1,0.6,0,0.9
			c0,0.1,0,0.3,0,0.4L23,24L23,24.1c-0.5,0.5-1,1-1.4,1.6c0,0.1-0.1,0.1-0.1,0.2c-0.1,0.1-0.1,0.2-0.2,0.3c-0.4,0.5-0.7,1.1-1,1.7
			c0,0,0,0,0,0l-0.1-0.3c0-0.1,0-0.3,0-0.4c0.1-0.1,0.1-0.3,0.2-0.4c0.1-0.2,0.2-0.3,0.3-0.5c0.1-0.2,0.2-0.3,0.2-0.5
			c0.1-0.4,0.1-0.9,0-1.3c-0.2,0.4-0.4,0.8-0.7,1.2c-0.1,0.1-0.2,0.3-0.3,0.5c-0.1,0.2-0.1,0.4-0.1,0.6c0,0.1,0,0.3,0.1,0.4
			c0.1,0.2,0.1,0.3,0.2,0.5c0.1,0.1,0.1,0.3,0.2,0.4l0.1-0.1c0,0,0,0.1-0.1,0.1c-0.3,0.7-0.6,1.4-0.8,2.2v0c0-0.1-0.1-0.2-0.1-0.3
			c-0.1-0.1-0.1-0.3,0-0.4c0-0.1,0.1-0.3,0.1-0.4c0-0.2,0.1-0.4,0.2-0.5c0.1-0.2,0.1-0.3,0.1-0.5c0-0.1,0-0.2,0-0.3
			c0-0.1,0-0.2,0-0.3c0-0.3-0.1-0.5-0.2-0.7c0,0.3-0.1,0.5-0.2,0.8c-0.1,0.2-0.2,0.4-0.3,0.6c-0.1,0.2-0.2,0.3-0.2,0.5
			c-0.1,0.2-0.1,0.4,0,0.6c0.1,0.3,0.2,0.6,0.4,0.8c0.1,0.1,0.2,0.3,0.3,0.4c-0.1,0.5-0.2,1-0.3,1.5c0,0.3-0.1,0.6-0.1,0.9
			c0,0.1,0,0.1,0,0.2c0,0,0,0,0,0.1c0,0,0,0,0-0.1c0,0.2,0,0.4,0,0.6c0,0.6,0,1.2,0,1.8c0,0.1,0,0.1,0,0.2l0,0
			c-0.1-0.1-0.1-0.1-0.2-0.2c-0.1-0.1-0.2-0.3-0.2-0.4c0-0.2,0-0.3,0-0.5c0-0.2,0-0.4,0-0.6c0-0.2,0-0.4-0.1-0.6
			c0-0.1-0.1-0.2-0.1-0.3c0-0.1-0.1-0.2-0.1-0.3c-0.1-0.2-0.3-0.4-0.5-0.6c0,0.3,0.1,0.6,0,0.8c0,0.2,0,0.5-0.1,0.7
			c0,0.2,0,0.4,0,0.6c0,0.2,0.1,0.4,0.2,0.6c0.2,0.3,0.5,0.5,0.8,0.6c0.2,0.1,0.3,0.2,0.4,0.3c0.1,0,0.1,0.1,0.1,0.2
			c0-0.1-0.1-0.1-0.1-0.2c0.1,0.5,0.1,0.9,0.2,1.4l0,0.2l0.1,0.2l0.1,0.4l0.1,0.3l0,0l-0.3-0.2c-0.1-0.1-0.2-0.2-0.3-0.4
			c-0.1-0.1-0.1-0.3-0.1-0.4c-0.1-0.2-0.1-0.4-0.2-0.6c0-0.2-0.1-0.4-0.2-0.6c-0.1-0.2-0.2-0.4-0.3-0.5c-0.2-0.2-0.4-0.4-0.6-0.5
			c0.1,0.1,0.1,0.3,0.1,0.4c0,0.1,0.1,0.3,0.1,0.4c0,0.3,0,0.5,0.1,0.7c0,0.2,0,0.4,0.1,0.6c0.1,0.2,0.2,0.4,0.3,0.5
			c0.3,0.2,0.6,0.4,0.9,0.5c0.2,0,0.3,0.1,0.5,0.2c0,0.1,0.1,0.2,0.1,0.4c0.3,0.7,0.6,1.4,1,2.1l0,0l-0.3-0.1
			c-0.2-0.1-0.3-0.2-0.4-0.3c-0.1-0.1-0.2-0.3-0.2-0.4c-0.1-0.2-0.2-0.4-0.3-0.6c-0.1-0.2-0.2-0.4-0.3-0.5c-0.1-0.2-0.3-0.3-0.5-0.5
			c-0.1-0.1-0.2-0.1-0.3-0.2c-0.1-0.1-0.3-0.1-0.4-0.2c0.3,0.5,0.5,1,0.6,1.5c0,0.2,0.1,0.4,0.2,0.6c0.1,0.2,0.3,0.4,0.5,0.5
			c0.1,0.1,0.3,0.1,0.4,0.2c0.2,0.1,0.4,0.1,0.6,0.1c0.2,0,0.4,0.1,0.5,0.1c0.5,0.8,1,1.6,1.6,2.3l0.2,0.1l-0.2-0.1
			c0.1,0.1,0.1,0.1,0.2,0.2c0.1,0,0.1,0,0.2,0.1c-0.1,0-0.1-0.1-0.2-0.1c0.3,0.4,0.7,0.7,1.1,1c0,0,0.1,0.1,0.1,0.1l0.2-0.1
			c0,0,0-0.1,0-0.1c-0.1,0-0.1-0.1-0.2-0.1c-0.6-0.5-1.1-1-1.6-1.6C22,42.6,22,42.4,22,42.2c0-0.2,0-0.4,0.1-0.5c0-0.2,0-0.5,0-0.7
			c0-0.3-0.2-0.5-0.2-0.8c0-0.1,0-0.3,0-0.4c0-0.2,0-0.3,0-0.5c-0.2,0.2-0.4,0.3-0.5,0.6c-0.1,0.1-0.1,0.2-0.1,0.3
			c0,0.1-0.1,0.2-0.1,0.3c0,0.1,0,0.2,0,0.4c0,0.1,0,0.2,0.1,0.4c0,0.1,0.1,0.2,0.1,0.3c0.1,0.1,0.1,0.2,0.2,0.3
			c0.1,0.1,0.2,0.2,0.2,0.3c0,0.1,0.1,0.2,0.1,0.3c0,0.1,0.1,0.1,0.1,0.2c0-0.1-0.1-0.1-0.1-0.2c0,0,0,0.1,0,0.1
			c0.1,0.1,0.2,0.2,0.3,0.3c-0.1-0.1-0.2-0.2-0.3-0.3c0,0,0-0.1,0-0.1c-0.5-0.6-0.9-1.3-1.3-2.1v0v0c0,0,0-0.1-0.1-0.1
			c0,0,0,0.1,0.1,0.1c0-0.2,0-0.5,0-0.7c0-0.2,0.1-0.3,0.2-0.5c0-0.1,0.1-0.2,0.1-0.3c0-0.1,0-0.2,0-0.3c0-0.3,0-0.5,0-0.8
			c0-0.1,0-0.3,0-0.4c0-0.1,0.1-0.3,0.1-0.4c-0.5,0.2-0.8,0.6-1,1c-0.1,0.2-0.1,0.5-0.1,0.7c0,0.2,0.1,0.5,0.2,0.7
			c0.1,0.1,0.1,0.2,0.2,0.4c0,0.1,0,0.2,0,0.3c0,0,0,0,0,0c0,0,0,0,0,0c-0.2-0.4-0.3-0.8-0.5-1.2c-0.1-0.1-0.1-0.3-0.1-0.4l-0.1-0.4
			l-0.1-0.2c0-0.2,0.1-0.4,0.2-0.7c0.1-0.2,0.2-0.3,0.3-0.4c0.1-0.2,0.2-0.4,0.3-0.6c0-0.1,0-0.2,0.1-0.4s0-0.3,0.1-0.4
			c0.1-0.3,0.2-0.5,0.3-0.8c-0.2,0-0.5,0.1-0.7,0.3c-0.2,0.1-0.3,0.3-0.4,0.5c-0.1,0.2-0.2,0.4-0.2,0.6c0,0.2,0,0.5,0,0.7
			c0,0.1,0.1,0.3,0.1,0.4c0,0.1,0,0.2,0,0.3v0v0c0,0,0,0.1,0,0.1c0,0,0-0.1,0-0.1l0-0.2c-0.1-0.6-0.2-1.2-0.3-1.8c0-0.1,0-0.2,0-0.3
			c0.1-0.2,0.2-0.4,0.3-0.6c0.1-0.1,0.2-0.3,0.3-0.4c0.2-0.2,0.3-0.3,0.4-0.5c0.1-0.1,0.1-0.2,0.1-0.3c0-0.1,0.1-0.2,0.1-0.4
			c0.1-0.2,0.3-0.5,0.5-0.7c-0.5,0-0.9,0.2-1.2,0.5c-0.1,0.2-0.2,0.4-0.3,0.6c-0.1,0.2-0.1,0.4-0.1,0.7c0,0.1,0,0.3,0,0.4
			c0,0.1,0,0.2-0.1,0.2c0-0.3,0-0.6,0-1c0-0.4,0.1-0.9,0.1-1.3l0,0l0,0c0-0.1,0-0.3,0.1-0.4c0,0.1,0,0.3-0.1,0.4
			c0.1-0.2,0.2-0.4,0.4-0.5c0.1-0.1,0.3-0.2,0.4-0.3c0.2-0.1,0.3-0.3,0.4-0.4c0.1-0.2,0.2-0.4,0.4-0.6c0.1-0.2,0.3-0.4,0.6-0.6
			c-0.2,0-0.5,0-0.7,0c-0.2,0.1-0.4,0.1-0.6,0.3c-0.3,0.3-0.6,0.7-0.6,1.1c0,0.1,0,0.2-0.1,0.4c0,0.1-0.1,0.2-0.1,0.2
			c0.1-0.7,0.3-1.4,0.5-2.1l0,0c0-0.1,0.1-0.3,0.1-0.4c0,0,0,0,0.1,0c0.2-0.7,0.5-1.3,0.9-1.9c0.2-0.1,0.3-0.2,0.5-0.3
			c0.1-0.1,0.3-0.1,0.4-0.1c0.2,0,0.4-0.1,0.5-0.2c0.2-0.1,0.4-0.3,0.5-0.4c0.2-0.1,0.4-0.2,0.7-0.3c-0.3-0.2-0.8-0.3-1.2-0.2
			c-0.2,0.1-0.4,0.2-0.5,0.3c-0.2,0.1-0.3,0.3-0.4,0.5c-0.1,0.1-0.1,0.2-0.2,0.3C21,26.9,20.9,27,20.9,27l0,0l0,0
			c0.2-0.3,0.3-0.6,0.5-0.8c0.2-0.3,0.4-0.6,0.6-0.8c0.2-0.1,0.3-0.2,0.5-0.2c0.1,0,0.3,0,0.4,0c0.2,0,0.4,0,0.6-0.1
			c0.2-0.1,0.4-0.2,0.6-0.3c0.2-0.1,0.5-0.2,0.7-0.2c-0.3-0.3-0.7-0.4-1.1-0.4c-0.4,0.1-0.8,0.3-1,0.6c-0.1,0.1-0.1,0.2-0.2,0.3
			c-0.1,0-0.1,0.1-0.2,0.1c-0.1,0.1-0.1,0.1-0.2,0.2c0.1-0.1,0.1-0.1,0.2-0.2c0.4-0.5,0.9-0.9,1.3-1.4c0.1,0,0.2-0.1,0.3-0.1
			c0.1,0,0.2,0,0.3,0c0.1,0,0.3,0,0.4,0c0.2,0,0.4,0,0.5,0c0.2,0,0.4-0.1,0.6-0.2c0.2-0.1,0.5-0.1,0.7,0c-0.2-0.3-0.6-0.5-1-0.5
			c-0.4,0-0.8,0.1-1.1,0.4c-0.1,0.1-0.2,0.1-0.3,0.2c-0.1,0-0.1,0.1-0.2,0.1c0.1-0.1,0.3-0.2,0.4-0.3c0.2-0.2,0.4-0.3,0.6-0.4
			c0.2-0.1,0.3-0.2,0.4-0.3l0.3-0.2l0.1,0c0,0-0.1,0-0.1,0h0l-0.3,0.2c-0.1,0.1-0.3,0.2-0.4,0.3l-0.1,0.1c0,0,0,0-0.1,0.1
			c0,0,0,0,0.1-0.1l0.1-0.1l0,0l0.1-0.2c0.1-0.3,0.3-0.4,0.5-0.5C25.7,21.6,26,21.5,26.2,21.3 M19.8,29.3
			C19.8,29.3,19.7,29.3,19.8,29.3c-0.1,0.2-0.1,0.3-0.2,0.4l0,0c0.1-0.2,0.3-0.3,0.4-0.4c0.1-0.1,0.3-0.2,0.4-0.2
			c0.2-0.1,0.4-0.2,0.5-0.3c0.1-0.1,0.2-0.2,0.2-0.3c0.1-0.1,0.2-0.2,0.2-0.3c0.2-0.2,0.4-0.3,0.6-0.4c-0.4-0.2-0.9-0.2-1.2,0
			c-0.4,0.2-0.7,0.5-0.8,0.9c0,0.1-0.1,0.2-0.1,0.3C19.9,29.2,19.9,29.2,19.8,29.3 M28.1,21.2c-0.5-0.3-0.9-0.5-1.4-0.2
			c-0.5,0.3-0.6,0.7-1.1,1c0,0-0.1,0.1-0.1,0.1c0,0,0.1,0,0.1,0c0.4,0.2,0.9,0.2,1.2,0C27.4,21.8,27.6,21.4,28.1,21.2"/>
		<path class="st2" d="M41.2,24l0.1,0.1c0-0.1,0-0.3,0-0.4c0.1-0.3,0.1-0.6,0-0.9c0-0.2-0.1-0.3-0.3-0.5c-0.1-0.1-0.3-0.2-0.4-0.3
			c-0.4-0.2-0.7-0.5-1-0.8c0,0.1,0,0.3,0,0.4c0,0.1,0,0.2,0.1,0.3c0.1,0.2,0.1,0.3,0.3,0.5c0.1,0.1,0.2,0.2,0.3,0.4
			c0.1,0.1,0.2,0.2,0.4,0.3c0.2,0.2,0.4,0.4,0.4,0.6L41.2,24L41.2,24 M45.4,33.1c0-0.1,0-0.3,0.1-0.4C45.4,32.9,45.4,33,45.4,33.1
			 M45.4,35.6c0,0,0-0.1,0-0.1C45.4,35.5,45.4,35.6,45.4,35.6 M45.3,35.8L45.3,35.8L45.3,35.8z M45.2,32.3L45.2,32.3L45.2,32.3
			l0-0.4L45.2,32.3z M44.6,29.7l-0.1-0.4L44.6,29.7z M43.7,27.8L43.7,27.8L43.7,27.8z M42.9,26.4c0,0,0-0.1-0.1-0.1
			C42.9,26.3,42.9,26.4,42.9,26.4z M42.4,25.8L42.4,25.8L42.4,25.8l-0.2-0.3L42.4,25.8z M40.8,24.1c0,0-0.1-0.1-0.1-0.1
			C40.7,24,40.8,24,40.8,24.1 M39.8,23.2C39.8,23.2,39.7,23.2,39.8,23.2C39.7,23.2,39.8,23.2,39.8,23.2 M45.1,37.7
			C45.1,37.7,45,37.7,45.1,37.7L45.1,37.7L45.1,37.7z M45,37.8l0,0.1l0,0.1l0-0.1L45,37.8z M43.6,41.6c0,0-0.1,0-0.1,0.1
			C43.6,41.7,43.6,41.6,43.6,41.6 M42.6,43c-0.1,0.1-0.2,0.2-0.3,0.3C42.4,43.2,42.5,43.1,42.6,43z M42.1,43.9l-0.1,0.1L42.1,43.9z
			 M39.6,45.6c-0.1,0.1-0.3,0.1-0.4,0.1C39.4,45.7,39.5,45.6,39.6,45.6z M37.8,46.4l-0.4,0.2L37.8,46.4z M36.8,47.1l-0.1,0.1
			L36.8,47.1 M36.4,47.1L36.4,47.1L36.4,47.1z M46.6,34.7c0.1-0.2,0.2-0.4,0.2-0.6c0-0.2,0-0.4,0-0.6c0-0.2-0.1-0.5-0.1-0.7
			c0-0.3,0-0.6,0-0.8c-0.2,0.2-0.4,0.4-0.5,0.6c-0.1,0.1-0.1,0.2-0.1,0.3c0,0.1-0.1,0.2-0.1,0.3c0,0.2-0.1,0.4-0.1,0.6
			c0,0.2,0,0.4,0,0.6c0,0.1,0,0.3,0,0.5c0,0.2-0.1,0.3-0.2,0.4c-0.1,0.1-0.1,0.1-0.2,0.2l0,0c0-0.1,0-0.1,0-0.2c0-0.6,0.1-1.2,0-1.8
			c0-0.2,0-0.4,0-0.6c0,0,0,0,0,0v0c0.1-0.1,0.2-0.3,0.3-0.4c0.3-0.2,0.5-0.5,0.6-0.8c0.1-0.2,0.1-0.4,0.1-0.6
			c0-0.2-0.1-0.4-0.1-0.6l-0.1-0.3c0-0.1-0.1-0.2-0.1-0.3c-0.1-0.3-0.1-0.5-0.1-0.8c-0.2,0.2-0.3,0.4-0.4,0.7
			c-0.1,0.2-0.1,0.4-0.1,0.6c0,0.4,0.1,0.8,0.1,1.1c0,0.1,0,0.3,0,0.4c0,0.2,0,0.3-0.1,0.4l-0.2,0.3l0,0c0-0.3-0.1-0.6-0.1-0.9
			c-0.1-0.5-0.2-1-0.3-1.5c0,0.1,0,0.1,0,0.2c0-0.1,0-0.1,0-0.2l0-0.1c0,0,0,0.1,0,0.1c0.1-0.2,0.2-0.3,0.3-0.4
			c0.2-0.2,0.4-0.5,0.4-0.8c0-0.2,0-0.4,0-0.6c-0.1-0.2-0.1-0.4-0.2-0.5c-0.1-0.2-0.2-0.4-0.3-0.6c-0.1-0.2-0.2-0.5-0.2-0.8
			c-0.1,0.2-0.2,0.5-0.2,0.7c0,0.1,0,0.2,0,0.3c0,0.1,0,0.2,0,0.3c0,0.2,0.1,0.4,0.1,0.5c0.1,0.2,0.1,0.3,0.2,0.5
			c0,0.1,0.1,0.3,0.1,0.4c0,0.1,0,0.3,0,0.4c0,0.1-0.1,0.2-0.1,0.3v0c-0.2-0.8-0.5-1.5-0.8-2.2c0-0.2,0.1-0.3,0.2-0.4
			c0.1-0.2,0.2-0.3,0.2-0.5c0-0.1,0.1-0.3,0.1-0.4c0-0.2,0-0.4-0.1-0.6c-0.1-0.2-0.2-0.3-0.3-0.5c-0.3-0.3-0.6-0.7-0.7-1.2
			c-0.1,0.4-0.1,0.9,0,1.3c0.1,0.2,0.1,0.3,0.2,0.5c0.1,0.2,0.2,0.3,0.3,0.5c0.1,0.1,0.1,0.2,0.2,0.4c0.1,0.1,0.1,0.3,0,0.4L44,27.7
			c0,0,0,0,0,0c0,0.1,0.1,0.2,0.1,0.4c0-0.1,0-0.2-0.1-0.4c-0.3-0.6-0.6-1.1-1-1.7c-0.1-0.1-0.1-0.2-0.2-0.3c0-0.2,0-0.3,0.1-0.5
			c0.1-0.3,0.2-0.6,0.1-0.9c0-0.2-0.1-0.4-0.2-0.5c-0.1-0.1-0.1-0.1-0.2-0.2c-0.1-0.1-0.1-0.1-0.2-0.2c-0.1-0.1-0.3-0.2-0.4-0.4
			c-0.1-0.1-0.2-0.2-0.2-0.3c-0.1-0.1-0.2-0.2-0.2-0.3c-0.1,0.4,0,0.9,0.2,1.2c0.1,0.1,0.2,0.3,0.3,0.4c0.1,0.1,0.2,0.3,0.3,0.4
			c0.2,0.2,0.3,0.4,0.3,0.7l0,0.3l0,0l0.1,0.1l-0.1-0.1c-0.4-0.6-0.9-1.1-1.4-1.6c0,0,0,0,0,0c0,0,0,0,0,0L41.2,24
			c0.1,0.1,0.1,0.2,0.2,0.3c-0.1-0.1-0.1-0.2-0.2-0.3c-0.4-0.3-0.8-0.7-1.2-1c-0.1-0.1-0.3-0.2-0.4-0.3c0-0.1-0.1-0.3-0.1-0.4
			c0-0.3,0-0.6-0.2-0.8c-0.2-0.3-0.4-0.5-0.8-0.6c-0.2-0.1-0.3-0.1-0.5-0.2c-0.2-0.1-0.4-0.2-0.6-0.4c0.1,0.4,0.2,0.8,0.5,1.1
			c0.2,0.2,0.5,0.4,0.8,0.5c0.2,0.1,0.4,0.3,0.5,0.5l0.1,0.2l0,0l0.1,0.1c0,0.1,0.1,0.1,0.1,0.1c0,0-0.1-0.1-0.1-0.1l-0.1-0.1
			c-0.2-0.1-0.3-0.2-0.4-0.3l-0.3-0.2h0c0,0-0.1-0.1-0.1-0.1c-0.5-0.3-0.6-0.7-1.1-1c-0.5-0.3-0.9-0.1-1.4,0.2
			c0.6,0.2,0.7,0.6,1.2,0.9c0.4,0.2,0.9,0.2,1.2,0l0.1,0l0.3,0.2c0.1,0.1,0.3,0.2,0.4,0.3s0.4,0.3,0.6,0.4c0.1,0.1,0.3,0.2,0.4,0.3
			c0,0,0.1,0,0.1,0c0,0-0.1,0-0.1,0c-0.1,0-0.1,0-0.2-0.1c-0.1-0.1-0.2-0.1-0.3-0.2c-0.3-0.2-0.7-0.4-1.1-0.4c-0.4,0-0.8,0.2-1,0.5
			c0.2,0,0.5,0,0.7,0c0.2,0.1,0.4,0.2,0.6,0.2c0.2,0,0.4,0.1,0.5,0c0.1,0,0.3,0,0.4,0c0.1,0,0.2,0,0.3,0c0.1,0,0.2,0.1,0.3,0.1
			c-0.1-0.1-0.2-0.2-0.3-0.2c0.1,0.1,0.2,0.2,0.3,0.2l0,0l0,0c0.5,0.4,0.9,0.9,1.3,1.4c0.1,0.1,0.1,0.1,0.2,0.2
			c-0.1-0.1-0.1-0.1-0.2-0.2c-0.1,0-0.1-0.1-0.2-0.1c-0.1-0.1-0.2-0.2-0.2-0.3c-0.3-0.3-0.6-0.5-1-0.6c-0.4-0.1-0.8,0.1-1.1,0.4
			c0.2,0,0.5,0.1,0.7,0.2c0.2,0.1,0.4,0.2,0.6,0.3c0.2,0.1,0.4,0.1,0.6,0.1c0.1,0,0.3,0,0.4,0c0.2,0.1,0.4,0.1,0.5,0.2
			c0.2,0.3,0.4,0.5,0.6,0.8c0.2,0.3,0.4,0.5,0.5,0.8c0,0,0,0,0.1,0c0,0,0,0-0.1,0c-0.1,0-0.1-0.1-0.2-0.1c-0.1-0.1-0.1-0.2-0.2-0.3
			c-0.1-0.2-0.3-0.3-0.4-0.5c-0.1-0.1-0.3-0.2-0.5-0.3c-0.4-0.1-0.9-0.1-1.2,0.2c0.2,0.1,0.5,0.2,0.7,0.3c0.2,0.1,0.4,0.3,0.5,0.4
			c0.2,0.1,0.3,0.2,0.5,0.2c0.2,0,0.3,0.1,0.4,0.1c0.2,0.1,0.3,0.2,0.5,0.3l0,0l0,0c0.3,0.6,0.6,1.2,0.9,1.9
			c-0.1-0.1-0.1-0.1-0.1-0.2c-0.1-0.1-0.1-0.2-0.1-0.3c-0.2-0.4-0.4-0.7-0.8-0.9c-0.4-0.2-0.8-0.2-1.2,0c0.2,0.1,0.5,0.2,0.6,0.4
			c0.1,0.1,0.2,0.2,0.2,0.3c0.1,0.1,0.1,0.2,0.2,0.3c0.1,0.1,0.3,0.3,0.5,0.3c0.2,0.1,0.3,0.1,0.4,0.2c0.2,0.1,0.3,0.3,0.4,0.4l0,0
			l0,0c0.2,0.7,0.4,1.4,0.5,2.1c0,0,0,0,0,0.1c0,0,0,0,0-0.1c-0.1-0.1-0.1-0.1-0.1-0.2c0-0.1-0.1-0.2-0.1-0.4
			c-0.1-0.4-0.3-0.8-0.6-1.1c-0.2-0.1-0.4-0.2-0.6-0.3c-0.2,0-0.5,0-0.7,0c0.2,0.1,0.4,0.3,0.6,0.6c0.1,0.2,0.2,0.4,0.4,0.6
			c0.1,0.2,0.3,0.3,0.4,0.4c0.1,0.1,0.3,0.2,0.4,0.3c0.1,0.2,0.3,0.3,0.4,0.5c0.1,0.4,0.1,0.8,0.1,1.3c0,0.3,0,0.6,0,1
			c0-0.1-0.1-0.2-0.1-0.2c0-0.1,0-0.3,0-0.4c0-0.2,0-0.5-0.1-0.7c-0.1-0.2-0.2-0.4-0.3-0.6c-0.3-0.3-0.7-0.5-1.2-0.5
			c0.2,0.2,0.3,0.4,0.5,0.7c0,0.1,0.1,0.2,0.1,0.4c0,0.1,0.1,0.2,0.1,0.3c0.1,0.2,0.2,0.4,0.4,0.5c0.1,0.1,0.2,0.2,0.3,0.4
			c0.1,0.2,0.2,0.4,0.3,0.6l0,0c0,0,0,0,0,0c0,0.1,0,0.2,0,0.3c-0.1,0.6-0.1,1.2-0.3,1.8l0,0.2v0v0c0-0.1,0-0.2,0-0.3
			c0-0.1,0-0.3,0.1-0.4c0-0.2,0-0.5,0-0.7c0-0.2-0.1-0.4-0.2-0.6c-0.1-0.2-0.3-0.4-0.4-0.5c-0.2-0.1-0.4-0.2-0.7-0.3
			c0.2,0.2,0.3,0.5,0.3,0.8c0,0.1,0,0.3,0.1,0.4c0,0.1,0,0.3,0.1,0.4c0,0.2,0.1,0.4,0.3,0.6c0.1,0.1,0.2,0.3,0.3,0.4
			c0.1,0.2,0.1,0.4,0.2,0.7v0c0,0,0,0,0,0L44.8,38l-0.1,0.4c0,0.1-0.1,0.3-0.1,0.4c-0.1,0.4-0.3,0.8-0.5,1.2c0,0,0,0,0,0
			c0,0,0,0,0,0c0-0.1,0-0.2,0-0.3c0-0.1,0.1-0.3,0.2-0.4c0.1-0.2,0.1-0.5,0.2-0.7c0-0.2,0-0.5-0.1-0.7c-0.1-0.5-0.5-0.8-1-1
			c0.1,0.1,0.1,0.3,0.1,0.4c0,0.1,0,0.3,0,0.4c0,0.3,0,0.5,0,0.8c0,0.1,0,0.2,0,0.3c0,0.1,0.1,0.2,0.1,0.3c0.1,0.2,0.1,0.3,0.2,0.5
			c0,0.2,0,0.5,0,0.7c0.1-0.1,0.1-0.2,0.2-0.3c-0.1,0.1-0.1,0.2-0.2,0.3v0l0.2-0.4l-0.2,0.4c0,0,0,0,0,0c-0.4,0.7-0.8,1.4-1.3,2.1v0
			c0,0,0,0,0,0c0-0.1,0-0.2,0.1-0.3c0.1-0.1,0.1-0.2,0.2-0.3c0.1-0.1,0.1-0.2,0.2-0.3c0.1-0.1,0.1-0.2,0.1-0.3
			c0-0.1,0.1-0.2,0.1-0.4c0-0.1,0-0.2,0-0.4c0-0.1,0-0.2-0.1-0.3c0-0.1-0.1-0.2-0.1-0.3c-0.1-0.2-0.3-0.4-0.5-0.6c0,0.2,0,0.3,0,0.5
			c0,0.1,0,0.3,0,0.4c0,0.3-0.2,0.5-0.2,0.8c0,0.2,0,0.5,0,0.7c0,0.2,0.1,0.4,0.1,0.5c0,0.2-0.1,0.5-0.1,0.7
			c0.1-0.1,0.1-0.2,0.2-0.2c-0.1,0.1-0.1,0.2-0.2,0.2l0,0l0,0c-0.5,0.6-1,1.1-1.6,1.6c-0.1,0-0.1,0.1-0.2,0.1c0,0,0,0,0,0
			c0,0,0,0,0,0c0-0.1,0.1-0.2,0.1-0.2c0.1-0.1,0.2-0.2,0.3-0.3c0.2-0.2,0.3-0.4,0.5-0.6c0.1-0.2,0.2-0.5,0.2-0.7
			c0.1-0.5-0.1-1-0.5-1.4c0,0.1,0,0.2,0,0.2c0,0.1,0,0.1,0,0.2c0,0.1-0.1,0.3-0.1,0.4c-0.1,0.3-0.3,0.5-0.4,0.7
			c-0.1,0.2-0.1,0.5-0.2,0.7c0,0.2,0,0.4,0,0.6c-0.1,0.2-0.2,0.4-0.3,0.7c-0.7,0.5-1.4,1-2.2,1.4c0,0,0,0,0,0c0,0,0,0,0,0
			c0.1-0.1,0.1-0.1,0.2-0.2c0.1-0.1,0.2-0.1,0.4-0.2c0.5-0.3,0.8-0.7,1-1.1c0.2-0.5,0.1-1.1-0.2-1.5c0,0.2-0.1,0.3-0.2,0.4
			c-0.1,0.1-0.1,0.3-0.2,0.4c-0.1,0.1-0.2,0.2-0.3,0.3c-0.1,0.1-0.2,0.2-0.3,0.3c-0.1,0.2-0.3,0.4-0.3,0.7c0,0.2-0.1,0.4-0.2,0.6
			c-0.1,0.2-0.3,0.4-0.4,0.6c0.1,0,0.1-0.1,0.2-0.1c-0.1,0-0.1,0.1-0.2,0.1l0,0l0,0c-0.7,0.3-1.4,0.6-2.1,0.7l-0.1,0l0,0
			c0.1,0.1,0.1,0.2,0.2,0.2c0.4-0.1,0.8-0.2,1.2-0.4c0.1,0,0.1,0,0.2,0.1c0.1,0.1,0.2,0.1,0.4,0.2c0.2,0.1,0.4,0.2,0.6,0.3
			c0.2,0.1,0.3,0.1,0.5,0.1c0.1,0,0.2,0,0.4,0c0.1,0,0.2,0,0.3-0.1c0.2-0.1,0.4-0.2,0.6-0.4c0.2-0.1,0.4-0.3,0.6-0.5
			c0.1-0.1,0.3-0.2,0.4-0.2c0.2-0.1,0.3-0.1,0.5-0.2c-0.3-0.1-0.6-0.2-0.9-0.2c-0.2,0-0.5,0-0.7,0.1c-0.2,0.1-0.4,0.1-0.6,0.2
			c-0.2,0.1-0.4,0.2-0.6,0.3c-0.3,0.1-0.6,0.3-1,0.2l-0.3-0.1h0c0.9-0.4,1.8-0.8,2.6-1.4c0,0,0,0,0,0h0c0.1,0,0.1-0.1,0.2-0.1
			c-0.1,0-0.1,0.1-0.2,0.1c0.2,0,0.4,0.1,0.6,0.1c0.3,0.2,0.7,0.2,1.1,0.2c0.5-0.1,0.9-0.3,1.1-0.7c0.3-0.5,0.8-0.9,1.2-1.2
			c-0.3,0-0.6,0-0.9,0c-0.2,0-0.4,0.1-0.6,0.2c-0.2,0.1-0.4,0.2-0.5,0.4c-0.2,0.1-0.3,0.3-0.5,0.4c-0.1,0.1-0.3,0.2-0.4,0.3
			c-0.1,0.1-0.3,0.1-0.5,0.1l-0.4,0l0,0c0.8-0.6,1.5-1.2,2.2-1.9c-0.1,0-0.1,0-0.2,0.1c0.1,0,0.1-0.1,0.2-0.1l0.1-0.1l-0.1,0.1
			c0.2,0,0.4,0,0.6,0c0.4,0.1,0.7,0,1.1-0.1c0.2-0.1,0.4-0.2,0.6-0.4c0.1-0.2,0.3-0.4,0.4-0.6c0.1-0.2,0.2-0.4,0.4-0.7
			c0.2-0.3,0.4-0.5,0.6-0.7c-0.5,0-1,0.2-1.4,0.6c-0.1,0.1-0.1,0.1-0.2,0.2c-0.1,0.1-0.1,0.2-0.2,0.2l-0.2,0.2
			c-0.1,0.1-0.1,0.2-0.2,0.2c-0.1,0.1-0.2,0.2-0.3,0.4c-0.1,0.1-0.3,0.2-0.4,0.2c-0.1,0-0.2,0-0.3,0l0,0c0.6-0.7,1.2-1.5,1.6-2.3
			c0.2-0.1,0.4-0.1,0.5-0.1c0.2,0,0.4,0,0.6-0.1c0.1,0,0.3-0.1,0.4-0.2c0.2-0.1,0.4-0.3,0.5-0.5c0.1-0.2,0.2-0.4,0.2-0.6
			c0.1-0.5,0.3-1,0.6-1.5c-0.1,0.1-0.3,0.1-0.4,0.2c-0.1,0.1-0.2,0.1-0.3,0.2c-0.2,0.1-0.3,0.3-0.5,0.5c-0.1,0.2-0.2,0.3-0.3,0.5
			c-0.1,0.2-0.2,0.4-0.3,0.6c-0.1,0.1-0.1,0.3-0.2,0.4c-0.1,0.1-0.2,0.2-0.4,0.3L43.8,41l0,0c0.4-0.7,0.7-1.4,1-2.1
			c0-0.1,0.1-0.2,0.1-0.4c-0.1,0-0.1,0.1-0.2,0.1l0.1-0.1l-0.1,0.1c0-0.1,0.1-0.1,0.2-0.1c0,0,0,0,0-0.1l0-0.1l0,0.1c0,0,0,0,0,0.1
			c0.2-0.1,0.3-0.2,0.5-0.2c0.3-0.1,0.7-0.3,0.9-0.5c0.2-0.2,0.3-0.3,0.3-0.5c0.1-0.2,0.1-0.4,0.1-0.6c0-0.2,0-0.5,0.1-0.7
			c0-0.1,0-0.3,0.1-0.4c0-0.2,0.1-0.3,0.1-0.4c-0.2,0.1-0.5,0.3-0.6,0.5c-0.1,0.2-0.3,0.3-0.3,0.5c-0.1,0.2-0.1,0.4-0.2,0.6
			c-0.1,0.2-0.1,0.4-0.2,0.6c0,0.2-0.1,0.3-0.1,0.4c-0.1,0.1-0.1,0.3-0.3,0.4l-0.3,0.2l0,0L45,38l0.1-0.4l0.1-0.2l0-0.2
			c0.1-0.5,0.2-0.9,0.2-1.4c0,0,0,0,0,0.1c0,0,0,0,0-0.1c0.1-0.1,0.3-0.2,0.4-0.3C46.2,35.3,46.4,35,46.6,34.7"/>
		<path class="st1" d="M32.4,40.5c1,0.2,1.2,0,1.3-0.2c0.1,0.4,0.8,0.3,1.3,0.3c-1.3,0.6-1,2-1.4,3.4C33.3,42.6,33.7,41.3,32.4,40.5
			 M32,28.5c-1.5-0.7-3-1.3-4.5-2c-0.6-0.3-1-0.1-1.3,0.5c-0.7,1.5-1.4,2.9-2.2,4.3c-0.3,0.6-0.3,1.3,0.1,1.8c1.3,1.9,2.6,3.9,4,5.8
			c0.6,0.8,0.8,1.7,0.6,2.6c-0.1,0.7-0.1,1.5-0.2,2.2c2,0.3,3.9,1.2,5.4,2.5c1.1-0.2,2.1-0.5,3.1-0.9c-0.1-1.3-0.1-2.6-0.1-3.9
			c0-0.5,0.1-1.1,0.3-1.6c0.6-1.5,1.3-3,1.9-4.5c0.2-0.8,0.4-1.6,0.5-2.5c-0.9,1-1.7,1.8-2.4,2.6c-0.2,0.3-0.7,0.5-1,0.3
			c0,0-0.1,0-0.1-0.1c-0.5-0.3-1.1-0.6-1.7-0.9l-0.8,4c-0.6-0.9-0.9-1.9-1.4-2.8c-0.3-0.6-0.7-1.1-1.1-1.6c-1-0.9-2.1-1.8-3.2-2.7
			l0.7-1.4c0.4,0.1,0.8,0.3,1.1,0.3c1.1,0.3,2.2-0.2,2.6-1.2C32.5,29,32.5,28.7,32,28.5 M31.2,25.6c1-1.8,0.9-2-1.1-2.7
			c-0.2-0.1-0.4-0.1-0.6-0.2c-0.2,0-0.4,0.1-0.5,0.3c-0.5,0.9-0.9,1.9-1.4,2.9l2.8,1.2C30.7,26.6,31,26.1,31.2,25.6 M34.8,27.3
			c0.5-0.7,1.2-1.5,0.7-2c-0.6-0.6-1.2-1-1.9-1.3c-0.1-0.1-0.3-0.1-0.4-0.1c-0.2,0-0.4,0.1-0.5,0.3c-0.6,1-1.1,2.1-1.7,3.1
			c0.8,0.9,2.7,0.6,2.2,2.5C33.7,29,34.3,28.2,34.8,27.3 M38.2,29.1c0.1-0.2,0.4-0.5,0.3-0.6c-0.1-0.2-0.2-0.3-0.3-0.4
			c-0.5-0.5-1-0.9-1.5-1.3c-0.4-0.4-0.7-0.3-1,0.2c-0.7,1.1-1.4,2.2-2.1,3.3c-1,1.5-1,1.6,0.5,2.6c0,0,0,0,0.1,0
			c0.4,0.4,0.7,0.3,1-0.1C36.2,31.5,37.2,30.3,38.2,29.1 M39,29.7c-0.1-0.1-0.2-0.2-0.4-0.3c-0.9,1.1-1.8,2.2-2.7,3.3
			c-0.8,0.9-0.8,1.3,0.3,2c0.2,0.1,0.5,0.1,0.8-0.1c0.8-0.7,1.4-1.4,2.2-2.1C40.5,31.3,40.5,31,39,29.7"/>
		<path class="st3" d="M42,55.6l-3.9-4.7l-0.9-1.1l0,0l-0.8-1c-3.3-4.4-6.5-5.2-8.3-5.2c-0.5,0-0.9,0-1.4,0.2
			c-1.8,0.4-3.5,1-5.2,1.8c-0.3,0.1-0.6,0.2-0.9,0.4c-1.6,0.6-3.7,1.4-3.7,1.4c-4.4,1.4-6.8-0.7-7.2-1.1c0,0-0.1-0.1-0.1-0.1
			l0.1,0.1l0,0l0,0l6,7.4c1.1,1.3,2.3,2.6,3.6,3.6c3.1,1.8,7,0.1,7,0.1c1.1-0.5,5-2.1,5-2.1c4.1-1.8,6.7-1.2,6.7-1.2
			c2,0.5,3.8,1.5,5.2,3L42,55.6z"/>
		<g>
			<path class="st1" d="M36.3,48.7c-1.4-1.9-3.5-3.3-5.9-4c-2.4-0.6-5.7,0.8-5.7,0.8l-4.8,2c-1.4,0.6-3,1-4.5,1.3
				c-1.8,0.3-3.6-0.3-4.8-1.5c1,1.2,2.4,2.1,4,2.4c2.5,0.3,5.8-1.1,5.8-1.1c2.3-1.1,5.8-2.4,5.8-2.4c1.3-0.5,2.7-0.7,4.1-0.7
				C32.7,45.7,34.8,46.9,36.3,48.7 M36.4,48.9c0,0-0.1-0.1-0.1-0.2C36.3,48.7,36.4,48.8,36.4,48.9 M30.5,49.6l-0.8-0.5l0.2-0.9l0,0
				l-0.6,0.6c0,0,0,0,0,0c0,0,0,0,0,0l-0.7-0.5l0,0c0,0,0,0,0,0l0.3,0.8c0,0,0,0,0,0l-0.6,0.5l-0.1,0.1h0l0.9-0.1c0,0,0,0,0,0
				c0.1,0.3,0.2,0.6,0.3,0.8l0,0c0,0,0,0,0,0c0.1-0.3,0.1-0.6,0.2-0.9c0,0,0,0,0,0L30.5,49.6L30.5,49.6 M27.9,48.4L27.9,48.4
				 M28.9,51C28.9,50.9,28.9,50.9,28.9,51C28.9,50.9,28.9,50.9,28.9,51c-0.1,0.2-0.2,0.4-0.3,0.7c-0.2,0.3-0.4,0.5-0.7,0.7
				c-0.2,0.1-0.3,0.1-0.5,0.2c-0.2,0-0.3,0.1-0.5,0.1c-0.3,0-0.7-0.1-1-0.2c-0.4-0.2-0.8-0.6-1-1c-0.1-0.2-0.2-0.4-0.2-0.6
				c-0.1-0.4,0-0.7,0.1-1.1c0.1-0.3,0.3-0.7,0.5-0.9c0.2-0.2,0.5-0.4,0.8-0.5c0.5-0.2,1-0.1,1.5,0.1c0.1,0,0.2,0.1,0.2,0.1l0,0
				c-0.3-0.2-0.6-0.4-1-0.5c-0.5-0.1-1-0.1-1.5,0C25.2,48,25,48,24.8,48.1c-0.2,0.1-0.3,0.2-0.5,0.4c-0.3,0.3-0.5,0.7-0.7,1.1
				c-0.2,0.6-0.2,1.3,0.1,1.9c0.1,0.2,0.1,0.4,0.3,0.5c0.1,0.2,0.2,0.4,0.4,0.5c0.3,0.4,0.8,0.6,1.3,0.8c0.4,0.1,0.8,0.1,1.2,0
				c0.1,0,0.3-0.1,0.4-0.1c0.2-0.1,0.4-0.2,0.6-0.3c0.2-0.2,0.4-0.4,0.6-0.6C28.7,51.9,28.9,51.4,28.9,51 M42.2,55.9
				c-3.6-4.2-7.7-3.6-7.7-3.6c-1.6,0.2-3.2,0.7-4.7,1.3c-1.7,0.8-3.4,1.5-5.2,2.1c-1.1,0.4-2.2,0.6-3.3,0.7
				c-2.8,0.1-5.2-2.4-5.2-2.4c2.8,3.6,5.8,3.4,5.8,3.4c1.8-0.1,3.6-0.6,5.3-1.3c1.9-0.9,5.7-2.3,5.7-2.3c1.3-0.4,2.6-0.6,3.9-0.5
				C38.8,53.5,40.8,54.5,42.2,55.9"/>
			<path class="st1" d="M27.9,59.2l1.1-0.9l-0.8-0.2l-1,0.9l0.2-1l-0.7-0.1l-0.5,2.5l0.7,0.1l0.1-0.6l0.3-0.2l0.4,1l0.8,0.2
				L27.9,59.2z M29.7,60.9l0.1-0.7l-0.7-0.1L29,60.8L29.7,60.9z M31.8,59.6l1-1.1l-0.8,0l-0.9,1l0-1l-0.7,0L30.4,61l0.7,0l0-0.7
				l0.3-0.3l0.6,1l0.8,0L31.8,59.6z M33.9,60.3l-0.7,0l0,0.7l0.7,0L33.9,60.3z M35.3,59l0.7-0.1L36,58.3l-2.2,0.2l0.1,0.6l0.7-0.1
				l0.2,1.9l0.7-0.1L35.3,59z M36.3,60.8l0.7-0.1L36.9,60l-0.7,0.1L36.3,60.8z M37.9,59.2c-0.1-0.3,0.1-0.7,0.4-0.8
				c0.2,0,0.4,0,0.6,0.2l0.4-0.5c-0.3-0.3-0.7-0.4-1.1-0.3c-0.7,0.2-1.2,0.9-1,1.6v0c0.1,0.7,0.8,1.1,1.5,1c0,0,0.1,0,0.1,0
				c0.4-0.1,0.8-0.4,0.9-0.8l-0.6-0.2c-0.1,0.2-0.3,0.4-0.5,0.4C38.3,59.8,38,59.6,37.9,59.2C37.9,59.2,37.9,59.2,37.9,59.2
				L37.9,59.2z M41,59.6L40.8,59l-0.7,0.2l0.2,0.7L41,59.6z"/>
			<path class="st1" d="M29.5,21l1.2-0.2l0-0.3L30,20.6l0.2-0.2c0.3-0.3,0.4-0.4,0.3-0.7v0c0-0.3-0.3-0.5-0.5-0.4c0,0-0.1,0-0.1,0
				c-0.3,0-0.5,0.2-0.6,0.4l0.3,0.2c0.1-0.2,0.2-0.3,0.3-0.3c0.1,0,0.2,0,0.2,0.1c0,0,0,0,0,0c0,0.1,0,0.2-0.2,0.4l-0.5,0.5L29.5,21
				z M32,19.9c0,0.3-0.1,0.5-0.3,0.5s-0.4-0.2-0.4-0.5v0c0-0.3,0.1-0.5,0.3-0.5C31.9,19.4,32,19.6,32,19.9L32,19.9z M32.4,19.9
				L32.4,19.9c0-0.5-0.3-0.9-0.7-0.8c-0.4,0-0.8,0.4-0.7,0.9c0,0,0,0,0,0v0c0,0.5,0.3,0.9,0.7,0.8C32.1,20.8,32.4,20.4,32.4,19.9
				 M33.3,20.8l0.1-1.7l-0.2,0l-0.5,0.1l0.1,0.3l0.3,0l-0.1,1.3L33.3,20.8z M34.8,20.2L34.8,20.2c0,0.3-0.2,0.5-0.4,0.5
				c-0.2,0-0.3-0.3-0.3-0.6v0c0-0.3,0.2-0.5,0.4-0.5C34.8,19.6,34.9,19.9,34.8,20.2 M34.6,19.3c-0.4-0.1-0.8,0.3-0.9,0.7v0
				c-0.1,0.4,0.1,0.8,0.6,1c0,0,0,0,0,0c0.4,0.1,0.8-0.3,0.9-0.7v0C35.3,19.8,35.1,19.4,34.6,19.3C34.6,19.3,34.6,19.3,34.6,19.3"/>
		</g>
		<path class="st3" d="M41.6,50.6c-0.2,0.1-0.3,0.4-0.2,0.6c0,0,0,0,0,0c0.1,0.2,0.3,0.3,0.5,0.2c0,0,0.1,0,0.1,0
			c0.2-0.1,0.3-0.4,0.1-0.6c0,0,0,0,0,0C42.2,50.6,41.9,50.5,41.6,50.6C41.7,50.6,41.7,50.6,41.6,50.6 M43.8,50.1l1.6,2.2l-0.1,0.1
			c-0.3,0.2-0.5,0.1-1.2-0.8c-0.6-0.8-0.7-1.1-0.4-1.3L43.8,50.1z M46.7,52.1l-0.4-0.6l-0.2,0.2l-1.6-2.2l0.2-0.2l-0.4-0.6l-1.1,0.9
			c-0.8,0.6-0.5,1.3,0.3,2.4c0.8,1.1,1.5,1.5,2.2,0.9L46.7,52.1z M46.3,50.7l0.9,0.9l1.8-1.8l-0.9-0.9l-0.4,0.4l0.4,0.4L47.9,50
			L46.1,48l0.2-0.2l-0.5-0.5l-1,1l0.5,0.5l0.2-0.2l1.9,1.9l-0.2,0.2l-0.4-0.4L46.3,50.7z M46.1,46.9l1,0.8l0.4-0.6l-0.4-0.3l0.2-0.3
			l2.1,1.6l-0.2,0.2l0.6,0.4l0.8-1.1l-0.6-0.4L50,47.5l-2.1-1.7l0.2-0.2l-0.6-0.4L46.1,46.9z M49,44l2.3,1.3l-0.1,0.2l0.6,0.3
			l0.6-1.2l-0.6-0.3l-0.1,0.2l-2.3-1.3l0.1-0.2l-0.6-0.3l-0.6,1.2l0.6,0.3L49,44z M52.5,45.4c-0.1,0.2,0,0.4,0.2,0.5c0,0,0,0,0,0
			c0.1,0.1,0.4,0.1,0.5,0c0,0,0-0.1,0-0.1c0.1-0.2,0-0.4-0.1-0.5c0,0,0,0,0,0C52.9,45.2,52.7,45.2,52.5,45.4
			C52.5,45.4,52.5,45.4,52.5,45.4 M51.6,43.7l1.1,0.5l0.8-2.1l-0.7-0.3l-0.1,0.3l-2.5-1l0.1-0.3l-0.7-0.3l-0.5,1.3l0.7,0.3l0.1-0.3
			l0.9,0.4l-0.2,0.6l0.7,0.3l0.2-0.6l0.9,0.4l-0.1,0.4L51.9,43L51.6,43.7z M50.6,40.3l2.5,0.8l-0.1,0.3l0.7,0.2l0.4-1.3L53.4,40
			l-0.1,0.3l-2.5-0.8l0.1-0.3L50.2,39l-0.4,1.3l0.7,0.2L50.6,40.3z M54.3,41c-0.1,0.2,0,0.4,0.2,0.4c0,0,0,0,0,0
			c0.2,0.1,0.4,0,0.5-0.1c0,0,0-0.1,0-0.1c0.1-0.2,0-0.4-0.2-0.4c0,0,0,0-0.1,0C54.6,40.6,54.4,40.7,54.3,41
			C54.3,40.9,54.3,40.9,54.3,41 M53.1,39.3l1.3,0.2l0.4-2.5l-1.3-0.2l-0.1,0.6l0.6,0.1l-0.1,0.3l-2.6-0.4l0-0.3l-0.7-0.1l-0.2,1.4
			l0.7,0.1l0-0.3l2.6,0.4l0,0.3l-0.6-0.1L53.1,39.3z M52.7,35.4l0-0.4l0.4,0.1c0.7,0.1,1,0.2,1,0.2v0c0,0-0.3,0-1,0.1L52.7,35.4z
			 M51.4,36.5l0-0.2l3.4-0.4l0.1-1.6l-0.7,0v0.1c0,0,0,0.1,0,0.1l0,0c0,0-0.3-0.1-0.6-0.1l-2-0.4l0-0.2l-0.7,0l0,1.1l0.7,0l0-0.2
			l0.5,0.1l0,0.6l-0.5,0.1l0-0.2l-0.7,0l0,1.2L51.4,36.5z M52.9,31.9l1.1-0.1l0,0.2c0,0.2-0.2,0.4-0.5,0.4c-0.4,0-0.6-0.1-0.6-0.3
			L52.9,31.9z M50.8,33.6l0.7-0.1l0-0.2l1.1-0.5c0.2,0.3,0.6,0.5,1,0.4c0.7-0.1,1.2-0.5,1.2-1.2l-0.1-1.4l-0.7,0.1l0,0.3l-2.6,0.2
			l0-0.3l-0.7,0.1l0.1,1.2l0.7-0.1l0-0.2l0.9-0.1l0,0.1l0,0.1l-1.6,0.7L50.8,33.6z M50.5,30.9l1.2-0.3l-0.2-0.7L51.1,30l-0.1-0.5
			l1-0.2l0.2,0.7l0.7-0.2l-0.2-0.7l0.9-0.2l0.1,0.4l-0.5,0.1l0.2,0.7l1.2-0.3L54,27.6l-0.7,0.2l0.1,0.3l-2.6,0.6l-0.1-0.3L50,28.6
			L50.5,30.9z M51.5,26.5l1.1-0.4l0,0.1c0.1,0.3-0.1,0.4-0.5,0.6s-0.6,0.1-0.7-0.1L51.5,26.5z M52.9,24.8L52.3,25l0.1,0.3l-2.5,1
			L49.8,26l-0.7,0.3l0.5,1.3l0.7-0.3L50.2,27l0.7-0.3l0.1,0.2c0.2,0.6,0.8,0.9,1.6,0.5c0.8-0.3,1.1-0.9,0.9-1.5L52.9,24.8z
			 M50.1,23.7c1-0.6,1.2-0.6,1.4-0.3c0.2,0.3,0,0.4-1,1c-1,0.6-1.2,0.6-1.4,0.3C49,24.4,49.1,24.2,50.1,23.7 M49.7,22.9
			c-1.5,0.8-1.6,1.4-1.3,2.1c0.4,0.7,1,0.9,2.4,0c1.5-0.8,1.6-1.4,1.3-2.1C51.7,22.2,51.2,22.1,49.7,22.9 M48.6,21.3
			c0.9-0.7,1.1-0.7,1.3-0.5c0.2,0.3,0,0.4-0.9,1.1c-0.9,0.7-1.1,0.7-1.3,0.5C47.5,22.1,47.6,21.9,48.6,21.3 M48.1,20.6
			c-1.4,1-1.5,1.6-1,2.3c0.5,0.7,1.1,0.7,2.4-0.3c1.4-1,1.5-1.6,1-2.3S49.4,19.6,48.1,20.6 M46.9,21.3l-0.1-0.1l0.9-1.7l1-0.2
			l0.1,0.1l0.5-0.5l-0.7-0.8L48,18.6l0.2,0.2l-0.7,0.1C47.2,18.9,47,19,46.9,19l0,0l0.5-0.5l0.3-0.3l0.2,0.2l0.5-0.5l-0.9-0.9
			L47,17.5l0.2,0.2l-1.9,1.9l-0.2-0.2l-0.5,0.5l0.9,0.9l0.5-0.5l-0.1-0.1l0.5-0.5l0.5-0.1l-0.5,1l-0.1-0.1l-0.5,0.5l0.8,0.9
			L46.9,21.3z M43.6,16.6l-0.4-0.2l0.3-0.3c0.5-0.6,0.7-0.8,0.7-0.8l0,0c0,0-0.1,0.3-0.5,1L43.6,16.6z M43.9,18.3l-0.2-0.1l1.4-3.2
			l-1.3-0.9l-0.4,0.6l0.1,0c0,0,0.1,0,0.1,0.1l0,0c0,0-0.2,0.2-0.4,0.4l-1.4,1.6l-0.2-0.1l-0.4,0.6l0.9,0.6l0.4-0.6l-0.2-0.1
			l0.3-0.4l0.5,0.4l-0.2,0.5l-0.2-0.1l-0.4,0.6l1,0.7L43.9,18.3z M41.2,16.6l1.1-2.5l0.2,0.1l0.3-0.7L41.7,13l-1,1.5l0,0l0.4-1.7
			l-1.2-0.6l-0.3,0.7l0.2,0.1l-1.1,2.5l-0.2-0.1L38.2,16l1.1,0.5l0.3-0.7l-0.2-0.1l0.2-0.5c0.3-0.7,0.6-1.4,0.6-1.4l0,0
			c0,0-0.1,0.5-0.2,1l-0.2,0.8l0.5,0.2l0.5-0.6c0.3-0.4,0.6-0.8,0.6-0.8l0,0c0,0-0.3,0.8-0.6,1.4l-0.2,0.5l-0.2-0.1l-0.3,0.7
			l1.1,0.5l0.3-0.7L41.2,16.6z M38.6,12.5l0.3,0.1l0.2-0.7l-1.1-0.3l-0.2,0.7l0.3,0.1l-0.2,0.7c-0.1,0.6-0.3,1.2-0.3,1.2l0,0
			l-0.1-2.8l-1.1-0.3l-0.2,0.7l0.3,0.1l-0.6,2.6l-0.3-0.1l-0.2,0.7l1.1,0.3l0.2-0.7l-0.3-0.1l0.2-0.7c0.2-0.7,0.3-1.2,0.3-1.2l0,0
			l0.1,2.7l0.8,0.2L38.6,12.5z M34.9,14.5l0.4-2.7l0.3,0l0.1-0.7l-1.3-0.2l-0.1,0.7l0.3,0l-0.4,2.7l-0.3,0l-0.1,0.7l1.3,0.2l0.1-0.7
			L34.9,14.5z M33.7,14.3h-0.2l-0.6-1.9l0.6-0.8h0.2l0-0.7l-1.1,0l0,0.7h0.2l-0.4,0.6c-0.2,0.3-0.3,0.5-0.3,0.5h0l0-0.7l0-0.4h0.2
			l0-0.7l-1.3,0l0,0.7h0.3l0,2.7h-0.3l0,0.7l1.2,0l0-0.7h-0.2l0-0.7l0.3-0.4l0.3,1.1h-0.2l0,0.7l1.2,0L33.7,14.3z M30.9,15l-0.1-1.2
			L30,13.8l0.1,0.5l-0.4,0l-0.3-2.7l0.3,0L29.6,11l-1.3,0.2l0.1,0.7l0.3,0l0.3,2.7l-0.3,0l0.1,0.7L30.9,15z M26.9,13.7l-0.4,0.1
			l-0.1-0.5c-0.1-0.8-0.1-1.1-0.1-1.1l0,0c0,0,0.1,0.3,0.4,1L26.9,13.7z M28.4,14.6l-0.2,0.1l-1.4-3.2l-1.5,0.4l0.2,0.7l0.1,0
			c0,0,0.1,0,0.1,0l0,0c0,0,0,0.3,0.1,0.6l0.2,2.1l-0.2,0.1L26,16l1.1-0.3L26.9,15L26.7,15l-0.1-0.5l0.6-0.2l0.2,0.5l-0.2,0.1
			l0.2,0.7l1.2-0.3L28.4,14.6z M25.6,15.3l-0.2,0.1l-1.3-1.5l0.2-1l0.2-0.1l-0.3-0.7l-1,0.4l0.3,0.7l0.2-0.1l-0.1,0.7
			c-0.1,0.3-0.1,0.6-0.1,0.6l0,0l-0.3-0.6l-0.2-0.4l0.2-0.1L23,12.7l-1.1,0.5l0.3,0.7l0.2-0.1l1.1,2.5l-0.2,0.1l0.3,0.7l1.1-0.5
			l-0.3-0.7L24.1,16l-0.3-0.6l0.1-0.5l0.7,0.9l-0.2,0.1l0.3,0.7l1.1-0.5L25.6,15.3z M21.6,17.4l-1.5-2.3l0.2-0.2L20,14.3l-1.1,0.7
			l0.4,0.6l0.2-0.2l1.5,2.3L20.7,18l0.4,0.6l1.1-0.7l-0.4-0.6L21.6,17.4z M19.2,14.4c0.2-0.1,0.2-0.3,0.1-0.5c0,0,0,0,0,0
			c-0.1-0.2-0.3-0.3-0.5-0.1c-0.2,0.1-0.2,0.3-0.1,0.5c0,0,0,0,0,0C18.8,14.5,19,14.5,19.2,14.4 M18.4,17.8L17.7,17l0.2-0.1
			c0.2-0.1,0.4-0.1,0.6,0.2c0.2,0.3,0.2,0.5,0.1,0.7L18.4,17.8z M21,18.6l-0.5-0.6l-0.2,0.1l-1-0.6c0.1-0.4,0-0.8-0.3-1.1
			c-0.5-0.6-1.1-0.8-1.6-0.3l-1,0.9l0.5,0.6l0.2-0.2l1.7,2.1l-0.2,0.2l0.5,0.6l0.9-0.8l-0.5-0.6L19.4,19l-0.6-0.7l0.1,0l0,0l1.4,0.9
			L21,18.6z M18.9,20.4L18,19.6l-0.5,0.5l0.4,0.4l-0.3,0.3l-0.7-0.7l0.4-0.5l-0.5-0.5l-0.4,0.5L15.7,19l0.3-0.3l0.4,0.4l0.5-0.5
			l-0.9-0.8l-1.5,1.7l0.5,0.5l0.2-0.2l1.9,1.8l-0.2,0.2l0.5,0.5L18.9,20.4z M17.3,22.3l-1-0.7l-0.4,0.6l0.4,0.3l-0.2,0.3l-2.2-1.5
			L14,21l-0.6-0.4l-0.8,1.1l0.6,0.4l0.2-0.2l2.2,1.5l-0.2,0.2l0.6,0.4L17.3,22.3z M15.2,24.2l-2.3-1.3l0.1-0.2l-0.6-0.4l-0.6,1.2
			l0.6,0.4l0.1-0.2l2.3,1.3l-0.1,0.2l0.6,0.4l0.6-1.2l-0.6-0.4L15.2,24.2z M11.7,22.7c0.1-0.2,0-0.4-0.1-0.5c0,0,0,0,0,0
			c-0.1-0.1-0.3-0.1-0.5,0c0,0,0,0.1-0.1,0.1c-0.1,0.2,0,0.4,0.1,0.5c0,0,0,0,0,0C11.4,22.9,11.6,22.9,11.7,22.7
			C11.7,22.7,11.7,22.7,11.7,22.7 M12.5,25.3l0.3-0.7L11.5,24l-0.3,0.6l0.2,0.1l0,0c-0.2,0-0.4,0.1-0.5,0.4c-0.2,0.5-0.1,1,1.5,1.8
			c1.2,0.5,1.8,0.5,2.2,0.2l0.1,0.1c0.1-0.2,0.2-0.3,0.3-0.2c0.1,0,0.1,0.1,0.1,0.2c0,0,0,0,0,0c0,0.1-0.1,0.1-0.1,0.2l0.5,0.2
			c0.1-0.1,0.2-0.2,0.2-0.4c0.2-0.3,0.1-0.6-0.2-0.8c0,0,0,0-0.1,0c-0.1-0.1-0.3-0.1-0.5,0c0.1-0.6-0.3-0.9-0.7-1.2l-0.5,0.6
			c0.3,0.2,0.5,0.3,0.4,0.6c-0.1,0.3-0.4,0.2-1.5-0.3c-0.9-0.4-1.1-0.6-1-0.8c0.1-0.3,0.4-0.2,0.7-0.1L12.5,25.3z M13.3,27.6
			c-0.6-0.2-1.2,0-1.6,0.4c-0.2,0.2-0.4,0.4-0.7,0.3c-0.2-0.1-0.3-0.2-0.2-0.3c0-0.2,0.2-0.3,0.5-0.2l0.3,0.1l0.2-0.7l-1.3-0.4
			l-0.2,0.6l0.2,0.1l0,0c-0.1,0-0.3,0.2-0.4,0.5c-0.1,0.5,0.1,0.9,0.7,1c0.6,0.2,1.2,0,1.6-0.4c0.3-0.2,0.5-0.4,0.8-0.3
			c0.3,0.1,0.3,0.2,0.3,0.4s-0.2,0.3-0.5,0.2l-0.3-0.1l-0.2,0.7l1.3,0.4l0.2-0.6l0.1,0c0-0.2,0.1-0.3,0.3-0.3c0.1,0,0.1,0.1,0.1,0.2
			c0,0,0,0,0,0c0,0.1-0.1,0.1-0.1,0.2l0.5,0.1c0.1-0.1,0.2-0.2,0.2-0.4c0.1-0.3,0-0.6-0.4-0.7c-0.2-0.1-0.3,0-0.5,0
			C14.2,28.1,13.9,27.8,13.3,27.6 M12.9,30.4l-2.6-0.4l0-0.3l-0.7-0.1l-0.2,1.3l0.7,0.1l0-0.3l2.6,0.4l0,0.3l0.7,0.1l0.2-1.3
			L13,30.1L12.9,30.4z M9.2,30.1c0-0.2-0.1-0.4-0.3-0.4c0,0,0,0-0.1,0c-0.2-0.1-0.4,0-0.4,0.2c0,0,0,0.1,0,0.1
			c0,0.2,0.1,0.4,0.3,0.4c0,0,0,0,0.1,0C8.9,30.5,9.1,30.4,9.2,30.1C9.1,30.2,9.2,30.2,9.2,30.1 M9.9,33.3V33l-0.7,0l0,1.2l0.7,0V34
			l2.2,0c0.3,0,0.5,0,0.5,0.3c0,0.3-0.2,0.3-0.5,0.3l-2.2,0v-0.2l-0.7,0l0,1.3l0.7,0v-0.3l2.1,0c0.9,0,1.3-0.3,1.3-1.1
			c0-0.8-0.4-1.1-1.3-1.1L9.9,33.3z M12.6,36.3L10,36.7l0-0.3l-0.7,0.1l0.2,1.3l1.7,0v0l-1.6,0.6l0.2,1.4l0.7-0.1l0-0.3l2.6-0.4
			l0,0.3l0.7-0.1L13.6,38l-0.7,0.1l0,0.2l-0.5,0.1c-0.7,0.1-1.5,0.3-1.5,0.3v0c0,0,0.4-0.2,0.9-0.4l0.7-0.3l-0.1-0.5l-0.8-0.1
			c-0.5,0-1,0-1-0.1v0c0,0,0.8-0.1,1.5-0.2l0.5-0.1l0,0.2l0.7-0.1l-0.2-1.2L12.6,36L12.6,36.3z M12.4,41.1l0.1,0.4l-0.4,0.1
			c-0.7,0.2-1,0.2-1,0.2l0,0c0,0,0.3-0.1,0.9-0.5L12.4,41.1z M13.2,39.5l0.1,0.2l-3,1.7l0.5,1.5l0.7-0.2l0-0.1c0,0,0-0.1,0-0.1l0,0
			c0,0,0.3-0.1,0.6-0.1l2.1-0.4l0.1,0.2l0.7-0.2l-0.4-1.1L13.7,41l0.1,0.2l-0.5,0.1l-0.2-0.6l0.4-0.2l0.1,0.2l0.7-0.2l-0.4-1.2
			L13.2,39.5z M14.2,42.3l0.1,0.2l-1.4,1.4l-1-0.1l-0.1-0.2l-0.6,0.3l0.5,1l0.6-0.3l-0.1-0.2l0.7,0.1c0.3,0,0.5,0,0.6,0.1l0,0
			l-0.6,0.3L12.6,45l-0.1-0.2l-0.6,0.3l0.6,1.1l0.6-0.3L13,45.7l2.3-1.3l0.1,0.2l0.6-0.3l-0.6-1.1l-0.6,0.3l0.1,0.2l-0.6,0.3
			L13.9,44l0.8-0.8l0.1,0.2l0.6-0.3L14.8,42L14.2,42.3z"/>
	</g>
</g>
</svg>
