<?xml version="1.0" encoding="utf-8"?>
<!-- Generator: Adobe Illustrator 23.0.1, SVG Export Plug-In . SVG Version: 6.00 Build 0)  -->
<svg version="1.1" id="Layer_1" xmlns="http://www.w3.org/2000/svg" xmlns:xlink="http://www.w3.org/1999/xlink" x="0px" y="0px"
	 viewBox="0 0 208 64" style="enable-background:new 0 0 208 64;" xml:space="preserve">
<style type="text/css">
	.st0{clip-path:url(#SVGID_2_);}
	.st1{fill:#D60812;}
	.st2{fill:#00A12F;}
	.st3{fill:#FFFFFF;}
	.st4{enable-background:new    ;}
	.st5{fill:#919191;}
</style>
<g id="Group_19" transform="translate(86 3228)">
	<g>
		<defs>
			<rect id="SVGID_1_" x="-86" y="-3228" width="64" height="64"/>
		</defs>
		<clipPath id="SVGID_2_">
			<use xlink:href="#SVGID_1_"  style="overflow:visible;"/>
		</clipPath>
		<g id="Group_18" class="st0">
			<path id="Path_16" class="st1" d="M-28.3-3182.9c-1,2.9-2.5,5.6-4.3,8c0,0,0.1,0,0.1,0c1.1,0.3,2.2,0.6,3.3,0.9
				c0.8,0.4,1.8,0,2.1-0.8c0,0,0,0,0-0.1c0.5-1,1.1-2,1.6-3c0.3-0.7,0.2-1.5-0.3-2c-0.8-0.9-1.6-1.8-2.4-2.7
				C-28.2-3182.8-28.2-3182.9-28.3-3182.9 M-81.2-3198.3c-1.2,0.4-2.4,0.7-3.6,1.1c-0.6,0.1-1.1,0.6-1.1,1.3c0,0.6,0,1.2,0,1.9h0
				c0,0.2,0,0.4,0,0.6c0,0.1,0,0.1,0,0.2l0,0c0,0.4,0,0.8,0,1.3c-0.1,0.8,0.4,1.5,1.2,1.8c1,0.3,1.9,0.6,2.9,0.9
				c0.2,0.1,0.5,0.1,0.7,0.3C-81.7-3192-81.7-3195.2-81.2-3198.3 M-79.7-3204.3c1-2.9,2.5-5.6,4.3-8c0,0-0.1,0-0.1,0
				c-1.1-0.3-2.2-0.6-3.3-0.9c-0.8-0.4-1.8,0-2.1,0.8c0,0,0,0,0,0.1c-0.5,1-1.1,2-1.6,3c-0.3,0.7-0.2,1.5,0.3,2
				c0.8,0.9,1.6,1.8,2.4,2.7C-79.8-3204.4-79.8-3204.3-79.7-3204.3 M-71.3-3216.6c2.2-1.9,4.7-3.5,7.4-4.6c0,0,0,0,0,0
				c-0.9-0.9-1.7-1.8-2.6-2.7c-0.5-0.7-1.5-0.8-2.1-0.3c-0.9,0.5-1.7,1.1-2.6,1.6c-0.9,0.4-1.3,1.5-1,2.4
				C-72-3219.4-71.5-3217.8-71.3-3216.6 M-54-3223.2c1.4,0,2.9,0.1,4.3,0.4c-0.4-1.2-0.7-2.5-1-3.7c-0.1-0.9-0.8-1.5-1.7-1.5
				c-1,0-2.1,0-3.1,0c-0.8-0.1-1.5,0.5-1.7,1.3c-0.3,1-0.6,2.1-0.9,3.2c-0.1,0.2-0.1,0.5-0.2,0.7
				C-56.9-3223.1-55.4-3223.2-54-3223.2 M-35.8-3220.2c0.3-0.9,0-1.9-0.9-2.3c-0.9-0.6-1.8-1.1-2.6-1.6c-0.6-0.5-1.5-0.4-2,0.2
				c-0.8,0.9-1.7,1.7-2.5,2.6c-0.1,0.1-0.1,0.1-0.2,0.2c2.7,1.1,5.2,2.7,7.4,4.6c0,0,0-0.1,0-0.1
				C-36.4-3217.9-36.1-3219.1-35.8-3220.2 M-27.5-3193.6c0-15.7-11.8-28.4-26.4-28.4s-26.4,12.7-26.4,28.4c0,4.6,1.1,9.2,3.1,13.4
				c0.4,0.4,3,2.8,7.6,1.2c0,0,2.3-0.9,3.9-1.6c-3.3-3.5-5.1-8.2-5.1-13c0-10.1,7.6-18.2,17-18.2s17,8.2,17,18.2
				c0.1,7.6-4.4,14.5-11.5,17.3l5,6.3l1.4,1.8C-33-3173.4-27.4-3183.1-27.5-3193.6 M-25.8-3207c0.7-0.6,0.8-1.7,0.3-2.4
				c-0.5-0.8-0.9-1.7-1.4-2.6c-0.5-1-1.2-1.4-2-1.1c-1.2,0.3-2.4,0.6-3.6,0.9c0,0,0,0,0,0c1.8,2.4,3.3,5.1,4.3,8
				C-27.5-3205.2-26.6-3206.1-25.8-3207 M-22-3194L-22-3194c0-0.4,0-0.8,0-1.3c0.1-0.8-0.4-1.5-1.2-1.8c-1-0.3-1.9-0.6-2.9-0.9
				c-0.2-0.1-0.5-0.1-0.7-0.3c0.4,3.1,0.4,6.2,0,9.3c1.2-0.4,2.4-0.7,3.6-1.1c0.6-0.1,1.1-0.6,1.1-1.3c0-0.6,0-1.2,0-1.9h0
				c0-0.2,0-0.4,0-0.6C-22-3193.9-22-3194-22-3194"/>
			<path id="Path_17" class="st2" d="M-61.3-3183.6c-0.2,0.4-0.3,0.8-0.3,1.3c0.3-0.1,0.5-0.2,0.8-0.2c0,0-0.1-0.1-0.1-0.1
				c-0.1-0.1-0.2-0.3-0.2-0.4C-61.2-3183.3-61.2-3183.4-61.3-3183.6 M-62.5-3182.1C-62.5-3182.1-62.5-3182.1-62.5-3182.1l0.3,0
				c-0.1-0.1-0.1-0.3-0.1-0.4c0-0.2-0.1-0.4,0-0.6c0-0.3-0.1-0.5-0.2-0.8c-0.1-0.3-0.3-0.5-0.4-0.8c-0.1-0.1-0.1-0.3-0.1-0.5
				c0-0.1,0-0.2,0-0.2s0-0.2,0-0.3c-0.4,0.4-0.6,1-0.5,1.5c0,0.3,0.1,0.5,0.2,0.8c0.1,0.2,0.3,0.5,0.5,0.6c0.1,0.1,0.2,0.2,0.3,0.3
				C-62.6-3182.3-62.6-3182.2-62.5-3182.1 M-65.8-3182.6c0.5,0.4,0.9,0.8,1.3,1.3l0.1,0.1c0.3-0.1,0.7-0.3,1.1-0.5
				c-0.1-0.1-0.2-0.2-0.3-0.3c-0.2-0.1-0.4-0.3-0.5-0.4c-0.2-0.1-0.4-0.2-0.7-0.3C-65.1-3182.7-65.5-3182.7-65.8-3182.6
				 M-66.2-3185.1c-0.4-0.4-0.9-0.6-1.5-0.6c0.2,0.2,0.4,0.5,0.6,0.8c0.2,0.3,0.3,0.5,0.4,0.7c0.1,0.2,0.2,0.4,0.4,0.6
				c0.2,0.2,0.4,0.3,0.6,0.4c0.4,0.1,0.8,0.1,1.1,0.1c0.2,0,0.4,0,0.6,0c-0.1-0.1-0.1-0.1-0.2-0.2l0,0c-0.1,0-0.2,0-0.4-0.1
				c-0.2,0-0.3-0.1-0.5-0.3c-0.1-0.1-0.2-0.3-0.3-0.4c-0.1-0.1-0.1-0.2-0.2-0.3l-0.2-0.3c-0.1-0.1-0.1-0.2-0.2-0.3
				C-66.1-3185-66.1-3185.1-66.2-3185.1 M-68.1-3198.4c-0.1-0.3-0.2-0.5-0.4-0.8c0,0.3,0,0.6-0.1,0.9c0,0.1-0.1,0.3-0.1,0.4
				c0,0.1-0.1,0.2-0.1,0.3c-0.1,0.2-0.1,0.4-0.1,0.6c0,0.2,0,0.5,0.1,0.7c0.1,0.3,0.4,0.6,0.6,0.8c0.1,0.1,0.3,0.3,0.4,0.4
				c0-0.1,0-0.2,0-0.2c0,0,0,0,0,0l-0.2-0.3c-0.1-0.1-0.1-0.3-0.1-0.5c0-0.2,0-0.3,0-0.5c0.1-0.4,0.1-0.8,0.1-1.2
				C-67.9-3197.9-68-3198.2-68.1-3198.4 M-64-3204.9c0.2-0.4,0.3-0.9,0.2-1.4c-0.1,0.1-0.1,0.2-0.2,0.4c-0.1,0.1-0.2,0.2-0.2,0.3
				c-0.2,0.2-0.3,0.3-0.5,0.4c-0.1,0.1-0.1,0.1-0.2,0.2c-0.1,0.1-0.1,0.1-0.2,0.2c-0.1,0.2-0.2,0.4-0.2,0.6c0,0.3,0,0.7,0.1,1
				c0.1,0.2,0.1,0.3,0.1,0.5l0.1-0.2l0,0l0-0.3c0-0.3,0.2-0.6,0.4-0.8c0.1-0.2,0.2-0.3,0.3-0.4C-64.1-3204.6-64-3204.8-64-3204.9
				 M-61.7-3206.1C-61.7-3206.1-61.8-3206.1-61.7-3206.1L-61.7-3206.1C-61.8-3206.1-61.7-3206.1-61.7-3206.1 M-62.5-3205.4
				L-62.5-3205.4C-62.5-3205.4-62.6-3205.4-62.5-3205.4L-62.5-3205.4C-62.6-3205.4-62.5-3205.4-62.5-3205.4 M-62.6-3205.4
				c-0.1,0.1-0.2,0.2-0.3,0.3l0,0C-62.8-3205.2-62.7-3205.3-62.6-3205.4 M-64.3-3203.6L-64.3-3203.6L-64.3-3203.6l-0.2,0.3
				L-64.3-3203.6L-64.3-3203.6L-64.3-3203.6 M-65.1-3202.7c0,0.1,0,0.1,0,0.2l0,0C-65.1-3202.6-65.1-3202.7-65.1-3202.7
				 M-65.8-3201.3l-0.1,0.2l0,0L-65.8-3201.3z M-66.3-3200.6c0,0.1,0,0.2-0.1,0.3C-66.3-3200.4-66.3-3200.5-66.3-3200.6
				L-66.3-3200.6 M-67.3-3198v0.4V-3198L-67.3-3198z M-67.6-3192.7L-67.6-3192.7c0-0.1,0-0.2,0-0.3
				C-67.7-3192.9-67.7-3192.8-67.6-3192.7 M-67.7-3194.8L-67.7-3194.8c0-0.1,0-0.2,0-0.3C-67.8-3194.9-67.8-3194.8-67.7-3194.8
				 M-67.7-3192l-0.1-0.2l0,0L-67.7-3192z M-67.2-3189.7C-67.2-3189.7-67.2-3189.7-67.2-3189.7
				C-67.2-3189.7-67.2-3189.7-67.2-3189.7L-67.2-3189.7z M-67.2-3188.9c0.1,0,0.1,0.1,0.2,0.2l0,0
				C-67-3188.8-67.1-3188.8-67.2-3188.9 M-66.3-3187.1L-66.3-3187.1l0.2,0.4L-66.3-3187.1z M-66-3186.1l0.1,0.2l0.2,0.2l-0.2-0.2
				L-66-3186.1z M-60.1-3207.8c0.3-0.3,0.5-0.7,0.6-1.2c-0.2,0.2-0.4,0.3-0.6,0.4c-0.2,0.1-0.4,0.2-0.5,0.2
				c-0.4,0.1-0.6,0.4-0.8,0.7c-0.1,0.3-0.2,0.6-0.2,0.9c0,0.2,0,0.3-0.1,0.5l0,0c-0.1,0.1-0.3,0.2-0.4,0.3c-0.4,0.3-0.8,0.7-1.2,1.1
				l0,0l0-0.3c0.1-0.3,0.2-0.5,0.5-0.7c0.1-0.1,0.3-0.2,0.4-0.4c0.1-0.1,0.3-0.2,0.4-0.4c0.1-0.2,0.2-0.3,0.3-0.5
				c0-0.1,0.1-0.2,0.1-0.3c0-0.1,0-0.3,0-0.4c-0.3,0.4-0.7,0.7-1.1,0.9c-0.2,0.1-0.3,0.2-0.4,0.3c-0.1,0.1-0.2,0.3-0.3,0.5
				c-0.1,0.3-0.1,0.6,0,1c0,0.2,0,0.3,0,0.5l0.1-0.1l-0.1,0.1c-0.5,0.6-1,1.1-1.5,1.8c0,0.1-0.1,0.1-0.1,0.2
				c-0.1,0.1-0.1,0.2-0.2,0.3c-0.4,0.6-0.7,1.2-1,1.8c0,0,0,0,0,0l-0.1-0.3c0-0.2,0-0.3,0.1-0.5c0.1-0.1,0.1-0.3,0.2-0.4
				c0.1-0.2,0.2-0.3,0.3-0.5c0.1-0.2,0.2-0.3,0.2-0.5c0.1-0.5,0.1-1,0-1.4c-0.2,0.5-0.4,0.9-0.8,1.3c-0.1,0.2-0.2,0.3-0.3,0.5
				c-0.1,0.2-0.1,0.4-0.1,0.6c0,0.1,0,0.3,0.1,0.4c0.1,0.2,0.1,0.4,0.2,0.5c0.1,0.2,0.1,0.3,0.2,0.5l0.1-0.1c0,0,0,0.1-0.1,0.1
				c-0.4,0.8-0.7,1.6-0.9,2.4v0c0-0.1-0.1-0.2-0.1-0.3c-0.1-0.2-0.1-0.3,0-0.5c0-0.2,0.1-0.3,0.1-0.5c0-0.2,0.1-0.4,0.2-0.6
				c0.1-0.2,0.1-0.4,0.1-0.6c0-0.1,0-0.2,0-0.3c0-0.1,0-0.2,0-0.3c0-0.3-0.1-0.5-0.3-0.8c-0.1,0.3-0.1,0.6-0.3,0.8
				c-0.1,0.2-0.2,0.4-0.3,0.6c-0.1,0.2-0.2,0.4-0.2,0.6c-0.1,0.2-0.1,0.4,0,0.6c0.1,0.3,0.2,0.7,0.5,0.9c0.1,0.1,0.2,0.3,0.3,0.5
				l0,0c-0.1,0.5-0.3,1.1-0.3,1.7c0,0.3-0.1,0.7-0.1,1l0,0c0,0.1,0,0.1,0,0.2c0,0,0,0,0,0.1c0,0,0,0,0-0.1c0,0.2,0,0.4,0,0.7
				c0,0.7,0,1.3,0,2c0,0.1,0,0.1,0,0.2l0,0c-0.1-0.1-0.2-0.2-0.2-0.2c-0.1-0.1-0.2-0.3-0.2-0.5c0-0.2,0-0.3,0-0.5c0-0.2,0-0.4,0-0.6
				c0-0.2,0-0.4-0.1-0.6c0-0.1-0.1-0.2-0.1-0.3c0-0.1-0.1-0.2-0.1-0.3c-0.1-0.3-0.3-0.5-0.5-0.7c0.1,0.3,0.1,0.6,0,0.9
				c0,0.3,0,0.5-0.1,0.8c0,0.2,0,0.5,0,0.7c0,0.2,0.1,0.5,0.2,0.6c0.2,0.3,0.5,0.5,0.8,0.7c0.2,0.1,0.3,0.2,0.4,0.3
				c0.1,0.1,0.1,0.1,0.1,0.2l0,0c0-0.1-0.1-0.1-0.1-0.2c0.1,0.5,0.1,1,0.2,1.6l0,0.2l0.1,0.2l0.1,0.5l0.1,0.3l0,0l-0.3-0.2
				c-0.1-0.1-0.2-0.2-0.3-0.4c-0.1-0.2-0.1-0.3-0.1-0.5c-0.1-0.2-0.1-0.4-0.2-0.6c0-0.2-0.1-0.4-0.2-0.6c-0.1-0.2-0.2-0.4-0.4-0.6
				c-0.2-0.2-0.4-0.4-0.7-0.6c0.1,0.2,0.1,0.3,0.1,0.5c0,0.1,0.1,0.3,0.1,0.4c0,0.3,0,0.5,0.1,0.8c0,0.2,0,0.5,0.1,0.7
				c0.1,0.2,0.2,0.4,0.3,0.6c0.3,0.3,0.6,0.4,1,0.5c0.2,0.1,0.4,0.1,0.5,0.2c0,0.1,0.1,0.3,0.1,0.4c0.3,0.8,0.6,1.6,1,2.3l0,0
				l-0.3-0.1c-0.2-0.1-0.3-0.2-0.4-0.3c-0.1-0.1-0.2-0.3-0.2-0.5c-0.1-0.2-0.2-0.4-0.3-0.6c-0.1-0.2-0.2-0.4-0.3-0.6
				c-0.1-0.2-0.3-0.4-0.5-0.5c-0.1-0.1-0.2-0.2-0.4-0.2c-0.1-0.1-0.3-0.1-0.4-0.2c0.3,0.5,0.5,1.1,0.6,1.7c0.1,0.2,0.1,0.5,0.2,0.7
				c0.1,0.2,0.3,0.4,0.5,0.5c0.1,0.1,0.3,0.2,0.4,0.2c0.2,0.1,0.4,0.1,0.6,0.1c0.2,0,0.4,0.1,0.6,0.1l0,0c0.5,0.9,1.1,1.7,1.7,2.5
				l0.2,0.1l-0.2-0.1c0.1,0.1,0.1,0.1,0.2,0.2c0.1,0,0.2,0,0.2,0.1l0,0c-0.1,0-0.1-0.1-0.2-0.1c0.4,0.4,0.7,0.8,1.1,1.1
				c0,0,0.1,0.1,0.2,0.1l0.2-0.1l0,0l0,0c0,0,0-0.1,0-0.1c-0.1-0.1-0.1-0.1-0.2-0.2c-0.6-0.6-1.2-1.2-1.7-1.8l0,0
				c-0.1-0.2-0.1-0.5-0.1-0.8c0-0.2,0-0.4,0.1-0.6c0-0.3,0-0.5,0-0.8c0-0.3-0.2-0.6-0.2-0.9c0-0.2,0-0.3,0-0.5c0-0.2,0-0.3,0-0.5
				c-0.2,0.2-0.4,0.4-0.6,0.6c-0.1,0.1-0.1,0.2-0.2,0.4c0,0.1-0.1,0.2-0.1,0.4c0,0.1,0,0.3,0,0.4c0,0.1,0,0.3,0.1,0.4
				c0,0.1,0.1,0.3,0.1,0.4c0.1,0.1,0.1,0.2,0.2,0.4c0.1,0.1,0.2,0.2,0.2,0.4c0,0.1,0.1,0.2,0.1,0.3c0,0.1,0.1,0.1,0.1,0.2
				c0-0.1-0.1-0.1-0.1-0.2c0,0,0,0.1,0,0.1l0,0c0.1,0.1,0.2,0.2,0.3,0.3c-0.1-0.1-0.2-0.2-0.3-0.3l0,0c0,0,0-0.1,0-0.1
				c-0.5-0.7-1-1.5-1.4-2.3c0,0,0,0,0,0l0,0v0c0,0,0-0.1-0.1-0.1c0,0,0,0.1,0.1,0.1c0-0.3,0-0.5,0-0.8c0-0.2,0.1-0.4,0.2-0.6
				c0-0.1,0.1-0.2,0.1-0.4c0-0.1,0-0.2,0-0.4c0-0.3,0-0.6,0-0.9c0-0.2,0-0.3,0-0.5c0-0.2,0.1-0.3,0.1-0.5c-0.5,0.2-0.9,0.6-1,1.1
				c-0.1,0.2-0.1,0.5-0.1,0.8c0,0.3,0.1,0.5,0.2,0.8c0.1,0.1,0.1,0.3,0.2,0.4c0,0.1,0,0.2,0,0.3l0,0c0,0,0,0,0,0.1c0,0,0,0,0-0.1
				c-0.2-0.4-0.4-0.8-0.5-1.3c-0.1-0.2-0.1-0.3-0.2-0.5l-0.1-0.5l-0.1-0.2c0-0.2,0.1-0.5,0.2-0.7c0.1-0.2,0.2-0.3,0.3-0.5
				c0.1-0.2,0.2-0.4,0.3-0.7c0-0.1,0-0.3,0.1-0.4c0-0.1,0-0.3,0.1-0.4c0.1-0.3,0.2-0.6,0.3-0.8c-0.3,0.1-0.5,0.2-0.7,0.3
				c-0.2,0.1-0.3,0.3-0.5,0.6c-0.1,0.2-0.2,0.5-0.2,0.7c0,0.3,0,0.5,0,0.8c0,0.1,0.1,0.3,0.1,0.4c0,0.1,0,0.2,0,0.3v0v0
				c0,0,0,0.1,0,0.1c0,0,0-0.1,0-0.1l0-0.2c-0.1-0.6-0.2-1.3-0.3-1.9c0-0.1,0-0.2,0-0.4l0,0c0.1-0.2,0.2-0.5,0.3-0.7
				c0.1-0.2,0.2-0.3,0.4-0.4c0.2-0.2,0.3-0.4,0.4-0.6c0.1-0.1,0.1-0.3,0.1-0.4c0-0.1,0.1-0.3,0.1-0.4c0.1-0.3,0.3-0.5,0.5-0.7
				c-0.5,0-1,0.2-1.3,0.6c-0.1,0.2-0.3,0.4-0.3,0.6c-0.1,0.2-0.1,0.5-0.1,0.7c0,0.1,0,0.3,0,0.4c0,0.1,0,0.2-0.1,0.3
				c0-0.4,0-0.7,0-1.1c0-0.5,0.1-0.9,0.1-1.4l0,0l0,0l0,0c0-0.2,0-0.3,0.1-0.5c0,0.2,0,0.3-0.1,0.5c0.1-0.2,0.2-0.4,0.4-0.6
				c0.1-0.1,0.3-0.2,0.4-0.3c0.2-0.1,0.3-0.3,0.5-0.5c0.1-0.2,0.2-0.5,0.4-0.7c0.2-0.2,0.4-0.4,0.6-0.6c-0.2-0.1-0.5-0.1-0.7,0
				c-0.2,0.1-0.4,0.2-0.6,0.3c-0.4,0.3-0.6,0.8-0.7,1.2c0,0.1,0,0.3-0.1,0.4c0,0.1-0.1,0.2-0.1,0.2c0.1-0.8,0.3-1.6,0.5-2.3l0,0l0,0
				c0-0.1,0.1-0.3,0.1-0.4l0,0c0,0,0,0,0.1-0.1c0.2-0.7,0.5-1.4,0.9-2.1l0,0c0.2-0.1,0.3-0.3,0.5-0.4c0.2-0.1,0.3-0.1,0.5-0.1
				c0.2,0,0.4-0.1,0.6-0.2c0.2-0.1,0.4-0.3,0.6-0.5c0.2-0.2,0.5-0.3,0.7-0.3c-0.4-0.3-0.8-0.3-1.3-0.2c-0.2,0.1-0.4,0.2-0.5,0.3
				c-0.2,0.2-0.3,0.3-0.4,0.5c-0.1,0.1-0.1,0.2-0.2,0.3c-0.1,0.1-0.1,0.1-0.2,0.2l0,0l0,0l0,0c0.2-0.3,0.4-0.6,0.6-0.9
				c0.2-0.3,0.4-0.6,0.6-0.9l0,0c0.2-0.1,0.4-0.2,0.6-0.2c0.2,0,0.3,0,0.5,0c0.2,0,0.4-0.1,0.6-0.1c0.2-0.1,0.4-0.2,0.6-0.3
				c0.2-0.1,0.5-0.2,0.7-0.2c-0.3-0.3-0.7-0.5-1.2-0.4c-0.4,0.1-0.8,0.3-1.1,0.6c-0.1,0.1-0.2,0.2-0.2,0.3c-0.1,0.1-0.1,0.1-0.2,0.1
				c-0.1,0.1-0.1,0.2-0.2,0.2c0.1-0.1,0.1-0.2,0.2-0.2l0,0c0.4-0.5,0.9-1,1.4-1.5l0,0c0.1,0,0.2-0.1,0.3-0.1c0.1,0,0.2,0,0.3,0
				c0.2,0,0.3,0,0.5,0c0.2,0,0.4,0,0.6,0c0.2-0.1,0.4-0.2,0.6-0.2c0.2-0.1,0.5-0.1,0.7-0.1c-0.2-0.4-0.6-0.6-1.1-0.6
				c-0.4,0-0.8,0.1-1.1,0.4c-0.1,0.1-0.2,0.2-0.3,0.2c-0.1,0-0.1,0.1-0.2,0.1c0.2-0.1,0.3-0.3,0.4-0.4c0.2-0.2,0.4-0.3,0.6-0.4
				c0.2-0.1,0.3-0.2,0.4-0.3l0.3-0.2l0.1-0.1c0,0-0.1,0-0.1-0.1h0l-0.3,0.2c-0.1,0.1-0.3,0.2-0.5,0.3l0,0l-0.1,0.1
				c0,0,0,0.1-0.1,0.1c0,0,0-0.1,0.1-0.1l0.1-0.1l0,0l0,0l0.1-0.3c0.1-0.3,0.3-0.4,0.5-0.6C-60.6-3207.4-60.3-3207.6-60.1-3207.8
				 M-66.8-3199L-66.8-3199C-66.8-3199-66.9-3198.9-66.8-3199L-66.8-3199c-0.1,0.2-0.1,0.3-0.2,0.5l0,0c0.1-0.2,0.3-0.3,0.5-0.5
				c0.1-0.1,0.3-0.2,0.5-0.2c0.2-0.1,0.4-0.2,0.5-0.4c0.1-0.1,0.2-0.2,0.2-0.3c0.1-0.1,0.2-0.2,0.2-0.3c0.2-0.2,0.4-0.4,0.7-0.5
				c-0.4-0.2-0.9-0.2-1.3,0c-0.4,0.2-0.7,0.6-0.8,1c0,0.1-0.1,0.2-0.1,0.4C-66.7-3199.1-66.7-3199-66.8-3199 M-58.1-3207.8
				c-0.5-0.3-1-0.5-1.5-0.2c-0.5,0.3-0.7,0.8-1.1,1.1c-0.1,0-0.1,0.1-0.1,0.1c0,0,0.1,0,0.1,0.1c0.4,0.2,0.9,0.2,1.3,0
				C-58.8-3207.2-58.7-3207.6-58.1-3207.8"/>
			<path id="Path_18" class="st2" d="M-44.4-3204.8l0.1,0.1c0-0.2,0-0.3,0-0.5c0.1-0.3,0.1-0.6,0-1c0-0.2-0.1-0.4-0.3-0.5
				c-0.1-0.1-0.3-0.2-0.4-0.3c-0.4-0.2-0.8-0.5-1.1-0.9c0,0.1,0,0.3,0,0.4c0,0.1,0,0.2,0.1,0.3c0.1,0.2,0.2,0.4,0.3,0.5
				c0.1,0.1,0.2,0.3,0.4,0.4c0.1,0.1,0.3,0.2,0.4,0.4c0.2,0.2,0.4,0.4,0.5,0.7L-44.4-3204.8L-44.4-3204.8 M-40-3194.8L-40-3194.8
				c0-0.1,0-0.3,0.1-0.4l0,0C-39.9-3195-39.9-3194.9-40-3194.8 M-39.9-3192c0-0.1,0-0.1,0-0.2l0,0C-39.9-3192.1-39.9-3192-39.9-3192
				 M-40-3191.8L-40-3191.8L-40-3191.8L-40-3191.8z M-40.1-3195.7L-40.1-3195.7L-40.1-3195.7L-40.1-3195.7l0-0.4l0,0L-40.1-3195.7z
				 M-40.7-3198.5l-0.1-0.4l0,0L-40.7-3198.5z M-41.7-3200.6L-41.7-3200.6L-41.7-3200.6L-41.7-3200.6z M-42.5-3202.1
				c0-0.1,0-0.1-0.1-0.2C-42.6-3202.2-42.5-3202.2-42.5-3202.1z M-43.1-3202.9L-43.1-3202.9L-43.1-3202.9l-0.2-0.3l0,0L-43.1-3202.9
				z M-44.8-3204.7L-44.8-3204.7c0,0-0.1-0.1-0.1-0.1C-44.8-3204.8-44.8-3204.8-44.8-3204.7 M-45.8-3205.6L-45.8-3205.6
				C-45.9-3205.7-45.9-3205.7-45.8-3205.6C-45.9-3205.7-45.9-3205.7-45.8-3205.6 M-40.3-3189.7L-40.3-3189.7
				C-40.3-3189.7-40.3-3189.7-40.3-3189.7L-40.3-3189.7L-40.3-3189.7z M-40.4-3189.6l0,0.1l0,0.1l0-0.1L-40.4-3189.6z M-41.8-3185.4
				c0,0-0.1,0-0.1,0.1l0,0C-41.9-3185.4-41.8-3185.4-41.8-3185.4 M-42.9-3184c-0.1,0.1-0.2,0.2-0.3,0.3
				C-43.1-3183.7-43-3183.8-42.9-3184L-42.9-3184z M-43.4-3183L-43.4-3183l-0.1,0.1L-43.4-3183z M-46-3181.1
				c-0.1,0.1-0.3,0.1-0.4,0.2l0,0C-46.3-3181-46.1-3181-46-3181.1z M-47.9-3180.2L-47.9-3180.2l-0.5,0.2L-47.9-3180.2z
				 M-48.9-3179.4l-0.1,0.1L-48.9-3179.4L-48.9-3179.4 M-49.3-3179.4L-49.3-3179.4L-49.3-3179.4 M-38.7-3193
				c0.1-0.2,0.2-0.4,0.2-0.6c0-0.2,0-0.5,0-0.7c0-0.3-0.1-0.5-0.1-0.8c0-0.3,0-0.6,0-0.9c-0.2,0.2-0.4,0.4-0.5,0.7
				c-0.1,0.1-0.1,0.2-0.1,0.3c0,0.1-0.1,0.2-0.1,0.3c0,0.2-0.1,0.4-0.1,0.6c0,0.2,0,0.4,0,0.6c0,0.2,0,0.3,0,0.5
				c0,0.2-0.1,0.3-0.2,0.5c-0.1,0.1-0.2,0.2-0.2,0.2l0,0c0-0.1,0-0.1,0-0.2c0.1-0.7,0.1-1.3,0-2c0-0.2,0-0.4,0-0.7c0,0,0,0,0-0.1
				c0,0,0,0,0,0.1c0.1-0.2,0.2-0.3,0.4-0.4c0.3-0.2,0.5-0.5,0.6-0.8c0.1-0.2,0.1-0.4,0.1-0.7c0-0.2-0.1-0.4-0.1-0.6l-0.1-0.3
				c0-0.1-0.1-0.2-0.1-0.4c-0.1-0.3-0.1-0.6-0.1-0.9c-0.2,0.2-0.3,0.5-0.4,0.8c-0.1,0.2-0.1,0.4-0.1,0.7c0,0.4,0.1,0.8,0.1,1.2
				c0,0.2,0,0.3,0,0.5c0,0.2,0,0.3-0.1,0.5l-0.2,0.3l0,0c0-0.3-0.1-0.7-0.1-1c-0.1-0.6-0.2-1.1-0.3-1.6c0,0.1,0,0.1-0.1,0.2l0,0
				c0-0.1,0-0.1,0.1-0.2l0-0.2c0,0.1,0,0.1,0,0.2l0,0c0.1-0.2,0.2-0.3,0.3-0.5c0.2-0.3,0.4-0.6,0.5-0.9c0-0.2,0-0.4,0-0.6
				c-0.1-0.2-0.1-0.4-0.2-0.6c-0.1-0.2-0.2-0.4-0.3-0.6c-0.1-0.3-0.2-0.5-0.3-0.8c-0.1,0.3-0.2,0.5-0.3,0.8c0,0.1,0,0.2,0,0.3
				c0,0.1,0,0.2,0,0.3c0,0.2,0.1,0.4,0.1,0.6c0.1,0.2,0.1,0.4,0.2,0.6c0,0.1,0.1,0.3,0.1,0.5c0,0.2,0,0.3,0,0.5
				c0,0.1-0.1,0.2-0.1,0.3v0c-0.2-0.8-0.5-1.6-0.9-2.4l0,0c0-0.2,0.1-0.3,0.2-0.5c0.1-0.2,0.2-0.4,0.2-0.5c0-0.1,0.1-0.3,0.1-0.4
				c0-0.2,0-0.4-0.1-0.6c-0.1-0.2-0.2-0.3-0.3-0.5c-0.3-0.4-0.6-0.8-0.8-1.3c-0.1,0.5-0.2,1,0,1.4c0.1,0.2,0.1,0.4,0.2,0.5
				c0.1,0.2,0.2,0.3,0.3,0.5c0.1,0.1,0.1,0.3,0.2,0.4c0.1,0.1,0.1,0.3,0.1,0.5l-0.1,0.3c0,0,0,0,0,0l0,0c0,0.1,0.1,0.3,0.1,0.4l0,0
				c0-0.1,0-0.3-0.1-0.4c-0.3-0.6-0.6-1.2-1-1.8c-0.1-0.1-0.1-0.2-0.2-0.3c0-0.2,0-0.3,0.1-0.5c0.1-0.3,0.2-0.7,0.1-1
				c0-0.2-0.1-0.4-0.2-0.6c-0.1-0.1-0.1-0.2-0.2-0.2c-0.1-0.1-0.1-0.1-0.2-0.2c-0.1-0.1-0.3-0.3-0.5-0.4c-0.1-0.1-0.2-0.2-0.2-0.3
				c-0.1-0.1-0.2-0.2-0.2-0.4c-0.1,0.5,0,0.9,0.2,1.4c0.1,0.2,0.2,0.3,0.3,0.5c0.1,0.1,0.2,0.3,0.3,0.4c0.2,0.2,0.3,0.5,0.4,0.8
				l0,0.3l0,0l0.1,0.1l-0.1-0.1l0,0c-0.4-0.6-0.9-1.2-1.5-1.8c0,0,0,0,0,0c0,0,0,0,0,0l-0.1-0.1c0.1,0.1,0.1,0.2,0.2,0.3l0,0
				c-0.1-0.1-0.1-0.2-0.2-0.3c-0.4-0.4-0.8-0.7-1.2-1.1c-0.2-0.1-0.3-0.2-0.4-0.3l0,0c0-0.2-0.1-0.3-0.1-0.5c0-0.3,0-0.6-0.2-0.9
				c-0.2-0.3-0.5-0.6-0.8-0.7c-0.2-0.1-0.4-0.1-0.5-0.2c-0.2-0.1-0.4-0.3-0.6-0.4c0.1,0.4,0.3,0.8,0.6,1.2c0.3,0.2,0.5,0.4,0.8,0.6
				c0.2,0.2,0.5,0.3,0.5,0.6l0.1,0.3l0,0l0,0l0.1,0.1c0,0.1,0.1,0.1,0.1,0.1c0,0-0.1-0.1-0.1-0.1l-0.1-0.1l0,0
				c-0.2-0.1-0.3-0.2-0.5-0.3l-0.3-0.2h0c0,0-0.1-0.1-0.1-0.1c-0.5-0.3-0.6-0.8-1.1-1.1c-0.5-0.3-1-0.1-1.5,0.2
				c0.6,0.2,0.8,0.7,1.3,1c0.4,0.3,0.9,0.3,1.3,0l0.1,0.1l0.3,0.2c0.1,0.1,0.3,0.2,0.4,0.3s0.4,0.3,0.6,0.4c0.1,0.1,0.3,0.2,0.4,0.4
				c0,0,0.1,0,0.1,0l0,0c0,0-0.1,0-0.1,0l0,0c-0.1,0-0.1,0-0.2-0.1c-0.1-0.1-0.2-0.1-0.3-0.2c-0.3-0.3-0.7-0.4-1.1-0.4
				c-0.4,0-0.8,0.2-1.1,0.6c0.2,0,0.5,0,0.7,0.1c0.2,0.1,0.4,0.2,0.6,0.2c0.2,0.1,0.4,0.1,0.6,0c0.1,0,0.3,0,0.5,0
				c0.1,0,0.2,0,0.3,0c0.1,0,0.2,0.1,0.3,0.1c-0.1-0.1-0.2-0.2-0.3-0.3c0.1,0.1,0.2,0.2,0.3,0.3l0,0l0,0l0,0c0.5,0.5,1,1,1.4,1.5
				l0,0c0.1,0.1,0.1,0.2,0.2,0.2c-0.1-0.1-0.1-0.2-0.2-0.2c-0.1,0-0.1-0.1-0.2-0.1c-0.1-0.1-0.2-0.2-0.2-0.3
				c-0.3-0.3-0.7-0.5-1.1-0.6c-0.4-0.1-0.9,0.1-1.2,0.4c0.3,0,0.5,0.1,0.7,0.2c0.2,0.1,0.4,0.3,0.6,0.3c0.2,0.1,0.4,0.1,0.6,0.1
				c0.2,0,0.3,0,0.5,0c0.2,0.1,0.4,0.1,0.6,0.2l0,0c0.2,0.3,0.4,0.6,0.6,0.9c0.2,0.3,0.4,0.6,0.6,0.9c0,0,0,0,0.1,0l0,0
				c0,0-0.1,0-0.1,0c-0.1,0-0.1-0.1-0.2-0.2c-0.1-0.1-0.1-0.2-0.2-0.3c-0.1-0.2-0.3-0.4-0.4-0.5c-0.2-0.1-0.3-0.2-0.5-0.3
				c-0.4-0.1-0.9-0.1-1.3,0.2c0.3,0.1,0.5,0.2,0.7,0.3c0.2,0.2,0.4,0.3,0.6,0.5c0.2,0.1,0.4,0.2,0.6,0.3c0.2,0,0.3,0.1,0.5,0.1
				c0.2,0.1,0.4,0.2,0.5,0.4l0,0l0,0l0,0c0.3,0.7,0.6,1.4,0.9,2.1c-0.1-0.1-0.1-0.1-0.2-0.2c-0.1-0.1-0.1-0.2-0.1-0.4
				c-0.2-0.4-0.5-0.8-0.8-1c-0.4-0.2-0.9-0.2-1.3,0c0.2,0.1,0.5,0.3,0.7,0.5c0.1,0.1,0.2,0.2,0.2,0.3c0.1,0.1,0.2,0.2,0.2,0.3
				c0.2,0.2,0.3,0.3,0.5,0.4c0.2,0.1,0.3,0.1,0.5,0.2c0.2,0.1,0.3,0.3,0.5,0.5l0,0l0,0c0.2,0.8,0.4,1.5,0.5,2.3c0,0,0,0,0.1,0.1
				c0,0,0,0-0.1-0.1l0,0c-0.1-0.1-0.1-0.2-0.1-0.2c0-0.1-0.1-0.3-0.1-0.4c-0.1-0.5-0.3-0.9-0.7-1.2c-0.2-0.1-0.4-0.2-0.6-0.3
				c-0.2-0.1-0.5-0.1-0.7,0c0.2,0.2,0.4,0.4,0.6,0.6c0.1,0.2,0.2,0.5,0.4,0.7c0.1,0.2,0.3,0.4,0.5,0.5c0.1,0.1,0.3,0.2,0.4,0.3
				c0.2,0.2,0.3,0.4,0.4,0.6l0,0c0.1,0.5,0.1,0.9,0.1,1.4c0,0.3,0,0.7,0,1.1c0-0.1-0.1-0.2-0.1-0.3c0-0.1,0-0.3,0-0.4
				c0-0.3,0-0.5-0.1-0.7c-0.1-0.2-0.2-0.4-0.3-0.6c-0.3-0.4-0.8-0.6-1.3-0.6c0.2,0.2,0.4,0.5,0.5,0.7c0.1,0.1,0.1,0.3,0.1,0.4
				c0,0.1,0.1,0.3,0.1,0.4c0.1,0.2,0.2,0.4,0.4,0.6c0.1,0.1,0.3,0.3,0.4,0.4c0.1,0.2,0.2,0.4,0.3,0.7l0,0l0,0c0,0,0,0,0,0
				c0,0.1,0,0.2,0,0.4c-0.1,0.6-0.2,1.3-0.3,1.9l0,0.2l0,0v0v0c0-0.1,0-0.2,0-0.3c0-0.1,0-0.3,0.1-0.4c0-0.3,0-0.5,0-0.8
				c0-0.2-0.1-0.5-0.2-0.7c-0.1-0.2-0.3-0.4-0.5-0.6c-0.2-0.2-0.5-0.3-0.7-0.3c0.2,0.3,0.3,0.5,0.3,0.8c0,0.1,0,0.3,0.1,0.4
				s0,0.3,0.1,0.4c0.1,0.2,0.1,0.5,0.3,0.7c0.1,0.2,0.2,0.3,0.3,0.5c0.1,0.2,0.1,0.5,0.2,0.7l0,0c0,0,0,0,0,0l0,0c0,0,0,0,0,0
				l-0.1,0.2l-0.1,0.5c0,0.2-0.1,0.3-0.2,0.5c-0.1,0.4-0.3,0.9-0.5,1.3c0,0,0,0,0,0c0,0,0,0,0,0c0-0.1,0-0.2,0-0.3
				c0-0.1,0.1-0.3,0.2-0.4c0.1-0.2,0.2-0.5,0.2-0.8c0-0.3,0-0.5-0.1-0.8c-0.1-0.5-0.5-0.9-1-1.1c0.1,0.2,0.1,0.3,0.1,0.5
				c0,0.1,0,0.3,0,0.5c0,0.3,0,0.6,0,0.9c0,0.1,0,0.2,0,0.4c0,0.1,0.1,0.2,0.1,0.4c0.1,0.2,0.1,0.4,0.2,0.6c0,0.3,0,0.5,0,0.8
				c0.1-0.1,0.1-0.2,0.2-0.4c-0.1,0.1-0.1,0.2-0.2,0.4c0,0,0,0,0,0l0,0l0.2-0.4l0,0l-0.2,0.4l0,0c0,0,0,0,0,0
				c-0.4,0.8-0.8,1.6-1.4,2.3c0,0,0,0,0,0c0,0,0,0,0,0l0,0c0-0.1,0-0.2,0.1-0.3c0.1-0.1,0.2-0.3,0.2-0.4c0.1-0.1,0.1-0.2,0.2-0.3
				c0.1-0.1,0.1-0.2,0.1-0.4c0-0.1,0.1-0.3,0.1-0.4c0-0.1,0-0.3,0-0.4c0-0.1,0-0.3-0.1-0.4c0-0.1-0.1-0.2-0.2-0.4
				c-0.1-0.2-0.3-0.5-0.6-0.6c0,0.2,0,0.3,0,0.5c0,0.2,0,0.3,0,0.5c-0.1,0.3-0.2,0.6-0.2,0.9c0,0.3,0,0.5,0,0.8
				c0,0.2,0.1,0.4,0.1,0.6c0,0.3-0.1,0.5-0.1,0.8c0.1-0.1,0.1-0.2,0.2-0.3c-0.1,0.1-0.1,0.2-0.2,0.3l0,0l0,0
				c-0.5,0.6-1.1,1.2-1.7,1.8c-0.1,0.1-0.1,0.1-0.2,0.2c0,0,0,0,0,0c0,0,0,0,0,0c0-0.1,0.1-0.2,0.1-0.3c0.1-0.1,0.2-0.2,0.3-0.3
				c0.2-0.2,0.4-0.4,0.5-0.6c0.1-0.2,0.2-0.5,0.2-0.8c0.1-0.6-0.1-1.1-0.5-1.5c0,0.1,0,0.2,0,0.3s0,0.2,0,0.2c0,0.2-0.1,0.3-0.1,0.5
				c-0.1,0.3-0.3,0.5-0.4,0.8c-0.1,0.2-0.2,0.5-0.2,0.8c0,0.2,0,0.4,0,0.6c-0.1,0.3-0.2,0.5-0.3,0.7l0,0c-0.7,0.6-1.5,1.1-2.3,1.5
				c0,0,0,0,0,0.1c0,0,0,0,0-0.1l0,0c0.1-0.1,0.1-0.2,0.2-0.2c0.1-0.1,0.3-0.2,0.4-0.2c0.5-0.3,0.8-0.7,1-1.2
				c0.2-0.6,0.1-1.2-0.2-1.7c0,0.2-0.1,0.3-0.2,0.5c-0.1,0.1-0.1,0.3-0.2,0.4c-0.1,0.1-0.2,0.2-0.3,0.4c-0.1,0.1-0.2,0.2-0.3,0.4
				c-0.2,0.2-0.3,0.5-0.3,0.7c0,0.2-0.1,0.4-0.2,0.6c-0.1,0.2-0.3,0.5-0.5,0.6c0.1,0,0.1-0.1,0.2-0.1c-0.1,0-0.1,0.1-0.2,0.1l0,0
				l0,0l0,0c-0.7,0.3-1.4,0.6-2.2,0.8l-0.1,0l0,0c0.1,0.1,0.2,0.2,0.2,0.3c0.4-0.1,0.8-0.2,1.2-0.4l0,0c0.1,0,0.1,0,0.2,0.1
				c0.1,0.1,0.3,0.1,0.4,0.2c0.2,0.1,0.4,0.3,0.6,0.4c0.2,0.1,0.3,0.1,0.5,0.1c0.1,0,0.3,0,0.4,0c0.1,0,0.2-0.1,0.3-0.1
				c0.2-0.1,0.4-0.2,0.6-0.4c0.2-0.2,0.4-0.3,0.7-0.5c0.1-0.1,0.3-0.2,0.4-0.2c0.2-0.1,0.3-0.2,0.5-0.2c-0.3-0.1-0.6-0.2-0.9-0.2
				c-0.2,0-0.5,0-0.7,0.1c-0.2,0.1-0.4,0.2-0.6,0.3c-0.2,0.1-0.4,0.2-0.6,0.3c-0.3,0.1-0.7,0.4-1,0.2l-0.4-0.1h0
				c1-0.4,1.9-0.9,2.7-1.5c0,0,0,0,0,0c0,0,0,0,0,0c0.1,0,0.1-0.1,0.2-0.1c-0.1,0-0.1,0.1-0.2,0.1c0.2,0,0.4,0.1,0.6,0.2
				c0.4,0.2,0.8,0.2,1.2,0.2c0.5-0.1,0.9-0.4,1.2-0.8c0.4-0.5,0.8-0.9,1.3-1.3c-0.3,0-0.6,0-0.9,0c-0.2,0-0.5,0.1-0.7,0.3
				c-0.2,0.1-0.4,0.3-0.5,0.4c-0.2,0.1-0.3,0.3-0.5,0.4c-0.1,0.1-0.3,0.2-0.4,0.3c-0.1,0.1-0.3,0.2-0.5,0.1l-0.4,0l0,0
				c0.8-0.6,1.6-1.3,2.3-2.1c-0.1,0-0.2,0-0.2,0.1l0,0c0.1,0,0.1-0.1,0.2-0.1l0.1-0.1l-0.1,0.1c0.2,0,0.4,0,0.6,0
				c0.4,0.1,0.8,0,1.1-0.1c0.2-0.1,0.4-0.2,0.6-0.4c0.1-0.2,0.3-0.4,0.4-0.6c0.1-0.2,0.2-0.5,0.4-0.7c0.2-0.3,0.4-0.6,0.6-0.8
				c-0.5,0-1.1,0.3-1.5,0.6c-0.1,0.1-0.2,0.2-0.2,0.2s-0.1,0.2-0.2,0.3l-0.2,0.3c-0.1,0.1-0.1,0.2-0.2,0.3c-0.1,0.1-0.2,0.3-0.3,0.4
				c-0.1,0.1-0.3,0.2-0.5,0.3c-0.1,0-0.2,0-0.4,0.1l0,0c0.7-0.8,1.2-1.6,1.7-2.5l0,0c0.2-0.1,0.4-0.1,0.6-0.1c0.2,0,0.4-0.1,0.6-0.1
				c0.2,0,0.3-0.1,0.4-0.2c0.2-0.1,0.4-0.3,0.5-0.5c0.1-0.2,0.2-0.4,0.2-0.7c0.1-0.6,0.3-1.1,0.6-1.7c-0.2,0.1-0.3,0.1-0.4,0.2
				c-0.1,0.1-0.2,0.1-0.4,0.2c-0.2,0.1-0.3,0.3-0.5,0.5c-0.1,0.2-0.2,0.4-0.3,0.6c-0.1,0.2-0.2,0.4-0.3,0.6
				c-0.1,0.1-0.2,0.3-0.2,0.5c-0.1,0.2-0.2,0.3-0.4,0.3l-0.3,0.1l0,0c0.4-0.8,0.7-1.5,1-2.3c0.1-0.1,0.1-0.3,0.1-0.4
				c-0.1,0-0.1,0.1-0.2,0.2l0,0l0.1-0.1l-0.1,0.1c0-0.1,0.1-0.1,0.2-0.2l0,0c0,0,0,0,0-0.1l0-0.2l0,0.2c0,0,0,0,0,0.1
				c0.2-0.1,0.3-0.2,0.5-0.2c0.4-0.1,0.7-0.3,1-0.5c0.2-0.2,0.3-0.4,0.3-0.6c0.1-0.2,0.1-0.5,0.1-0.7c0-0.2,0-0.5,0.1-0.8
				c0-0.1,0-0.3,0.1-0.4c0-0.2,0.1-0.3,0.1-0.5c-0.3,0.2-0.5,0.4-0.7,0.6c-0.2,0.2-0.3,0.4-0.4,0.6c-0.1,0.2-0.2,0.4-0.2,0.6
				c-0.1,0.2-0.1,0.4-0.2,0.6c0,0.2-0.1,0.3-0.1,0.5c-0.1,0.2-0.2,0.3-0.3,0.4l-0.3,0.2l0,0l0.1-0.3l0.1-0.5l0.1-0.2l0-0.2
				c0.1-0.5,0.2-1,0.2-1.6l0,0c0,0,0,0,0,0.1c0,0,0,0,0-0.1l0,0c0.1-0.1,0.3-0.2,0.4-0.3C-39.1-3192.4-38.9-3192.7-38.7-3193"/>
			<path id="Path_19" class="st1" d="M-53.6-3186.7c1.1,0.2,1.2,0,1.4-0.2c0.1,0.4,0.8,0.4,1.3,0.4c-1.4,0.7-1.1,2.2-1.4,3.7
				C-52.6-3184.4-52.2-3185.8-53.6-3186.7 M-54-3199.8c-1.6-0.7-3.2-1.5-4.7-2.2c-0.6-0.3-1-0.1-1.3,0.6c-0.7,1.6-1.5,3.2-2.3,4.8
				c-0.4,0.6-0.3,1.4,0.2,2c1.4,2.1,2.7,4.3,4.2,6.3c0.6,0.8,0.8,1.9,0.7,2.9c-0.1,0.8-0.1,1.6-0.2,2.5c2.1,0.3,4.1,1.3,5.7,2.8
				c1.1-0.2,2.2-0.5,3.3-1c-0.1-1.5-0.1-2.9-0.2-4.3c0-0.6,0.1-1.2,0.3-1.7c0.6-1.7,1.4-3.3,2-4.9c0.2-0.9,0.4-1.8,0.5-2.7
				c-1,1.1-1.8,2-2.6,2.9c-0.2,0.4-0.7,0.5-1.1,0.3c0,0-0.1,0-0.1-0.1c-0.6-0.3-1.1-0.7-1.8-1l-0.8,4.4c-0.6-1-1-2.1-1.5-3.1
				c-0.3-0.6-0.7-1.2-1.2-1.7c-1.1-1-2.2-2-3.3-3l0.7-1.6c0.5,0.1,0.8,0.3,1.2,0.4c1.1,0.4,2.3-0.2,2.8-1.3
				C-53.5-3199.3-53.5-3199.6-54-3199.8 M-54.8-3203c1-2,0.9-2.2-1.1-3c-0.2-0.1-0.4-0.2-0.7-0.2c-0.2,0-0.4,0.1-0.5,0.3
				c-0.5,1-1,2.1-1.5,3.2l2.9,1.3C-55.3-3202-55.1-3202.5-54.8-3203 M-51-3201.1c0.5-0.8,1.2-1.6,0.7-2.2c-0.6-0.6-1.3-1.1-2-1.5
				c-0.1-0.1-0.3-0.1-0.5-0.1c-0.2,0-0.4,0.1-0.5,0.3c-0.6,1.1-1.2,2.3-1.8,3.5c0.8,0.9,2.8,0.6,2.3,2.8
				C-52.2-3199.3-51.6-3200.2-51-3201.1 M-47.5-3199.2c0.1-0.2,0.4-0.5,0.4-0.7c-0.1-0.2-0.2-0.4-0.3-0.5c-0.5-0.5-1-1-1.6-1.5
				c-0.4-0.4-0.8-0.3-1.1,0.3c-0.7,1.2-1.4,2.4-2.2,3.6c-1,1.7-1,1.7,0.5,2.9c0,0,0,0,0.1,0c0.4,0.4,0.7,0.3,1.1-0.1
				C-49.6-3196.5-48.6-3197.9-47.5-3199.2 M-46.6-3198.5c-0.1-0.1-0.2-0.2-0.4-0.3c-1,1.2-1.9,2.4-2.9,3.6c-0.8,1-0.8,1.5,0.3,2.2
				c0.3,0.1,0.6,0.1,0.8-0.1c0.8-0.7,1.5-1.6,2.3-2.3C-45.1-3196.8-45.1-3197.2-46.6-3198.5"/>
			<path id="Path_20" class="st3" d="M-43.5-3170l-4.1-5.2l-0.9-1.2l0,0l-0.9-1.1c-3.4-4.9-6.8-5.7-8.7-5.7l0,0
				c-0.5,0-1,0.1-1.4,0.2c-1.9,0.5-3.7,1.1-5.4,2c-0.3,0.1-0.6,0.3-1,0.4c-1.6,0.7-3.9,1.6-3.9,1.6c-4.6,1.6-7.1-0.8-7.6-1.2
				c0,0-0.1-0.1-0.1-0.1l0.1,0.1l0,0l0,0l6.3,8.1c1.1,1.5,2.4,2.8,3.8,4c3.3,2,7.3,0.1,7.3,0.1c1.1-0.5,5.2-2.3,5.2-2.3
				c4.4-2,7-1.3,7-1.3c2.1,0.5,4,1.7,5.4,3.4L-43.5-3170z"/>
			<path id="Path_21" class="st1" d="M-49.5-3177.7c-1.5-2.1-3.7-3.7-6.2-4.4c-2.5-0.6-5.9,0.9-5.9,0.9l-5,2.2
				c-1.5,0.7-3.1,1.1-4.7,1.4c-1.8,0.3-3.7-0.3-5.1-1.6c1,1.3,2.5,2.3,4.2,2.6c2.6,0.4,6.1-1.2,6.1-1.2c2.4-1.2,6.1-2.7,6.1-2.7
				c1.4-0.6,2.9-0.8,4.3-0.8C-53.3-3180.9-51-3179.7-49.5-3177.7 M-49.4-3177.5c0,0-0.1-0.1-0.2-0.2
				C-49.5-3177.6-49.4-3177.5-49.4-3177.5 M-55.6-3176.6l-0.8-0.5l0.2-1l0,0l-0.7,0.6c0,0,0,0,0,0c0,0,0,0,0,0l-0.8-0.5l0,0
				c0,0,0,0,0,0l0.4,0.9c0,0,0,0,0,0l-0.6,0.5l-0.1,0.1h0l0.9-0.1c0,0,0,0,0,0c0.1,0.3,0.2,0.6,0.3,0.9l0,0c0,0,0,0,0,0
				c0.1-0.3,0.1-0.6,0.2-1c0,0,0,0,0,0L-55.6-3176.6L-55.6-3176.6L-55.6-3176.6 M-58.3-3178L-58.3-3178L-58.3-3178L-58.3-3178
				 M-57.2-3175.1C-57.2-3175.2-57.2-3175.2-57.2-3175.1L-57.2-3175.1C-57.2-3175.2-57.2-3175.2-57.2-3175.1
				c-0.1,0.2-0.2,0.5-0.3,0.7c-0.2,0.3-0.4,0.5-0.8,0.7c-0.2,0.1-0.3,0.2-0.5,0.2c-0.2,0-0.3,0.1-0.5,0.1c-0.4,0-0.7-0.1-1-0.3
				c-0.5-0.2-0.8-0.6-1-1.1c-0.1-0.2-0.2-0.4-0.2-0.7c-0.1-0.4,0-0.8,0.1-1.2c0.1-0.4,0.3-0.7,0.6-1c0.2-0.2,0.5-0.4,0.8-0.5
				c0.5-0.2,1.1-0.2,1.6,0.1c0.1,0,0.2,0.1,0.2,0.1l0,0c-0.3-0.3-0.7-0.5-1.1-0.6c-0.5-0.2-1.1-0.1-1.6,0c-0.2,0.1-0.4,0.2-0.6,0.3
				c-0.2,0.1-0.3,0.3-0.5,0.4c-0.3,0.4-0.6,0.8-0.7,1.3c-0.2,0.7-0.2,1.4,0.1,2c0.1,0.2,0.2,0.4,0.3,0.6c0.1,0.2,0.2,0.4,0.4,0.6
				c0.4,0.4,0.8,0.7,1.3,0.8c0.4,0.1,0.9,0.1,1.3,0c0.2,0,0.3-0.1,0.4-0.1c0.2-0.1,0.4-0.2,0.6-0.4c0.2-0.2,0.4-0.4,0.6-0.7
				C-57.4-3174.1-57.3-3174.6-57.2-3175.1 M-43.3-3169.7c-3.7-4.6-8.1-4-8.1-4c-1.7,0.2-3.4,0.7-4.9,1.5c-1.8,0.9-3.6,1.7-5.4,2.4
				c-1.1,0.4-2.3,0.7-3.5,0.7c-2.9,0.1-5.5-2.7-5.5-2.7c2.9,4,6.1,3.8,6.1,3.8c1.9-0.1,3.8-0.6,5.6-1.4c2-1,5.9-2.6,5.9-2.6
				c1.3-0.5,2.7-0.7,4.1-0.6C-46.8-3172.3-44.8-3171.3-43.3-3169.7"/>
			<path id="Path_22" class="st1" d="M-58.3-3166.1l1.2-1l-0.8-0.2l-1.1,0.9l0.2-1.1l-0.7-0.1l-0.5,2.8l0.7,0.1l0.1-0.7l0.3-0.3
				l0.5,1.2l0.9,0.2L-58.3-3166.1z M-56.4-3164.2l0.1-0.8l-0.7-0.1l-0.1,0.8L-56.4-3164.2z M-54.2-3165.6l1-1.2l-0.9,0l-0.9,1.1
				l0-1.1l-0.7,0l-0.1,2.8l0.7,0l0-0.7l0.3-0.3l0.6,1.1l0.9,0L-54.2-3165.6z M-52.1-3164.8l-0.7,0l0,0.8l0.7,0L-52.1-3164.8z
				 M-50.6-3166.3l0.8-0.1l-0.1-0.7l-2.3,0.2l0.1,0.7l0.8-0.1l0.2,2.1l0.7-0.1L-50.6-3166.3z M-49.4-3164.3l0.7-0.1l-0.1-0.8
				l-0.7,0.1L-49.4-3164.3z M-47.8-3166.1c-0.1-0.4,0.1-0.8,0.4-0.9c0.2-0.1,0.5,0,0.6,0.2l0.4-0.6c-0.3-0.3-0.8-0.4-1.2-0.3
				c-0.8,0.2-1.2,1-1,1.8v0c0.1,0.7,0.8,1.2,1.5,1.1c0,0,0.1,0,0.1,0c0.5-0.1,0.8-0.5,1-0.9l-0.6-0.3c-0.1,0.2-0.3,0.4-0.5,0.5
				C-47.4-3165.4-47.7-3165.7-47.8-3166.1C-47.8-3166-47.8-3166-47.8-3166.1L-47.8-3166.1z M-44.6-3165.6l-0.2-0.7l-0.7,0.3l0.2,0.7
				L-44.6-3165.6z"/>
			<path id="Path_23" class="st1" d="M-56.6-3208.1l1.3-0.2l0-0.3l-0.7,0.1l0.2-0.3c0.3-0.3,0.4-0.5,0.4-0.8v0
				c0-0.3-0.3-0.5-0.6-0.5c0,0-0.1,0-0.1,0c-0.3,0-0.5,0.2-0.6,0.5l0.3,0.2c0.1-0.2,0.2-0.3,0.3-0.3c0.1,0,0.2,0,0.3,0.2
				c0,0,0,0,0,0c0,0.2-0.1,0.3-0.2,0.5l-0.5,0.6L-56.6-3208.1z M-54-3209.3c0,0.3-0.1,0.6-0.4,0.6c-0.2,0-0.4-0.2-0.4-0.6v0
				c0-0.3,0.1-0.6,0.4-0.6C-54.1-3209.9-54-3209.6-54-3209.3L-54-3209.3z M-53.6-3209.3L-53.6-3209.3c0-0.5-0.3-0.9-0.8-0.9
				c-0.5,0.1-0.8,0.5-0.7,0.9c0,0,0,0,0,0v0c0,0.5,0.3,0.9,0.8,0.9S-53.6-3208.8-53.6-3209.3 M-52.6-3208.3l0.1-1.9l-0.3,0l-0.5,0.1
				l0.1,0.3l0.3-0.1l-0.1,1.4L-52.6-3208.3z M-51-3209L-51-3209c0,0.3-0.2,0.6-0.5,0.5c-0.2,0-0.3-0.3-0.3-0.6v0
				c0.1-0.3,0.2-0.5,0.5-0.5S-51-3209.4-51-3209 M-51.2-3210c-0.4-0.1-0.8,0.3-0.9,0.8v0c-0.1,0.5,0.1,0.9,0.6,1.1c0,0,0,0,0,0
				c0.5,0.1,0.8-0.3,0.9-0.8v0C-50.5-3209.4-50.8-3209.9-51.2-3210C-51.2-3210-51.2-3210-51.2-3210"/>
			<path id="Path_24" class="st3" d="M-43.9-3175.5c-0.2,0.1-0.3,0.5-0.2,0.7c0,0,0,0,0,0c0.1,0.2,0.3,0.3,0.6,0.3c0,0,0.1,0,0.1,0
				c0.2-0.2,0.3-0.5,0.2-0.7c0,0,0,0,0,0C-43.3-3175.5-43.6-3175.6-43.9-3175.5C-43.8-3175.5-43.9-3175.5-43.9-3175.5 M-41.6-3176.1
				l1.7,2.4l-0.2,0.1c-0.3,0.3-0.6,0.1-1.3-0.9c-0.6-0.9-0.7-1.2-0.4-1.5L-41.6-3176.1z M-38.5-3173.9l-0.5-0.6l-0.2,0.2l-1.7-2.4
				l0.2-0.2l-0.5-0.6l-1.2,0.9c-0.8,0.7-0.5,1.5,0.3,2.6c0.8,1.2,1.5,1.7,2.3,1L-38.5-3173.9z M-38.9-3175.4l0.9,1l1.9-2l-0.9-1
				l-0.4,0.4l0.4,0.5l-0.2,0.2l-1.9-2.1l0.2-0.2l-0.5-0.6l-1,1.1l0.5,0.6l0.2-0.2l1.9,2.1l-0.2,0.2l-0.4-0.5L-38.9-3175.4z
				 M-39.2-3179.6l1,0.8l0.5-0.7l-0.4-0.4l0.3-0.4l2.2,1.8l-0.2,0.2l0.6,0.5l0.8-1.2l-0.6-0.5l-0.2,0.2l-2.2-1.8l0.2-0.2l-0.6-0.5
				L-39.2-3179.6z M-36.2-3182.8l2.5,1.4l-0.1,0.3l0.7,0.4l0.6-1.3l-0.7-0.4l-0.1,0.3l-2.5-1.4l0.1-0.3l-0.7-0.4l-0.6,1.3l0.7,0.4
				L-36.2-3182.8z M-32.5-3181.2c-0.1,0.2,0,0.4,0.2,0.5c0,0,0,0,0,0c0.1,0.1,0.4,0.1,0.5,0c0,0,0-0.1,0.1-0.1
				c0.1-0.2,0-0.4-0.2-0.5c0,0,0,0,0,0C-32.1-3181.5-32.3-3181.4-32.5-3181.2C-32.4-3181.3-32.5-3181.2-32.5-3181.2 M-33.4-3183.2
				l1.2,0.5l0.9-2.3l-0.7-0.3l-0.1,0.3l-2.6-1.1l0.1-0.3l-0.7-0.3l-0.6,1.5l0.7,0.3l0.1-0.4l0.9,0.4l-0.3,0.7l0.7,0.3l0.3-0.7l1,0.4
				l-0.2,0.4l-0.5-0.2L-33.4-3183.2z M-34.5-3186.9l2.7,0.9l-0.1,0.3l0.7,0.2l0.4-1.4l-0.7-0.2l-0.1,0.3l-2.7-0.9l0.1-0.3l-0.7-0.2
				l-0.4,1.4l0.7,0.2L-34.5-3186.9z M-30.6-3186.2c-0.1,0.2,0,0.4,0.2,0.5c0,0,0,0,0,0c0.2,0.1,0.4,0,0.5-0.2c0,0,0-0.1,0-0.1
				c0.1-0.2,0-0.4-0.2-0.5c0,0,0,0-0.1,0C-30.3-3186.5-30.5-3186.4-30.6-3186.2C-30.6-3186.2-30.6-3186.2-30.6-3186.2 M-31.9-3188
				l1.3,0.2l0.4-2.8l-1.3-0.2l-0.1,0.6l0.6,0.1l-0.1,0.3l-2.7-0.5l0-0.3l-0.7-0.1l-0.2,1.5l0.7,0.1l0-0.3l2.7,0.5l-0.1,0.3l-0.6-0.1
				L-31.9-3188z M-32.3-3192.3l0-0.5l0.5,0.1c0.8,0.1,1.1,0.2,1.1,0.2v0c0,0-0.3,0-1.1,0.1L-32.3-3192.3z M-33.6-3191l0-0.2l3.5-0.5
				l0.1-1.7l-0.8,0v0.1c0,0.1,0,0.1,0,0.2l0,0c0,0-0.3-0.1-0.6-0.1l-2.1-0.5l0-0.2l-0.7,0l0,1.3l0.7,0l0-0.2l0.5,0.1l0,0.7l-0.5,0.1
				l0-0.2l-0.7,0l0,1.4L-33.6-3191z M-32-3196.1l1.2-0.1l0,0.2c0,0.3-0.2,0.4-0.6,0.5c-0.4,0-0.6-0.1-0.6-0.3L-32-3196.1z
				 M-34.2-3194.2l0.7-0.1l0-0.2l1.1-0.6c0.2,0.4,0.7,0.5,1.1,0.4c0.8-0.1,1.3-0.5,1.2-1.3l-0.1-1.5l-0.7,0.1l0,0.3l-2.8,0.3l0-0.3
				l-0.7,0.1l0.1,1.4l0.7-0.1l0-0.2l0.9-0.1l0,0.1l0,0.1l-1.6,0.7L-34.2-3194.2z M-34.5-3197.3l1.3-0.3l-0.2-0.8l-0.6,0.1l-0.1-0.5
				l1-0.3l0.2,0.7l0.7-0.2l-0.2-0.7l0.9-0.2l0.1,0.5l-0.5,0.1l0.2,0.8l1.2-0.3l-0.5-2.4l-0.7,0.2l0.1,0.3l-2.7,0.7l-0.1-0.3
				l-0.7,0.2L-34.5-3197.3z M-33.5-3202.1l1.2-0.5l0,0.1c0.1,0.3-0.1,0.5-0.5,0.6c-0.4,0.2-0.6,0.1-0.7-0.1L-33.5-3202.1z M-32-3204
				l-0.7,0.3l0.1,0.3l-2.6,1.1l-0.1-0.3l-0.7,0.3l0.5,1.4l0.7-0.3l-0.1-0.3l0.7-0.3l0.1,0.2c0.2,0.7,0.8,0.9,1.7,0.6
				c0.9-0.4,1.2-1,0.9-1.7L-32-3204z M-35-3205.2c1-0.6,1.3-0.7,1.4-0.4s0,0.5-1.1,1.1c-1,0.6-1.3,0.7-1.4,0.4
				C-36.2-3204.3-36-3204.5-35-3205.2 M-35.4-3206c-1.6,0.9-1.7,1.6-1.3,2.3c0.4,0.8,1,0.9,2.5,0c1.6-0.9,1.7-1.6,1.3-2.3
				S-33.9-3206.9-35.4-3206 M-36.6-3207.8c0.9-0.7,1.2-0.8,1.4-0.5c0.2,0.3,0,0.5-0.9,1.3c-1,0.7-1.2,0.8-1.4,0.5
				S-37.6-3207.1-36.6-3207.8 M-37.1-3208.6c-1.4,1.1-1.5,1.8-1.1,2.5c0.5,0.7,1.1,0.8,2.5-0.3c1.4-1.1,1.5-1.8,1-2.5
				S-35.7-3209.7-37.1-3208.6 M-38.4-3207.8l-0.1-0.2l1-1.9l1-0.2l0.1,0.2l0.5-0.6l-0.8-0.9l-0.5,0.6l0.2,0.2l-0.7,0.1
				c-0.3,0.1-0.6,0.1-0.6,0.1l0,0l0.5-0.5l0.3-0.3l0.2,0.2l0.5-0.6l-0.9-1l-0.5,0.6l0.2,0.2l-2,2.1l-0.2-0.2l-0.5,0.6l0.9,1l0.5-0.6
				l-0.1-0.1l0.5-0.5l0.5-0.1l-0.6,1.1l-0.1-0.1l-0.5,0.6l0.9,0.9L-38.4-3207.8z M-41.8-3212.9l-0.4-0.3l0.3-0.4
				c0.5-0.6,0.7-0.9,0.7-0.9l0,0c0,0-0.1,0.3-0.5,1.1L-41.8-3212.9z M-41.5-3211l-0.2-0.1l1.5-3.5l-1.4-1l-0.4,0.7l0.1,0
				c0,0,0.1,0.1,0.1,0.1l0,0c0,0-0.2,0.3-0.4,0.5l-1.5,1.7l-0.2-0.1l-0.4,0.7l1,0.7l0.4-0.7l-0.2-0.1l0.3-0.4l0.6,0.4l-0.2,0.5
				l-0.2-0.1l-0.4,0.7l1.1,0.7L-41.5-3211z M-44.3-3213l1.1-2.7l0.3,0.1l0.3-0.7l-1.2-0.6l-1,1.6l0,0l0.4-1.9l-1.3-0.6l-0.3,0.7
				l0.3,0.1l-1.1,2.7l-0.3-0.1l-0.3,0.7l1.1,0.5l0.3-0.7l-0.2-0.1l0.2-0.5c0.3-0.7,0.6-1.6,0.6-1.6l0,0c0,0-0.1,0.5-0.2,1.1
				l-0.2,0.9l0.5,0.2l0.5-0.7c0.3-0.5,0.6-0.9,0.6-0.9l0,0c0,0-0.4,0.8-0.7,1.6l-0.2,0.5l-0.2-0.1l-0.3,0.7l1.2,0.6l0.3-0.7
				L-44.3-3213z M-47.1-3217.4l0.3,0.1l0.2-0.8l-1.2-0.3l-0.2,0.8l0.3,0.1l-0.2,0.8c-0.2,0.7-0.3,1.3-0.3,1.3l0,0l-0.1-3.1l-1.1-0.3
				l-0.2,0.8l0.3,0.1l-0.7,2.9l-0.3-0.1l-0.2,0.8l1.2,0.3l0.2-0.8l-0.3-0.1l0.2-0.8c0.2-0.7,0.3-1.3,0.3-1.3l0,0l0.1,3l0.9,0.2
				L-47.1-3217.4z M-50.9-3215.3l0.4-3l0.3,0l0.1-0.8l-1.4-0.2l-0.1,0.8l0.3,0l-0.4,3l-0.3,0l-0.1,0.8l1.4,0.2l0.1-0.8L-50.9-3215.3
				z M-52.2-3215.5h-0.2l-0.6-2.1l0.6-0.9h0.2l0-0.8l-1.1,0l0,0.8h0.2l-0.4,0.7c-0.2,0.3-0.3,0.5-0.3,0.5h0l0-0.8l0-0.5h0.2l0-0.8
				l-1.3,0l0,0.8h0.3l0,3H-55l0,0.8l1.3,0l0-0.8h-0.2l0-0.8l0.3-0.4l0.3,1.2h-0.2l0,0.8l1.2,0L-52.2-3215.5z M-55.2-3214.7l-0.1-1.4
				l-0.8,0.1l0.1,0.6l-0.4,0.1l-0.3-3l0.3,0l-0.1-0.8l-1.4,0.2l0.1,0.8l0.3,0l0.3,3l-0.3,0l0.1,0.8L-55.2-3214.7z M-59.3-3216.2
				l-0.4,0.1l-0.1-0.5c-0.1-0.8-0.1-1.2-0.1-1.2l0,0c0,0,0.1,0.3,0.4,1.1L-59.3-3216.2z M-57.8-3215.2l-0.2,0.1l-1.5-3.5l-1.6,0.5
				l0.2,0.8l0.1,0c0,0,0.1,0,0.1,0l0,0c0,0,0,0.3,0.1,0.7l0.2,2.3l-0.2,0.1l0.2,0.8l1.1-0.3l-0.2-0.8l-0.2,0.1l-0.1-0.6l0.6-0.2
				l0.2,0.5l-0.2,0.1l0.2,0.8l1.2-0.4L-57.8-3215.2z M-60.7-3214.3l-0.2,0.1l-1.3-1.6l0.2-1.1l0.2-0.1l-0.3-0.7l-1,0.5l0.3,0.7
				l0.2-0.1l-0.1,0.8c-0.1,0.3-0.1,0.6-0.1,0.6l0,0l-0.3-0.7l-0.2-0.4l0.2-0.1l-0.3-0.7l-1.2,0.6l0.3,0.7l0.3-0.1l1.1,2.7l-0.3,0.1
				l0.3,0.7l1.2-0.6l-0.3-0.7l-0.2,0.1l-0.3-0.7l0.1-0.5l0.8,1l-0.2,0.1l0.3,0.7l1.1-0.5L-60.7-3214.3z M-64.9-3212.1l-1.5-2.5
				l0.2-0.2l-0.4-0.7l-1.2,0.8l0.4,0.7l0.2-0.2l1.5,2.5l-0.2,0.2l0.4,0.7l1.2-0.8l-0.4-0.7L-64.9-3212.1z M-67.4-3215.4
				c0.2-0.1,0.2-0.4,0.1-0.6c0,0,0,0,0,0c-0.1-0.2-0.3-0.3-0.5-0.2c-0.2,0.1-0.2,0.4-0.1,0.6c0,0,0,0,0,0
				C-67.8-3215.3-67.6-3215.2-67.4-3215.4 M-68.3-3211.6l-0.8-1l0.2-0.1c0.2-0.2,0.4-0.1,0.7,0.2c0.2,0.3,0.3,0.6,0.1,0.7
				L-68.3-3211.6z M-65.6-3210.7l-0.5-0.6l-0.2,0.2l-1.1-0.7c0.1-0.4,0-0.9-0.3-1.2c-0.5-0.6-1.1-0.9-1.7-0.3l-1.1,1l0.5,0.6
				l0.2-0.2l1.8,2.3l-0.2,0.2l0.5,0.6l1-0.9l-0.5-0.6l-0.1,0.1l-0.6-0.8l0.1-0.1l0.1,0l1.5,1L-65.6-3210.7z M-67.7-3208.7l-1-1
				l-0.5,0.6l0.4,0.4l-0.3,0.4l-0.8-0.8l0.5-0.5l-0.5-0.5l-0.5,0.5l-0.7-0.7l0.3-0.4l0.4,0.4l0.5-0.6l-0.9-0.9l-1.6,1.8l0.5,0.5
				l0.2-0.2l2,2l-0.2,0.2l0.5,0.5L-67.7-3208.7z M-69.4-3206.7l-1.1-0.8l-0.4,0.7l0.4,0.3l-0.2,0.4l-2.3-1.7l0.2-0.2l-0.6-0.5
				l-0.8,1.2l0.6,0.5l0.2-0.2l2.3,1.7l-0.2,0.2l0.6,0.5L-69.4-3206.7z M-71.6-3204.6l-2.4-1.5l0.1-0.3l-0.6-0.4l-0.7,1.3l0.6,0.4
				l0.1-0.3l2.4,1.5l-0.1,0.3l0.6,0.4l0.7-1.3l-0.6-0.4L-71.6-3204.6z M-75.3-3206.3c0.1-0.2,0-0.4-0.2-0.5c0,0,0,0,0,0
				c-0.1-0.1-0.4-0.1-0.5,0c0,0,0,0.1-0.1,0.1c-0.1,0.2,0,0.4,0.1,0.5c0,0,0,0,0,0C-75.7-3206-75.5-3206-75.3-3206.3
				C-75.3-3206.2-75.3-3206.2-75.3-3206.3 M-74.4-3203.4l0.3-0.8l-1.4-0.7l-0.3,0.7l0.2,0.1l0,0c-0.2,0-0.4,0.2-0.5,0.5
				c-0.2,0.5-0.1,1.1,1.6,1.9c1.3,0.6,1.9,0.6,2.3,0.2l0.1,0.1c0.1-0.2,0.2-0.3,0.3-0.3c0.1,0,0.1,0.1,0.1,0.2c0,0,0,0,0,0
				c0,0.1-0.1,0.1-0.1,0.2l0.5,0.2c0.1-0.1,0.2-0.2,0.3-0.4c0.2-0.3,0.1-0.7-0.2-0.8c0,0,0,0-0.1,0c-0.1-0.1-0.3-0.1-0.5,0
				c0.1-0.7-0.3-1-0.8-1.3l-0.5,0.7c0.3,0.2,0.5,0.4,0.4,0.6c-0.1,0.3-0.4,0.3-1.6-0.3c-0.9-0.4-1.2-0.6-1.1-0.9
				c0.1-0.3,0.4-0.2,0.8-0.1L-74.4-3203.4z M-73.6-3200.8c-0.6-0.2-1.3,0-1.7,0.5c-0.2,0.2-0.5,0.4-0.8,0.3
				c-0.3-0.1-0.3-0.2-0.3-0.4c0-0.2,0.2-0.3,0.5-0.2l0.3,0.1l0.2-0.8l-1.3-0.4l-0.2,0.7l0.2,0.1l0,0c-0.1,0-0.3,0.2-0.4,0.6
				c-0.1,0.5,0.1,1,0.8,1.1c0.6,0.2,1.3,0,1.7-0.5c0.3-0.3,0.5-0.4,0.8-0.3c0.3,0.1,0.4,0.2,0.3,0.4s-0.2,0.3-0.5,0.2l-0.3-0.1
				l-0.2,0.8l1.4,0.4l0.2-0.7l0.1,0c0-0.2,0.1-0.4,0.3-0.3c0.1,0,0.1,0.1,0.1,0.2c0,0,0,0,0,0c0,0.1-0.1,0.1-0.1,0.2l0.5,0.2
				c0.1-0.1,0.2-0.3,0.2-0.4c0.1-0.3-0.1-0.7-0.4-0.8c-0.2-0.1-0.3,0-0.5,0C-72.7-3200.2-73-3200.6-73.6-3200.8 M-74-3197.8
				l-2.7-0.5l0-0.3l-0.7-0.1l-0.2,1.5l0.7,0.1l0-0.3l2.7,0.5l0,0.3l0.7,0.1l0.2-1.5l-0.7-0.1L-74-3197.8z M-78-3198.1
				c0-0.2-0.1-0.4-0.3-0.5c0,0,0,0-0.1,0c-0.2-0.1-0.4,0-0.5,0.2c0,0,0,0.1,0,0.1c0,0.2,0.1,0.4,0.3,0.4c0,0,0,0,0.1,0
				C-78.3-3197.7-78.1-3197.8-78-3198.1C-78-3198-78-3198-78-3198.1 M-77.2-3194.6v-0.3l-0.7,0l0,1.3l0.7,0v-0.2l2.3,0
				c0.3,0,0.5,0,0.5,0.3c0,0.3-0.2,0.4-0.5,0.4l-2.3,0v-0.2l-0.7,0l0,1.4l0.7,0v-0.3l2.2,0c1,0,1.3-0.4,1.3-1.2
				c0-0.9-0.4-1.2-1.4-1.2L-77.2-3194.6z M-74.3-3191.3l-2.7,0.5l0-0.3l-0.7,0.1l0.2,1.4l1.8,0v0l-1.7,0.7l0.2,1.5l0.7-0.1l0-0.3
				l2.7-0.5l0,0.3l0.7-0.1l-0.2-1.3l-0.7,0.1l0,0.2l-0.5,0.1c-0.7,0.1-1.6,0.3-1.6,0.3v0c0,0,0.5-0.2,1-0.4l0.8-0.3l-0.1-0.6
				l-0.8-0.1c-0.5,0-1-0.1-1-0.1v0c0,0,0.8-0.1,1.6-0.3l0.5-0.1l0,0.2l0.7-0.1l-0.2-1.4l-0.7,0.1L-74.3-3191.3z M-74.5-3186l0.2,0.5
				l-0.5,0.1c-0.8,0.2-1.1,0.2-1.1,0.2l0,0c0,0,0.3-0.2,1-0.5L-74.5-3186z M-73.7-3187.7l0.1,0.2l-3.1,1.8l0.5,1.6l0.7-0.3l0-0.1
				c0,0,0-0.1-0.1-0.1l0,0c0,0,0.3-0.1,0.6-0.1l2.2-0.4l0.1,0.2l0.7-0.3l-0.4-1.2l-0.7,0.3l0.1,0.2l-0.5,0.1l-0.2-0.7l0.5-0.3
				l0.1,0.2l0.7-0.3l-0.4-1.3L-73.7-3187.7z M-72.7-3184.6l0.1,0.2l-1.4,1.5l-1-0.1l-0.1-0.2l-0.7,0.4l0.5,1.1l0.7-0.4l-0.1-0.2
				l0.8,0.1c0.3,0,0.6,0.1,0.6,0.1l0,0l-0.6,0.4l-0.4,0.2l-0.1-0.2l-0.7,0.4l0.6,1.2l0.7-0.4l-0.1-0.3l2.5-1.4l0.1,0.3l0.7-0.4
				l-0.6-1.2l-0.7,0.4l0.1,0.2l-0.6,0.4l-0.5-0.1l0.8-0.9l0.1,0.2l0.7-0.4l-0.6-1.2L-72.7-3184.6z"/>
		</g>
	</g>
</g>
<g class="st4">
	<path class="st5" d="M87.2,28h-2.6l-1.7-3.3l-0.7,0.4V28h-2.3v-8.6h2.3v3.7c0.1-0.2,0.4-0.6,0.7-1.1l1.8-2.6h2.5l-2.7,3.8L87.2,28z
		"/>
	<path class="st5" d="M93.4,28L93,26.4h-2.8L89.8,28h-2.5l2.8-8.6h3.1L96,28H93.4z M92.5,24.5l-0.4-1.4c-0.1-0.3-0.2-0.7-0.3-1.2
		s-0.2-0.9-0.2-1.1c0,0.2-0.1,0.5-0.2,1s-0.3,1.4-0.7,2.7H92.5z"/>
	<path class="st5" d="M100.6,28l-1.8-6.2h-0.1c0.1,1.1,0.1,1.9,0.1,2.4V28h-2.1v-8.6h3.1l1.8,6.1h0l1.8-6.1h3.1V28h-2.1v-3.8
		c0-0.2,0-0.4,0-0.7s0-0.8,0.1-1.8h-0.1l-1.7,6.2H100.6z"/>
	<path class="st5" d="M115.8,19.4v5.2c0,1.1-0.3,2-1,2.6s-1.5,0.9-2.7,0.9c-1.2,0-2.1-0.3-2.7-0.9s-0.9-1.5-0.9-2.6v-5.2h2.3v5
		c0,0.6,0.1,1,0.3,1.3s0.6,0.4,1,0.4c0.5,0,0.8-0.1,1-0.4s0.3-0.7,0.3-1.3v-5H115.8z"/>
	<path class="st5" d="M120,25.7v-1.8h3.3v1.8H120z"/>
	<path class="st5" d="M127.6,17.7c0-0.3,0.1-0.6,0.3-0.8s0.5-0.3,0.9-0.3s0.7,0.1,0.9,0.3s0.3,0.4,0.3,0.8c0,0.7-0.4,1-1.2,1
		C128,18.7,127.6,18.4,127.6,17.7z M127.6,28v-8.6h2.3V28H127.6z"/>
	<path class="st5" d="M137.4,25.4c0,0.5-0.1,1-0.4,1.4s-0.7,0.7-1.2,1s-1.1,0.3-1.8,0.3c-0.6,0-1,0-1.4-0.1s-0.8-0.2-1.2-0.4v-2.1
		c0.4,0.2,0.9,0.4,1.4,0.5s0.9,0.2,1.3,0.2c0.3,0,0.6-0.1,0.8-0.2s0.2-0.3,0.2-0.5c0-0.1,0-0.2-0.1-0.3s-0.2-0.2-0.3-0.3
		s-0.5-0.3-1.1-0.6c-0.6-0.3-1-0.5-1.3-0.7s-0.5-0.5-0.6-0.8s-0.2-0.7-0.2-1.1c0-0.8,0.3-1.4,0.9-1.8s1.4-0.7,2.4-0.7
		c0.9,0,1.8,0.2,2.7,0.6l-0.7,1.8c-0.8-0.4-1.5-0.6-2.1-0.6c-0.3,0-0.5,0.1-0.7,0.2s-0.2,0.2-0.2,0.4c0,0.2,0.1,0.3,0.3,0.5
		s0.6,0.4,1.4,0.7c0.7,0.3,1.3,0.7,1.5,1.1S137.4,24.8,137.4,25.4z M135.5,29.5c0,0.4-0.1,0.8-0.4,1s-0.7,0.4-1.2,0.4
		c-0.5,0-0.9-0.1-1.2-0.2v-1.2c0.3,0.1,0.6,0.2,0.9,0.2c0.2,0,0.3-0.1,0.3-0.3c0-0.1-0.1-0.2-0.2-0.3s-0.4-0.2-0.6-0.2l0.4-0.8h1.2
		l-0.1,0.2c0.4,0.2,0.6,0.3,0.8,0.5S135.5,29.2,135.5,29.5z"/>
	<path class="st5" d="M149.2,28h-2.6l-1.7-3.3l-0.7,0.4V28h-2.3v-8.6h2.3v3.7c0.1-0.2,0.4-0.6,0.7-1.1l1.8-2.6h2.5l-2.7,3.8
		L149.2,28z"/>
	<path class="st5" d="M155.3,28l-0.4-1.6h-2.8l-0.4,1.6h-2.5l2.8-8.6h3.1l2.8,8.6H155.3z M154.4,24.5l-0.4-1.4
		c-0.1-0.3-0.2-0.7-0.3-1.2s-0.2-0.9-0.2-1.1c0,0.2-0.1,0.5-0.2,1s-0.3,1.4-0.7,2.7H154.4z"/>
	<path class="st5" d="M158.8,28v-8.6h2.3v6.7h3.3V28H158.8z"/>
	<path class="st5" d="M173.1,28h-2.6l-1.7-3.3l-0.7,0.4V28h-2.3v-8.6h2.3v3.7c0.1-0.2,0.4-0.6,0.7-1.1l1.8-2.6h2.5l-2.7,3.8
		L173.1,28z"/>
	<path class="st5" d="M174,28v-8.6h2.3V28H174z"/>
	<path class="st5" d="M186.4,28h-3l-3.1-6h-0.1c0.1,0.9,0.1,1.7,0.1,2.2V28h-2.1v-8.6h3l3.1,6h0c-0.1-0.9-0.1-1.6-0.1-2.1v-3.9h2.1
		V28z"/>
	<path class="st5" d="M191.9,28l-1.8-6.2h-0.1c0.1,1.1,0.1,1.9,0.1,2.4V28h-2.1v-8.6h3.1l1.8,6.1h0l1.8-6.1h3.1V28h-2.1v-3.8
		c0-0.2,0-0.4,0-0.7s0-0.8,0.1-1.8h-0.1l-1.7,6.2H191.9z"/>
	<path class="st5" d="M205.1,28l-0.4-1.6h-2.8l-0.4,1.6h-2.5l2.8-8.6h3.1l2.8,8.6H205.1z M204.2,24.5l-0.4-1.4
		c-0.1-0.3-0.2-0.7-0.3-1.2s-0.2-0.9-0.2-1.1c0,0.2-0.1,0.5-0.2,1s-0.3,1.4-0.7,2.7H204.2z"/>
</g>
<g class="st4">
	<path class="st5" d="M87.2,45h-2.6l-1.7-3.3l-0.7,0.4V45h-2.3v-8.6h2.3v3.7c0.1-0.2,0.4-0.6,0.7-1.1l1.8-2.6h2.5l-2.7,3.8L87.2,45z
		"/>
	<path class="st5" d="M96.2,40.7c0,1.4-0.4,2.5-1.1,3.3s-1.7,1.1-3.1,1.1c-1.3,0-2.4-0.4-3.1-1.1s-1.1-1.9-1.1-3.3
		c0-1.4,0.4-2.5,1.1-3.3s1.7-1.1,3.1-1.1c1.4,0,2.4,0.4,3.1,1.1S96.2,39.3,96.2,40.7z M90.3,40.7c0,1.7,0.6,2.5,1.7,2.5
		c0.6,0,1-0.2,1.3-0.6s0.4-1,0.4-1.9c0-0.9-0.1-1.5-0.4-1.9s-0.7-0.6-1.3-0.6C90.9,38.2,90.3,39,90.3,40.7z"/>
	<path class="st5" d="M105.7,40.7c0,1.4-0.4,2.5-1.1,3.3s-1.7,1.1-3.1,1.1c-1.3,0-2.4-0.4-3.1-1.1s-1.1-1.9-1.1-3.3
		c0-1.4,0.4-2.5,1.1-3.3s1.7-1.1,3.1-1.1c1.4,0,2.4,0.4,3.1,1.1S105.7,39.3,105.7,40.7z M99.9,40.7c0,1.7,0.6,2.5,1.7,2.5
		c0.6,0,1-0.2,1.3-0.6s0.4-1,0.4-1.9c0-0.9-0.1-1.5-0.4-1.9s-0.7-0.6-1.3-0.6C100.4,38.2,99.9,39,99.9,40.7z"/>
	<path class="st5" d="M113.5,39.2c0,1-0.3,1.7-0.8,2.2s-1.4,0.8-2.4,0.8h-0.7V45h-2.3v-8.6h3c1.1,0,1.9,0.2,2.4,0.7
		S113.5,38.3,113.5,39.2z M109.6,40.3h0.4c0.3,0,0.6-0.1,0.8-0.3s0.3-0.5,0.3-0.8c0-0.6-0.3-0.9-1-0.9h-0.6V40.3z"/>
	<path class="st5" d="M120,45h-5.1v-8.6h5.1v1.9h-2.8v1.3h2.6v1.9h-2.6v1.6h2.8V45z"/>
	<path class="st5" d="M123.8,41.9V45h-2.3v-8.6h2.8c2.3,0,3.5,0.8,3.5,2.5c0,1-0.5,1.8-1.5,2.3l2.5,3.7h-2.6l-1.8-3.1H123.8z
		 M123.8,40.1h0.4c0.8,0,1.2-0.4,1.2-1.1c0-0.6-0.4-0.9-1.2-0.9h-0.5V40.1z"/>
	<path class="st5" d="M134.8,45l-0.4-1.6h-2.8l-0.4,1.6h-2.5l2.8-8.6h3.1l2.8,8.6H134.8z M133.9,41.5l-0.4-1.4
		c-0.1-0.3-0.2-0.7-0.3-1.2s-0.2-0.9-0.2-1.1c0,0.2-0.1,0.5-0.2,1s-0.3,1.4-0.7,2.7H133.9z"/>
	<path class="st5" d="M142.1,45h-2.3v-6.7h-2.1v-1.9h6.5v1.9h-2.1V45z"/>
	<path class="st5" d="M145.3,34.7c0-0.3,0.1-0.6,0.3-0.8s0.5-0.3,0.9-0.3s0.7,0.1,0.9,0.3s0.3,0.4,0.3,0.8c0,0.7-0.4,1-1.2,1
		C145.7,35.7,145.3,35.4,145.3,34.7z M145.4,45v-8.6h2.3V45H145.4z"/>
	<path class="st5" d="M151.8,45h-2.3v-8.6h5.1v1.9h-2.8v1.6h2.6v1.9h-2.6V45z"/>
	<path class="st5" d="M156,34.7c0-0.3,0.1-0.6,0.3-0.8s0.5-0.3,0.9-0.3s0.7,0.1,0.9,0.3s0.3,0.4,0.3,0.8c0,0.7-0.4,1-1.2,1
		C156.4,35.7,156,35.4,156,34.7z M156,45v-8.6h2.3V45H156z"/>
	<path class="st5" d="M163.3,45v-8.6h2.3v6.7h3.3V45H163.3z"/>
	<path class="st5" d="M174.1,45h-2.3v-6.7h-2.1v-1.9h6.5v1.9h-2.1V45z"/>
	<path class="st5" d="M184.7,40.5c0,1.4-0.4,2.5-1.2,3.3s-1.9,1.2-3.3,1.2h-2.8v-8.6h3c1.4,0,2.4,0.4,3.2,1.1S184.7,39.2,184.7,40.5
		z M182.3,40.6c0-0.8-0.2-1.4-0.5-1.7s-0.8-0.6-1.4-0.6h-0.7v4.8h0.5c0.7,0,1.2-0.2,1.5-0.6S182.3,41.5,182.3,40.6z"/>
	<path class="st5" d="M185.8,44c0-0.4,0.1-0.6,0.3-0.8s0.5-0.3,0.9-0.3c0.4,0,0.7,0.1,0.9,0.3s0.3,0.5,0.3,0.8
		c0,0.4-0.1,0.6-0.3,0.8s-0.5,0.3-0.9,0.3c-0.4,0-0.7-0.1-0.9-0.3S185.8,44.4,185.8,44z"/>
</g>
</svg>
