<?xml version="1.0" encoding="utf-8"?>
<!-- Generator: Adobe Illustrator 23.0.1, SVG Export Plug-In . SVG Version: 6.00 Build 0)  -->
<svg version="1.1" id="Layer_1" xmlns="http://www.w3.org/2000/svg" xmlns:xlink="http://www.w3.org/1999/xlink" x="0px" y="0px"
	 viewBox="0 0 371 115" style="enable-background:new 0 0 371 115;" xml:space="preserve">
<style type="text/css">
	.st0{enable-background:new    ;}
	.st1{fill:#FFFFFF;}
	.st2{fill:none;}
	.st3{clip-path:url(#SVGID_2_);}
	.st4{clip-path:url(#SVGID_4_);}
	.st5{clip-path:url(#SVGID_6_);}
	.st6{clip-path:url(#SVGID_8_);}
	.st7{clip-path:url(#SVGID_10_);}
	.st8{clip-path:url(#SVGID_12_);}
	.st9{clip-path:url(#SVGID_14_);}
</style>
<g class="st0">
	<path class="st1" d="M152.6,49H148l-3-5.7l-1.2,0.7v5h-4.1V34h4.1v6.5c0.2-0.4,0.6-1,1.2-1.9l3.1-4.6h4.4l-4.7,6.7L152.6,49z"/>
	<path class="st1" d="M163.4,49l-0.7-2.8h-4.9L157,49h-4.4l4.9-15h5.4l4.9,15H163.4z M161.8,42.8l-0.6-2.5c-0.2-0.5-0.3-1.3-0.5-2.1
		c-0.2-0.9-0.4-1.5-0.4-1.9c-0.1,0.3-0.2,0.9-0.4,1.7c-0.2,0.8-0.6,2.4-1.2,4.7H161.8z"/>
	<path class="st1" d="M175.9,49l-3.1-10.8h-0.1c0.1,1.8,0.2,3.3,0.2,4.3V49h-3.6V34h5.4l3.1,10.6h0.1l3.1-10.6h5.4v15h-3.7v-6.6
		c0-0.3,0-0.7,0-1.1s0.1-1.4,0.1-3.1h-0.1l-3,10.8H175.9z"/>
	<path class="st1" d="M202.4,34v9c0,2-0.6,3.5-1.7,4.6c-1.1,1.1-2.7,1.6-4.8,1.6c-2,0-3.6-0.5-4.7-1.6c-1.1-1-1.6-2.5-1.6-4.5V34
		h4.1v8.8c0,1.1,0.2,1.8,0.6,2.3c0.4,0.5,1,0.7,1.8,0.7c0.8,0,1.4-0.2,1.8-0.7c0.4-0.5,0.6-1.3,0.6-2.3V34H202.4z"/>
	<path class="st1" d="M209.8,44.9v-3.2h5.8v3.2H209.8z"/>
	<path class="st1" d="M223,31c0-0.6,0.2-1,0.5-1.3c0.3-0.3,0.9-0.4,1.6-0.4s1.3,0.1,1.6,0.5c0.3,0.3,0.5,0.7,0.5,1.3
		c0,1.2-0.7,1.8-2.1,1.8C223.7,32.8,223,32.2,223,31z M223.1,49V34h4.1v15H223.1z"/>
	<path class="st1" d="M240.2,44.4c0,0.9-0.2,1.8-0.7,2.5c-0.5,0.7-1.2,1.3-2,1.7c-0.9,0.4-1.9,0.6-3.1,0.6c-1,0-1.8-0.1-2.5-0.2
		c-0.7-0.1-1.4-0.4-2.1-0.7v-3.6c0.8,0.4,1.6,0.7,2.4,0.9c0.8,0.2,1.6,0.3,2.3,0.3c0.6,0,1-0.1,1.3-0.3c0.3-0.2,0.4-0.5,0.4-0.8
		c0-0.2-0.1-0.4-0.2-0.5c-0.1-0.2-0.3-0.3-0.5-0.5c-0.2-0.2-0.9-0.5-2-1c-1-0.4-1.7-0.9-2.2-1.3c-0.5-0.4-0.9-0.9-1.1-1.4
		c-0.2-0.5-0.4-1.2-0.4-1.9c0-1.4,0.5-2.5,1.5-3.2c1-0.8,2.4-1.2,4.1-1.2c1.6,0,3.1,0.4,4.7,1.1L239,38c-1.4-0.6-2.6-1-3.6-1
		c-0.5,0-0.9,0.1-1.1,0.3c-0.2,0.2-0.4,0.4-0.4,0.7c0,0.3,0.2,0.6,0.5,0.8c0.3,0.2,1.1,0.7,2.5,1.3c1.3,0.6,2.2,1.2,2.7,1.9
		S240.2,43.4,240.2,44.4z M236.9,51.5c0,0.7-0.3,1.3-0.8,1.8s-1.2,0.7-2,0.7c-0.9,0-1.7-0.1-2.2-0.3v-2.1c0.6,0.2,1.1,0.3,1.5,0.3
		c0.4,0,0.5-0.2,0.5-0.5c0-0.2-0.1-0.4-0.4-0.6c-0.3-0.2-0.6-0.3-1.1-0.4l0.7-1.4h2.1l-0.1,0.3c0.7,0.3,1.1,0.6,1.4,0.9
		C236.8,50.6,236.9,51,236.9,51.5z"/>
	<path class="st1" d="M260.8,49h-4.6l-3-5.7l-1.2,0.7v5H248V34h4.1v6.5c0.2-0.4,0.6-1,1.2-1.9l3.1-4.6h4.4l-4.7,6.7L260.8,49z"/>
	<path class="st1" d="M271.6,49l-0.7-2.8H266l-0.8,2.8h-4.4l4.9-15h5.4l4.9,15H271.6z M270,42.8l-0.6-2.5c-0.2-0.5-0.3-1.3-0.5-2.1
		c-0.2-0.9-0.4-1.5-0.4-1.9c-0.1,0.3-0.2,0.9-0.4,1.7c-0.2,0.8-0.6,2.4-1.2,4.7H270z"/>
	<path class="st1" d="M277.7,49V34h4v11.7h5.8V49H277.7z"/>
	<path class="st1" d="M302.7,49h-4.6l-3-5.7l-1.2,0.7v5h-4.1V34h4.1v6.5c0.2-0.4,0.6-1,1.2-1.9l3.1-4.6h4.4l-4.7,6.7L302.7,49z"/>
	<path class="st1" d="M304.3,49V34h4.1v15H304.3z"/>
	<path class="st1" d="M325.9,49h-5.3l-5.5-10.6H315c0.1,1.7,0.2,2.9,0.2,3.8V49h-3.6V34h5.3l5.5,10.4h0.1c-0.1-1.5-0.1-2.7-0.1-3.6
		V34h3.6V49z"/>
	<path class="st1" d="M335.6,49l-3.1-10.8h-0.1c0.1,1.8,0.2,3.3,0.2,4.3V49h-3.6V34h5.4l3.1,10.6h0.1l3.1-10.6h5.4v15h-3.7v-6.6
		c0-0.3,0-0.7,0-1.1s0.1-1.4,0.1-3.1h-0.1l-3,10.8H335.6z"/>
	<path class="st1" d="M358.6,49l-0.7-2.8H353l-0.8,2.8h-4.4l4.9-15h5.4l4.9,15H358.6z M357,42.8l-0.6-2.5c-0.2-0.5-0.3-1.3-0.5-2.1
		c-0.2-0.9-0.4-1.5-0.4-1.9c-0.1,0.3-0.2,0.9-0.4,1.7c-0.2,0.8-0.6,2.4-1.2,4.7H357z"/>
</g>
<g class="st0">
	<path class="st1" d="M152.6,78.7H148l-3-5.7l-1.2,0.7v5h-4.1v-15h4.1v6.5c0.2-0.4,0.6-1,1.2-1.9l3.1-4.6h4.4l-4.7,6.7L152.6,78.7z"
		/>
	<path class="st1" d="M168.2,71.2c0,2.5-0.6,4.4-1.9,5.7s-3,2-5.4,2c-2.3,0-4.2-0.7-5.4-2c-1.3-1.3-1.9-3.2-1.9-5.8
		c0-2.5,0.6-4.4,1.9-5.7c1.2-1.3,3.1-2,5.4-2c2.4,0,4.2,0.7,5.4,2S168.2,68.6,168.2,71.2z M157.9,71.2c0,2.9,1,4.3,3,4.3
		c1,0,1.8-0.4,2.3-1.1s0.7-1.8,0.7-3.3c0-1.5-0.3-2.6-0.8-3.3c-0.5-0.7-1.3-1.1-2.2-1.1C158.9,66.8,157.9,68.3,157.9,71.2z"/>
	<path class="st1" d="M184.9,71.2c0,2.5-0.6,4.4-1.9,5.7s-3,2-5.4,2c-2.3,0-4.2-0.7-5.4-2c-1.3-1.3-1.9-3.2-1.9-5.8
		c0-2.5,0.6-4.4,1.9-5.7c1.2-1.3,3.1-2,5.4-2c2.4,0,4.2,0.7,5.4,2S184.9,68.6,184.9,71.2z M174.6,71.2c0,2.9,1,4.3,3,4.3
		c1,0,1.8-0.4,2.3-1.1s0.7-1.8,0.7-3.3c0-1.5-0.3-2.6-0.8-3.3c-0.5-0.7-1.3-1.1-2.2-1.1C175.6,66.8,174.6,68.3,174.6,71.2z"/>
	<path class="st1" d="M198.5,68.5c0,1.7-0.5,3-1.5,3.9c-1,0.9-2.4,1.4-4.2,1.4h-1.1v5h-4v-15h5.2c1.9,0,3.3,0.4,4.3,1.2
		C198,65.8,198.5,66.9,198.5,68.5z M191.7,70.4h0.7c0.6,0,1.1-0.2,1.5-0.5c0.4-0.3,0.5-0.8,0.5-1.4c0-1-0.6-1.5-1.7-1.5h-1V70.4z"/>
	<path class="st1" d="M209.8,78.7h-8.9v-15h8.9V67h-4.8v2.4h4.5v3.2h-4.5v2.8h4.8V78.7z"/>
	<path class="st1" d="M216.4,73.2v5.5h-4v-15h4.9c4.1,0,6.1,1.5,6.1,4.4c0,1.7-0.8,3.1-2.5,4l4.4,6.5h-4.6l-3.2-5.5H216.4z
		 M216.4,70.2h0.8c1.4,0,2.1-0.6,2.1-1.9c0-1-0.7-1.5-2.1-1.5h-0.8V70.2z"/>
	<path class="st1" d="M235.8,78.7l-0.7-2.8h-4.9l-0.8,2.8H225l4.9-15h5.4l4.9,15H235.8z M234.2,72.6l-0.6-2.5
		c-0.2-0.5-0.3-1.3-0.5-2.1c-0.2-0.9-0.4-1.5-0.4-1.9c-0.1,0.3-0.2,0.9-0.4,1.7c-0.2,0.8-0.6,2.4-1.2,4.7H234.2z"/>
	<path class="st1" d="M248.4,78.7h-4V67h-3.7v-3.3h11.4V67h-3.6V78.7z"/>
	<path class="st1" d="M254.1,60.7c0-0.6,0.2-1,0.5-1.3c0.3-0.3,0.9-0.4,1.6-0.4s1.3,0.1,1.6,0.5c0.3,0.3,0.5,0.7,0.5,1.3
		c0,1.2-0.7,1.8-2.1,1.8C254.8,62.5,254.1,61.9,254.1,60.7z M254.2,78.7v-15h4.1v15H254.2z"/>
	<path class="st1" d="M265.5,78.7h-4v-15h8.9V67h-4.9v2.9h4.5v3.2h-4.5V78.7z"/>
	<path class="st1" d="M272.7,60.7c0-0.6,0.2-1,0.5-1.3c0.3-0.3,0.9-0.4,1.6-0.4s1.3,0.1,1.6,0.5c0.3,0.3,0.5,0.7,0.5,1.3
		c0,1.2-0.7,1.8-2.1,1.8C273.4,62.5,272.7,61.9,272.7,60.7z M272.8,78.7v-15h4.1v15H272.8z"/>
</g>
<rect x="2" class="st2" width="111.9" height="111.9"/>
<g id="Mask_Group_13" transform="translate(85 86)">
	<g id="logo" transform="translate(0 2.206)">
		<g>
			<defs>
				<rect id="SVGID_1_" x="-83" y="-84.3" width="112.5" height="104.8"/>
			</defs>
			<clipPath id="SVGID_2_">
				<use xlink:href="#SVGID_1_"  style="overflow:visible;"/>
			</clipPath>
			<g id="Group_1" transform="translate(0)" class="st3">
				<path id="Path_1" class="st1" d="M18.4-10.6c-1.8,4.7-4.4,9.1-7.6,13.1c0.1,0,0.1,0,0.2,0C13,3,14.9,3.5,16.8,4
					c1.5,0.6,3.2,0,3.8-1.5c0.9-1.6,1.9-3.2,2.8-4.9c0.6-1.1,0.4-2.5-0.5-3.3c-1.4-1.5-2.8-3-4.2-4.4C18.7-10.3,18.6-10.4,18.4-10.6
					 M-74.6-35.7c-2.1,0.7-4.2,1.2-6.3,1.8c-1.1,0.3-2,0.9-2,2.1c0,1-0.1,2-0.1,3h0v1c0,0.1,0,0.2,0,0.3l0,0c0,0.7,0,1.4,0,2.1
					c-0.1,1.3,0.7,2.6,2,2.9c1.7,0.6,3.4,1.1,5.1,1.5c0.4,0.1,0.8,0.2,1.2,0.4C-75.4-25.5-75.4-30.6-74.6-35.7 M-72-45.5
					c1.8-4.7,4.4-9.1,7.6-13.1c-0.1,0-0.1,0-0.2,0c-1.9-0.5-3.9-1-5.8-1.4c-1.5-0.6-3.2,0-3.8,1.5c-0.9,1.6-1.9,3.2-2.8,4.9
					c-0.6,1.1-0.4,2.5,0.5,3.3c1.4,1.5,2.8,3,4.2,4.4C-72.2-45.7-72.1-45.6-72-45.5 M-57.2-65.8c3.9-3.2,8.3-5.7,13-7.5
					c0,0,0,0-0.1,0c-1.5-1.4-3-2.9-4.5-4.4c-0.9-1.1-2.6-1.3-3.8-0.5c-1.5,0.9-3,1.7-4.5,2.6c-1.5,0.6-2.2,2.3-1.7,3.9
					C-58.4-70.3-57.5-67.6-57.2-65.8 M-26.8-76.5c2.5,0,5,0.2,7.5,0.6c-0.6-2-1.2-4-1.8-6c-0.2-1.5-1.5-2.5-3-2.4
					c-1.8,0-3.7,0-5.5,0c-1.4-0.1-2.6,0.8-2.9,2.1c-0.6,1.7-1.1,3.4-1.5,5.2c-0.1,0.4-0.2,0.8-0.4,1.2
					C-31.8-76.3-29.3-76.5-26.8-76.5 M5.2-71.6c0.6-1.5-0.1-3.1-1.5-3.8c-1.5-0.9-3.1-1.8-4.6-2.7c-1.1-0.7-2.6-0.6-3.6,0.3
					c-1.5,1.4-3,2.8-4.4,4.2c-0.1,0.1-0.2,0.2-0.4,0.3c4.7,1.8,9.1,4.4,13.1,7.6c0,0,0-0.1,0-0.1C4.2-67.8,4.7-69.7,5.2-71.6
					 M-1.9,4.4l-3-3.9l-0.2,0.2c-0.6,0.5-0.4,1,0.7,2.4c1.2,1.6,1.7,1.9,2.3,1.5L-1.9,4.4z M-63.4-14.7l0.8-0.2l-0.3-0.7l-0.7,0.4
					c-1.2,0.6-1.7,0.9-1.7,0.9l0,0C-65.2-14.3-64.7-14.5-63.4-14.7 M-51.5-57.7c0.3-0.2,0.3-0.6-0.2-1.2c-0.4-0.5-0.8-0.6-1.2-0.4
					l-0.3,0.2l1.3,1.6L-51.5-57.7z M-36.9-64.8l0.8-0.2l-0.3-0.8c-0.5-1.3-0.7-1.8-0.8-1.8h0c0,0,0.1,0.6,0.2,1.9L-36.9-64.8z
					 M-5.3-59.6l0.3-0.8c0.6-1.2,0.8-1.7,0.8-1.7l0,0c0,0-0.4,0.4-1.3,1.5L-6-60.1L-5.3-59.6z M6.2-52.2c-0.3-0.5-0.8-0.3-2.4,0.9
					c-1.7,1.2-2,1.6-1.6,2.1c0.3,0.5,0.7,0.3,2.4-0.9C6.3-51.4,6.5-51.7,6.2-52.2 M9.2-47.6C8.9-48.1,8.4-48,6.7-47
					c-1.8,1-2.1,1.4-1.9,1.9s0.7,0.4,2.5-0.6C9.1-46.8,9.4-47.1,9.2-47.6 M11.4-42.5l-0.1-0.2l-2.1,0.8l0.1,0.2
					c0.2,0.5,0.6,0.5,1.3,0.2C11.3-41.7,11.6-42,11.4-42.5 M13.9-31.9l0-0.4l-2,0.2l0,0.4c0,0.3,0.4,0.6,1.1,0.5
					C13.6-31.2,13.9-31.5,13.9-31.9 M14.2-26.2L14.2-26.2c0,0-0.6-0.1-1.9-0.4l-0.8-0.2l0,0.8l0.8-0.1
					C13.6-26.1,14.2-26.2,14.2-26.2 M15.8-15.4c-0.1,0.4-0.4,0.5-0.9,0.4c-0.3,0-0.6-0.4-0.6-0.7c0,0,0-0.1,0-0.1
					c0.1-0.4,0.4-0.5,0.9-0.4S15.9-15.8,15.8-15.4 M15.4-27.8L15.3-25l-6.2,0.8l0,0.4l-1.3,0l0.1-2.2l1.3,0l0,0.4l0.9-0.1l0-1.2
					l-0.9-0.2l0,0.4l-1.3,0L8-28.8l1.3,0l0,0.4l3.8,0.8c0.5,0.1,1,0.2,1.1,0.2l0,0c0-0.1,0-0.2,0-0.2v-0.1L15.4-27.8z M15.2-31.9
					c0.1,1.3-0.8,2-2.2,2.1c-0.7,0.2-1.5-0.1-1.9-0.7l-2,0.9l0,0.4L7.9-29l-0.1-1.5l2.9-1.2l0-0.1l0-0.1L9-31.9l0,0.3l-1.3,0.1
					l-0.2-2.2l1.3-0.1l0,0.5l4.9-0.4l0-0.5l1.3-0.1L15.2-31.9z M14.7-35.9l-2.2,0.5l-0.3-1.3l0.9-0.2l-0.2-0.8l-1.7,0.4l0.3,1.2
					l-1.3,0.3L10-36.9l-1.8,0.4l0.2,0.8l1-0.2l0.3,1.3l-2.2,0.5l-1-4l1.3-0.3l0.1,0.5l4.7-1.2l-0.1-0.5l1.3-0.3L14.7-35.9z
					 M11.1-40.1c-1.5,0.6-2.5,0.2-2.9-1l-0.2-0.4L6.8-41L7-40.5L5.7-40l-0.9-2.3l1.2-0.5l0.2,0.5l4.6-1.7l-0.2-0.5l1.2-0.5l0.8,2.2
					C13.1-41.7,12.7-40.7,11.1-40.1 M8-44.4c-2.7,1.5-3.7,1.3-4.5,0c-0.7-1.3-0.4-2.3,2.3-3.8c2.7-1.5,3.7-1.3,4.5,0S10.8-46,8-44.4
					 M5.5-49C3-47.1,1.9-47.3,1-48.5s-0.7-2.2,1.9-4.1c2.5-1.8,3.6-1.7,4.4-0.5C8.2-51.9,8-50.8,5.5-49 M5.1-55.7l-0.9,0.9L4-55
					l-1.8,0.3l-1.7,3.1l0.3,0.3l-0.9,0.9l-1.5-1.5l0.9-0.9l0.2,0.2l1-1.8l-0.8,0.1l-0.9,0.9l0.2,0.2L-2-52.2l-1.6-1.6l0.9-0.9
					l0.3,0.3l3.5-3.4l-0.3-0.3l0.9-0.9l1.6,1.6l-0.9,0.9l-0.3-0.3l-0.5,0.5l-0.9,0.9l0,0c0.1,0,0.5-0.1,1-0.2l1.3-0.2l-0.3-0.3
					L3.8-57L5.1-55.7z M-2.5-62.5l-2.6,5.7l0.3,0.2l-0.7,1.1l-1.9-1.2l0.7-1.1l0.3,0.2l0.4-0.8l-1-0.6l-0.6,0.7l0.3,0.2l-0.7,1.1
					l-1.7-1.1l0.7-1.1l0.3,0.2L-6-62c0.3-0.4,0.7-0.8,0.7-0.8l0,0c-0.1,0-0.1-0.1-0.2-0.1L-5.6-63l0.7-1.1L-2.5-62.5z M-6.8-65.3
					l-0.5,1.2l-0.5-0.2l-2,4.5l0.5,0.2l-0.5,1.2l-2.1-0.9l0.5-1.2l0.4,0.2l0.4-0.8c0.5-1.2,1.2-2.6,1.1-2.6l0,0c0,0-0.5,0.7-1.1,1.5
					l-0.9,1.2l-0.9-0.4l0.3-1.4c0.2-0.9,0.4-1.8,0.4-1.8l0,0c0,0-0.6,1.4-1.1,2.6l-0.4,0.8l0.4,0.2l-0.5,1.2l-2-0.9l0.5-1.2l0.5,0.2
					l2-4.5l-0.5-0.2l0.5-1.2l2.3,1l-0.7,3.1l0,0l1.8-2.7L-6.8-65.3z M-13.9-68.2l-0.3,1.3l-0.5-0.1l-1.5,6l-1.6-0.4l-0.2-4.9l0,0
					c0,0-0.2,0.9-0.5,2.1l-0.3,1.2l0.5,0.1l-0.3,1.3l-2-0.5l0.3-1.3l0.5,0.1l1.2-4.7l-0.5-0.1l0.3-1.3l2,0.5l0.3,5l0,0
					c0,0,0.2-1,0.5-2.1l0.3-1.3l-0.5-0.1l0.3-1.3L-13.9-68.2z M-20-69.6l-0.2,1.3l-0.5-0.1l-0.7,4.8l0.5,0.1l-0.2,1.3l-2.4-0.3
					l0.2-1.3l0.5,0.1l0.7-4.8l-0.5-0.1l0.2-1.3L-20-69.6z M-23.6-70.1l0,1.3H-24l-1.1,1.5l1,3.4h0.4l0,1.3l-2.1,0l0-1.3h0.3l-0.6-2
					l-0.5,0.7l0,1.3h0.3l0,1.3l-2.2,0l0-1.3h0.5l0.1-4.9h-0.5l0-1.3l2.3,0l0,1.3h-0.4v0.7l0,1.3h0c0-0.1,0.3-0.4,0.6-0.9l0.8-1.1
					h-0.4l0-1.3L-23.6-70.1z M-28.8-62.6l-4,0.5l-0.2-1.3l0.5-0.1l-0.6-4.9l-0.5,0.1l-0.2-1.3l2.4-0.3l0.2,1.3l-0.5,0.1l0.6,4.9
					l0.7-0.1l-0.1-0.9l1.3-0.2L-28.8-62.6z M-33.8-63.3l0.3-0.1l0.3,1.3l-2.1,0.6l-0.3-1.3l0.4-0.1l-0.4-0.9l-1.1,0.3l0.1,0.9
					l0.4-0.1l0.3,1.3l-2,0.5l-0.3-1.3l0.3-0.1l-0.4-3.8c-0.1-0.5-0.1-1-0.1-1.1l0,0c-0.1,0-0.2,0.1-0.2,0.1l-0.1,0l-0.3-1.3l2.8-0.7
					L-33.8-63.3z M-40.6-66.4l-0.3,0.1l-0.4,1.8l2.3,2.7l0.3-0.1l0.5,1.2l-2,0.9l-0.5-1.2l0.3-0.1l-1.3-1.6l-0.2,0.8l0.5,1.2
					l0.3-0.1l0.5,1.2l-2.1,0.9L-43-60l0.5-0.2l-2-4.5l-0.5,0.2l-0.5-1.2l2.1-0.9l0.5,1.2l-0.4,0.2l0.3,0.7l0.5,1.2l0,0
					c0-0.1,0.1-0.5,0.2-1.1l0.2-1.3l-0.4,0.2l-0.5-1.2l1.8-0.8L-40.6-66.4z M-48.6-62.4l2.7,4.1l0.4-0.3l0.7,1.1l-2,1.3l-0.7-1.1
					l0.4-0.3l-2.7-4.1l-0.4,0.3l-0.7-1.1l2-1.3l0.7,1.1L-48.6-62.4z M-50.4-63.7c-0.3,0.2-0.7,0.1-0.9-0.1c0,0,0-0.1-0.1-0.1
					c-0.2-0.3-0.2-0.6,0-0.9c0,0,0.1-0.1,0.1-0.1c0.3-0.2,0.7-0.1,0.9,0.2c0,0,0,0.1,0.1,0.1C-50-64.4-50-64-50.4-63.7
					C-50.3-63.7-50.3-63.7-50.4-63.7 M-50.6-59.8c0.5,0.5,0.7,1.3,0.5,1.9l1.9,1.1l0.3-0.3l0.8,1l-1.2,1l-2.6-1.7l-0.1,0.1l-0.1,0.1
					l1.1,1.3l0.3-0.2l0.8,1l-1.7,1.4l-0.8-1l0.4-0.3l-3.2-3.7l-0.4,0.3l-0.8-1l1.9-1.6C-52.6-61.2-51.5-60.9-50.6-59.8 M-56.4-57.9
					l1.6,1.5l-0.9,1l-0.7-0.6l-0.5,0.6l1.3,1.2l0.8-0.9l1,0.9l-0.8,0.9l1.4,1.3l0.6-0.6l-0.7-0.7l0.9-1l1.7,1.6l-2.8,3l-1-0.9
					l0.3-0.4l-3.6-3.3l-0.3,0.4l-1-0.9L-56.4-57.9z M-60.2-51.3l4,2.8l0.4-0.6l-0.8-0.5l0.8-1.1l1.9,1.3l-2.3,3.3l-1.1-0.7l0.3-0.4
					l-4-2.8l-0.3,0.4l-1.1-0.7l1.4-2l1.1,0.7L-60.2-51.3z M-62.9-49.5l1.1,0.6l-0.2,0.4l4.3,2.4l0.2-0.4l1.1,0.6l-1.2,2.1l-1.1-0.6
					l0.2-0.4l-4.3-2.4l-0.2,0.4l-1.1-0.6L-62.9-49.5z M-64.1-48.8c-0.2,0.3-0.5,0.4-0.8,0.3c0,0-0.1,0-0.1-0.1
					c-0.4-0.2-0.5-0.6-0.3-0.9c0.2-0.3,0.7-0.4,1-0.1C-64.1-49.4-64-49.1-64.1-48.8 M-65.7-44.3c0.1-0.4,0.5-0.7,0.9-0.8l0,0
					l-0.3-0.2l0.5-1.1l2.5,1.1l-0.5,1.2l-0.2-0.1c-0.6-0.3-1.2-0.4-1.4,0.1c-0.2,0.5,0.3,0.8,1.8,1.5c2,0.9,2.5,1,2.7,0.5
					c0.2-0.4-0.2-0.6-0.8-1l0.9-1.1c0.8,0.5,1.6,1,1.4,2.1c0.3-0.1,0.6-0.1,0.8,0c0.5,0.2,0.8,0.7,0.6,1.3c0,0.1,0,0.1-0.1,0.2
					c-0.1,0.2-0.3,0.5-0.4,0.6l-0.9-0.4c0.1-0.1,0.2-0.2,0.2-0.3c0.1-0.1,0-0.3-0.1-0.4c0,0,0,0-0.1,0c-0.3-0.1-0.5,0.2-0.6,0.4
					l-0.2-0.1c-0.6,0.6-1.7,0.6-4-0.4C-65.9-42.4-66-43.4-65.7-44.3 M-66.7-41.3l2.4,0.6l-0.3,1.3l-0.5-0.1c-0.6-0.2-0.8,0-0.9,0.3
					c-0.1,0.3,0,0.5,0.5,0.6c0.6,0.2,0.9-0.1,1.4-0.5c0.8-0.8,1.9-1.1,3-0.8c1.2,0.3,1.7,0.9,1.6,1.8c0.3-0.1,0.5-0.1,0.8-0.1
					c0.5,0.1,0.9,0.6,0.8,1.2c0,0.1,0,0.1,0,0.2c-0.1,0.3-0.2,0.5-0.3,0.7l-0.9-0.3c0.1-0.1,0.2-0.2,0.2-0.3c0.1-0.1,0-0.3-0.2-0.4
					c0,0,0,0,0,0c-0.3-0.1-0.4,0.2-0.5,0.5l-0.2-0.1l-0.3,1.1l-2.4-0.7l0.3-1.3l0.5,0.1c0.5,0.1,0.8,0,0.9-0.3
					c0.1-0.3-0.1-0.6-0.6-0.7s-0.9,0.1-1.5,0.5c-0.7,0.8-1.9,1.1-2.9,0.8c-1.1-0.3-1.6-1-1.3-1.9c0.2-0.7,0.5-0.9,0.7-1l0,0
					l-0.3-0.1L-66.7-41.3z M-68-36.4l1.3,0.2l-0.1,0.5l4.8,0.8l0.1-0.5l1.3,0.2l-0.4,2.4l-1.3-0.2l0.1-0.5l-4.8-0.8l-0.1,0.5
					l-1.3-0.2L-68-36.4z M-68.8-30.2l1.3,0v0.5l4,0c1.7,0,2.4,0.5,2.4,1.9c0,1.4-0.6,2-2.4,2l-4,0v0.5l-1.3,0l0-2.3l1.3,0v0.3l4,0
					c0.5,0,0.9,0,0.9-0.6c0-0.5-0.4-0.6-0.9-0.6l-4,0v0.3l-1.3,0L-68.8-30.2z M-68.9-35.3c-0.1,0.4-0.4,0.6-0.8,0.5
					c-0.5-0.1-0.7-0.3-0.6-0.7c0.1-0.4,0.4-0.6,0.8-0.5C-69-36-68.8-35.7-68.9-35.3 M-68.7-23.8l1.3-0.2l0.1,0.5l4.8-0.8l-0.1-0.5
					l1.3-0.2l0.4,2.2l-1.3,0.2l-0.1-0.4l-0.9,0.2c-1.3,0.2-2.8,0.4-2.8,0.4v0c0,0,0.9,0,1.8,0.1l1.4,0.1l0.2,1l-1.3,0.5
					c-0.9,0.3-1.7,0.6-1.7,0.6v0c0,0,1.5-0.3,2.8-0.5l0.9-0.2l-0.1-0.4l1.3-0.2l0.3,2.1l-1.3,0.2l-0.1-0.5l-4.8,0.8l0.1,0.5
					l-1.3,0.2l-0.4-2.4l3-1.1v0l-3.2-0.1L-68.7-23.8z M-66.8-15.1l5.5-3l-0.1-0.3l1.2-0.4l0.7,2.1l-1.2,0.4l-0.1-0.3l-0.8,0.4
					l0.4,1.1l0.9-0.2l-0.1-0.3l1.2-0.4l0.7,1.9l-1.2,0.4l-0.1-0.3l-3.8,0.7c-0.5,0.1-1,0.2-1.1,0.2l0,0c0,0.1,0.1,0.2,0.1,0.2l0,0.1
					l-1.2,0.4L-66.8-15.1z M-65-10.5l1.2-0.6l0.2,0.3l1.8,0.2l2.5-2.5l-0.2-0.3l1.2-0.6l1,1.9l-1.2,0.6l-0.1-0.3l-1.5,1.4l0.8,0.1
					l1.1-0.6l-0.2-0.3l1.2-0.6l1,2l-1.2,0.6l-0.2-0.4l-4.3,2.3l0.2,0.4l-1.2,0.6l-1.1-2l1.2-0.6l0.2,0.3l0.7-0.3l1.1-0.6l0,0
					c-0.1,0-0.5,0-1.1-0.1l-1.3-0.2l0.2,0.4l-1.2,0.6L-65-10.5z M2.5-7.1l3.9,3l0.3-0.4l1,0.8L6.2-1.8l-1-0.8L5.5-3l-3.9-3L1.2-5.3
					l0.8,0.6L1.1-3.7l-1.8-1.4l2.4-3.2l1,0.8L2.5-7.1z M-1.4-4.4l0.9,0.9l-0.4,0.4l3.4,3.5L3,0L2.3-0.7L3-1.5l1.6,1.7L1.3,3.5
					l-1.6-1.7L0.4,1l0.7,0.8l0.4-0.4l-3.4-3.5l-0.4,0.4l-0.9-0.9L-1.4-4.4z M-3.3-0.7l-0.4,0.3l3,3.9l0.4-0.3l0.8,1l-1.9,1.5
					C-2.9,6.8-4.2,6-5.6,4.1c-1.4-1.9-1.9-3.2-0.5-4.3l2-1.6L-3.3-0.7z M-8.1,3.1c-0.4,0.2-1,0.1-1.2-0.4C-9.5,2.3-9.4,1.8-9,1.6
					c0.4-0.2,0.9-0.1,1.1,0.3c0,0,0,0.1,0,0.1C-7.6,2.3-7.6,2.8-8.1,3.1C-8,3.1-8.1,3.1-8.1,3.1 M8.7-7.6l0.2-0.4l-4.3-2.3L4.3-9.9
					l-1.2-0.6l1.1-2.2L5.5-12l-0.2,0.4l4.3,2.3l0.2-0.4L11-9.2L9.8-7L8.7-7.6z M11-7.8c0.1-0.3,0.5-0.4,0.8-0.3C11.9-8,12-8,12-8
					c0.4,0.2,0.5,0.5,0.4,0.9c-0.2,0.3-0.5,0.4-0.8,0.3c0,0-0.1,0-0.1-0.1C11.1-7,10.9-7.3,11-7.6C11-7.7,11-7.7,11-7.8 M13-13.8
					l-1.5,3.7l-2.1-0.8l0.5-1.3l0.9,0.3l0.3-0.7l-1.7-0.7l-0.5,1.1l-1.2-0.5l0.5-1.1l-1.6-0.7l-0.2,0.6l-1.2-0.5l1-2.4l1.2,0.5
					l-0.2,0.5l4.5,1.8l0.2-0.5L13-13.8z M13.7-22.2l-1-0.2l0.2-1l2.3,0.4l-0.8,4.6L12-18.8l0.2-1l1,0.2l0.1-0.5L8.5-21l-0.1,0.5
					l-1.3-0.2l0.4-2.4l1.3,0.2l-0.1,0.5l4.8,0.8L13.7-22.2z M13.3-14.9l-1.3-0.4l0.1-0.5l-4.7-1.4l-0.1,0.5L6.1-17l0.7-2.3L8.1-19
					l-0.1,0.5l4.7,1.4l0.1-0.5l1.3,0.4L13.3-14.9z M19.7-28c0-25.7-20.8-46.5-46.5-46.4c-25.7,0-46.5,20.8-46.4,46.5
					c0,7.6,1.9,15.1,5.5,21.9c0.1,0.1,0.2,0.1,0.3,0.2c0,0,0,0,0,0c0.6,0.5,1.2,0.9,1.8,1.2c0.8,0.4,1.6,0.7,2.4,0.9
					c0.2,0.1,0.4,0.1,0.6,0.2l0.2,0.1c0.2,0,0.4,0.1,0.6,0.1c0.2,0,0.3,0,0.5,0.1c0.2,0,0.3,0,0.4,0c0.3,0,0.7,0,1,0h0
					c0.8,0,1.6-0.1,2.3-0.2c1-0.1,2-0.4,3-0.7c0,0,3.2-1.2,5.7-2.1c0.4-0.2,0.2-0.1,0.6-0.2l0.5-0.2c-5.7-5.6-9-13.3-9-21.3
					c0-16.5,13.4-29.8,29.9-29.8S3.1-44.5,3.1-28C3.1-15.3-5-3.9-17,0.2l8.8,10.4l2.5,2.9C9.9,5.5,19.8-10.5,19.7-28 M22.8-50
					c1.2-1,1.4-2.8,0.4-4c-0.8-1.4-1.6-2.8-2.4-4.2c-0.6-1.4-2.1-2.2-3.6-1.9c-2.1,0.5-4.2,1-6.3,1.5c0,0-0.1,0-0.1,0
					c3.2,3.9,5.7,8.3,7.6,13.1C19.9-47,21.3-48.5,22.8-50 M29.5-28.7L29.5-28.7c0-0.7,0-1.4,0-2.1c0.1-1.3-0.7-2.6-2-2.9
					c-1.7-0.6-3.4-1-5.1-1.5c-0.4-0.1-0.8-0.2-1.2-0.4c0.8,5,0.8,10.2,0,15.2c2.1-0.7,4.2-1.2,6.3-1.8c1-0.3,2-0.9,2-2.1
					c0-1,0.1-2,0.1-3h0v-1.1C29.5-28.5,29.5-28.6,29.5-28.7"/>
			</g>
		</g>
		<g>
			<defs>
				<rect id="SVGID_3_" x="-83" y="-84.3" width="112.5" height="104.8"/>
			</defs>
			<clipPath id="SVGID_4_">
				<use xlink:href="#SVGID_3_"  style="overflow:visible;"/>
			</clipPath>
			<g id="Group_2" transform="translate(0)" class="st4">
				<path id="Path_2" class="st1" d="M-41.8-9.2l0.2,0.1l0.3-0.1c-0.1-0.2-0.2-0.4-0.3-0.7c-0.1-0.3-0.1-0.7-0.1-1
					c0-0.4-0.1-0.9-0.3-1.3c-0.2-0.4-0.5-0.9-0.7-1.3c-0.1-0.2-0.2-0.5-0.2-0.7c0-0.1-0.1-0.3-0.1-0.4c0-0.1,0-0.3,0-0.4
					c-0.7,0.7-1,1.6-0.9,2.5c0.1,0.4,0.2,0.9,0.4,1.3c0.2,0.4,0.5,0.7,0.8,1.1c0.2,0.2,0.4,0.3,0.6,0.5C-41.9-9.5-41.8-9.4-41.8-9.2
					 M-39.6-11.7c-0.4,0.6-0.5,1.4-0.5,2.1c0.4-0.1,0.9-0.3,1.3-0.4c-0.1-0.1-0.1-0.1-0.1-0.2c-0.2-0.2-0.3-0.4-0.4-0.7
					C-39.4-11.1-39.5-11.4-39.6-11.7 M-48.2-14.2c-0.7-0.6-1.6-1-2.6-1c0.4,0.4,0.8,0.8,1,1.3c0.3,0.4,0.5,0.8,0.7,1.2
					c0.2,0.4,0.4,0.7,0.7,1c0.3,0.3,0.6,0.5,1,0.7c0.7,0.2,1.3,0.2,2,0.1c0.3-0.1,0.7-0.1,1,0l-0.3-0.3l0,0c-0.2,0-0.4,0-0.6-0.1
					c-0.3-0.1-0.6-0.2-0.8-0.4c-0.2-0.2-0.4-0.4-0.6-0.7c-0.1-0.1-0.3-0.3-0.4-0.4s-0.2-0.3-0.3-0.5s-0.2-0.3-0.4-0.4
					C-47.9-13.9-48.1-14.1-48.2-14.2 M-43.6-9c-0.3-0.2-0.6-0.5-1-0.7c-0.4-0.2-0.8-0.3-1.2-0.4c-0.5-0.1-1.1-0.1-1.6,0
					c0.9,0.6,1.6,1.3,2.3,2.1l0.2,0.2c0.5-0.2,1.2-0.5,1.9-0.7C-43.3-8.7-43.5-8.8-43.6-9 M-51.5-35.8c-0.2-0.4-0.4-0.9-0.7-1.3
					c0,0.5-0.1,1-0.2,1.5c-0.1,0.2-0.1,0.4-0.2,0.6c-0.1,0.2-0.1,0.4-0.2,0.6c-0.1,0.3-0.2,0.7-0.3,1c0,0.4,0,0.7,0.2,1.1
					c0.3,0.5,0.7,1,1.1,1.4c0.2,0.2,0.5,0.4,0.6,0.7c0-0.1,0-0.2,0-0.4c0,0,0,0,0-0.1l-0.3-0.5c-0.1-0.2-0.2-0.5-0.2-0.8
					c0-0.3,0-0.5,0.1-0.8c0.1-0.7,0.2-1.4,0.2-2C-51.3-35.1-51.4-35.5-51.5-35.8 M-44.3-46.6c0.4-0.7,0.5-1.5,0.4-2.2
					c-0.1,0.2-0.3,0.4-0.4,0.6c-0.1,0.2-0.3,0.3-0.4,0.5c-0.3,0.3-0.6,0.5-0.8,0.7c-0.1,0.1-0.3,0.2-0.4,0.3
					c-0.1,0.1-0.2,0.2-0.3,0.4c-0.2,0.3-0.3,0.6-0.4,0.9c0,0.6,0,1.1,0.2,1.6c0.1,0.3,0.2,0.5,0.2,0.8c0.1-0.1,0.1-0.2,0.2-0.3
					c0,0,0,0,0,0l0-0.5c0.1-0.5,0.3-0.9,0.6-1.3c0.2-0.3,0.4-0.5,0.6-0.7C-44.6-46.1-44.4-46.3-44.3-46.6 M-40.4-48.5
					c0,0,0,0.1,0,0.1l0,0C-40.4-48.4-40.4-48.5-40.4-48.5 M-41.7-47.4L-41.7-47.4c0,0-0.1,0-0.1,0l0,0
					C-41.8-47.4-41.8-47.4-41.7-47.4 M-41.9-47.4c-0.2,0.2-0.3,0.3-0.4,0.5l0,0C-42.1-47.1-42-47.2-41.9-47.4 M-44.8-44.4
					C-44.9-44.4-44.9-44.4-44.8-44.4L-44.8-44.4l-0.4,0.6l0,0L-44.8-44.4L-44.8-44.4C-44.9-44.4-44.9-44.4-44.8-44.4 M-46.2-42.9
					c0,0.1,0,0.2,0,0.3l0,0C-46.2-42.8-46.2-42.9-46.2-42.9 M-47.6-40.6l-0.2,0.3l0,0L-47.6-40.6z M-48.4-39.6
					c0,0.2-0.1,0.4-0.1,0.6C-48.4-39.2-48.4-39.4-48.4-39.6L-48.4-39.6 M-50.1-35.3v0.7V-35.3z M-50.7-26.6L-50.7-26.6
					c0-0.2-0.1-0.3-0.1-0.5C-50.8-26.9-50.8-26.7-50.7-26.6 M-50.9-29.9L-50.9-29.9c0-0.2-0.1-0.3-0.1-0.5
					C-51-30.2-50.9-30.1-50.9-29.9 M-50.9-25.4l-0.1-0.3l0,0L-50.9-25.4z M-49.9-21.6C-49.9-21.6-49.9-21.6-49.9-21.6
					C-49.9-21.6-49.9-21.6-49.9-21.6z M-49.9-20.3c0.1,0.1,0.2,0.2,0.3,0.3C-49.7-20.1-49.8-20.2-49.9-20.3 M-48.4-17.4L-48.4-17.4
					l0.4,0.7L-48.4-17.4z M-47.9-15.8l0.3,0.3l0.3,0.3l-0.3-0.3L-47.9-15.8z M-37.5-51.3c0.5-0.5,0.9-1.2,1-1.9
					c-0.3,0.3-0.7,0.5-1,0.7c-0.3,0.2-0.6,0.3-0.9,0.4c-0.6,0.2-1.1,0.6-1.4,1.1c-0.2,0.5-0.3,1-0.3,1.5c0,0.3,0,0.5-0.1,0.8l0,0
					c-0.2,0.2-0.5,0.3-0.8,0.5c-0.7,0.5-1.4,1.1-2.1,1.8l0,0l0.1-0.5c0.1-0.5,0.4-0.8,0.8-1.1c0.2-0.2,0.5-0.4,0.7-0.6
					c0.2-0.2,0.4-0.4,0.6-0.6c0.2-0.3,0.4-0.5,0.5-0.8c0.1-0.2,0.1-0.4,0.1-0.6c0-0.2,0.1-0.5,0.1-0.7c-0.5,0.6-1.2,1.1-1.9,1.4
					c-0.3,0.1-0.5,0.3-0.8,0.5c-0.2,0.2-0.4,0.5-0.5,0.8c-0.1,0.5-0.1,1.1,0,1.6c0,0.3,0.1,0.5,0,0.8c0,0,0.1-0.1,0.1-0.1
					c0,0-0.1,0.1-0.1,0.1l0,0c-0.9,0.9-1.8,1.9-2.6,2.9c-0.1,0.1-0.1,0.2-0.2,0.3c-0.1,0.2-0.2,0.3-0.3,0.5c-0.7,1-1.3,1.9-1.8,3
					c0,0,0,0,0-0.1l-0.1-0.5c0-0.3,0-0.5,0.1-0.8c0.1-0.2,0.2-0.5,0.3-0.7c0.2-0.3,0.3-0.6,0.5-0.8c0.2-0.3,0.3-0.6,0.4-0.9
					c0.2-0.8,0.2-1.6,0-2.3c-0.3,0.8-0.8,1.5-1.4,2.1c-0.2,0.2-0.4,0.5-0.6,0.8c-0.2,0.3-0.2,0.7-0.2,1c0,0.2,0.1,0.5,0.1,0.7
					c0.1,0.3,0.2,0.6,0.4,0.9c0.1,0.3,0.3,0.5,0.3,0.8l0.1-0.2l-0.1,0.2l0,0c-0.6,1.3-1.2,2.6-1.6,4v-0.1c-0.1-0.2-0.1-0.3-0.2-0.5
					c-0.1-0.2-0.1-0.5-0.1-0.8c0.1-0.3,0.2-0.5,0.2-0.7c0.1-0.3,0.2-0.6,0.3-0.9c0.1-0.3,0.2-0.6,0.3-0.9c0-0.2,0-0.3,0-0.5
					c0-0.2,0-0.4,0-0.6c-0.1-0.5-0.2-0.9-0.4-1.3c-0.1,0.5-0.2,0.9-0.5,1.4c-0.2,0.4-0.4,0.7-0.6,1c-0.2,0.3-0.3,0.6-0.4,0.9
					c-0.1,0.3-0.1,0.7,0,1.1c0.2,0.6,0.4,1.1,0.8,1.5c0.2,0.2,0.4,0.5,0.5,0.8l0,0c-0.3,0.9-0.5,1.8-0.6,2.7
					c-0.1,0.5-0.2,1.1-0.2,1.6l0,0c0,0.1,0,0.2,0,0.4c0,0,0,0.1,0.1,0.1c0,0,0-0.1-0.1-0.1c0,0.4-0.1,0.7-0.1,1.1
					c0,1.1,0,2.1,0.1,3.2c0,0.1,0,0.2,0,0.3l0-0.1c-0.1-0.1-0.3-0.3-0.4-0.4c-0.2-0.2-0.3-0.5-0.4-0.7c0-0.3-0.1-0.6-0.1-0.8
					c0-0.3,0-0.7-0.1-1.1c0-0.3-0.1-0.7-0.1-1c0-0.2-0.1-0.4-0.2-0.5c-0.1-0.2-0.2-0.4-0.3-0.5c-0.3-0.4-0.6-0.8-0.9-1.1
					c0.1,0.5,0.1,1,0.1,1.5c0,0.4-0.1,0.8-0.2,1.2c-0.1,0.4-0.1,0.7-0.1,1.1c0,0.4,0.2,0.7,0.4,1.1c0.4,0.5,0.9,0.9,1.4,1.2
					c0.3,0.1,0.6,0.3,0.8,0.6c0.1,0.1,0.2,0.2,0.2,0.3l0,0c-0.1-0.1-0.1-0.2-0.2-0.3c0.1,0.9,0.2,1.7,0.4,2.5l0.1,0.4l0.1,0.4
					l0.2,0.8l0.2,0.5l0-0.1l-0.5-0.3c-0.2-0.2-0.4-0.4-0.5-0.7c-0.1-0.3-0.2-0.5-0.3-0.8c-0.1-0.3-0.2-0.7-0.3-1
					c-0.1-0.3-0.2-0.7-0.3-1c-0.2-0.4-0.4-0.7-0.6-1c-0.3-0.4-0.7-0.7-1.2-0.9c0.1,0.3,0.2,0.5,0.3,0.8c0.1,0.2,0.1,0.5,0.1,0.7
					c0.1,0.5,0.1,0.9,0.1,1.3c0,0.4,0.1,0.8,0.2,1.1c0.1,0.4,0.3,0.7,0.6,1c0.5,0.4,1.1,0.7,1.7,0.9c0.3,0.1,0.6,0.2,0.9,0.4
					c0.1,0.2,0.1,0.5,0.2,0.7c0.5,1.3,1.1,2.6,1.8,3.8l0,0l-0.6-0.2c-0.3-0.1-0.5-0.3-0.7-0.6c-0.2-0.2-0.3-0.5-0.4-0.8
					c-0.2-0.3-0.3-0.7-0.5-1c-0.2-0.3-0.3-0.7-0.6-0.9c-0.2-0.3-0.5-0.6-0.8-0.8c-0.2-0.1-0.4-0.3-0.6-0.4c-0.3-0.1-0.5-0.2-0.8-0.3
					c0.5,0.8,0.9,1.8,1.1,2.7c0.1,0.4,0.2,0.8,0.4,1.1c0.1,0.2,0.2,0.3,0.3,0.5c0.1,0.2,0.3,0.3,0.5,0.4c0.2,0.1,0.5,0.3,0.8,0.3
					c0.4,0.1,0.7,0.2,1.1,0.2c0.3,0,0.7,0.1,1,0.2l0,0c0.9,1.5,1.9,2.8,3.1,4.1l0.4,0.2l-0.4-0.2c0.1,0.1,0.2,0.2,0.3,0.3
					c0.1,0,0.3,0.1,0.4,0.1c-0.1-0.1-0.3-0.1-0.4-0.1c0.6,0.7,1.3,1.3,2,1.9c0.1,0.1,0.2,0.1,0.3,0.2c0.1,0,0.3-0.1,0.4-0.1
					c0,0,0,0,0,0l0,0l0,0c0-0.1,0-0.1-0.1-0.2l-0.3-0.3c-1.1-0.9-2-1.9-2.9-2.9l0,0c-0.1-0.4-0.2-0.8-0.2-1.3c0-0.3,0-0.7,0.1-1
					c0.1-0.4,0.1-0.8,0-1.3c-0.1-0.5-0.3-0.9-0.4-1.4c-0.1-0.2-0.1-0.5-0.1-0.8c0-0.3,0-0.5,0.1-0.8c-0.4,0.3-0.7,0.6-1,1
					c-0.1,0.2-0.2,0.4-0.3,0.6c-0.1,0.2-0.1,0.4-0.1,0.6c0,0.2,0,0.4,0,0.6c0,0.2,0.1,0.4,0.1,0.6c0.1,0.2,0.1,0.4,0.2,0.6
					c0.1,0.2,0.2,0.4,0.3,0.6c0.2,0.2,0.3,0.4,0.4,0.6c0.1,0.1,0.1,0.3,0.2,0.5c0.1,0.1,0.2,0.2,0.2,0.3c-0.1-0.1-0.2-0.2-0.2-0.3
					c0,0.1,0,0.1,0,0.2l0,0c0.2,0.2,0.4,0.4,0.6,0.6c-0.2-0.2-0.4-0.4-0.6-0.6l0,0c0-0.1,0-0.1,0-0.2c-0.9-1.2-1.7-2.4-2.4-3.7v0
					l0,0v0c0-0.1-0.1-0.1-0.1-0.2c0,0.1,0.1,0.1,0.1,0.2c0-0.4,0-0.9,0-1.3c0.1-0.3,0.2-0.6,0.3-0.9c0.1-0.2,0.1-0.4,0.2-0.6
					c0-0.2,0.1-0.4,0.1-0.6c0-0.5-0.1-0.9-0.1-1.4c0-0.3,0-0.5,0.1-0.7c0.1-0.3,0.1-0.5,0.2-0.8c-0.8,0.3-1.5,1-1.7,1.8
					c-0.1,0.4-0.2,0.8-0.1,1.2c0,0.4,0.1,0.9,0.3,1.3c0.1,0.2,0.2,0.4,0.3,0.7c0,0.2,0.1,0.3,0,0.5l0,0c0,0,0,0.1,0,0.1
					c0,0,0-0.1,0-0.1c-0.3-0.7-0.6-1.4-0.9-2.1c-0.1-0.3-0.2-0.5-0.3-0.8l-0.2-0.8l-0.1-0.4c0-0.7,0.3-1.4,0.8-2
					c0.2-0.3,0.4-0.7,0.5-1.1c0-0.2,0.1-0.5,0.1-0.7c0-0.2,0.1-0.5,0.1-0.7c0.1-0.5,0.3-1,0.6-1.4c-0.4,0.1-0.9,0.3-1.2,0.5
					c-0.3,0.2-0.6,0.5-0.8,0.9c-0.2,0.4-0.3,0.8-0.4,1.2c0,0.4,0,0.8,0,1.3c0.1,0.2,0.1,0.5,0.1,0.7c0,0.2,0,0.3-0.1,0.5v0v0
					c0,0,0,0.1-0.1,0.2c0,0,0-0.1,0.1-0.2l-0.1-0.3c-0.2-1-0.4-2.1-0.5-3.2c0-0.2,0-0.4,0-0.6l0,0c0.1-0.4,0.3-0.7,0.5-1.1
					c0.2-0.2,0.4-0.5,0.6-0.7c0.3-0.3,0.5-0.6,0.7-1c0.1-0.2,0.2-0.4,0.2-0.6c0.1-0.2,0.1-0.4,0.2-0.6c0.2-0.5,0.5-0.9,0.8-1.2
					c-0.8,0-1.7,0.3-2.2,1c-0.3,0.3-0.5,0.7-0.6,1c-0.1,0.4-0.2,0.8-0.2,1.2c0,0.2,0,0.5,0,0.7c0,0.2-0.1,0.3-0.1,0.4
					c0-0.6,0-1.1,0-1.7c0-0.8,0.1-1.6,0.2-2.3c0,0,0,0,0,0l0,0c0,0,0,0,0,0c0-0.3,0.1-0.5,0.1-0.8l-0.1,0.8c0.2-0.3,0.4-0.7,0.7-0.9
					c0.2-0.2,0.5-0.4,0.7-0.5c0.3-0.2,0.6-0.5,0.8-0.8c0.3-0.3,0.4-0.8,0.7-1.1c0.3-0.4,0.6-0.7,1-1c-0.4-0.1-0.9-0.1-1.3,0
					c-0.4,0.1-0.7,0.3-1,0.5c-0.6,0.5-1,1.2-1.2,2c0,0.2-0.1,0.4-0.1,0.7c-0.1,0.1-0.1,0.3-0.2,0.4c0.2-1.3,0.5-2.6,0.9-3.8l0,0l0,0
					c0-0.2,0.1-0.5,0.2-0.7l0,0c0,0,0.1-0.1,0.1-0.1c0.4-1.2,1-2.3,1.6-3.4l0,0c0.3-0.2,0.6-0.4,0.9-0.6c0.3-0.1,0.5-0.2,0.8-0.2
					c0.4-0.1,0.7-0.2,1-0.4c0.3-0.2,0.6-0.5,1-0.8c0.4-0.3,0.8-0.4,1.3-0.5c-0.6-0.4-1.5-0.6-2.2-0.3c-0.3,0.1-0.7,0.3-1,0.5
					c-0.3,0.2-0.5,0.5-0.8,0.8c-0.1,0.2-0.2,0.4-0.3,0.5c-0.1,0.1-0.2,0.2-0.3,0.3l0,0c0,0,0,0,0,0c0,0,0,0,0,0c0.3-0.5,0.6-1,1-1.5
					c0.4-0.5,0.7-1,1.1-1.5l0,0c0.3-0.2,0.6-0.3,1-0.4c0.3,0,0.5-0.1,0.8-0.1c0.4,0,0.7-0.1,1-0.2c0.4-0.2,0.7-0.4,1.1-0.6
					c0.4-0.2,0.8-0.3,1.3-0.3c-0.5-0.5-1.3-0.8-2.1-0.7c-0.7,0.1-1.4,0.5-1.9,1c-0.1,0.2-0.3,0.3-0.4,0.5c-0.1,0.1-0.2,0.2-0.4,0.2
					c-0.1,0.1-0.2,0.3-0.3,0.4c0.1-0.1,0.2-0.3,0.3-0.4l0,0c0.8-0.9,1.6-1.7,2.5-2.5l0,0c0.2-0.1,0.3-0.1,0.5-0.1
					c0.2,0,0.3-0.1,0.5-0.1c0.3,0,0.5,0,0.8,0.1c0.3,0.1,0.7,0,1,0c0.4-0.1,0.7-0.3,1.1-0.4c0.4-0.1,0.9-0.1,1.3-0.1
					c-0.4-0.6-1.1-0.9-1.9-1c-0.7,0-1.4,0.2-2,0.7c-0.2,0.1-0.3,0.2-0.5,0.4c-0.1,0.1-0.2,0.1-0.4,0.1c0.3-0.2,0.5-0.4,0.8-0.6
					c0.4-0.3,0.7-0.5,1-0.7c0.3-0.2,0.6-0.4,0.8-0.5l0.5-0.3c0.1,0,0.1-0.1,0.1-0.1l-0.2-0.1c0,0,0,0,0,0c-0.1,0.1-0.3,0.2-0.5,0.3
					c-0.2,0.1-0.5,0.3-0.8,0.5l0,0l-0.2,0.2c0,0-0.1,0.1-0.1,0.1c0,0,0.1-0.1,0.1-0.1c0.1-0.1,0.2-0.2,0.2-0.2l0,0c0,0,0,0,0,0
					l0.1-0.4c0.1-0.5,0.6-0.7,1-0.9C-38.4-50.6-37.9-50.9-37.5-51.3 M-49.3-36.8L-49.3-36.8c0,0-0.1,0.1-0.1,0.1l0,0
					c-0.1,0.2-0.1,0.5-0.2,0.7l0,0c0.2-0.3,0.5-0.5,0.8-0.8c0.3-0.2,0.5-0.3,0.8-0.4c0.3-0.1,0.7-0.3,0.9-0.6
					c0.2-0.1,0.3-0.3,0.4-0.5c0.1-0.2,0.3-0.3,0.4-0.5c0.3-0.3,0.7-0.6,1.2-0.8c-0.7-0.3-1.6-0.3-2.3,0.1c-0.7,0.4-1.2,1-1.5,1.7
					c-0.1,0.2-0.2,0.4-0.3,0.6C-49.1-37-49.2-36.9-49.3-36.8 M-36.2-49.7c0.9-0.6,1.2-1.3,2.3-1.7c-0.7-0.6-1.7-0.7-2.6-0.3
					c-0.9,0.5-1.2,1.3-2,1.8c-0.1,0-0.1,0.1-0.2,0.1l0.2,0.1C-37.8-49.2-36.9-49.2-36.2-49.7"/>
			</g>
		</g>
		<g>
			<defs>
				<rect id="SVGID_5_" x="-83" y="-84.3" width="112.5" height="104.8"/>
			</defs>
			<clipPath id="SVGID_6_">
				<use xlink:href="#SVGID_5_"  style="overflow:visible;"/>
			</clipPath>
			<g id="Group_3" transform="translate(0)" class="st5">
				<path id="Path_3" class="st1" d="M-9.8-46.4c0.1,0.1,0.2,0.2,0.2,0.2c0-0.3,0-0.5,0-0.8c0.1-0.5,0.1-1.1,0-1.6
					c-0.1-0.3-0.3-0.6-0.5-0.8c-0.2-0.2-0.5-0.4-0.8-0.5c-0.7-0.4-1.3-0.8-1.9-1.4c0,0.2,0,0.5,0.1,0.7c0,0.2,0.1,0.4,0.1,0.6
					c0.1,0.3,0.3,0.6,0.5,0.8c0.2,0.2,0.4,0.4,0.6,0.6c0.2,0.2,0.5,0.4,0.7,0.6c0.4,0.3,0.7,0.7,0.8,1.1L-9.8-46.4L-9.8-46.4
					 M-2.1-29.9L-2.1-29.9C-2-30.2-2-30.4-2-30.6l0,0C-2-30.4-2-30.2-2.1-29.9 M-2-25.4c0-0.1,0-0.2,0-0.3l0,0
					C-2-25.6-2-25.5-2-25.4 M-2.2-25.1L-2.2-25.1L-2.2-25.1L-2.2-25.1z M-2.4-31.4L-2.4-31.4C-2.4-31.4-2.4-31.4-2.4-31.4
					C-2.4-31.5-2.4-31.4-2.4-31.4l0-0.7l0,0L-2.4-31.4z M-5.3-40.2L-5.3-40.2l-0.1-0.1L-5.3-40.2z M-6.7-42.7c0-0.1-0.1-0.2-0.1-0.3
					C-6.8-42.8-6.8-42.8-6.7-42.7z M-7.7-43.9C-7.7-43.9-7.8-43.9-7.7-43.9C-7.8-43.9-7.7-43.9-7.7-43.9l-0.4-0.6l0,0L-7.7-43.9z
					 M-10.7-46.9L-10.7-46.9c-0.1-0.1-0.1-0.1-0.2-0.2C-10.8-47.1-10.8-47-10.7-46.9 M-12.6-48.4L-12.6-48.4c0-0.1-0.1-0.1-0.1-0.2
					C-12.6-48.5-12.6-48.5-12.6-48.4 M-2.8-22.3L-2.8-22.3C-2.8-22.4-2.9-22.4-2.8-22.3C-2.9-22.4-2.8-22.4-2.8-22.3z M-2.9-22.3
					L-3-22.1l0,0.2l0-0.2L-2.9-22.3z M-5.5-15.3c-0.1,0-0.1,0.1-0.2,0.1l0,0C-5.6-15.3-5.5-15.3-5.5-15.3 M-7.4-12.9
					c-0.2,0.2-0.4,0.4-0.6,0.6C-7.8-12.6-7.6-12.7-7.4-12.9z M-8.4-11.3L-8.4-11.3l-0.2,0.2L-8.4-11.3z M-12.7-7.5
					c-0.3,0.1-0.5,0.2-0.8,0.3l0,0C-13.2-7.4-12.9-7.5-12.7-7.5z M-16.1-6L-16.1-6l-0.8,0.3L-16.1-6z M-17.8-4.8
					c-0.1,0-0.2,0.1-0.3,0.1C-18-4.7-17.9-4.8-17.8-4.8L-17.8-4.8 M-18.6-4.7c0,0-0.1,0-0.1,0C-18.7-4.7-18.6-4.7-18.6-4.7 M0.2-27
					c0.2-0.3,0.4-0.7,0.4-1.1c0-0.4,0-0.7-0.1-1.1c-0.1-0.4-0.1-0.8-0.2-1.2c0-0.5,0-1,0.1-1.5c-0.4,0.3-0.7,0.7-0.9,1.1
					c-0.1,0.2-0.2,0.3-0.3,0.5c-0.1,0.2-0.1,0.3-0.2,0.5C-1-29.4-1-29.1-1-28.8c0,0.3,0,0.7-0.1,1.1c0,0.3,0,0.5-0.1,0.8
					c0,0.3-0.2,0.5-0.4,0.7C-1.7-26-1.8-25.9-2-25.7l0,0.1c0-0.1,0-0.2,0-0.3c0.1-1.1,0.1-2.1,0.1-3.2c0-0.4,0-0.7-0.1-1.1
					c0,0,0-0.1,0-0.1c0,0,0,0.1,0,0.1c0.2-0.3,0.4-0.5,0.6-0.7c0.5-0.4,0.9-0.8,1.1-1.4C0-32.7,0-33,0-33.4c0-0.4-0.1-0.7-0.3-1
					c-0.1-0.2-0.1-0.4-0.2-0.6c-0.1-0.2-0.1-0.4-0.2-0.6c-0.1-0.5-0.2-1-0.2-1.5c-0.3,0.4-0.5,0.8-0.7,1.3c-0.1,0.3-0.2,0.7-0.2,1.1
					c0,0.7,0.1,1.4,0.2,2c0,0.3,0.1,0.5,0.1,0.8c0,0.3,0,0.5-0.2,0.8L-2-30.7c0,0,0,0,0,0.1c-0.1-0.6-0.1-1.1-0.2-1.6
					c-0.2-0.9-0.4-1.8-0.6-2.7c-0.1,0.1-0.1,0.2-0.1,0.3l0,0c0-0.1,0-0.2,0.1-0.3c0-0.1,0-0.2-0.1-0.3c0,0.1,0,0.2,0.1,0.3l0,0
					c0.1-0.3,0.3-0.5,0.5-0.8c0.4-0.4,0.7-1,0.8-1.5c0.1-0.4,0.1-0.7,0-1.1C-1.6-38.7-1.8-39-2-39.3c-0.2-0.3-0.4-0.7-0.6-1
					c-0.2-0.4-0.4-0.9-0.5-1.4c-0.2,0.4-0.4,0.9-0.4,1.3c0,0.2,0,0.4,0,0.6c0,0.2,0,0.3,0,0.5c0.1,0.3,0.1,0.6,0.3,0.9
					c0.1,0.3,0.2,0.6,0.3,0.9c0.1,0.2,0.2,0.5,0.2,0.7c0.1,0.3,0,0.5-0.1,0.8c-0.1,0.2-0.1,0.3-0.2,0.5v0.1c-0.4-1.4-0.9-2.7-1.6-4
					l0,0c0.1-0.3,0.2-0.6,0.3-0.8c0.2-0.3,0.3-0.6,0.4-0.9c0.1-0.2,0.1-0.5,0.1-0.7c0-0.3-0.1-0.7-0.2-1C-4-43-4.2-43.3-4.4-43.5
					c-0.6-0.6-1-1.3-1.4-2.1c-0.3,0.8-0.3,1.6,0,2.3c0.1,0.3,0.2,0.6,0.4,0.9c0.2,0.3,0.3,0.6,0.5,0.8c0.1,0.2,0.2,0.4,0.3,0.7
					c0.1,0.2,0.1,0.5,0.1,0.7l-0.1,0.5c0,0,0,0,0,0.1l0,0c0,0.2,0.1,0.4,0.1,0.7l0,0c0-0.2-0.1-0.4-0.1-0.7c-0.5-1-1.1-2-1.8-3
					c-0.1-0.2-0.2-0.3-0.3-0.5c0-0.3,0.1-0.6,0.2-0.8c0.2-0.5,0.3-1.1,0.2-1.6c0-0.3-0.2-0.7-0.4-0.9c-0.1-0.1-0.2-0.2-0.3-0.4
					c-0.1-0.1-0.2-0.2-0.4-0.3c-0.3-0.2-0.5-0.5-0.8-0.7c-0.2-0.1-0.3-0.3-0.4-0.5c-0.2-0.2-0.3-0.4-0.4-0.6c-0.1,0.8,0,1.6,0.4,2.2
					c0.1,0.3,0.3,0.5,0.5,0.8c0.2,0.2,0.4,0.5,0.6,0.7c0.4,0.3,0.6,0.8,0.6,1.3l0,0.5c0,0,0,0,0,0c0,0.1,0.1,0.1,0.1,0.2
					c0-0.1-0.1-0.1-0.1-0.2l0,0c-0.8-1-1.7-2-2.6-2.9c0,0,0,0,0,0.1c0,0,0,0,0-0.1c-0.1-0.1-0.2-0.2-0.2-0.2
					c0.1,0.2,0.2,0.4,0.3,0.6l0,0c-0.1-0.2-0.2-0.4-0.3-0.6c-0.7-0.6-1.4-1.2-2.1-1.8c-0.3-0.2-0.5-0.4-0.8-0.5l0,0
					c-0.1-0.2-0.1-0.5-0.1-0.8c0-0.5-0.1-1-0.3-1.5c-0.3-0.5-0.8-0.9-1.4-1.1c-0.3-0.1-0.6-0.2-0.9-0.4c-0.4-0.2-0.7-0.4-1-0.7
					c0.1,0.7,0.5,1.4,1,1.9c0.5,0.4,0.9,0.7,1.4,1c0.3,0.3,0.8,0.5,1,0.9L-13-49c0,0,0,0,0,0l0,0l0.2,0.2c0.1,0.1,0.2,0.2,0.2,0.2
					c0,0-0.1-0.1-0.2-0.2c-0.1-0.1-0.2-0.2-0.2-0.2l0,0c-0.3-0.2-0.6-0.4-0.8-0.5c-0.2-0.1-0.4-0.2-0.5-0.3c0,0,0,0,0,0
					c-0.1,0-0.1-0.1-0.2-0.1c-0.8-0.5-1.1-1.3-2-1.8c-0.9-0.4-1.9-0.2-2.6,0.3c1.1,0.3,1.4,1.1,2.3,1.7c0.7,0.4,1.6,0.4,2.3,0
					c0,0,0.1,0,0.1,0.1c0.1,0.1,0.3,0.2,0.5,0.3c0.2,0.1,0.5,0.3,0.8,0.5c0.3,0.2,0.6,0.5,1,0.7c0.2,0.2,0.5,0.4,0.8,0.6
					c0,0,0.1,0,0.1,0l0,0c0,0-0.1,0-0.1,0l0,0c-0.1,0-0.3-0.1-0.4-0.1c-0.2-0.1-0.3-0.2-0.5-0.4c-0.6-0.4-1.3-0.7-2-0.7
					c-0.7,0-1.4,0.4-1.9,1c0.4,0,0.9,0,1.3,0.1c0.4,0.1,0.8,0.3,1.1,0.4c0.3,0.1,0.7,0.1,1,0c0.3-0.1,0.5-0.1,0.8-0.1
					c0.2,0,0.3,0,0.5,0.1c0.2,0,0.3,0.1,0.5,0.1c-0.2-0.2-0.3-0.3-0.5-0.4c0.2,0.1,0.3,0.3,0.5,0.4c0,0,0,0,0,0l0,0c0,0,0,0,0,0
					c0.9,0.8,1.7,1.6,2.5,2.5l0,0c0.1,0.1,0.2,0.2,0.3,0.4c-0.1-0.1-0.2-0.3-0.3-0.4c-0.1,0-0.3-0.1-0.4-0.2
					C-8.8-44.8-8.9-45-9-45.1c-0.5-0.5-1.2-0.9-1.9-1c-0.8-0.1-1.5,0.2-2.1,0.7c0.4,0,0.9,0.1,1.3,0.3c0.4,0.2,0.7,0.4,1.1,0.6
					c0.3,0.1,0.7,0.2,1,0.2c0.3,0,0.6,0,0.8,0.1c0.3,0.1,0.7,0.2,1,0.4l0,0c0.4,0.5,0.8,1,1.1,1.5c0.3,0.5,0.7,1,1,1.5
					c0,0,0.1,0,0.1,0.1l0,0c0,0-0.1,0-0.1-0.1C-5.8-41-5.9-41.1-6-41.2c-0.1-0.2-0.3-0.3-0.3-0.5c-0.2-0.3-0.5-0.6-0.8-0.8
					c-0.3-0.2-0.6-0.4-1-0.5c-0.7-0.2-1.6-0.1-2.2,0.3c0.4,0.1,0.9,0.3,1.2,0.5c0.3,0.3,0.7,0.5,1,0.8c0.3,0.2,0.6,0.3,1,0.4
					c0.3,0,0.6,0.1,0.8,0.2c0.3,0.2,0.6,0.4,0.9,0.6l0,0c0,0,0,0,0,0c0,0,0,0,0,0c0.6,1.1,1.1,2.2,1.6,3.4C-3.8-36.9-3.9-37-4-37.2
					c-0.1-0.2-0.2-0.4-0.3-0.6c-0.3-0.7-0.8-1.3-1.5-1.7c-0.7-0.4-1.6-0.4-2.3-0.1c0.4,0.2,0.8,0.4,1.2,0.8c0.2,0.2,0.3,0.3,0.4,0.5
					c0.1,0.2,0.3,0.3,0.4,0.5c0.3,0.3,0.6,0.5,0.9,0.6c0.3,0.1,0.5,0.2,0.8,0.4c0.3,0.2,0.6,0.5,0.8,0.8c0,0,0,0,0,0c0,0,0,0,0,0
					c0.4,1.2,0.7,2.5,0.9,3.8c0,0,0.1,0.1,0.1,0.1c0,0-0.1-0.1-0.1-0.1l0,0c-0.1-0.1-0.2-0.3-0.2-0.4c-0.1-0.2-0.1-0.4-0.1-0.7
					c-0.2-0.8-0.6-1.5-1.2-2c-0.3-0.2-0.7-0.4-1-0.5c-0.4-0.1-0.9-0.1-1.3,0c0.4,0.3,0.8,0.6,1,1c0.3,0.4,0.4,0.8,0.7,1.1
					c0.2,0.3,0.5,0.6,0.8,0.8c0.3,0.2,0.5,0.3,0.7,0.5c0.3,0.3,0.5,0.6,0.7,0.9l0,0c0.1,0.8,0.2,1.5,0.2,2.3c0,0.6,0,1.1,0,1.7
					c-0.1-0.1-0.1-0.3-0.1-0.4c0-0.2,0-0.5,0-0.7c0-0.4-0.1-0.8-0.2-1.2c-0.1-0.4-0.3-0.7-0.6-1c-0.6-0.6-1.4-1-2.2-1
					c0.4,0.3,0.6,0.8,0.8,1.2c0.1,0.2,0.2,0.4,0.2,0.6c0.1,0.2,0.1,0.4,0.2,0.6c0.2,0.4,0.4,0.7,0.7,1c0.2,0.2,0.5,0.4,0.6,0.7
					c0.2,0.3,0.4,0.7,0.5,1.1c0,0,0,0,0,0l0,0c0,0,0,0,0,0c0,0.2,0,0.4,0,0.6c-0.1,1.1-0.3,2.1-0.5,3.2l-0.1,0.3l0,0v0v0
					C-2.9-22.6-3-22.8-2.9-23c0-0.2,0.1-0.5,0.1-0.7c0.1-0.4,0.1-0.8,0-1.3c-0.1-0.4-0.2-0.8-0.4-1.2c-0.2-0.4-0.5-0.7-0.8-0.9
					c-0.4-0.3-0.8-0.4-1.2-0.5c0.3,0.4,0.5,0.9,0.6,1.4c0,0.2,0.1,0.5,0.1,0.7c0,0.2,0.1,0.5,0.1,0.7c0.1,0.4,0.3,0.8,0.5,1.1
					c0.2,0.3,0.4,0.5,0.5,0.8c0.1,0.4,0.2,0.8,0.3,1.2l0,0c0,0,0,0,0,0l0,0c0,0,0,0,0,0l-0.1,0.4l-0.2,0.8c-0.1,0.3-0.2,0.5-0.3,0.8
					C-4-19-4.3-18.3-4.6-17.6c0,0,0,0,0,0.1c0,0,0,0,0-0.1c0-0.2,0-0.3,0-0.5c0.1-0.2,0.2-0.5,0.3-0.7c0.2-0.4,0.3-0.8,0.3-1.3
					c0-0.4,0-0.8-0.1-1.2c-0.3-0.9-0.9-1.5-1.8-1.8c0.1,0.2,0.2,0.5,0.2,0.8c0.1,0.2,0.1,0.5,0.1,0.7c0,0.5-0.1,1-0.1,1.4
					c0,0.2,0,0.4,0.1,0.6c0,0.2,0.1,0.4,0.2,0.6c0.1,0.3,0.3,0.6,0.3,0.9c0.1,0.4,0.1,0.8,0,1.3c0.1-0.2,0.2-0.4,0.3-0.6
					C-4.8-17.3-4.9-17-5-16.9c0,0,0,0,0,0l0,0l0.4-0.7l0,0L-5-16.8l0,0v0c-0.7,1.3-1.5,2.5-2.4,3.7c0,0,0,0,0,0.1c0,0,0,0,0-0.1l0,0
					c0-0.2,0.1-0.3,0.2-0.5c0.1-0.2,0.3-0.4,0.4-0.6c0.1-0.2,0.2-0.4,0.3-0.6c0.1-0.2,0.2-0.4,0.2-0.6c0.1-0.2,0.1-0.4,0.1-0.6
					c0-0.2,0-0.4,0-0.6c0-0.2-0.1-0.4-0.1-0.6c-0.1-0.2-0.2-0.4-0.3-0.6c-0.2-0.4-0.6-0.7-1-1c0.1,0.3,0.1,0.5,0.1,0.8
					c0,0.3,0,0.5-0.1,0.8c-0.1,0.5-0.3,0.9-0.4,1.4c-0.1,0.4-0.1,0.8,0,1.3c0.1,0.3,0.1,0.7,0.1,1c0,0.4-0.1,0.8-0.2,1.3
					c0.1-0.1,0.2-0.3,0.3-0.4c-0.1,0.1-0.2,0.3-0.3,0.4c0,0,0,0,0,0c0,0,0,0,0,0c-0.9,1.1-1.9,2-2.9,2.9c-0.1,0.1-0.2,0.2-0.3,0.3
					c0,0,0,0,0,0.1c0,0,0,0,0-0.1c0.1-0.2,0.2-0.3,0.3-0.4c0.2-0.2,0.4-0.4,0.6-0.5c0.3-0.3,0.6-0.7,0.8-1.1
					c0.2-0.4,0.4-0.8,0.4-1.3C-9-13.4-9.3-14.4-10-15c0,0.1,0,0.3,0,0.4c0,0.1,0,0.3-0.1,0.4c-0.1,0.3-0.1,0.5-0.2,0.7
					c-0.2,0.5-0.5,0.9-0.7,1.3c-0.2,0.4-0.3,0.8-0.3,1.3c0,0.3,0,0.7-0.1,1c-0.1,0.4-0.3,0.8-0.5,1.2l0,0c-1.2,0.9-2.6,1.8-4,2.4
					c0,0,0,0.1,0,0.1c0,0,0-0.1,0-0.1l0,0c0.1-0.1,0.2-0.3,0.3-0.4c0.2-0.1,0.5-0.3,0.7-0.4c0.8-0.4,1.4-1.2,1.8-2
					c0.3-0.9,0.2-1.9-0.3-2.7c-0.1,0.3-0.2,0.5-0.3,0.8c-0.1,0.2-0.3,0.5-0.4,0.7c-0.2,0.2-0.3,0.4-0.5,0.6
					c-0.2,0.2-0.3,0.4-0.5,0.6c-0.3,0.4-0.5,0.8-0.6,1.2c-0.1,0.3-0.2,0.7-0.3,1c-0.2,0.4-0.5,0.7-0.8,1.1c0.1-0.1,0.3-0.1,0.4-0.2
					l-0.4,0.2c0,0,0,0,0,0l0,0c0,0,0,0,0,0c-1.2,0.6-2.5,1-3.8,1.3c0,0-0.1,0-0.1,0c0,0,0,0,0,0.1c0.1,0.1,0.3,0.3,0.4,0.4
					c0.7-0.2,1.4-0.4,2.1-0.7l0,0c0.1,0,0.2,0.1,0.3,0.1c0.2,0.1,0.5,0.2,0.7,0.4c0.3,0.2,0.7,0.4,1,0.6c0.3,0.1,0.6,0.2,0.9,0.2
					c0.2,0,0.5,0,0.7,0c0.2,0,0.4-0.1,0.6-0.2c0.4-0.2,0.8-0.4,1.1-0.6c0.4-0.3,0.7-0.5,1.2-0.8c0.2-0.1,0.5-0.3,0.7-0.4
					c0.3-0.1,0.6-0.3,0.9-0.4c-0.5-0.2-1.1-0.3-1.7-0.3c-0.4,0-0.9,0-1.3,0.1c-0.4,0.1-0.8,0.2-1.1,0.4c-0.4,0.2-0.7,0.3-1.1,0.5
					c-0.5,0.3-1.2,0.5-1.8,0.4l-0.6-0.2c0,0,0,0,0,0c1.7-0.7,3.3-1.5,4.8-2.5c0,0,0,0,0,0h0c0.1-0.1,0.2-0.1,0.3-0.2
					c-0.1,0.1-0.2,0.2-0.3,0.2c0.4,0,0.7,0.1,1,0.3c0.6,0.3,1.3,0.4,2,0.3C-9.1-6.8-8.3-7.3-7.9-8c0.6-0.8,1.4-1.5,2.3-2.1
					c-0.5-0.1-1.1,0-1.6,0C-7.6-10-8-9.8-8.4-9.6c-0.3,0.2-0.7,0.4-1,0.7c-0.3,0.2-0.6,0.5-0.9,0.7c-0.2,0.2-0.5,0.4-0.8,0.5
					c-0.3,0.2-0.6,0.2-0.9,0.2l-0.6-0.1l-0.1,0c0.7-0.5,1.4-1,2-1.6c0.7-0.6,1.3-1.2,2-1.9c-0.1,0-0.3,0.1-0.4,0.1l0,0
					c0.1-0.1,0.3-0.1,0.4-0.1c0-0.1,0.1-0.1,0.2-0.2c0,0.1-0.1,0.1-0.2,0.2c0.3,0,0.7,0,1,0c0.7,0.1,1.4,0.1,2-0.1
					c0.4-0.1,0.7-0.4,1-0.7c0.3-0.3,0.5-0.7,0.7-1c0.2-0.4,0.4-0.8,0.7-1.2c0.3-0.5,0.6-0.9,1-1.3c-1,0.1-1.9,0.4-2.6,1
					c-0.1,0.1-0.3,0.3-0.4,0.4c-0.1,0.1-0.3,0.3-0.4,0.4c-0.1,0.1-0.2,0.3-0.3,0.5s-0.3,0.3-0.4,0.4c-0.2,0.2-0.4,0.5-0.6,0.7
					c-0.2,0.2-0.5,0.4-0.8,0.4c-0.2,0-0.4,0.1-0.6,0.1l0,0c1.1-1.3,2.2-2.6,3-4.1l0,0c0.3-0.1,0.7-0.2,1-0.2c0.4,0,0.7-0.1,1.1-0.2
					c0.3-0.1,0.5-0.2,0.8-0.3c0.2-0.1,0.3-0.2,0.5-0.4c0.1-0.1,0.2-0.3,0.3-0.5c0.2-0.3,0.3-0.7,0.4-1.1c0.2-1,0.6-1.9,1.1-2.7
					c-0.3,0.1-0.5,0.2-0.8,0.3c-0.2,0.1-0.4,0.2-0.6,0.4c-0.3,0.2-0.6,0.5-0.8,0.8c-0.2,0.3-0.4,0.6-0.6,0.9c-0.2,0.3-0.3,0.7-0.5,1
					c-0.1,0.2-0.3,0.5-0.4,0.8C-4-16.3-4.2-16.1-4.5-16l-0.6,0.2l0,0c0.7-1.2,1.3-2.5,1.8-3.8c0.1-0.2,0.2-0.4,0.2-0.7
					c-0.1,0.1-0.2,0.2-0.3,0.3l0,0l0.1-0.2L-3.4-20c0.1-0.1,0.2-0.2,0.3-0.3l0,0l0-0.1l0.1-0.3l-0.1,0.3l0,0.1
					c0.3-0.2,0.6-0.3,0.9-0.4c0.6-0.2,1.2-0.5,1.7-0.9c0.3-0.3,0.5-0.6,0.6-1c0.1-0.4,0.2-0.7,0.2-1.1c0-0.4,0-0.8,0.1-1.3
					c0-0.2,0.1-0.5,0.1-0.7c0.1-0.3,0.2-0.5,0.3-0.8c-0.4,0.3-0.8,0.6-1.2,0.9c-0.3,0.3-0.5,0.6-0.6,1c-0.2,0.3-0.3,0.7-0.3,1
					c-0.1,0.3-0.2,0.7-0.3,1C-1.8-22.2-1.9-22-2-21.7c-0.1,0.3-0.3,0.5-0.5,0.7L-3-20.7l0,0.1l0.2-0.5l0.2-0.8l0.1-0.4l0.1-0.4
					c0.2-0.8,0.3-1.7,0.4-2.5l0,0c0,0-0.1,0.1-0.1,0.1c0,0,0.1-0.1,0.1-0.1l0,0c0.2-0.2,0.5-0.4,0.8-0.6C-0.7-26.1-0.2-26.5,0.2-27"
					/>
			</g>
		</g>
		<g>
			<defs>
				<rect id="SVGID_7_" x="-83" y="-84.3" width="112.5" height="104.8"/>
			</defs>
			<clipPath id="SVGID_8_">
				<use xlink:href="#SVGID_7_"  style="overflow:visible;"/>
			</clipPath>
			<g id="Group_4" transform="translate(0)" class="st6">
				<path id="Path_4" class="st1" d="M-26.1-16.7c1.9,0.3,2.1,0,2.4-0.4c0.2,0.7,1.4,0.6,2.4,0.6c-2.5,1.2-1.9,3.6-2.5,6
					C-24.4-12.9-23.5-15.3-26.1-16.7 M-26.7-38.2c-2.8-1.2-5.5-2.4-8.3-3.6c-0.7-0.5-1.7-0.3-2.1,0.4c-0.1,0.1-0.2,0.3-0.2,0.5
					c-1.3,2.6-2.6,5.2-4,7.8c-0.6,1-0.5,2.3,0.3,3.2c2.5,3.4,4.8,7,7.3,10.4c1,1.4,1.5,3.1,1.2,4.7c-0.1,1.3-0.2,2.6-0.3,3.9
					c3.8,0.4,7.3,2,10,4.7c1.9-0.3,3.8-0.9,5.6-1.7c-0.1-2.4-0.2-4.7-0.3-7.1c0-1,0.2-1.9,0.5-2.8c1.1-2.7,2.4-5.3,3.4-8.1
					c0.4-1.4,0.7-2.9,0.9-4.4c-1.7,1.8-3.1,3.2-4.5,4.7c-0.4,0.7-1.3,0.9-2,0.4c0,0,0,0,0,0c-1-0.6-2-1.1-3.1-1.7
					c-0.5,2.5-1,4.9-1.4,7.2c-1-1.7-1.7-3.5-2.6-5.1c-0.5-1.1-1.3-2-2.1-2.8c-1.9-1.7-3.9-3.2-5.8-4.9l1.2-2.6
					c0.8,0.2,1.4,0.5,2.1,0.6c1.9,0.6,4-0.3,4.9-2.2C-25.8-37.3-25.9-37.8-26.7-38.2 M-28.2-43.4c1.8-3.3,1.7-3.6-1.9-4.9
					c-0.4-0.2-0.8-0.3-1.2-0.3c-0.4,0-0.7,0.2-0.9,0.5c-0.9,1.7-1.7,3.4-2.6,5.2l5.1,2.1C-29.1-41.7-28.6-42.6-28.2-43.4
					 M-21.5-40.4c0.9-1.3,2.2-2.7,1.3-3.6c-1-1-2.3-1.8-3.6-2.4c-0.3-0.1-0.5-0.2-0.8-0.2c-0.4,0-0.7,0.2-0.8,0.5
					c-1.1,1.9-2.1,3.8-3.1,5.7c1.4,1.5,4.9,1,4,4.6C-23.6-37.4-22.5-38.9-21.5-40.4 M-15.4-37.2c0.2-0.3,0.7-0.8,0.6-1.1
					c-0.1-0.3-0.3-0.6-0.6-0.8c-0.9-0.8-1.8-1.6-2.7-2.4c-0.8-0.6-1.3-0.5-1.9,0.4c-1.2,2-2.5,3.9-3.8,5.9c-1.8,2.7-1.8,2.8,1,4.7
					c0,0,0.1,0,0.1,0.1c0.7,0.7,1.3,0.5,1.9-0.2C-19-32.9-17.2-35-15.4-37.2 M-13.8-36.1c-0.2-0.2-0.4-0.3-0.7-0.5
					c-1.7,2-3.4,3.9-5,5.9c-1.5,1.7-1.4,2.4,0.5,3.6c0.5,0.2,1,0.2,1.4-0.1c1.4-1.2,2.7-2.6,4-3.8C-11.1-33.3-11.1-33.9-13.8-36.1"
					/>
			</g>
		</g>
		<g>
			<defs>
				<rect id="SVGID_9_" x="-83" y="-84.3" width="112.5" height="104.8"/>
			</defs>
			<clipPath id="SVGID_10_">
				<use xlink:href="#SVGID_9_"  style="overflow:visible;"/>
			</clipPath>
			<g id="Group_5" transform="translate(0)" class="st7">
				<path id="Path_5" class="st1" d="M-18.9-1.9c-2.8-3.5-6.6-6.1-10.9-7.2c-4.4-1-10.4,1.4-10.4,1.4l-8.8,3.6
					c-2.7,1.1-5.5,1.9-8.3,2.3c-3.2,0.5-6.5-0.5-8.9-2.7c1.9,2.2,4.5,3.7,7.3,4.2c4.6,0.6,10.7-1.9,10.7-1.9
					c4.2-1.9,10.7-4.3,10.7-4.3c2.4-0.9,5-1.3,7.6-1.2C-25.6-7.4-21.6-5.3-18.9-1.9 M-18.6-1.6c0,0-0.1-0.1-0.3-0.3
					C-18.8-1.8-18.7-1.7-18.6-1.6 M-29.6-0.3c-0.5-0.3-0.9-0.6-1.4-0.9c0.1-0.5,0.2-1.1,0.4-1.6c0,0,0,0,0,0
					c-0.4,0.3-0.8,0.7-1.2,1.1c0,0,0,0,0,0c0,0,0,0,0,0c-0.5-0.3-0.9-0.6-1.3-0.9l0,0c0,0,0,0,0,0c0.2,0.5,0.4,1,0.6,1.5
					c0,0,0,0,0,0c-0.3,0.3-0.7,0.6-1,0.9c-0.1,0.1-0.1,0.1-0.2,0.2h0c0.5,0,1-0.1,1.6-0.1c0,0,0,0,0.1,0c0.2,0.5,0.4,1,0.6,1.5
					c0,0,0,0,0,0c0,0,0,0,0,0c0.1-0.5,0.2-1,0.3-1.6c0,0,0,0,0,0c0.5,0,1-0.1,1.4-0.1C-29.7-0.3-29.6-0.3-29.6-0.3L-29.6-0.3
					 M-34.4-2.4L-34.4-2.4 M-32.4,2.2c0,0,0-0.1,0-0.1l0,0c0,0,0,0,0,0C-32.5,2.5-32.8,3-33,3.4c-0.3,0.5-0.8,0.9-1.3,1.2
					c-0.3,0.2-0.6,0.3-0.9,0.3C-36.2,5.1-37.1,5-38,4.6c-0.8-0.4-1.4-1-1.8-1.8c-0.2-0.3-0.3-0.7-0.3-1.1c-0.1-0.6-0.1-1.3,0.1-1.9
					c0.2-0.6,0.5-1.2,1-1.7c0.4-0.4,0.9-0.7,1.5-0.9c0.3-0.1,0.5-0.1,0.8-0.2c0.7-0.1,1.3,0,2,0.3c0.1,0.1,0.3,0.1,0.4,0.2l0,0
					c-0.6-0.5-1.2-0.8-1.9-1c-1.3-0.4-2.6-0.2-3.8,0.5c-0.3,0.2-0.6,0.4-0.9,0.7c-0.6,0.6-1,1.3-1.2,2.1C-42.4,1-42.4,2.1-42,3.2
					c0.1,0.3,0.3,0.7,0.5,1c0.2,0.3,0.4,0.6,0.7,0.9c0.6,0.7,1.4,1.2,2.3,1.4c0.7,0.2,1.5,0.2,2.2,0.1c0.3-0.1,0.5-0.1,0.8-0.2
					c0.4-0.1,0.8-0.3,1.1-0.6c0.4-0.3,0.8-0.7,1.1-1.1C-32.8,3.9-32.5,3.1-32.4,2.2 M-7.9,11.1c-3.5-4.3-8.8-6.7-14.3-6.5
					c-3,0.4-5.9,1.2-8.6,2.4c-3.1,1.4-6.3,2.7-9.6,3.8c-2,0.7-4,1.1-6.1,1.2c-5.1,0.2-9.6-4.4-9.6-4.4c5.2,6.5,10.7,6.1,10.7,6.1
					c3.4-0.2,6.7-1,9.8-2.3c3.5-1.6,10.4-4.2,10.4-4.2c2.3-0.8,4.8-1.1,7.2-1C-14.2,6.8-10.7,8.5-7.9,11.1"/>
			</g>
		</g>
		<g>
			<defs>
				<rect id="SVGID_11_" x="-83" y="-84.3" width="112.5" height="104.8"/>
			</defs>
			<clipPath id="SVGID_12_">
				<use xlink:href="#SVGID_11_"  style="overflow:visible;"/>
			</clipPath>
			<g id="Group_6" transform="translate(0)" class="st8">
				<path id="Path_6" class="st1" d="M-34.3,17l2.1-1.6l-1.5-0.3l-1.9,1.5l0.3-1.8l-1.3-0.2l-0.8,4.5l1.3,0.2l0.2-1.2l0.6-0.4
					l0.8,1.9l1.5,0.3L-34.3,17z M-31,20.1l0.1-1.3l-1.3-0.2l-0.1,1.3L-31,20.1z M-27.1,17.7l1.8-1.9l-1.5-0.1l-1.7,1.8l0.1-1.9
					l-1.3-0.1l-0.2,4.6l1.3,0.1l0-1.2l0.5-0.5l1.1,1.7l1.5,0.1L-27.1,17.7z M-23.3,19l-1.3,0l0,1.3l1.3,0L-23.3,19z M-20.7,16.6
					l1.4-0.1l-0.1-1.1l-4,0.4l0.1,1.1l1.4-0.1l0.3,3.5l1.3-0.1L-20.7,16.6z M-18.8,19.9l1.3-0.2l-0.2-1.3l-1.3,0.2L-18.8,19.9z
					 M-15.9,17c-0.2-0.6,0.1-1.2,0.7-1.4c0,0,0,0,0,0c0.4-0.1,0.8,0,1.1,0.3l0.8-0.9c-0.6-0.5-1.4-0.7-2.1-0.5
					c-1.3,0.3-2.1,1.5-1.8,2.8c0,0,0,0.1,0,0.1l0,0c0.3,1.3,1.7,2.1,3,1.7c0.8-0.2,1.4-0.7,1.6-1.5l-1.1-0.4
					c-0.1,0.4-0.5,0.7-0.9,0.8C-15.1,18.1-15.7,17.7-15.9,17C-15.9,17.1-15.9,17-15.9,17L-15.9,17z M-10.2,17.8l-0.4-1.2l-1.2,0.4
					l0.4,1.2L-10.2,17.8z"/>
			</g>
		</g>
		<g>
			<defs>
				<rect id="SVGID_13_" x="-83" y="-84.3" width="112.5" height="104.8"/>
			</defs>
			<clipPath id="SVGID_14_">
				<use xlink:href="#SVGID_13_"  style="overflow:visible;"/>
			</clipPath>
			<g id="Group_7" transform="translate(0)" class="st9">
				<path id="Path_7" class="st1" d="M-31.3-51.8l2.2-0.3l-0.1-0.6l-1.3,0.2L-30-53c0.5-0.5,0.7-0.8,0.6-1.3l0,0
					c-0.1-0.5-0.5-0.9-1-0.8c0,0-0.1,0-0.1,0c-0.5,0.1-0.9,0.4-1,0.8l0.5,0.3c0.2-0.3,0.3-0.5,0.6-0.5c0.2,0,0.4,0.1,0.4,0.3
					c0,0,0,0,0,0.1c0,0.2-0.1,0.4-0.4,0.8l-0.9,1L-31.3-51.8z M-26.7-53.7c0,0.5-0.2,1-0.6,1c-0.4,0-0.7-0.4-0.7-0.9l0,0
					c0-0.6,0.2-1,0.6-1C-27-54.7-26.7-54.3-26.7-53.7z M-26-53.8L-26-53.8c0.1-0.7-0.4-1.4-1.2-1.5c-0.7-0.1-1.4,0.4-1.5,1.2
					c0,0.1,0,0.3,0,0.4l0,0c-0.1,0.7,0.4,1.4,1.2,1.5c0.7,0.1,1.4-0.4,1.5-1.2C-26-53.5-26-53.6-26-53.8 M-24.4-52.1l0.2-3l-0.5,0
					l-0.9,0.2l0.1,0.6l0.5-0.1l-0.2,2.4L-24.4-52.1z M-21.5-53.3L-21.5-53.3c-0.1,0.5-0.4,0.9-0.8,0.8c-0.4-0.1-0.6-0.5-0.5-1l0,0
					c0.1-0.5,0.4-0.9,0.8-0.8S-21.4-53.8-21.5-53.3 M-21.9-54.9c-0.8-0.1-1.5,0.5-1.6,1.3c0,0,0,0,0,0.1l0,0
					c-0.2,0.7,0.2,1.5,0.9,1.7s1.5-0.2,1.7-0.9c0-0.1,0.1-0.3,0.1-0.4l0,0C-20.6-53.9-21.1-54.7-21.9-54.9
					C-21.9-54.9-21.9-54.9-21.9-54.9"/>
			</g>
		</g>
	</g>
</g>
</svg>
