<svg id="Group_19" data-name="Group 19" xmlns="http://www.w3.org/2000/svg" xmlns:xlink="http://www.w3.org/1999/xlink" width="64" height="64" viewBox="0 0 64 64">
  <defs>
    <clipPath id="clip-path">
      <rect id="Rectangle_71" data-name="Rectangle 71" width="64" height="64" fill="none"/>
    </clipPath>
  </defs>
  <g id="Group_18" data-name="Group 18" clip-path="url(#clip-path)">
    <path id="Path_16" data-name="Path 16" d="M57.727,45.071a30.159,30.159,0,0,1-4.317,7.981c.032.007.064.01.1.018,1.1.285,2.2.611,3.3.879a1.624,1.624,0,0,0,2.168-.913c.528-1,1.087-1.984,1.611-2.988a1.8,1.8,0,0,0-.277-2.042c-.8-.906-1.593-1.815-2.4-2.709a2.632,2.632,0,0,1-.183-.227M4.769,29.747c-1.178.4-2.379.732-3.566,1.106A1.418,1.418,0,0,0,.055,32.124c-.028.62-.041,1.24-.048,1.861H0c0,.214,0,.429,0,.644,0,.065,0,.13,0,.2H0c0,.423,0,.845,0,1.268a1.66,1.66,0,0,0,1.165,1.765q1.434.506,2.9.919a4.344,4.344,0,0,1,.7.254,32,32,0,0,1,0-9.281m1.5-6.009a30.155,30.155,0,0,1,4.314-7.982c-.031-.006-.062-.01-.094-.018-1.1-.285-2.2-.611-3.3-.879a1.624,1.624,0,0,0-2.168.913c-.528,1-1.087,1.984-1.61,2.988A1.8,1.8,0,0,0,3.688,20.8c.8.906,1.593,1.815,2.4,2.71a2.521,2.521,0,0,1,.183.227M14.7,11.353a27.126,27.126,0,0,1,7.424-4.593c-.01-.01-.021-.017-.031-.028q-1.3-1.319-2.582-2.659a1.588,1.588,0,0,0-2.146-.336q-1.282.8-2.572,1.585a1.916,1.916,0,0,0-.955,2.368c.175.9.686,2.551.861,3.662M32,4.8a25.9,25.9,0,0,1,4.291.357c-.362-1.222-.683-2.459-1-3.695A1.649,1.649,0,0,0,33.582.007q-1.562-.012-3.124,0a1.573,1.573,0,0,0-1.67,1.275q-.473,1.562-.865,3.153a4.608,4.608,0,0,1-.239.73A25.924,25.924,0,0,1,32,4.8M50.169,7.76a1.863,1.863,0,0,0-.859-2.326c-.872-.559-1.764-1.084-2.637-1.643A1.544,1.544,0,0,0,44.625,4Q43.357,5.283,42.1,6.576a2.577,2.577,0,0,1-.207.191,27.148,27.148,0,0,1,7.435,4.613c.005-.026.007-.051.013-.077q.4-1.776.828-3.543m8.3,26.644c0-15.672-11.834-28.376-26.431-28.376S5.6,18.733,5.6,34.4A29.894,29.894,0,0,0,8.721,47.769c.413.425,2.973,2.787,7.561,1.231,0,0,2.269-.869,3.9-1.565A19.13,19.13,0,0,1,15.053,34.4c0-10.07,7.6-18.233,16.983-18.233S49.018,24.335,49.018,34.4A18.185,18.185,0,0,1,37.534,51.659l5,6.333,1.4,1.755A28.656,28.656,0,0,0,58.467,34.4M60.19,21.013a1.886,1.886,0,0,0,.252-2.45q-.706-1.27-1.367-2.57c-.5-.977-1.2-1.369-2.046-1.142-1.183.316-2.37.614-3.556.918-.015,0-.03.005-.045.008a30.155,30.155,0,0,1,4.307,7.983c.809-.925,1.634-1.834,2.456-2.747M64,33.985h0c0-.423,0-.845,0-1.268a1.66,1.66,0,0,0-1.165-1.764q-1.434-.507-2.9-.919a4.387,4.387,0,0,1-.7-.253,31.952,31.952,0,0,1-.007,9.282c1.179-.4,2.379-.733,3.567-1.107a1.417,1.417,0,0,0,1.148-1.271c.028-.62.041-1.24.048-1.861H64c0-.215,0-.43,0-.645,0-.064,0-.129,0-.194" transform="translate(0 -0.001)" fill="#d60812"/>
    <path id="Path_17" data-name="Path 17" d="M56.7,77.171a2.135,2.135,0,0,0-.263,1.276c.256-.087.51-.17.758-.244-.032-.04-.065-.08-.094-.124a2.928,2.928,0,0,1-.238-.415,3.1,3.1,0,0,1-.162-.493m-1.242,1.5c.034.03.068.06.1.089l.157-.059a2.679,2.679,0,0,1-.148-.407,3.5,3.5,0,0,1-.049-.627,2.376,2.376,0,0,0-.166-.765c-.113-.27-.27-.527-.4-.8a2.785,2.785,0,0,1-.14-.455c-.017-.079-.031-.161-.042-.243s-.013-.173-.015-.261a1.971,1.971,0,0,0-.5,1.549,2.415,2.415,0,0,0,.24.762,2.836,2.836,0,0,0,.483.648,2.489,2.489,0,0,1,.327.312,1.035,1.035,0,0,1,.149.261m-3.228-.537a5.487,5.487,0,0,1,1.3,1.291l.1.121c.31-.135.68-.292,1.083-.454-.109-.092-.216-.184-.325-.271a3.816,3.816,0,0,0-.548-.4,2.26,2.26,0,0,0-.677-.256,3.4,3.4,0,0,0-.934-.03m-.451-2.5a2.518,2.518,0,0,0-1.477-.642,4.06,4.06,0,0,1,.6.795c.156.251.261.5.379.729a3.451,3.451,0,0,0,.377.62,1.444,1.444,0,0,0,.586.418,2.371,2.371,0,0,0,1.138.064,2.009,2.009,0,0,1,.6-.017c-.055-.063-.111-.125-.166-.19l-.025-.017c-.121-.014-.24-.031-.357-.052a.879.879,0,0,1-.452-.253,5.038,5.038,0,0,1-.342-.4c-.074-.089-.147-.177-.217-.268l-.2-.274c-.068-.09-.138-.177-.212-.261a3.186,3.186,0,0,0-.229-.245M49.923,62.424a3.054,3.054,0,0,0-.4-.762,4.033,4.033,0,0,1-.114.9c-.031.13-.068.251-.106.367s-.072.228-.107.338a2.7,2.7,0,0,0-.149.637,1.347,1.347,0,0,0,.1.663,2.348,2.348,0,0,0,.648.846,1.948,1.948,0,0,1,.365.418c.006-.075.012-.151.019-.226,0-.014,0-.029-.006-.043L50,65.283a.852.852,0,0,1-.113-.474,4.3,4.3,0,0,1,.041-.486,9.877,9.877,0,0,0,.12-1.241,2.032,2.032,0,0,0-.121-.658m4.108-6.579a2.324,2.324,0,0,0,.205-1.37,3.328,3.328,0,0,1-.235.358,2.784,2.784,0,0,1-.239.287c-.164.167-.321.309-.471.442-.074.067-.147.131-.214.2a1.869,1.869,0,0,0-.179.22,1.176,1.176,0,0,0-.213.564,2.345,2.345,0,0,0,.132.988,1.949,1.949,0,0,1,.1.5l.118-.167.011-.029-.015-.3a1.353,1.353,0,0,1,.367-.783c.11-.154.223-.3.334-.446a2.661,2.661,0,0,0,.3-.462m2.216-1.18a.548.548,0,0,1-.029.07h0a.6.6,0,0,0,.03-.07m-.759.686h0a.7.7,0,0,1-.083.008h0a.63.63,0,0,0,.083-.007m-.087.011c-.087.09-.168.188-.252.282h0c.084-.094.165-.192.252-.282M53.7,57.168l-.019.006h0l-.211.338.211-.338h0l.019-.006m-.785.909a.63.63,0,0,1-.018.173h0a.628.628,0,0,0,.018-.173m-.767,1.457-.088.211h0Zm-.453.609c-.024.113-.045.227-.064.34.019-.114.039-.227.063-.34h0m-.983,2.6,0,.42,0-.421Zm-.37,5.342h0c-.018-.1-.031-.2-.045-.3.014.1.027.2.045.3M50.25,66.03h0c-.019-.091-.031-.184-.045-.276.014.093.026.185.045.277m-.005,2.78-.063-.172h0Zm.584,2.3c0-.008,0-.015,0-.024,0,.008,0,.016,0,.024h0Zm0,.82a.64.64,0,0,1,.16.158h0a.63.63,0,0,0-.16-.159m.844,1.717h0l.24.406Zm.294,1.034.143.16.172.176-.172-.176ZM57.9,52.973a2.088,2.088,0,0,0,.555-1.157,2.518,2.518,0,0,1-.6.423,4.562,4.562,0,0,1-.539.24,1.328,1.328,0,0,0-.808.679,2.159,2.159,0,0,0-.161.919,1.863,1.863,0,0,1-.053.464h0c-.134.1-.278.211-.435.333a14.643,14.643,0,0,0-1.213,1.081l.011-.021.03-.287a1.28,1.28,0,0,1,.468-.684c.128-.128.26-.247.386-.369a2.446,2.446,0,0,0,.356-.389,1.826,1.826,0,0,0,.266-.516,2.324,2.324,0,0,0,.083-.344,3.312,3.312,0,0,0,.047-.414,3.686,3.686,0,0,1-1.061.876,2.075,2.075,0,0,0-.437.333,1.109,1.109,0,0,0-.287.5,2.271,2.271,0,0,0-.023.966,1.947,1.947,0,0,1,.019.488l.065-.066-.065.066a14.747,14.747,0,0,0-1.477,1.77c-.039.056-.079.111-.118.167-.064.093-.128.187-.191.284a15.05,15.05,0,0,0-1.033,1.825c0-.012,0-.025.007-.037l-.065-.3a.8.8,0,0,1,.052-.457c.055-.144.128-.282.189-.411.087-.177.182-.346.267-.517a2.929,2.929,0,0,0,.231-.527,2.439,2.439,0,0,0-.014-1.433,4.3,4.3,0,0,1-.785,1.285,2.456,2.456,0,0,0-.33.5,1.22,1.22,0,0,0-.123.615,1.885,1.885,0,0,0,.075.442,3.162,3.162,0,0,0,.223.538,2.028,2.028,0,0,1,.183.493l.063-.131c-.021.044-.042.087-.063.131a16.139,16.139,0,0,0-.892,2.412V62.7c-.041-.1-.079-.2-.118-.3a.888.888,0,0,1-.03-.475c.031-.156.086-.31.124-.454.049-.2.125-.387.182-.578a3.935,3.935,0,0,0,.144-.58,1.939,1.939,0,0,0,.02-.313,2.049,2.049,0,0,0-.025-.337,3.267,3.267,0,0,0-.253-.8,3.577,3.577,0,0,1-.26.832,6.232,6.232,0,0,1-.322.628,3.286,3.286,0,0,0-.249.577,1.386,1.386,0,0,0-.018.65,2.41,2.41,0,0,0,.472.934,2.19,2.19,0,0,1,.276.465h0A16.046,16.046,0,0,0,50.3,64.6q-.075.5-.122,1.008h0c-.007.075-.013.15-.019.226.013.022.018.044.029.067-.011-.022-.016-.044-.029-.067-.018.221-.033.442-.043.666a17.6,17.6,0,0,0,.044,1.957c.006.061.013.123.019.185l-.017-.046c-.081-.08-.154-.162-.231-.244a.917.917,0,0,1-.208-.453c-.028-.167-.031-.342-.048-.5-.026-.218-.022-.434-.036-.647a4.435,4.435,0,0,0-.073-.632,2.225,2.225,0,0,0-.1-.317,2.028,2.028,0,0,0-.148-.322,3.349,3.349,0,0,0-.542-.688,4.092,4.092,0,0,1,.048.934,7.49,7.49,0,0,1-.085.759,3.593,3.593,0,0,0-.03.677,1.448,1.448,0,0,0,.225.649,2.355,2.355,0,0,0,.811.713,2.062,2.062,0,0,1,.45.34.654.654,0,0,1,.127.185h0a.642.642,0,0,0-.127-.185,15.09,15.09,0,0,0,.242,1.557l.048.245.059.242.119.485.092.315-.019-.033-.288-.194a.9.9,0,0,1-.29-.412,4.217,4.217,0,0,1-.147-.491c-.059-.217-.109-.432-.163-.643a3.271,3.271,0,0,0-.2-.62,2.05,2.05,0,0,0-.365-.591,3.145,3.145,0,0,0-.675-.574,3.559,3.559,0,0,1,.146.489,4.138,4.138,0,0,1,.084.442c.033.282.046.539.061.783a2.787,2.787,0,0,0,.1.688,1.342,1.342,0,0,0,.349.6,2.294,2.294,0,0,0,.955.539,1.934,1.934,0,0,1,.517.243c.04.138.082.275.132.41a15.091,15.091,0,0,0,1.006,2.341l-.021-.024-.328-.13a.8.8,0,0,1-.377-.345c-.095-.149-.172-.313-.25-.459-.1-.2-.192-.412-.289-.611a3.6,3.6,0,0,0-.318-.581,2.3,2.3,0,0,0-.484-.513,2.5,2.5,0,0,0-.352-.224,3.8,3.8,0,0,0-.44-.2,5.51,5.51,0,0,1,.628,1.664,2.973,2.973,0,0,0,.238.672,1.287,1.287,0,0,0,.474.529,1.817,1.817,0,0,0,.444.207,2.991,2.991,0,0,0,.624.112,1.984,1.984,0,0,1,.57.126h0a15.489,15.489,0,0,0,1.723,2.5l.209.143-.209-.143c.055.065.11.127.166.19a.627.627,0,0,1,.218.073h0a.621.621,0,0,0-.219-.073,14.423,14.423,0,0,0,1.12,1.148c.05.046.1.09.152.135l.243-.093,0,0v0a.947.947,0,0,0-.033-.11c-.059-.052-.119-.1-.178-.155a14.424,14.424,0,0,1-1.671-1.8h0a3.07,3.07,0,0,1-.141-.764,2.794,2.794,0,0,1,.075-.6,2.235,2.235,0,0,0-.007-.766c-.043-.291-.163-.558-.215-.86a2.373,2.373,0,0,1-.048-.463,3.123,3.123,0,0,1,.046-.5,2.006,2.006,0,0,0-.556.622,1.849,1.849,0,0,0-.155.361,1.948,1.948,0,0,0-.068.378,2.311,2.311,0,0,0,0,.392,2.238,2.238,0,0,0,.077.388,3.03,3.03,0,0,0,.134.379,3.084,3.084,0,0,0,.2.35,3.963,3.963,0,0,1,.246.373.876.876,0,0,1,.091.284c.042.058.086.113.129.17-.043-.057-.087-.112-.129-.17a1.022,1.022,0,0,1,.008.112v0c.1.121.214.235.326.347-.112-.112-.222-.227-.326-.347v0a.943.943,0,0,0-.008-.112,15.26,15.26,0,0,1-1.369-2.264c0,.009,0,.017,0,.027h0V74.03c-.02-.04-.038-.081-.057-.121.019.04.037.081.057.121a3.52,3.52,0,0,1,.013-.766,3.258,3.258,0,0,1,.194-.561,2.035,2.035,0,0,0,.1-.369,2.194,2.194,0,0,0,.041-.364c.005-.283-.041-.571-.042-.869a2.048,2.048,0,0,1,.046-.455,2.988,2.988,0,0,1,.133-.464,1.759,1.759,0,0,0-1,1.127,2.269,2.269,0,0,0-.077.762,2.794,2.794,0,0,0,.173.768,2.671,2.671,0,0,1,.163.411,1.026,1.026,0,0,1,.028.3h0c0,.016,0,.033-.007.05,0-.017.005-.035.006-.051-.188-.42-.358-.85-.507-1.289-.057-.153-.105-.309-.152-.467l-.141-.47-.058-.231a2.907,2.907,0,0,1,.158-.729,3.043,3.043,0,0,1,.286-.493,2.1,2.1,0,0,0,.272-.67c.028-.136.045-.274.063-.415s.029-.284.055-.426a2.454,2.454,0,0,1,.344-.841,1.758,1.758,0,0,0-.707.314,1.693,1.693,0,0,0-.457.552,2.2,2.2,0,0,0-.213.711,2.885,2.885,0,0,0,.022.771,2.6,2.6,0,0,1,.082.426.852.852,0,0,1-.032.292l0,.012,0-.012c-.009.03-.02.061-.031.093.012-.032.023-.063.031-.093l-.044-.216a16.283,16.283,0,0,1-.29-1.934c-.011-.121-.018-.243-.026-.364h0a2.855,2.855,0,0,1,.285-.664,2.391,2.391,0,0,1,.362-.41,1.969,1.969,0,0,0,.381-.583,2.759,2.759,0,0,0,.133-.383c.04-.131.084-.264.135-.395a2.319,2.319,0,0,1,.474-.735,1.546,1.546,0,0,0-1.263.587,1.938,1.938,0,0,0-.331.634,2.462,2.462,0,0,0-.118.74,3.427,3.427,0,0,1,0,.423.79.79,0,0,1-.078.271q-.016-.527,0-1.05c.018-.476.055-.948.109-1.41l-.011.019h0l.011-.019q.028-.233.061-.464-.033.231-.061.464a2.729,2.729,0,0,1,.39-.574,2.588,2.588,0,0,1,.419-.317,1.777,1.777,0,0,0,.468-.48c.148-.213.248-.461.393-.691a2.158,2.158,0,0,1,.586-.607,1.622,1.622,0,0,0-.725,0,1.461,1.461,0,0,0-.587.306,2.187,2.187,0,0,0-.674,1.22,2.842,2.842,0,0,1-.076.4.773.773,0,0,1-.128.242,15.77,15.77,0,0,1,.537-2.316l-.016.019h0c.026-.141.06-.281.094-.42h0a.83.83,0,0,0,.071-.055,15.862,15.862,0,0,1,.894-2.093h0a2.576,2.576,0,0,1,.527-.359,2.391,2.391,0,0,1,.472-.124A1.636,1.636,0,0,0,53.637,59c.193-.138.368-.315.565-.47a2,2,0,0,1,.71-.329,1.4,1.4,0,0,0-1.256-.2,1.839,1.839,0,0,0-.548.32,2.444,2.444,0,0,0-.432.512,2.273,2.273,0,0,1-.2.328.737.737,0,0,1-.187.165h0l-.016.008.016-.008q.267-.48.551-.912c.208-.322.421-.624.636-.905h0a2.181,2.181,0,0,1,.563-.247,2.274,2.274,0,0,1,.468-.036,1.424,1.424,0,0,0,.582-.138c.21-.093.4-.237.616-.347a1.877,1.877,0,0,1,.732-.188,1.37,1.37,0,0,0-1.17-.414,1.834,1.834,0,0,0-1.068.617,3,3,0,0,1-.24.277.638.638,0,0,1-.206.124c-.061.075-.122.155-.183.233.061-.079.122-.158.183-.233h0a14.622,14.622,0,0,1,1.414-1.514h0c.1-.033.189-.064.278-.089a1.7,1.7,0,0,1,.293-.046,2.148,2.148,0,0,1,.452.048,1.352,1.352,0,0,0,.577-.03c.216-.052.421-.155.643-.225a1.858,1.858,0,0,1,.729-.053,1.365,1.365,0,0,0-1.056-.6,1.737,1.737,0,0,0-1.115.4,2.835,2.835,0,0,1-.272.222.6.6,0,0,1-.212.082c.156-.137.306-.263.446-.376.218-.171.411-.326.587-.447s.322-.232.447-.31l.282-.184.078-.05c-.041-.018-.083-.035-.125-.055l-.007,0-.285.183c-.127.077-.276.185-.453.309l0,0-.115.144c-.022.027-.04.051-.059.076.019-.025.037-.05.059-.076l.115-.144h0l.013-.015.07-.265c.076-.29.347-.423.544-.578a6.57,6.57,0,0,0,.818-.6m-6.722,8.852h0a.826.826,0,0,1-.071.054h0c-.035.14-.068.278-.094.42l.016-.019a2.6,2.6,0,0,1,.469-.468,2.1,2.1,0,0,1,.455-.221,1.732,1.732,0,0,0,.528-.367,2.518,2.518,0,0,0,.245-.288c.078-.1.16-.2.249-.3a2.081,2.081,0,0,1,.659-.472,1.42,1.42,0,0,0-1.3.045,2.031,2.031,0,0,0-.849,1.036,2.836,2.836,0,0,1-.145.369.717.717,0,0,1-.158.206m8.754-8.862c-.511-.3-.972-.51-1.481-.218-.524.3-.656.819-1.13,1.1-.05.03-.081.064-.119.086.043.02.084.037.125.055a1.229,1.229,0,0,0,1.3-.01c.522-.36.7-.817,1.3-1.013" transform="translate(-31.989 -32.786)" fill="#00a12f"/>
    <path id="Path_18" data-name="Path 18" d="M109.706,55.955l.14.142a1.919,1.919,0,0,1,.019-.489,2.284,2.284,0,0,0-.023-.966,1.11,1.11,0,0,0-.287-.5,2.069,2.069,0,0,0-.437-.333,3.691,3.691,0,0,1-1.061-.876,3.425,3.425,0,0,0,.047.414,2.393,2.393,0,0,0,.083.344,1.837,1.837,0,0,0,.266.516,2.427,2.427,0,0,0,.356.389c.126.122.257.241.386.369a1.278,1.278,0,0,1,.468.684l.03.287.012.021m4.4,10.075h0c.03-.141.049-.283.07-.426h0c-.021.142-.04.284-.07.425m.053,2.763c.005-.051.011-.1.016-.154h0c-.005.051-.011.1-.016.155m-.115.2-.018.05h0Zm-.1-3.883h0l-.007-.012.008.012-.017-.444h0Zm-.6-2.812-.094-.42h0Zm-.949-2.136h0l-.037-.089Zm-.838-1.495c-.018-.055-.039-.108-.059-.162.02.054.041.107.059.162Zm-.57-.737-.015-.008.014.008-.211-.338h0Zm-1.685-1.869h0c-.034-.038-.069-.077-.1-.116.034.039.069.078.1.116m-1.068-.909h0a.568.568,0,0,1-.044-.1.566.566,0,0,0,.045.105m5.543,15.941h0c-.006-.016-.01-.03-.015-.045l.015.044Zm-.065.044-.031.125-.024.094.024-.094Zm-1.431,4.233a.669.669,0,0,0-.116.069h0a.666.666,0,0,1,.116-.069m-1.123,1.455c-.1.121-.214.235-.326.348.112-.112.222-.227.326-.348h0Zm-.523,1h0l-.132.09ZM108.093,79.7c-.145.057-.292.109-.435.163h0C107.8,79.811,107.947,79.759,108.093,79.7Zm-1.939.927h0l-.453.166.453-.166Zm-1,.751-.148.06.147-.06h0m-.424.047-.065.007.065-.007m10.687-13.619a1.45,1.45,0,0,0,.225-.649,3.62,3.62,0,0,0-.03-.677,7.289,7.289,0,0,1-.085-.759,4.088,4.088,0,0,1,.048-.934,3.333,3.333,0,0,0-.541.687,2.028,2.028,0,0,0-.148.322,2.1,2.1,0,0,0-.095.317,4.431,4.431,0,0,0-.074.632c-.013.213-.01.429-.036.647-.016.158-.019.332-.047.5a.909.909,0,0,1-.208.452c-.077.083-.15.165-.231.245l-.017.046c.006-.061.013-.123.019-.185a17.608,17.608,0,0,0,.044-1.957c-.009-.223-.025-.445-.042-.665,0-.017,0-.035,0-.053,0,.018,0,.035,0,.053a1.95,1.95,0,0,1,.365-.419,2.344,2.344,0,0,0,.648-.846,1.345,1.345,0,0,0,.1-.663,2.691,2.691,0,0,0-.149-.637l-.107-.337c-.038-.116-.075-.238-.107-.367a4.068,4.068,0,0,1-.113-.9,3.044,3.044,0,0,0-.4.763,2.027,2.027,0,0,0-.121.658,9.9,9.9,0,0,0,.121,1.241,4.354,4.354,0,0,1,.041.486.855.855,0,0,1-.113.473l-.179.279-.007.042q-.048-.51-.122-1.007a15.921,15.921,0,0,0-.35-1.645.648.648,0,0,0-.051.216h0a.653.653,0,0,1,.051-.216l-.043-.157c.014.052.029.1.043.157h0a2.147,2.147,0,0,1,.276-.465,2.413,2.413,0,0,0,.472-.934,1.4,1.4,0,0,0-.018-.65,3.3,3.3,0,0,0-.249-.577,6.2,6.2,0,0,1-.322-.628,3.566,3.566,0,0,1-.26-.832,3.3,3.3,0,0,0-.253.8,2.087,2.087,0,0,0-.025.337,1.981,1.981,0,0,0,.02.313,3.959,3.959,0,0,0,.144.58c.058.191.132.377.182.578.038.144.093.3.125.454a.9.9,0,0,1-.03.475c-.039.1-.077.2-.118.3v.044a16.113,16.113,0,0,0-.892-2.411h0a2.028,2.028,0,0,1,.184-.493,3.2,3.2,0,0,0,.222-.538,1.882,1.882,0,0,0,.076-.442,1.231,1.231,0,0,0-.123-.615,2.47,2.47,0,0,0-.33-.5A4.291,4.291,0,0,1,112,56.457a2.438,2.438,0,0,0-.014,1.433,2.9,2.9,0,0,0,.231.526c.086.172.18.34.267.517.061.129.134.267.189.412a.791.791,0,0,1,.051.457l-.065.3c0,.012,0,.025.007.037h0c.029.135.055.27.076.407h0c-.021-.137-.047-.272-.076-.408a15.051,15.051,0,0,0-1.033-1.825c-.063-.1-.127-.191-.191-.284a1.976,1.976,0,0,1,.1-.5,2.33,2.33,0,0,0,.132-.988,1.176,1.176,0,0,0-.213-.564,1.9,1.9,0,0,0-.179-.22c-.066-.068-.14-.133-.214-.2-.149-.133-.307-.275-.471-.442a2.828,2.828,0,0,1-.238-.287,3.248,3.248,0,0,1-.235-.359,2.328,2.328,0,0,0,.2,1.37,2.659,2.659,0,0,0,.3.462c.111.146.224.293.335.446a1.352,1.352,0,0,1,.367.783l-.015.3.011.029.079.112-.079-.112h0a14.686,14.686,0,0,0-1.476-1.769c0,.016.009.028.012.044,0-.016-.01-.028-.012-.044l-.14-.142c.065.116.132.231.195.347h0c-.063-.117-.129-.232-.2-.348a14.734,14.734,0,0,0-1.213-1.082c-.157-.122-.3-.234-.435-.333h0a1.865,1.865,0,0,1-.053-.464,2.165,2.165,0,0,0-.161-.92,1.329,1.329,0,0,0-.808-.678,4.563,4.563,0,0,1-.539-.24,2.519,2.519,0,0,1-.6-.423,2.092,2.092,0,0,0,.556,1.157,6.63,6.63,0,0,0,.818.6c.2.155.468.288.544.578l.07.265.013.016h0l.115.143c.048.058.085.108.1.136-.02-.028-.057-.078-.105-.136l-.115-.144,0,0c-.176-.125-.326-.232-.452-.31l-.286-.183-.007,0c-.038-.023-.068-.057-.119-.086-.474-.28-.606-.8-1.13-1.1-.509-.292-.97-.078-1.481.218.61.2.782.652,1.3,1.013a1.23,1.23,0,0,0,1.3.01l.078.05.282.184c.125.077.273.184.447.31s.37.276.587.447c.141.114.291.24.447.376a.566.566,0,0,0,.082.008h0a.775.775,0,0,1-.082-.008h0a.6.6,0,0,1-.212-.081,2.851,2.851,0,0,1-.272-.222,1.741,1.741,0,0,0-1.115-.4,1.365,1.365,0,0,0-1.056.6,1.851,1.851,0,0,1,.729.053c.221.07.427.173.643.225a1.34,1.34,0,0,0,.577.03,2.13,2.13,0,0,1,.453-.048,1.7,1.7,0,0,1,.292.046c.089.024.182.056.279.089-.1-.095-.2-.183-.3-.269.1.085.2.174.3.268l.021.007h0l-.021-.007a14.585,14.585,0,0,1,1.414,1.514h0c.059.073.119.151.178.227-.06-.076-.119-.153-.179-.227a.631.631,0,0,1-.205-.124,2.863,2.863,0,0,1-.24-.277,1.832,1.832,0,0,0-1.068-.617,1.369,1.369,0,0,0-1.17.414,1.882,1.882,0,0,1,.732.188c.214.11.405.254.616.347a1.424,1.424,0,0,0,.582.138,2.251,2.251,0,0,1,.468.035,2.212,2.212,0,0,1,.562.247h0c.214.282.427.583.636.906.188.287.373.592.55.912a.73.73,0,0,0,.076.04h0a.765.765,0,0,1-.076-.04.746.746,0,0,1-.187-.165,2.187,2.187,0,0,1-.2-.328,2.44,2.44,0,0,0-.432-.511A1.845,1.845,0,0,0,110.7,58a1.4,1.4,0,0,0-1.256.2,2.014,2.014,0,0,1,.71.328c.2.155.373.332.565.47a1.624,1.624,0,0,0,.566.252,2.383,2.383,0,0,1,.472.125,2.581,2.581,0,0,1,.526.358h0l.008.006-.008-.006a15.874,15.874,0,0,1,.893,2.093.7.7,0,0,1-.157-.206,2.752,2.752,0,0,1-.145-.369,2.033,2.033,0,0,0-.849-1.035,1.422,1.422,0,0,0-1.3-.046,2.082,2.082,0,0,1,.659.472c.088.1.17.2.249.3a2.477,2.477,0,0,0,.244.287,1.733,1.733,0,0,0,.528.367,2.116,2.116,0,0,1,.455.221,2.583,2.583,0,0,1,.469.468l.011.013-.011-.013a15.79,15.79,0,0,1,.537,2.316c.016.02.033.04.052.061-.018-.021-.036-.04-.052-.06h0a.763.763,0,0,1-.128-.242,2.808,2.808,0,0,1-.076-.4,2.189,2.189,0,0,0-.674-1.221,1.467,1.467,0,0,0-.586-.306,1.621,1.621,0,0,0-.725,0,2.166,2.166,0,0,1,.585.607c.145.23.245.478.393.69a1.753,1.753,0,0,0,.468.48,2.639,2.639,0,0,1,.418.317,2.74,2.74,0,0,1,.39.574h0c.055.463.092.935.11,1.411.008.348.007.7,0,1.05a.794.794,0,0,1-.078-.271,3.5,3.5,0,0,1,0-.424,2.449,2.449,0,0,0-.118-.74,1.939,1.939,0,0,0-.331-.634,1.547,1.547,0,0,0-1.263-.587,2.322,2.322,0,0,1,.474.734c.051.131.1.264.135.4a2.7,2.7,0,0,0,.133.383,1.97,1.97,0,0,0,.381.583,2.383,2.383,0,0,1,.362.411,2.846,2.846,0,0,1,.285.663l.007.021h0c0-.007,0-.014-.007-.022-.008.122-.015.243-.026.365a16.217,16.217,0,0,1-.291,1.934l-.044.216h0l0,.014,0-.015a.853.853,0,0,1-.032-.292,2.647,2.647,0,0,1,.081-.426,2.84,2.84,0,0,0,.022-.77,2.206,2.206,0,0,0-.213-.711,1.7,1.7,0,0,0-.457-.552,1.77,1.77,0,0,0-.707-.314,2.448,2.448,0,0,1,.344.842c.027.142.039.285.056.426s.035.28.063.415a2.105,2.105,0,0,0,.272.67,3,3,0,0,1,.287.493,2.925,2.925,0,0,1,.159.728h0c0,.008,0,.016,0,.024h0c0-.008,0-.016,0-.025l-.058.231-.142.47c-.046.157-.094.314-.152.467-.149.44-.319.87-.507,1.289,0,.013,0,.026.005.04,0-.013,0-.027-.005-.039a1.027,1.027,0,0,1,.028-.3,2.7,2.7,0,0,1,.164-.411,2.79,2.79,0,0,0,.173-.768,2.274,2.274,0,0,0-.077-.762,1.757,1.757,0,0,0-1-1.127,2.942,2.942,0,0,1,.133.464,2.047,2.047,0,0,1,.046.455c0,.3-.047.586-.042.869a2.269,2.269,0,0,0,.041.364,2.018,2.018,0,0,0,.1.369,3.227,3.227,0,0,1,.194.561,3.523,3.523,0,0,1,.013.766c.06-.122.117-.246.173-.371-.056.125-.114.249-.173.371,0,.01,0,.018,0,.027h0l.24-.406h0l-.24.406h0c0-.01,0-.018,0-.027a15.209,15.209,0,0,1-1.369,2.263c0,.013,0,.028,0,.041,0-.013,0-.028,0-.041h0a.858.858,0,0,1,.091-.284,3.963,3.963,0,0,1,.246-.373,3.249,3.249,0,0,0,.2-.349,3.126,3.126,0,0,0,.134-.379,2.274,2.274,0,0,0,.077-.387,2.316,2.316,0,0,0,0-.393,1.971,1.971,0,0,0-.069-.378,1.8,1.8,0,0,0-.155-.361,2.01,2.01,0,0,0-.555-.623,3.085,3.085,0,0,1,.045.5,2.358,2.358,0,0,1-.048.463c-.052.3-.172.569-.215.86a2.228,2.228,0,0,0-.007.767,2.726,2.726,0,0,1,.075.6,3.042,3.042,0,0,1-.141.764c.065-.082.127-.167.191-.252-.063.084-.126.169-.19.252l-.007.022.006-.022a14.371,14.371,0,0,1-1.671,1.8c-.059.053-.119.1-.178.156,0,.012-.008.026-.012.039,0-.012.007-.027.012-.039a1.035,1.035,0,0,1,.149-.261,2.49,2.49,0,0,1,.326-.312,2.8,2.8,0,0,0,.484-.648,2.411,2.411,0,0,0,.24-.762,1.97,1.97,0,0,0-.5-1.549c0,.089-.006.176-.015.261s-.026.165-.043.243a2.731,2.731,0,0,1-.139.455c-.128.278-.284.534-.4.8a2.387,2.387,0,0,0-.167.765,3.5,3.5,0,0,1-.048.627,3.573,3.573,0,0,1-.3.724h0a14.09,14.09,0,0,1-2.27,1.5c-.01.016-.02.035-.029.051.01-.017.019-.035.029-.051h0a.849.849,0,0,1,.2-.22,3.09,3.09,0,0,1,.393-.229,2.373,2.373,0,0,0,1.02-1.232,2.039,2.039,0,0,0-.172-1.666,3,3,0,0,1-.162.493,2.926,2.926,0,0,1-.238.415,3.51,3.51,0,0,1-.288.354,3.575,3.575,0,0,0-.275.354,2.157,2.157,0,0,0-.33.722,3.4,3.4,0,0,1-.185.609,3,3,0,0,1-.457.65c.072-.035.145-.073.217-.109-.072.036-.145.075-.217.109l-.025.03h0l.025-.03a12.787,12.787,0,0,1-2.179.815l-.072.018-.005.032q.116.127.232.26c.394-.112.8-.249,1.208-.411h0a1.479,1.479,0,0,1,.172.075,2.863,2.863,0,0,1,.379.236,3.42,3.42,0,0,0,.6.359,1.832,1.832,0,0,0,.506.15,1.455,1.455,0,0,0,.391,0,1.364,1.364,0,0,0,.344-.1,2.784,2.784,0,0,0,.627-.4c.207-.161.425-.331.674-.5a4.005,4.005,0,0,1,.414-.241,3.622,3.622,0,0,1,.495-.22,3.309,3.309,0,0,0-.94-.2,2.035,2.035,0,0,0-.731.087,3.11,3.11,0,0,0-.635.262c-.209.1-.416.207-.631.3-.317.127-.672.351-1.037.22l-.363-.13-.015,0a14.155,14.155,0,0,0,2.742-1.531c-.008,0-.014,0-.021,0,.008,0,.013,0,.021,0,.062-.044.123-.09.185-.136-.062.046-.123.091-.185.136a2.276,2.276,0,0,1,.593.162,2.333,2.333,0,0,0,1.151.217,1.774,1.774,0,0,0,1.188-.8,5.48,5.48,0,0,1,1.3-1.291,3.416,3.416,0,0,0-.935.03,2.272,2.272,0,0,0-.677.256,3.773,3.773,0,0,0-.549.4c-.178.142-.346.3-.534.441-.137.1-.278.222-.43.318a.827.827,0,0,1-.507.141l-.368-.034-.034.012a14.169,14.169,0,0,0,2.282-2.1.619.619,0,0,0-.219.073h0a.617.617,0,0,1,.218-.073l.085-.1-.085.1a1.974,1.974,0,0,1,.6.017,2.375,2.375,0,0,0,1.138-.064,1.44,1.44,0,0,0,.586-.418,3.441,3.441,0,0,0,.377-.619c.118-.226.223-.479.379-.729a4.05,4.05,0,0,1,.6-.795,2.522,2.522,0,0,0-1.477.642c-.082.077-.155.162-.229.245s-.144.172-.212.261l-.2.274c-.069.091-.142.18-.217.269a5.109,5.109,0,0,1-.342.4.88.88,0,0,1-.452.254c-.118.021-.237.038-.357.052l-.025.017a15.484,15.484,0,0,0,1.723-2.5h0a1.986,1.986,0,0,1,.571-.126,3,3,0,0,0,.625-.112,1.833,1.833,0,0,0,.444-.208,1.277,1.277,0,0,0,.474-.528,2.991,2.991,0,0,0,.238-.672,5.491,5.491,0,0,1,.628-1.664,3.815,3.815,0,0,0-.44.2,2.525,2.525,0,0,0-.352.224,2.329,2.329,0,0,0-.484.512,3.592,3.592,0,0,0-.317.582c-.1.2-.188.407-.29.611-.078.146-.155.311-.249.46a.8.8,0,0,1-.378.344l-.328.131-.021.023a15.093,15.093,0,0,0,1.005-2.34c.05-.135.092-.272.132-.41a.629.629,0,0,0-.16.158h0l.066-.112-.066.112a.646.646,0,0,1,.16-.158h0c.007-.022.014-.044.02-.066l.047-.157-.046.157c-.006.022-.013.044-.019.066a1.929,1.929,0,0,1,.517-.243,2.3,2.3,0,0,0,.955-.539,1.334,1.334,0,0,0,.349-.6,2.775,2.775,0,0,0,.1-.688c.015-.244.028-.5.061-.783a4.128,4.128,0,0,1,.083-.441,3.7,3.7,0,0,1,.146-.489,3.151,3.151,0,0,0-.675.574,2.06,2.06,0,0,0-.365.591,3.25,3.25,0,0,0-.2.621c-.053.211-.1.427-.163.643a4.138,4.138,0,0,1-.147.492.9.9,0,0,1-.289.412l-.288.194-.019.033.093-.315.119-.485.059-.242.049-.245a15.1,15.1,0,0,0,.242-1.558h0c-.019.02-.027.043-.044.064.016-.021.025-.044.044-.064h0a2.068,2.068,0,0,1,.45-.339,2.361,2.361,0,0,0,.811-.713" transform="translate(-68.071 -32.786)" fill="#00a12f"/>
    <path id="Path_19" data-name="Path 19" d="M77.521,78.945c1.081.193,1.221.009,1.37-.219.128.422.819.365,1.338.38-1.406.715-1.054,2.2-1.45,3.695-.272-1.526.2-2.955-1.258-3.855m-.349-13.107c-1.581-.72-3.15-1.471-4.717-2.224-.631-.3-1.018-.127-1.323.551-.724,1.608-1.464,3.208-2.268,4.771a1.707,1.707,0,0,0,.153,1.956c1.41,2.1,2.73,4.273,4.178,6.341a4.031,4.031,0,0,1,.679,2.9c-.077.818-.134,1.639-.184,2.465a9.962,9.962,0,0,1,5.664,2.785,12.278,12.278,0,0,0,3.255-1.019c-.065-1.467-.135-2.9-.154-4.33a4.827,4.827,0,0,1,.3-1.713c.621-1.654,1.362-3.258,1.951-4.923a17.462,17.462,0,0,0,.485-2.7c-.988,1.108-1.792,1.97-2.551,2.875a.787.787,0,0,1-1.162.238c-.567-.348-1.149-.669-1.788-1.039L78.866,77.2c-.595-1.032-.97-2.113-1.461-3.129A6.269,6.269,0,0,0,76.2,72.338c-1.059-1.036-2.2-1.977-3.318-2.966l.684-1.576c.453.146.817.29,1.193.38a2.26,2.26,0,0,0,2.779-1.34c.151-.45.121-.777-.365-1m-.822-3.207c1.024-1.995.947-2.2-1.106-2.965a1.85,1.85,0,0,0-.663-.18.642.642,0,0,0-.5.306c-.519,1.032-.986,2.094-1.492,3.19l2.9,1.3c.318-.614.587-1.13.854-1.649m3.776,1.858c.5-.822,1.236-1.624.737-2.22a6.925,6.925,0,0,0-2.038-1.46,1.754,1.754,0,0,0-.452-.143.529.529,0,0,0-.475.323c-.617,1.149-1.187,2.327-1.753,3.458.8.937,2.816.62,2.28,2.786.54-.928,1.147-1.828,1.7-2.742m3.49,1.951c.135-.177.418-.5.362-.674a1.232,1.232,0,0,0-.337-.482q-.761-.756-1.56-1.468c-.44-.392-.756-.279-1.063.255-.7,1.216-1.449,2.4-2.184,3.588-1.021,1.657-1.007,1.736.548,2.877a.655.655,0,0,1,.07.048c.419.411.738.329,1.093-.148,1-1.349,2.05-2.662,3.072-4m.92.707c-.1-.094-.226-.166-.4-.293-.962,1.2-1.914,2.4-2.871,3.591-.835,1.04-.8,1.457.3,2.187a.818.818,0,0,0,.81-.06c.79-.744,1.515-1.568,2.28-2.346,1.384-1.41,1.377-1.741-.116-3.079" transform="translate(-45.149 -37.638)" fill="#d60812"/>
    <path id="Path_20" data-name="Path 20" d="M59.19,135.288l-4.117-5.151-.922-1.167.04-.016-.877-1.111c-3.439-4.882-6.826-5.681-8.676-5.681h0a4.716,4.716,0,0,0-1.436.189,30.075,30.075,0,0,0-5.41,1.957c-.265.126-.594.271-.953.424-1.629.7-3.9,1.565-3.9,1.565-4.588,1.555-7.148-.806-7.561-1.231-.039-.041-.061-.065-.061-.065l.077.1.011.023.02.017,6.337,8.133a24.472,24.472,0,0,0,3.822,4.009c3.293,1.989,7.321.063,7.321.063,1.117-.5,5.233-2.3,5.233-2.3,4.351-2.02,7.027-1.325,7.027-1.325a10,10,0,0,1,5.43,3.355Z" transform="translate(-16.656 -77.297)" fill="#fff"/>
    <path id="Path_21" data-name="Path 21" d="M54.7,129.216a11.573,11.573,0,0,0-6.23-4.4c-2.5-.632-5.939.852-5.939.852l-5.028,2.21a19.8,19.8,0,0,1-4.733,1.42,5.86,5.86,0,0,1-5.064-1.618,6.837,6.837,0,0,0,4.171,2.588c2.621.364,6.115-1.168,6.115-1.168,2.382-1.168,6.115-2.651,6.115-2.651a10.621,10.621,0,0,1,4.344-.758,8.949,8.949,0,0,1,6.249,3.526m.151.207s-.054-.08-.151-.207c.05.07.1.134.151.207m-6.237.815-.808-.546.21-1L48,128.7l-.67.646a.019.019,0,0,1-.029,0l-.768-.539-.016-.011a.059.059,0,0,0,.005.022l.365.921c0,.012.007.019,0,.03l-.578.535-.116.108H46.2l.9-.073c.017,0,.024,0,.03.021q.173.461.348.922l.007.018a.082.082,0,0,0,.008-.022q.093-.48.184-.96c0-.017.009-.022.025-.023l.823-.049.083-.006v0M45.9,128.91h0l0,0s0,0,0,0m1.1,2.832c0-.025,0-.05.007-.077l0,0s0,.01,0,.015a2.487,2.487,0,0,1-.342.793,2.255,2.255,0,0,1-.753.718,2.1,2.1,0,0,1-.507.212,2.036,2.036,0,0,1-.5.072,2.093,2.093,0,0,1-1.05-.26,2.359,2.359,0,0,1-1.026-1.116,2.549,2.549,0,0,1-.2-.652,2.6,2.6,0,0,1,.065-1.157,2.412,2.412,0,0,1,.577-1.018,2.151,2.151,0,0,1,.834-.547,2.063,2.063,0,0,1,1.565.063c.082.037.161.081.24.12l-.006-.006a2.813,2.813,0,0,0-1.066-.59,2.52,2.52,0,0,0-1.6.048,2.6,2.6,0,0,0-.552.279,2.7,2.7,0,0,0-.486.414,3.022,3.022,0,0,0-.7,1.259,3.408,3.408,0,0,0,.06,2.047,3.3,3.3,0,0,0,.263.585,3.164,3.164,0,0,0,.405.562,2.867,2.867,0,0,0,1.33.85,2.518,2.518,0,0,0,1.273.047,2.465,2.465,0,0,0,.438-.139,2.6,2.6,0,0,0,.616-.365,2.78,2.78,0,0,0,.61-.671A3.222,3.222,0,0,0,47,131.742m13.947,5.442c-3.731-4.583-8.132-3.963-8.132-3.963A17.353,17.353,0,0,0,47.9,134.7a56.14,56.14,0,0,1-5.441,2.352,11.593,11.593,0,0,1-3.5.741c-2.928.106-5.459-2.693-5.459-2.693,2.939,3.955,6.115,3.756,6.115,3.756a16.276,16.276,0,0,0,5.557-1.421c2-.99,5.94-2.584,5.94-2.584a10.045,10.045,0,0,1,4.115-.6,9.882,9.882,0,0,1,5.711,2.931" transform="translate(-18.227 -78.877)" fill="#d60812"/>
    <path id="Path_22" data-name="Path 22" d="M77.625,165.808l1.177-.989-.843-.169-1.078.94.194-1.117-.711-.143-.479,2.754.711.143.124-.712.314-.259.467,1.152.854.171Zm1.9,1.893.083-.776-.734-.09-.083.776Zm2.229-1.441,1.033-1.159-.856-.038-.941,1.095.044-1.135-.722-.032-.109,2.8.722.032.028-.724.276-.3.615,1.068.868.039Zm2.116.8-.738.027.025.78.738-.027Zm1.49-1.468.779-.079-.06-.677-2.278.231.06.678.779-.079.186,2.112.72-.073Zm1.12,1.987.729-.123-.113-.771-.729.123Zm1.637-1.75a.7.7,0,0,1,.442-.877.666.666,0,0,1,.627.174l.43-.577a1.214,1.214,0,0,0-1.2-.288,1.447,1.447,0,0,0-1.017,1.765l0,.008a1.324,1.324,0,0,0,1.627,1.067,1.352,1.352,0,0,0,.985-.907l-.621-.267a.734.734,0,0,1-.5.48.65.65,0,0,1-.77-.57Zm3.252.459-.233-.74-.7.254.234.74Z" transform="translate(-49.926 -103.9)" fill="#d60812"/>
    <path id="Path_23" data-name="Path 23" d="M85.652,50.446l1.258-.192-.046-.347-.741.113.246-.271c.268-.3.394-.47.353-.775v-.005a.534.534,0,0,0-.66-.474.726.726,0,0,0-.584.475l.292.187c.1-.186.183-.278.315-.3a.213.213,0,0,1,.26.2c.02.151-.05.263-.236.483l-.5.584Zm2.618-1.165c.007.334-.132.585-.36.591s-.383-.241-.39-.577v-.005c-.007-.337.134-.585.36-.591s.383.243.39.577Zm.387-.015v-.005c-.012-.534-.327-.94-.78-.928a.85.85,0,0,0-.744.972v.005c.012.534.322.939.781.928s.755-.438.744-.972m.943,1.005.134-1.851-.257-.021-.5.116.054.338.3-.054-.1,1.441Zm1.623-.711v.005c-.049.329-.229.549-.454.51s-.335-.311-.285-.643v-.005c.05-.332.231-.548.454-.51s.335.314.286.643m-.227-1c-.449-.078-.816.282-.9.809v.006a.858.858,0,0,0,.609,1.064c.452.078.816-.282.9-.809v-.006A.861.861,0,0,0,91,48.557" transform="translate(-56.238 -30.582)" fill="#d60812"/>
    <path id="Path_24" data-name="Path 24" d="M55.953,67.467a.509.509,0,0,0-.146.724.441.441,0,0,0,.661.211.507.507,0,0,0,.141-.72.445.445,0,0,0-.656-.214m2.317-.625,1.692,2.369-.15.123c-.334.275-.573.092-1.281-.9-.608-.852-.745-1.194-.4-1.477Zm3.038,2.266-.452-.633-.242.2-1.692-2.369.242-.2-.452-.633-1.151.948c-.8.657-.506,1.463.306,2.6.838,1.174,1.526,1.663,2.333,1Zm-.416-1.515.937,1.03,1.892-1.984-.936-1.03-.427.447.417.459-.223.234L60.61,64.614l.21-.22-.519-.571-1.012,1.061.519.571.21-.22,1.943,2.136-.223.234-.417-.459Zm-.211-4.182,1.02.84.467-.654-.431-.354.252-.354L64.2,64.705l-.171.239.59.486.845-1.184-.589-.485L64.7,64l-2.207-1.816.171-.239-.589-.485ZM63.673,60.2l2.459,1.393L66,61.858l.657.372.648-1.319-.657-.372-.131.266L64.06,59.413l.131-.266-.657-.372-.648,1.319.657.372Zm3.683,1.569a.4.4,0,0,0,.2.555.348.348,0,0,0,.542-.137.392.392,0,0,0-.2-.552.342.342,0,0,0-.534.134m-.945-1.936,1.18.517.865-2.272-.689-.3-.106.279-2.573-1.129.106-.279-.689-.3-.558,1.466.689.3.138-.364.914.4-.256.672.683.3.256-.672.976.428-.154.406-.491-.216Zm-1.063-3.766,2.665.851-.08.289.713.228.4-1.43-.713-.228-.08.289-2.665-.851.08-.289-.713-.227-.4,1.43.713.228Zm3.9.766a.386.386,0,0,0,.293.5.355.355,0,0,0,.508-.248.383.383,0,0,0-.3-.5.349.349,0,0,0-.5.243m-1.317-1.8,1.323.235.432-2.8-1.323-.235-.1.633.589.1L68.8,53.3l-2.742-.488.048-.31-.734-.13-.231,1.5.734.131.048-.31,2.742.488-.051.329-.589-.1Zm-.369-4.34.017-.484.46.091c.77.143,1.079.2,1.1.209v.02c-.018.006-.33.032-1.1.112Zm-1.332,1.269.008-.222,3.543-.471.062-1.74L69.1,49.5l0,.072a1.217,1.217,0,0,0,0,.151l-.013.019c-.024-.008-.315-.072-.606-.123l-2.149-.461.008-.223-.743-.03-.045,1.262.743.03.008-.229.521.1-.025.713-.527.057.008-.229-.743-.03-.048,1.354Zm1.564-5.071,1.166-.111.019.228c.021.254-.168.417-.55.453s-.6-.107-.614-.316Zm-2.206,1.886.741-.071-.021-.248,1.117-.553a1.02,1.02,0,0,0,1.07.437c.765-.073,1.3-.5,1.234-1.281L69.6,45.55l-.741.071.025.3-2.769.264-.025-.3-.741.071.113,1.363.741-.071-.017-.2.941-.09.007.085.006.072-1.636.721ZM65.3,45.726l1.279-.335-.182-.8-.557.146-.114-.5,1.036-.272.163.719.723-.19-.164-.718.942-.247.108.477-.516.135.181.795,1.238-.324L68.89,42.18l-.722.19.066.292-2.7.707-.066-.292-.722.189Zm1.025-4.817,1.2-.488.048.134c.1.281-.069.469-.473.634s-.626.13-.724-.146Zm1.5-1.886-.7.284.1.281-2.6,1.061-.1-.281-.7.284.5,1.419.7-.284-.108-.306.729-.3.084.238c.245.692.791.945,1.652.593.883-.361,1.155-.955.908-1.652ZM64.855,37.81c1.017-.61,1.26-.666,1.421-.357s-.009.493-1.063,1.125c-1.027.617-1.263.66-1.418.363s.016-.505,1.059-1.132m-.43-.8c-1.559.935-1.728,1.562-1.324,2.338.414.794,1.009.946,2.541.026,1.554-.932,1.729-1.562,1.321-2.344s-1-.943-2.539-.021m-1.2-1.845c.941-.737,1.176-.824,1.37-.538s.047.491-.929,1.255c-.951.744-1.18.818-1.367.543s-.04-.5.925-1.26m-.516-.737c-1.443,1.13-1.541,1.773-1.053,2.492.5.735,1.108.809,2.526-.3,1.438-1.126,1.541-1.773,1.049-2.5s-1.1-.808-2.522.307m-1.234.745-.145-.159.962-1.913,1.024-.177.145.159.532-.557-.779-.856-.532.557.166.183-.747.143c-.32.06-.562.122-.6.131l-.017-.019.519-.535.3-.315.158.174L63,31.431l-.915-1.006-.532.557.2.216-1.99,2.085-.2-.215-.532.557.894.983.532-.557-.136-.15.519-.544.48-.082-.568,1.1-.123-.136-.532.558.851.936Zm-3.455-5.091-.378-.267.311-.376c.513-.633.719-.887.734-.9l.015.011c0,.02-.145.32-.481,1.071Zm.321,1.88-.173-.122,1.459-3.5-1.354-.957-.409.667.056.039a1.042,1.042,0,0,0,.12.077l.009.022c-.018.018-.22.252-.412.493l-1.48,1.736-.173-.122-.409.666.982.694.408-.666-.178-.126.35-.428.556.393-.227.514-.178-.126-.408.666,1.053.744ZM55.522,30l1.114-2.734.257.12.3-.731-1.217-.572-1.022,1.627-.022-.01.425-1.908-1.29-.606-.3.732.257.12-1.114,2.734-.257-.121-.3.732,1.117.525.3-.732-.212-.1.21-.516c.3-.737.623-1.578.629-1.576l.022.01c.005,0-.108.528-.213,1.079l-.158.862.508.239.493-.7c.311-.454.6-.9.6-.895l.022.01c.006,0-.351.828-.651,1.566l-.21.516-.212-.1-.3.732,1.178.553.3-.732Zm-2.8-4.445.272.071.176-.776-1.161-.3-.176.776.272.072-.175.769c-.153.674-.282,1.294-.283,1.3l-.024-.006-.148-3.05-1.143-.3-.176.776.272.071-.659,2.9-.273-.071-.176.776,1.161.3.176-.776-.272-.071.17-.75c.165-.725.279-1.281.28-1.287l.024.006L51,29l.888.232Zm-3.787,2.17.385-2.956.278.042.1-.791-1.377-.207-.1.791.278.042L48.114,27.6l-.278-.042-.1.791,1.376.207.1-.791ZM47.6,27.5l-.207,0-.579-2.083.608-.9.207,0,.01-.8-1.116-.015-.01.8.238,0-.434.668c-.186.285-.317.513-.336.545h-.024l.015-.772.005-.451.225,0,.01-.8L44.9,23.683l-.01.8.281,0-.035,2.984-.28,0-.01.8,1.28.017.01-.8-.2,0,.009-.779.286-.422.321,1.209-.177,0-.009.8,1.219.017Zm-2.937.787-.146-1.372-.763.094.062.578-.412.051-.316-2.965.278-.035-.084-.793-1.381.17.084.793.278-.034.316,2.965-.279.034.084.793ZM40.528,26.81l-.435.126-.056-.5c-.1-.831-.142-1.165-.141-1.186l.017-.005c.011.017.127.329.428,1.1Zm1.525.988-.2.058-1.474-3.491-1.565.455.194.771.065-.019a.958.958,0,0,0,.134-.046l.021.008c0,.027.03.344.071.657l.23,2.34-.2.058.194.771,1.136-.33-.194-.771-.206.059-.066-.564.641-.186.208.523-.206.06.194.771,1.218-.354Zm-2.96.857-.19.089L37.575,27.1l.208-1.09.19-.089-.3-.732-1.022.48.3.732.218-.1-.14.8c-.06.343-.092.607-.1.645l-.022.011-.283-.71-.169-.414.207-.1-.3-.732-1.2.564.3.732.257-.121,1.114,2.734-.257.12.3.732,1.173-.551-.3-.731-.179.084-.291-.714.1-.51.757.959-.162.076.3.732,1.117-.525Zm-4.158,2.233-1.529-2.494.234-.166-.408-.666-1.16.82.408.666.234-.166,1.529,2.494-.234.165.408.667,1.16-.82-.408-.666Zm-2.522-3.281a.4.4,0,0,0,.077-.587c-.147-.241-.343-.3-.536-.161a.4.4,0,0,0-.069.589c.144.235.335.3.528.159m-.836,3.8-.756-.96.163-.148c.182-.165.414-.093.662.222s.262.586.113.721Zm2.706.851-.48-.609-.177.16-1.064-.663a1.19,1.19,0,0,0-.284-1.191c-.5-.63-1.127-.854-1.685-.346l-1.08.98.48.609.214-.194L32,33.287l-.214.195.48.609.973-.883-.48-.609-.145.131L32,31.955l.061-.055.051-.046,1.491,1.021Zm-2.162,2-.964-.963-.523.6.42.42-.329.379-.781-.781.47-.542-.544-.544-.47.542-.71-.71.312-.36.388.388.519-.6-.933-.932-1.586,1.829.544.544.191-.22,2.035,2.034-.191.22.544.544ZM30.4,36.279l-1.056-.786-.437.677.446.332-.236.367-2.285-1.7.16-.248-.611-.454-.792,1.226.611.454.16-.248,2.285,1.7-.16.248.611.454Zm-2.186,2.1-2.427-1.457.137-.263-.649-.389-.678,1.3.648.389.137-.263,2.427,1.457-.137.263.649.389L29,38.5l-.648-.389Zm-3.646-1.664a.4.4,0,0,0-.183-.559.347.347,0,0,0-.545.122.393.393,0,0,0,.192.557.341.341,0,0,0,.537-.12m.846,2.856.305-.75-1.407-.661-.274.672.174.111-.007.018c-.209.038-.372.161-.5.479-.217.534-.12,1.144,1.595,1.949,1.273.6,1.9.572,2.259.218l.14.066c.063-.17.166-.343.328-.267a.175.175,0,0,1,.077.251.317.317,0,0,1-.142.169l.508.239a1.045,1.045,0,0,0,.251-.389.616.616,0,0,0-.3-.869.585.585,0,0,0-.476-.024c.115-.675-.34-1-.771-1.277l-.5.678c.346.213.542.369.444.609-.122.3-.4.254-1.553-.286-.894-.42-1.181-.612-1.052-.93.117-.288.426-.228.783-.061Zm.78,2.592a1.576,1.576,0,0,0-1.7.49c-.245.22-.461.4-.779.309-.253-.073-.3-.216-.258-.38.046-.183.18-.287.5-.194l.288.084.2-.79-1.342-.39-.18.714.166.069-.006.025c-.125.045-.295.192-.4.6-.137.544.132.954.762,1.137a1.586,1.586,0,0,0,1.671-.491c.324-.259.535-.394.829-.308s.362.241.313.437-.216.3-.51.218l-.288-.084-.2.79,1.377.4.169-.67.141.041c.039-.178.118-.366.288-.316a.175.175,0,0,1,.111.235.317.317,0,0,1-.117.19l.535.155a1.035,1.035,0,0,0,.194-.418.631.631,0,0,0-.878-.777c.069-.5-.2-.879-.89-1.079m-.374,3.011-2.743-.488.046-.3-.734-.13-.227,1.472.734.13.046-.3,2.743.488-.046.3.734.13L26.6,45l-.734-.131Zm-3.955-.239a.379.379,0,0,0-.349-.46.361.361,0,0,0-.474.314.376.376,0,0,0,.356.455.355.355,0,0,0,.468-.308m.788,3.449,0-.308-.744.01.016,1.335.744-.01,0-.209,2.274-.031c.311,0,.531.012.534.339s-.215.357-.526.361l-2.274.031,0-.209-.744.01.017,1.42.743-.01,0-.3,2.249-.03c.981-.013,1.349-.365,1.339-1.242-.01-.857-.386-1.2-1.368-1.186Zm2.861,3.285-2.743.488-.046-.3-.734.13.217,1.408,1.828.033,0,.026-1.721.658.23,1.491.734-.13-.046-.3,2.743-.488.046.3.734-.131-.2-1.291-.734.131.038.245-.517.092c-.74.131-1.573.3-1.574.293l0-.026c0-.006.471-.19.959-.4l.759-.328-.091-.587-.819-.06c-.524-.033-1.027-.05-1.028-.056l0-.026c0-.007.838-.136,1.578-.267l.517-.092.038.245.734-.13-.21-1.363-.734.131Zm-.191,5.291.15.457-.459.1c-.765.171-1.072.239-1.091.239l-.006-.018c.015-.013.3-.161.986-.54Zm.8-1.706.069.21L23.067,57.3l.539,1.642.7-.266-.022-.068a1.125,1.125,0,0,0-.052-.14l.005-.023c.025,0,.317-.058.605-.125L27,57.9l.069.21.7-.266-.391-1.191-.7.265.071.216-.519.113-.221-.673.47-.261.071.216.7-.265-.419-1.278Zm1.038,3.095.1.2-1.428,1.541-1.028-.142-.1-.2-.657.372.52,1.058.657-.372-.111-.225.755.091c.323.039.571.054.607.056l.011.023-.639.355-.372.211-.105-.214-.657.372.611,1.244.657-.372-.131-.266,2.459-1.393.131.266.657-.372-.6-1.215-.657.372.091.185-.642.364-.482-.068.836-.881.082.168.657-.372-.569-1.157Z" transform="translate(-13.841 -14.985)" fill="#fff"/>
  </g>
</svg>
