<svg enable-background="new 0 0 199.97 186.26" viewBox="0 0 199.97 186.26" xmlns="http://www.w3.org/2000/svg" xmlns:xlink="http://www.w3.org/1999/xlink"><clipPath id="a"><path d="m6.44 6h187.09v174.26h-187.09z"/></clipPath><g fill="#fff"><path clip-path="url(#a)" d="m175.19 128.72c-3.07 7.93-7.35 15.24-12.62 21.73.09.02.19.03.28.05 3.23.78 6.42 1.66 9.66 2.39 2.69.6 4.66.47 6.34-2.49 1.54-2.73 3.18-5.4 4.71-8.13 1.03-1.84.67-3.99-.81-5.56-2.33-2.47-4.66-4.94-7.02-7.38-.2-.2-.38-.4-.54-.61m-154.81-41.72c-3.45 1.1-6.95 1.99-10.42 3.01-1.76.51-3.26 1.54-3.36 3.46-.08 1.69-.12 3.38-.14 5.07h-.02v1.75c0 .18-.01.35-.01.53h.01c0 1.15 0 2.3.01 3.45.02 2.48 1.05 4.03 3.41 4.81 2.79.92 5.62 1.76 8.47 2.5.73.19 1.41.41 2.04.69-.64-4.1-.98-8.31-.98-12.59 0-4.32.34-8.55.99-12.68m4.4-16.36c3.06-7.93 7.34-15.25 12.61-21.73-.09-.02-.18-.03-.27-.05-3.23-.78-6.43-1.66-9.66-2.39-2.68-.6-4.66-.47-6.34 2.49-1.54 2.73-3.18 5.4-4.71 8.14-1.03 1.84-.68 3.99.81 5.56 2.33 2.47 4.66 4.94 7.02 7.38.2.18.38.39.54.6m24.65-33.73c6.48-5.23 13.79-9.47 21.7-12.51-.03-.03-.06-.05-.09-.08-2.53-2.39-5.04-4.81-7.55-7.24-1.91-1.85-4.1-2.18-6.27-.91-2.5 1.45-5 2.89-7.52 4.32-2.78 1.57-3.44 3.34-2.79 6.45.51 2.44 2 6.94 2.52 9.97m50.56-17.83c4.27 0 8.46.33 12.54.97-1.06-3.33-2-6.69-2.93-10.06-.74-2.66-2.28-3.96-4.99-3.97-3.04-.02-6.09-.02-9.13 0-2.56.01-4.09 1.05-4.88 3.47-.92 2.84-1.77 5.7-2.53 8.59-.19.71-.42 1.38-.7 1.99 4.11-.65 8.32-.99 12.62-.99m53.11 8.05c.77-2.95.09-4.78-2.51-6.33-2.55-1.52-5.16-2.95-7.71-4.47-2.03-1.21-4.26-1.05-5.99.57-2.47 2.32-4.93 4.66-7.38 7.01-.2.19-.4.36-.61.52 7.92 3.05 15.24 7.31 21.73 12.56.01-.07.02-.14.04-.21.78-3.23 1.59-6.44 2.43-9.65m-11.84 126.52-4.95-6.45-.41.31c-1 .77-.61 1.7 1.17 4.02 2.07 2.7 2.77 3.2 3.75 2.45zm-102.15-31.86 1.34-.26-.44-1.24-1.23.64c-2.02 1.03-2.84 1.43-2.88 1.47l.02.05c.06-.01.96-.19 3.19-.66m19.71-71.52c.44-.37.42-1.08-.33-1.96-.73-.86-1.4-1.05-1.94-.6l-.48.4 2.21 2.61zm24.36-11.73 1.27-.34-.55-1.27c-.88-2.09-1.22-2.94-1.25-2.99l-.05.01c0 .06.11.97.41 3.23zm52.41 8.57.59-1.25c.98-2.04 1.39-2.86 1.41-2.92l-.04-.03c-.04.04-.65.73-2.15 2.45l-.91 1.02zm19.22 12.38c-.57-.78-1.25-.54-4.01 1.46-2.82 2.06-3.26 2.67-2.71 3.43.55.75 1.22.55 4-1.48 2.86-2.08 3.27-2.66 2.72-3.41m4.91 7.69c-.47-.84-1.18-.69-4.15.97-3.05 1.7-3.56 2.25-3.1 3.08.45.81 1.14.69 4.15-.99 3.07-1.72 3.55-2.25 3.1-3.06m3.79 8.44-.14-.37-3.5 1.33.14.37c.29.75.92.85 2.11.4s1.68-.96 1.39-1.73m4.1 17.58-.06-.62-3.41.3.06.69c.05.57.64.96 1.79.86 1.14-.1 1.69-.54 1.62-1.23m.46 9.58v-.05c-.05-.02-.96-.18-3.21-.57l-1.35-.25-.05 1.32 1.38-.14c2.27-.22 3.18-.29 3.23-.31m2.67 17.86c-.19.65-.73.9-1.48.67-.73-.22-1.05-.72-.86-1.37s.73-.88 1.46-.66c.75.22 1.07.71.88 1.36m-.6-20.58-.18 4.74-10.36 1.28-.02.61-2.17-.08.14-3.69 2.17.08-.02.62 1.54-.16.07-1.94-1.52-.27-.02.62-2.17-.08.13-3.44 2.17.08-.02.6 6.28 1.26c.85.14 1.7.31 1.77.33l.04-.05c-.01-.14-.01-.25 0-.41l.01-.2zm-.33-6.72c.19 2.13-1.37 3.29-3.61 3.49-1.44.13-2.47-.21-3.13-1.19l-3.26 1.51.06.67-2.16.19-.23-2.57 4.78-1.96-.02-.2-.02-.23-2.75.24.05.55-2.17.19-.33-3.71 2.16-.19.07.82 8.09-.72-.07-.82 2.17-.19zm-.83-6.68-3.62.88-.53-2.16 1.51-.37-.32-1.3-2.75.67.48 1.96-2.11.51-.48-1.96-3.03.74.33 1.37 1.63-.4.53 2.18-3.74.91-1.64-6.7 2.11-.52.19.8 7.9-1.93-.19-.8 2.11-.52zm-6-7.06c-2.51.96-4.11.27-4.83-1.61l-.25-.65-2.13.81.32.83-2.03.77-1.47-3.86 2.03-.77.29.77 7.6-2.89-.29-.77 2.03-.77 1.39 3.65c.72 1.89-.07 3.51-2.66 4.49m-5.11-7.19c-4.48 2.5-6.22 2.09-7.43-.07-1.18-2.12-.69-3.82 3.87-6.37 4.49-2.51 6.22-2.09 7.42.06 1.19 2.13.68 3.84-3.86 6.38m-4.26-7.5c-4.15 3.03-5.92 2.82-7.38.82-1.43-1.96-1.14-3.71 3.08-6.79 4.16-3.04 5.92-2.82 7.37-.84 1.43 1.98 1.13 3.74-3.07 6.81m-.56-11.15-1.55 1.52-.42-.43-2.99.48-2.81 5.21.42.43-1.55 1.52-2.49-2.55 1.55-1.52.36.37 1.66-2.99-1.4.22-1.52 1.48.4.41-1.55 1.52-2.61-2.68 1.55-1.52.57.59 5.82-5.68-.57-.59 1.55-1.52 2.68 2.74-1.55 1.52-.46-.47-.88.86-1.52 1.46.05.05c.1-.02.81-.19 1.75-.36l2.18-.39-.49-.5 1.55-1.52zm-12.76-11.39-4.26 9.52.51.33-1.19 1.81-3.08-2.03 1.19-1.82.52.34.66-1.4-1.62-1.07-1.02 1.16.52.34-1.19 1.81-2.87-1.89 1.19-1.81.51.33 4.33-4.73c.56-.66 1.15-1.29 1.2-1.34l-.02-.06c-.13-.06-.22-.12-.35-.21l-.16-.11 1.19-1.81zm-7.13-4.6-.87 1.99-.75-.33-3.26 7.44.75.33-.87 1.99-3.44-1.51.87-1.99.62.27.61-1.4c.88-2.01 1.92-4.26 1.9-4.26l-.07-.03c-.02-.01-.86 1.2-1.77 2.44l-1.44 1.92-1.49-.65.46-2.35c.31-1.5.64-2.93.62-2.94l-.07-.03c-.02-.01-.96 2.28-1.84 4.29l-.61 1.4.62.27-.87 1.99-3.27-1.43.87-1.99.75.33 3.26-7.44-.75-.33.87-1.99 3.77 1.65-1.24 5.19.06.03 2.99-4.43zm-11.75-4.91-.52 2.11-.8-.2-2.44 10.01-2.6-.63-.4-8.21-.07-.02c0 .02-.34 1.53-.82 3.51l-.5 2.04.8.19-.52 2.11-3.39-.83.52-2.11.8.19 1.93-7.89-.8-.19.51-2.11 3.34.81.43 8.31.07.02c0-.02.38-1.71.83-3.54l.51-2.1-.8-.19.52-2.11zm-10.14-2.26-.3 2.15-.81-.11-1.13 8.05.81.11-.3 2.15-4.02-.56.3-2.15.81.11 1.13-8.05-.81-.11.3-2.15zm-6.04-.82-.03 2.17-.6-.01-1.78 2.45 1.69 5.67.61.01-.03 2.17-3.56-.04.03-2.17.52.01-.94-3.29-.83 1.15-.03 2.12.57.01-.03 2.17-3.74-.05.03-2.17.82.01.1-8.12-.82-.01.03-2.17 3.83.05-.03 2.17-.66-.01-.01 1.23-.05 2.1h.07c.05-.09.44-.71.98-1.49l1.27-1.82-.69-.01.03-2.17zm-8.7 12.45-6.66.76-.25-2.16.81-.09-.92-8.07-.81.09-.25-2.16 4.04-.46.25 2.16-.81.09.92 8.07 1.2-.14-.18-1.58 2.23-.26zm-8.2-1.19.59-.16.57 2.1-3.56.96-.57-2.1.6-.16-.61-1.42-1.88.51.19 1.54.6-.16.57 2.1-3.32.9-.57-2.1.58-.16-.67-6.37c-.12-.85-.21-1.72-.21-1.79l-.06-.02c-.13.05-.24.08-.39.12l-.19.05-.57-2.1 4.58-1.24zm-11.35-5.26-.56.24-.61 2.97 3.88 4.47.56-.24.87 1.99-3.27 1.43-.87-1.99.47-.21-2.21-2.61-.29 1.39.85 1.94.52-.23.87 1.99-3.43 1.5-.87-1.99.75-.33-3.26-7.44-.75.33-.85-1.99 3.51-1.54.87 1.99-.6.26.49 1.13.83 1.93.07-.03c.01-.1.11-.82.28-1.76l.41-2.18-.64.29-.87-1.99 2.99-1.31zm-13.35 6.73 4.47 6.79.69-.45 1.19 1.81-3.39 2.23-1.19-1.81.68-.45-4.47-6.79-.68.45-1.19-1.81 3.39-2.23 1.19 1.81zm-2.9-2.14c-.57.37-1.12.21-1.54-.43-.43-.65-.36-1.23.2-1.6s1.14-.21 1.57.44c.42.63.33 1.21-.23 1.59m-.39 6.4c.93 1.1 1.25 2.14.83 3.24l3.11 1.81.52-.44 1.4 1.66-1.97 1.67-4.36-2.78-.15.13-.18.15 1.79 2.11.42-.36 1.4 1.66-2.84 2.4-1.4-1.66.63-.53-5.25-6.21-.63.53-1.4-1.66 3.16-2.67c1.62-1.37 3.47-.76 4.92.95m-9.65 3.28 2.72 2.54-1.52 1.63-1.14-1.06-.91.98 2.08 1.93 1.37-1.47 1.59 1.48-1.37 1.47 2.28 2.13.96-1.03-1.23-1.14 1.53-1.64 2.82 2.62-4.7 5.05-1.59-1.48.56-.6-5.95-5.54-.56.6-1.59-1.48zm-6.27 10.9 6.68 4.63.69-1-1.3-.9 1.28-1.84 3.09 2.14-3.82 5.5-1.79-1.24.47-.67-6.68-4.63-.47.67-1.79-1.24 2.31-3.34 1.79 1.24zm-4.54 3 1.9 1.06-.4.72 7.1 3.97.4-.71 1.9 1.06-1.98 3.54-1.9-1.06.4-.71-7.1-3.97-.4.72-1.9-1.06zm-2.07 1.21c-.33.59-.9.7-1.57.33-.68-.38-.89-.93-.56-1.52s.91-.71 1.59-.33c.67.37.87.93.54 1.52m-2.53 7.42c.38-.86.86-1.2 1.46-1.3l.02-.05-.51-.3.8-1.83 4.11 1.8-.89 2.04-.34-.15c-1.04-.46-1.95-.62-2.29.17-.38.87.46 1.39 3.07 2.53 3.36 1.47 4.18 1.6 4.54.78.29-.65-.29-1.08-1.3-1.66l1.47-1.85c1.26.77 2.59 1.64 2.25 3.48.4-.16.9-.15 1.39.06.83.36 1.4 1.16.87 2.37-.21.47-.56.96-.74 1.06l-1.49-.65c.14-.06.32-.23.41-.46.11-.25.12-.53-.23-.68-.47-.21-.78.26-.96.73l-.41-.18c-1.04.96-2.88 1.03-6.61-.6-4.97-2.2-5.25-3.86-4.62-5.31m-1.75 5.04 3.92 1.06-.58 2.15-.84-.23c-.93-.25-1.32.03-1.45.53-.12.45.01.83.75 1.03.93.25 1.56-.24 2.28-.84 1.16-.94 2.4-2.03 4.96-1.33 2.01.55 2.8 1.57 2.6 2.94.38-.19.86-.25 1.36-.11.88.24 1.55.96 1.21 2.23-.13.5-.4 1.02-.57 1.14l-1.57-.42c.13-.06.28-.28.34-.52.06-.25.04-.55-.33-.65-.5-.13-.73.38-.84.86l-.41-.11-.49 1.82-4.02-1.09.58-2.15.84.23c.86.23 1.34-.04 1.49-.59.14-.53-.09-.97-.92-1.19-.86-.23-1.48.14-2.42.84-.93.69-2.18 2.07-4.88 1.34-1.84-.5-2.63-1.62-2.23-3.1.3-1.12.8-1.52 1.16-1.64l.02-.07-.49-.18zm-2.09 8.08 2.15.36-.13.81 8.02 1.33.13-.81 2.15.36-.66 4.01-2.15-.36.13-.81-8.02-1.33-.13.81-2.15-.36zm-1.41 10.42 2.17-.03.01.84 6.57-.08c2.87-.04 3.97.89 4 3.23.03 2.39-1.04 3.35-3.91 3.38l-6.57.08.01.82-2.17.03-.05-3.87 2.17-.03.01.57 6.65-.08c.91-.01 1.55-.07 1.54-.98-.01-.89-.65-.94-1.56-.93l-6.65.08.01.57-2.17.03zm-.12-8.58c-.11.67-.61.96-1.37.84-.77-.13-1.15-.57-1.04-1.24s.61-.98 1.39-.85c.75.12 1.13.58 1.02 1.25m.37 19.21 2.15-.36.13.81 8.02-1.33-.13-.81 2.14-.36.62 3.71-2.15.36-.11-.67-1.51.25c-2.16.36-4.61.71-4.61.73l.01.07c0 .02 1.47.06 3.01.15l2.39.16.26 1.6-2.22.89c-1.42.56-2.8 1.06-2.8 1.08l.01.07c0 .02 2.44-.44 4.6-.8l1.51-.25-.11-.67 2.15-.36.58 3.52-2.15.36-.13-.81-8.02 1.33.13.81-2.14.36-.67-4.06 5.03-1.79-.01-.07-5.34-.09zm3.13 14.46 9.16-5-.2-.57 2.05-.72 1.23 3.48-2.05.72-.21-.59-1.38.71.65 1.83 1.52-.31-.21-.59 2.05-.72 1.14 3.24-2.05.72-.2-.57-6.3 1.14c-.84.18-1.7.33-1.77.34l-.02.06c.06.13.1.23.15.38l.07.18-2.05.72zm2.89 7.68 1.92-1.01.28.54 3.01.39 4.18-4.2-.28-.54 1.92-1.01 1.66 3.15-1.92 1.01-.24-.46-2.44 2.4 1.41.18 1.88-.99-.27-.51 1.92-1.01 1.75 3.31-1.92 1.01-.38-.72-7.19 3.79.38.72-1.92 1.01-1.79-3.39 1.92-1.01.31.58 1.09-.57 1.87-.97-.03-.06c-.1 0-.83-.05-1.77-.15l-2.21-.25.32.61-1.92 1.01zm112.37 5.62 6.45 4.95.5-.65 1.72 1.32-2.47 3.22-1.72-1.32.5-.65-6.45-4.94-.74.96 1.26.96-1.37 1.78-2.98-2.29 4.08-5.32 1.72 1.32zm-6.42 4.47 1.52 1.55-.61.6 5.68 5.82.65-.64-1.22-1.25 1.25-1.22 2.74 2.8-5.53 5.4-2.74-2.8 1.25-1.22 1.22 1.25.65-.64-5.68-5.82-.61.6-1.52-1.55zm-3.32 6.22-.71.54 4.94 6.45.71-.54 1.32 1.72-3.24 2.48c-2.36 1.81-4.37.48-6.82-2.72-2.38-3.1-3.23-5.29-.89-7.08l3.36-2.58zm-7.88 6.25c-.72.43-1.47.21-1.93-.57s-.29-1.54.43-1.97c.69-.41 1.44-.19 1.92.58.46.78.29 1.54-.42 1.96m27.87-17.82.38-.73-7.19-3.79-.38.73-1.92-1.01 1.9-3.59 1.92 1.01-.38.73 7.19 3.79.38-.73 1.92 1.01-1.9 3.59zm3.96-.25c.32-.6.88-.72 1.56-.36.69.37.91.9.6 1.5-.32.6-.89.74-1.59.37-.68-.35-.89-.91-.57-1.51m3.21-10.05-2.53 6.19-3.45-1.41.85-2.08 1.43.59.45-1.11-2.85-1.17-.75 1.83-2-.82.75-1.83-2.67-1.09-.4.99-2.01-.82 1.63-3.99 2.01.82-.31.76 7.52 3.07.31-.76zm1.16-13.9-1.72-.29.29-1.72 3.87.64-1.26 7.63-3.87-.64.29-1.72 1.72.29.15-.9-8.02-1.33-.14.84-2.14-.36.68-4.08 2.14.36-.14.84 8.02 1.33zm-.6 12.15-2.08-.62.23-.79-7.79-2.32-.23.79-2.08-.62 1.16-3.89 2.08.62-.23.79 7.79 2.32.23-.79 2.08.62zm10.7-21.9c0-42.67-34.59-77.27-77.26-77.27s-77.27 34.59-77.27 77.27c0 13.16 3.31 25.55 9.11 36.39.1.09.25.23.43.38.02.01.04.03.05.04.6.5 1.61 1.26 3.02 2 1.09.58 2.43 1.14 4.01 1.57.34.09.7.18 1.06.26.14.03.27.06.41.09.3.06.61.11.93.16.26.04.53.07.81.1.24.03.48.06.73.08.55.05 1.12.08 1.71.08h.06c1.21.01 2.51-.08 3.89-.28 1.56-.22 3.22-.59 4.99-1.15 0 0 5.34-1.93 9.54-3.53.64-.25.32-.12.94-.37.31-.12.61-.24.91-.36-9.09-9-14.99-21.69-14.99-35.48 0-27.42 22.23-49.64 49.65-49.64s49.64 22.23 49.64 49.64c0 21.79-14.04 40.3-33.57 46.98l14.61 17.24 4.1 4.78c25.21-12.71 42.49-38.83 42.49-68.98m5.04-36.47c2.04-2.11 2.24-4.15.74-6.67-1.38-2.31-2.71-4.64-4-7-1.45-2.66-3.5-3.73-5.98-3.11-3.46.86-6.93 1.67-10.4 2.5-.04.01-.09.01-.13.02 5.26 6.49 9.53 13.81 12.59 21.74 2.37-2.52 4.78-4.99 7.18-7.48m11.14 35.32c-.01-1.15-.01-2.3-.01-3.45-.02-2.48-1.05-4.03-3.41-4.8-2.79-.92-5.62-1.75-8.47-2.5-.73-.19-1.41-.41-2.04-.69.64 4.1.98 8.31.98 12.59 0 4.32-.35 8.55-1 12.68 3.45-1.1 6.96-2 10.43-3.01 1.75-.51 3.26-1.54 3.36-3.46.08-1.69.12-3.38.14-5.07h.02c0-.59 0-1.17 0-1.76-.01-.17 0-.35 0-.53"/><path clip-path="url(#a)" d="m75.05 130.95c.1.08.2.16.3.24.15-.05.31-.11.46-.16-.18-.37-.33-.73-.43-1.11-.13-.52-.12-1.06-.14-1.71-.04-.77-.22-1.45-.49-2.08-.33-.74-.79-1.44-1.16-2.19-.17-.39-.31-.81-.41-1.24-.05-.22-.09-.44-.12-.66-.03-.23-.04-.47-.04-.71-1.22 1.32-1.63 2.77-1.46 4.22.1.71.35 1.41.7 2.08.38.64.85 1.25 1.41 1.76.33.29.68.51.95.85.2.26.33.46.43.71m3.63-4.1c-.68 1.17-.91 2.35-.77 3.45.73-.24 1.46-.47 2.18-.68-.08-.1-.17-.19-.24-.3-.26-.35-.49-.73-.7-1.13-.19-.41-.35-.86-.47-1.34m-14.38-4.18c-.98-.84-2.2-1.48-4.32-1.75.78.74 1.31 1.47 1.75 2.17.46.68.76 1.37 1.11 1.99.35.61.67 1.2 1.1 1.69.45.48.99.88 1.71 1.14.83.27 1.91.37 3.33.17.49-.07 1.18-.14 1.75-.05-.16-.17-.32-.34-.49-.52l-.07-.05c-.35-.04-.7-.08-1.04-.14-.52-.08-.94-.35-1.32-.69-.38-.33-.68-.76-1-1.1-.22-.24-.43-.48-.63-.73s-.39-.5-.59-.75c-.2-.24-.4-.48-.62-.71-.22-.24-.43-.47-.67-.67m7.62 8.68c-.52-.39-1.02-.79-1.6-1.09-.59-.3-1.21-.57-1.98-.7s-1.65-.17-2.73-.08c1.85 1.17 2.85 2.4 3.8 3.52.1.11.2.22.3.33.91-.37 1.99-.79 3.17-1.24-.32-.25-.64-.5-.96-.74m-13.06-44.65c-.22-.63-.59-1.31-1.15-2.08 0 .95-.16 1.74-.33 2.45-.09.35-.2.68-.31 1s-.21.62-.31.92c-.21.59-.39 1.15-.44 1.74-.05.58-.01 1.17.29 1.81.32.71.88 1.47 1.89 2.3.35.29.78.7 1.07 1.14.02-.21.03-.41.06-.62-.01-.04-.01-.08-.02-.12l-.52-.76c-.27-.39-.33-.84-.33-1.29s.07-.91.12-1.32c.11-1.16.4-2.24.35-3.38-.02-.56-.12-1.15-.37-1.79m12.02-17.91c.51-.9.77-2.03.6-3.73-.22.37-.46.68-.69.97s-.46.55-.7.78c-.48.46-.94.84-1.38 1.2-.22.18-.43.36-.62.54-.19.19-.37.39-.52.6-.31.42-.55.9-.62 1.54-.08.71-.01 1.56.39 2.69.13.37.27.89.29 1.36.12-.15.23-.31.35-.46.01-.03.02-.05.03-.08l-.04-.82c-.02-.85.61-1.53 1.07-2.13.32-.42.65-.82.98-1.21.31-.39.61-.79.86-1.25m6.47-3.22c-.03.06-.05.14-.08.19.03-.05.05-.13.08-.19m-2.22 1.87c-.08.01-.16.02-.24.02.09 0 .17-.01.24-.02m-.25.03c-.26.25-.49.51-.74.77.25-.26.48-.52.74-.77m-4.98 4.92c-.02 0-.04.01-.06.01h-.01l-.62.92.62-.92c.03 0 .05-.01.07-.01m-2.3 2.47c0 .17 0 .33-.05.47.05-.13.05-.3.05-.47m-2.24 3.97-.26.57zm-1.33 1.66c-.07.31-.13.62-.19.93.06-.31.12-.62.19-.93zm-2.87 7.09-.01 1.14zm-1.08 14.54c-.05-.27-.09-.55-.13-.83.04.28.08.56.13.83m-.26-5.6c-.06-.25-.09-.5-.13-.76.04.26.08.51.13.76m-.01 7.57-.18-.47zm1.7 6.27c.01-.02.01-.04.01-.06 0 .02 0 .04-.01.06zm.02 2.23c.19.13.36.27.47.43-.11-.15-.28-.3-.47-.43m2.46 4.68.7 1.11zm.86 2.81.42.44.5.48-.5-.48zm17.34-59.11c.71-.68 1.3-1.55 1.62-3.15-.6.54-1.19.88-1.74 1.15-.55.28-1.08.47-1.58.65-.97.4-1.85.77-2.36 1.85-.29.59-.47 1.39-.47 2.5 0 .37-.03.85-.15 1.26-.39.27-.81.58-1.27.91-1.05.78-2.26 1.75-3.55 2.94.01-.02.02-.04.03-.06l.09-.78c.12-.82.83-1.36 1.37-1.86.38-.35.76-.67 1.13-1 .38-.32.74-.66 1.04-1.06.31-.4.58-.84.78-1.4.1-.28.18-.59.24-.94.07-.34.11-.71.14-1.13-1.08 1.26-2.15 1.83-3.1 2.39-.48.27-.91.55-1.28.91-.36.35-.67.77-.84 1.36-.19.66-.26 1.49-.07 2.63.06.37.11.88.06 1.33.06-.06.13-.12.19-.18-.06.06-.13.12-.19.18-1.41 1.34-2.88 2.94-4.32 4.82-.11.15-.23.3-.35.46-.19.25-.37.51-.56.77-1.07 1.5-2.09 3.16-3.02 4.97.01-.03.01-.07.02-.1l-.19-.83c-.1-.44-.01-.85.15-1.25.16-.39.37-.77.55-1.12.25-.48.53-.94.78-1.41.26-.46.51-.92.67-1.43.36-1.01.43-2.2-.04-3.9-.66 1.65-1.53 2.6-2.29 3.5-.39.44-.72.89-.97 1.37s-.39 1.02-.36 1.67c.02.37.08.76.22 1.2s.36.93.65 1.46c.2.36.43.87.54 1.34.06-.12.12-.24.18-.36-.06.12-.12.24-.18.36-1.01 2.03-1.9 4.23-2.61 6.57v-.12c-.12-.27-.23-.54-.34-.81-.17-.42-.17-.86-.09-1.29.09-.43.25-.84.36-1.24.14-.54.36-1.05.53-1.57s.34-1.03.42-1.58c.04-.27.06-.56.06-.85s-.02-.6-.07-.92c-.1-.64-.35-1.37-.74-2.19-.19.9-.44 1.64-.76 2.26-.29.64-.63 1.19-.94 1.71-.29.53-.56 1.04-.73 1.57-.16.54-.19 1.12-.05 1.77.16.73.6 1.57 1.38 2.54.26.33.61.8.81 1.26-.41 1.45-.76 2.94-1.02 4.48-.15.9-.26 1.82-.36 2.74-.02.2-.04.41-.06.61.04.06.05.12.09.18-.03-.06-.05-.12-.09-.18-.05.6-.1 1.2-.12 1.81-.06 1.76-.03 3.54.13 5.33.02.17.04.34.06.5l-.05-.12c-.24-.22-.45-.44-.68-.66-.34-.34-.51-.78-.61-1.23-.08-.46-.09-.93-.14-1.36-.08-.59-.07-1.18-.1-1.76-.05-.58-.08-1.15-.21-1.72-.07-.29-.16-.57-.28-.86-.11-.29-.25-.58-.43-.88-.36-.59-.88-1.21-1.58-1.87.15.96.21 1.79.14 2.54-.04.75-.15 1.43-.25 2.07-.08.64-.14 1.25-.09 1.84.06.6.26 1.18.66 1.77.45.65 1.22 1.31 2.37 1.94.4.22.94.54 1.32.92.16.16.29.33.37.5-.08-.18-.21-.35-.37-.5.17 1.42.38 2.84.71 4.24l.14.67.17.66.35 1.32.27.86-.06-.09-.84-.53c-.41-.28-.66-.68-.85-1.12s-.31-.91-.43-1.34c-.17-.59-.32-1.18-.48-1.75-.14-.58-.31-1.14-.57-1.69-.24-.55-.57-1.08-1.07-1.61-.49-.52-1.11-1.04-1.97-1.56.19.47.33.91.43 1.33.11.42.19.82.24 1.2.1.77.13 1.47.18 2.13.03.67.1 1.29.29 1.87.19.59.47 1.15 1.02 1.65.62.56 1.46 1.08 2.79 1.47.45.14 1.06.35 1.51.66.12.38.24.75.39 1.12.79 2.22 1.78 4.35 2.94 6.38l-.06-.06-.96-.36c-.49-.18-.83-.53-1.1-.94-.28-.41-.5-.85-.73-1.25-.3-.56-.56-1.12-.85-1.66-.27-.55-.55-1.09-.93-1.58-.39-.5-.81-.97-1.41-1.4-.3-.21-.64-.42-1.03-.61-.38-.19-.8-.38-1.28-.56 1.13 1.73 1.47 3.2 1.83 4.53.16.67.39 1.27.69 1.83.16.28.33.54.56.78s.5.46.83.66c.36.22.79.41 1.3.56.52.15 1.13.25 1.83.31.48.04 1.14.13 1.67.34 1.46 2.46 3.16 4.75 5.04 6.81l.61.39-.61-.39c.16.18.32.35.49.52.24.04.46.1.64.2-.18-.1-.4-.16-.64-.2 1.05 1.11 2.14 2.16 3.27 3.12.15.12.3.24.44.37.21-.08.43-.15.64-.23.02-.01.04-.02.07-.02l-.01-.01c-.03-.11-.06-.21-.1-.3-.17-.14-.35-.28-.52-.42-1.73-1.45-3.37-3.1-4.89-4.89-.23-.72-.39-1.4-.41-2.08-.02-.52.09-1.01.22-1.65.15-.76.08-1.42-.02-2.09-.12-.79-.48-1.52-.63-2.34-.08-.41-.15-.82-.14-1.26 0-.44.05-.89.13-1.35-.71.5-1.24 1.07-1.62 1.69-.19.31-.34.65-.45.98-.1.33-.17.68-.2 1.03s-.03.71 0 1.07c.04.36.12.71.22 1.06.11.35.24.69.39 1.03.17.33.36.65.57.95.25.35.52.65.72 1.02.15.29.23.51.26.77.12.16.25.31.38.46-.13-.16-.25-.31-.38-.46.01.1.02.2.02.31v.01c.3.33.63.64.95.95-.33-.31-.65-.62-.95-.95v-.01c0-.11-.01-.21-.02-.31-1.5-1.91-2.85-3.98-4-6.16v.07c0-.03 0-.05 0-.07-.06-.11-.11-.22-.17-.33.06.11.11.22.17.33-.05-.76-.08-1.43.04-2.09.1-.5.33-.96.56-1.53.15-.34.23-.67.3-1.01.07-.33.11-.66.12-.99.01-.77-.12-1.55-.12-2.36-.01-.4.04-.82.13-1.24s.22-.84.39-1.26c-1.54.65-2.51 1.75-2.92 3.07-.19.65-.28 1.36-.23 2.07.07.7.22 1.43.51 2.09.16.38.38.71.48 1.12.07.32.1.55.08.81 0 .04-.01.09-.02.14.01-.05.01-.09.02-.14-.55-1.14-1.05-2.31-1.48-3.51-.17-.42-.31-.84-.44-1.27l-.41-1.28-.17-.63c.11-.74.19-1.37.46-1.98.19-.46.5-.85.84-1.34.4-.59.65-1.2.8-1.82.08-.37.13-.75.18-1.13s.09-.77.16-1.16c.19-.78.48-1.55 1.01-2.29-.81.16-1.5.45-2.07.86-.56.4-1 .91-1.34 1.5-.33.59-.52 1.24-.62 1.94-.08.69-.06 1.4.07 2.1.08.4.23.76.24 1.16.01.32-.02.55-.09.79l.01.03-.01-.03c-.03.08-.06.16-.09.25.04-.09.07-.17.09-.25l-.13-.59c-.42-1.74-.66-3.51-.85-5.27-.03-.33-.05-.66-.08-.99.22-.68.48-1.27.83-1.81.26-.4.62-.71 1.06-1.12.52-.49.83-1.02 1.11-1.59.16-.33.28-.69.39-1.04.11-.36.24-.72.39-1.08.29-.71.78-1.38 1.39-2-1.59 0-2.85.6-3.69 1.6-.42.5-.77 1.09-.97 1.73-.22.64-.35 1.33-.35 2.01 0 .39.04.76-.01 1.15-.04.31-.11.52-.23.74-.03-.96-.04-1.91-.01-2.86.05-1.3.16-2.58.32-3.84-.01.02-.02.03-.03.05.01-.02.02-.04.03-.05.06-.42.11-.84.18-1.26-.06.42-.12.84-.18 1.26.37-.6.68-1.13 1.14-1.56.34-.33.74-.56 1.22-.86.57-.37 1.01-.81 1.37-1.31.43-.58.72-1.25 1.15-1.88.44-.62.98-1.19 1.71-1.65-.77-.15-1.47-.14-2.12.01-.64.15-1.21.44-1.71.83-1 .79-1.67 2.02-1.97 3.32-.08.37-.08.74-.22 1.1-.1.28-.22.47-.37.66.36-2.2.9-4.31 1.57-6.31-.02.02-.03.03-.05.05.08-.39.17-.76.27-1.15.08-.05.14-.1.21-.15.75-2.03 1.64-3.95 2.61-5.7.53-.4.99-.75 1.54-.98.41-.17.85-.23 1.38-.34.62-.14 1.17-.37 1.65-.69.56-.38 1.08-.86 1.65-1.28.6-.4 1.28-.72 2.08-.89-1.26-.79-2.5-.89-3.67-.54-.57.19-1.11.49-1.6.87-.47.4-.91.87-1.26 1.39-.2.31-.33.63-.58.89-.19.21-.35.34-.55.45-.01.01-.03.01-.04.02.01-.01.03-.01.04-.02.52-.87 1.06-1.7 1.61-2.48.61-.88 1.23-1.7 1.86-2.47.57-.3 1.08-.55 1.64-.67.42-.1.85-.08 1.37-.1.63-.01 1.19-.16 1.7-.38.61-.25 1.17-.64 1.8-.94.65-.28 1.34-.49 2.14-.51-1.07-.96-2.25-1.28-3.42-1.13-1.16.15-2.27.79-3.12 1.68-.25.25-.42.54-.7.75-.22.17-.39.27-.6.34-.18.21-.36.42-.54.64.18-.21.36-.43.54-.63 1.42-1.63 2.83-3 4.13-4.12.28-.09.55-.17.81-.24.29-.06.57-.11.86-.12.42-.02.82.06 1.32.13.61.1 1.16.04 1.69-.08.63-.14 1.23-.42 1.88-.61.67-.16 1.36-.24 2.13-.15-.87-1.09-1.94-1.58-3.09-1.63-1.13-.04-2.3.39-3.26 1.1-.28.19-.49.44-.79.6-.23.12-.41.19-.62.22.45-.37.89-.71 1.3-1.02.64-.47 1.2-.89 1.72-1.22.51-.34.94-.63 1.31-.84.36-.22.64-.39.82-.5.11-.07.18-.11.23-.14-.12-.05-.24-.1-.36-.15-.01 0-.01.01-.02.01-.19.11-.47.28-.83.5-.37.21-.81.5-1.32.84h-.01c-.06.07-.2.23-.34.39-.07.07-.12.14-.17.21.06-.07.11-.13.17-.21.14-.16.27-.32.34-.39.03.01.04 0 .04 0l.21-.72c.22-.79 1.01-1.15 1.59-1.57.82-.55 1.67-.99 2.39-1.63m-19.65 24.1c-.06.05-.13.1-.21.15-.1.38-.2.76-.28 1.14l.05-.05c.44-.51.88-.93 1.37-1.27.37-.26.81-.4 1.33-.6.63-.24 1.09-.6 1.54-1 .26-.24.49-.5.71-.78.23-.27.47-.55.73-.81.51-.53 1.17-.95 1.93-1.28-1.39-.57-2.71-.47-3.8.11-1.1.58-1.98 1.62-2.48 2.82-.14.34-.23.69-.42 1.01-.16.24-.29.41-.47.56m21.78-21.38c1.53-.98 2.03-2.22 3.81-2.76-1.5-.81-2.84-1.39-4.33-.59-1.53.83-1.92 2.23-3.3 2.99-.15.08-.24.17-.35.24.12.05.24.1.36.15 1.39.56 2.58.76 3.81-.03"/><path clip-path="url(#a)" d="m128.15 69.09c.13.13.27.25.41.39-.06-.44-.01-.96.06-1.33.19-1.14.12-1.97-.07-2.63-.17-.59-.47-1.01-.84-1.36-.37-.36-.8-.64-1.28-.91-.95-.56-2.02-1.12-3.1-2.39.03.42.07.79.14 1.13.06.35.14.66.24.94.19.57.47 1 .78 1.4s.66.74 1.04 1.06c.37.33.75.66 1.13 1 .54.5 1.25 1.04 1.37 1.86l.09.78c.01.02.02.04.03.06m12.86 27.43c.09-.38.14-.77.2-1.16-.06.39-.11.77-.2 1.16m.16 7.52c.02-.14.03-.28.05-.42-.02.14-.04.28-.05.42m-.34.55-.05.14zm-.3-10.57c-.01-.01-.01-.02-.02-.03.01.01.01.02.02.03l-.05-1.21zm-4.8-14.62-.11-.24zm-2.44-4.07c-.05-.15-.12-.3-.17-.44.05.15.11.29.17.44zm-1.67-2c-.01-.01-.03-.01-.04-.02.01 0 .02.01.04.02l-.62-.92zm-4.93-5.09c-.1-.1-.2-.21-.3-.32.1.11.2.21.3.32m-3.12-2.48c-.06-.08-.09-.19-.13-.29.04.1.07.22.13.29m16.2 43.41c-.02-.04-.03-.08-.04-.12.01.03.03.07.04.12zm-.19.12-.09.34-.07.25.07-.25zm-4.18 11.52c-.12.06-.25.11-.34.19.1-.07.22-.13.34-.19m-3.28 3.97c-.3.33-.63.64-.95.95.32-.31.65-.62.95-.95zm-1.53 2.72-.39.25zm-7.16 6.25c-.43.15-.85.3-1.27.44.42-.15.85-.29 1.27-.44zm-5.66 2.52-1.33.46zm-2.94 2.04c-.15.06-.29.11-.43.16.14-.05.29-.1.43-.16 0 0 0 .01 0 0m-1.24.13c-.06.01-.13.01-.19.02.07 0 .13-.01.19-.02m31.24-37.08c.4-.58.59-1.17.66-1.77.05-.6-.01-1.2-.09-1.84-.1-.64-.21-1.32-.25-2.07-.07-.75-.01-1.58.14-2.54-.7.66-1.22 1.28-1.58 1.87-.18.3-.32.59-.43.88-.12.29-.21.58-.28.86-.14.57-.17 1.14-.22 1.72-.04.58-.03 1.17-.1 1.76-.05.43-.06.9-.14 1.36-.1.45-.27.89-.61 1.23-.23.23-.44.45-.68.67l-.05.12c.02-.17.04-.34.05-.5.16-1.79.18-3.57.13-5.33-.03-.61-.07-1.21-.12-1.81 0-.05-.01-.1-.01-.14 0 .05.01.1.01.14.29-.44.72-.86 1.07-1.14 1.01-.83 1.57-1.59 1.89-2.3.29-.64.33-1.23.28-1.81-.04-.58-.23-1.14-.43-1.74-.1-.3-.21-.6-.31-.92-.11-.32-.22-.65-.31-1-.17-.71-.33-1.49-.33-2.45-.56.77-.93 1.44-1.15 2.08-.24.64-.34 1.22-.35 1.79-.05 1.14.24 2.22.35 3.38.05.42.12.87.12 1.32-.01.45-.06.89-.33 1.29l-.52.76c-.01.04-.01.07-.02.11-.09-.92-.21-1.84-.36-2.74-.26-1.54-.61-3.04-1.02-4.48-.09.2-.14.4-.15.59 0-.19.06-.39.15-.59-.04-.14-.08-.29-.12-.43.04.14.08.28.12.43.19-.47.55-.94.81-1.27.78-.97 1.22-1.81 1.38-2.54.14-.65.1-1.23-.05-1.77-.17-.54-.44-1.04-.73-1.57-.31-.52-.65-1.07-.94-1.71-.32-.63-.57-1.37-.76-2.26-.38.82-.63 1.54-.74 2.19-.05.32-.07.63-.07.92 0 .3.02.58.06.85.08.55.25 1.06.42 1.58s.39 1.03.53 1.57c.11.39.27.81.36 1.24.08.43.08.87-.09 1.29-.12.27-.22.54-.34.81v.12c-.71-2.34-1.6-4.54-2.61-6.57.1-.48.34-.98.54-1.34.29-.53.51-1.02.65-1.47.14-.44.2-.84.22-1.2.03-.65-.11-1.19-.36-1.67s-.58-.93-.97-1.37c-.76-.9-1.64-1.85-2.29-3.5-.47 1.71-.4 2.89-.04 3.9.17.51.41.97.68 1.43.25.47.53.93.78 1.41.18.35.39.73.55 1.12s.25.81.15 1.24l-.19.83c.01.03.01.07.02.1.08.37.16.74.22 1.11-.06-.37-.14-.74-.22-1.11-.93-1.81-1.95-3.47-3.02-4.97-.18-.26-.37-.52-.56-.77.02-.47.16-.99.29-1.36.4-1.13.47-1.99.39-2.69-.07-.64-.31-1.11-.62-1.54-.16-.21-.33-.41-.52-.6s-.41-.36-.62-.54c-.44-.36-.9-.75-1.38-1.2-.24-.23-.47-.49-.7-.78s-.47-.61-.69-.98c-.17 1.7.09 2.83.6 3.73.24.46.55.87.88 1.26.32.4.65.8.98 1.21.46.61 1.1 1.28 1.07 2.13l-.05.82c.01.03.02.05.03.08.08.1.15.2.23.31-.08-.1-.15-.2-.23-.31-1.43-1.88-2.91-3.48-4.32-4.82 0 .04.03.08.03.12-.01-.04-.03-.07-.03-.12-.14-.13-.28-.26-.41-.39.19.32.38.63.57.95-.18-.32-.38-.63-.57-.95-1.28-1.19-2.5-2.17-3.55-2.95-.46-.33-.88-.64-1.27-.91-.12-.41-.15-.9-.15-1.26 0-1.12-.18-1.91-.47-2.5-.51-1.07-1.39-1.44-2.36-1.85-.5-.18-1.03-.37-1.58-.65-.56-.27-1.14-.61-1.74-1.15.33 1.6.92 2.47 1.62 3.15.72.64 1.56 1.08 2.39 1.63.58.42 1.37.79 1.59 1.57l.21.72s.01.02.04.04c.06.07.2.23.34.39s.25.29.31.37c-.06-.08-.17-.21-.31-.37s-.27-.32-.34-.39c0 0 0 0-.01 0-.51-.34-.95-.63-1.32-.84-.36-.22-.65-.39-.83-.5-.01-.01-.01-.01-.02-.01-.11-.06-.2-.15-.35-.24-1.39-.76-1.77-2.17-3.3-2.99-1.49-.79-2.83-.21-4.33.59 1.78.53 2.29 1.78 3.81 2.76 1.23.79 2.41.59 3.8.03.05.03.12.07.23.14.19.11.46.28.82.5.37.21.8.5 1.31.84.51.33 1.08.75 1.72 1.22.41.31.85.65 1.31 1.02.07.01.15.02.24.02-.09 0-.17-.01-.24-.02-.21-.03-.39-.1-.62-.22-.3-.16-.52-.41-.79-.6-.96-.71-2.13-1.13-3.26-1.1-1.15.05-2.22.54-3.09 1.63.77-.1 1.47-.01 2.13.14.65.19 1.25.47 1.88.61.53.13 1.08.18 1.69.08.5-.07.91-.16 1.32-.13.28.02.57.06.85.12.26.07.53.15.82.24-.3-.26-.59-.5-.87-.73.28.23.57.47.87.73.02.01.04.01.06.02-.02-.01-.04-.01-.06-.02 1.3 1.12 2.71 2.49 4.13 4.12.17.2.35.41.52.62-.17-.21-.35-.42-.52-.62-.21-.07-.38-.17-.6-.34-.28-.21-.45-.51-.7-.75-.85-.89-1.96-1.53-3.12-1.68-1.17-.15-2.35.17-3.42 1.13.8.02 1.49.24 2.14.51.63.3 1.18.69 1.8.94.51.22 1.07.37 1.7.38.52.01.95 0 1.37.1.57.12 1.07.38 1.64.67.63.77 1.25 1.59 1.86 2.47.55.78 1.09 1.61 1.61 2.48.07.04.14.07.22.11-.08-.04-.15-.07-.22-.11-.2-.11-.35-.24-.55-.45-.25-.27-.38-.59-.57-.89-.35-.52-.79-1-1.26-1.39-.5-.38-1.04-.68-1.6-.87-1.17-.35-2.41-.24-3.67.54.8.18 1.47.5 2.07.89.58.42 1.09.9 1.65 1.28.48.31 1.03.55 1.65.69.53.11.97.17 1.38.34.54.23 1.01.58 1.54.98.01.01.02.01.02.02-.01 0-.01-.01-.02-.02.97 1.75 1.86 3.66 2.61 5.7-.18-.15-.31-.31-.46-.56-.19-.32-.28-.66-.43-1-.5-1.2-1.39-2.24-2.48-2.82s-2.42-.68-3.81-.12c.75.33 1.42.76 1.93 1.29.26.26.5.54.73.81.23.28.45.54.71.78.45.4.92.76 1.54 1 .52.2.96.34 1.33.6.49.34.93.76 1.37 1.27.01.01.02.02.03.04-.01-.01-.02-.02-.03-.04.67 2 1.21 4.11 1.57 6.31.05.06.1.11.15.17-.05-.06-.11-.11-.15-.16-.16-.19-.27-.38-.37-.66-.14-.36-.14-.73-.22-1.1-.3-1.31-.97-2.54-1.97-3.32-.51-.39-1.07-.68-1.71-.83-.65-.15-1.35-.15-2.12 0 .73.46 1.27 1.03 1.71 1.65.42.62.72 1.3 1.15 1.88.35.49.79.94 1.37 1.31.48.31.89.54 1.22.86.46.44.77.96 1.14 1.56.16 1.26.27 2.54.32 3.84.02.95.02 1.9-.01 2.86-.12-.22-.18-.43-.23-.74-.05-.39-.01-.76-.01-1.15 0-.69-.13-1.38-.35-2.01-.2-.64-.55-1.23-.97-1.73-.84-1-2.11-1.6-3.69-1.6.6.62 1.1 1.29 1.38 2 .15.36.28.72.4 1.08.11.36.23.71.39 1.04.29.57.59 1.1 1.11 1.59.43.41.8.72 1.06 1.12.35.53.61 1.13.83 1.81.01.02.01.04.02.06-.01-.02-.01-.04-.02-.06-.02.33-.04.66-.08.99-.19 1.76-.43 3.53-.85 5.27l-.13.59-.01.04.01-.04c-.08-.24-.11-.48-.09-.79.01-.4.16-.76.24-1.16.12-.7.15-1.41.06-2.1-.11-.69-.29-1.35-.62-1.94-.34-.59-.78-1.1-1.34-1.5-.57-.4-1.26-.69-2.07-.86.53.74.82 1.51 1.01 2.29.08.39.11.78.16 1.16s.1.76.18 1.13c.14.62.4 1.23.79 1.82.34.5.64.88.84 1.34.27.61.35 1.25.46 1.98 0 .02.01.04.01.07 0-.02-.01-.04-.01-.07l-.17.63-.41 1.28c-.13.43-.27.85-.44 1.27-.43 1.2-.93 2.37-1.48 3.51 0 .04.01.07.01.11 0-.03-.01-.07-.01-.11-.02-.26.01-.5.08-.81.1-.4.32-.74.48-1.12.29-.66.43-1.39.51-2.09.05-.71-.03-1.42-.23-2.07-.41-1.32-1.38-2.42-2.93-3.07.17.42.3.84.39 1.26s.14.83.13 1.24c0 .81-.14 1.6-.12 2.36.01.33.05.66.12.99s.15.66.3 1c.24.57.46 1.03.57 1.53.12.66.08 1.33.04 2.09.18-.33.34-.67.51-1.01-.17.34-.33.68-.51 1.01 0 .03 0 .05-.01.07l.7-1.11-.7 1.11c0-.03 0-.05 0-.07-1.15 2.19-2.5 4.25-4 6.16-.01.04-.01.08-.01.11 0-.04 0-.08.01-.11.03-.26.11-.48.26-.77.2-.37.48-.67.72-1.02.21-.31.4-.62.57-.95.15-.34.29-.68.39-1.03s.19-.7.22-1.06.04-.72 0-1.07c-.03-.35-.1-.7-.2-1.03-.11-.34-.26-.67-.45-.98-.38-.63-.92-1.2-1.62-1.69.09.46.13.91.13 1.35.01.44-.06.85-.14 1.26-.15.82-.5 1.55-.63 2.34-.11.67-.17 1.33-.02 2.09.13.63.24 1.13.22 1.65-.03.68-.18 1.36-.41 2.08.19-.22.37-.46.56-.68-.18.23-.37.46-.56.68-.01.02-.01.04-.02.06.01-.02.01-.04.02-.06-1.51 1.8-3.16 3.44-4.89 4.89-.17.15-.35.28-.52.43-.01.03-.02.07-.03.1.01-.03.02-.07.03-.11.1-.25.23-.45.43-.71.27-.34.63-.56.95-.85.56-.51 1.04-1.13 1.41-1.76.35-.67.6-1.36.7-2.08.17-1.45-.24-2.9-1.46-4.22 0 .24-.02.48-.04.71-.03.23-.08.45-.12.66-.1.43-.24.85-.41 1.24-.37.76-.83 1.45-1.16 2.19-.27.63-.44 1.32-.49 2.08-.03.65-.01 1.18-.14 1.71-.19.66-.5 1.28-.88 1.97-2.15 1.62-4.39 2.98-6.63 4.08-.03.04-.06.09-.08.14.03-.05.06-.1.08-.14.15-.22.32-.4.58-.6.35-.28.77-.4 1.15-.62 1.35-.78 2.48-1.95 2.98-3.35.52-1.38.4-2.97-.5-4.54-.12.47-.28.92-.47 1.34-.2.4-.44.78-.7 1.13-.26.36-.56.66-.84.96-.29.31-.56.63-.8.96-.42.56-.75 1.2-.96 1.97-.18.64-.29 1.17-.54 1.66-.32.65-.8 1.17-1.33 1.77.21-.09.42-.2.63-.3-.21.1-.42.2-.63.3-.03.03-.05.05-.07.08.03-.03.05-.05.07-.08-2.17.97-4.32 1.7-6.37 2.22-.07.02-.14.03-.21.05 0 .03-.01.06-.01.09.23.23.45.47.68.71 1.15-.31 2.33-.68 3.53-1.12.17.06.34.12.5.2.41.2.81.43 1.11.64.62.43 1.2.75 1.74.98s1.02.35 1.48.41c.41.05.79.05 1.14 0 .36-.05.69-.16 1.01-.28.64-.26 1.24-.63 1.83-1.08.61-.44 1.24-.9 1.97-1.37.37-.23.77-.44 1.21-.65.43-.22.91-.42 1.45-.6-1.07-.35-1.94-.5-2.75-.55-.8-.05-1.49.06-2.14.24-.66.17-1.26.42-1.86.71-.61.26-1.21.56-1.84.83-.93.35-1.96.96-3.03.6l-1.06-.35c-.01 0-.03 0-.04.01 2.66-1.04 5.38-2.42 8.01-4.17-.02 0-.04.01-.06 0h.06c.18-.12.36-.24.54-.37-.18.12-.36.25-.54.37.6.05 1.27.27 1.73.44 1.37.52 2.49.7 3.36.59 1.6-.16 2.52-1.09 3.47-2.18.95-1.11 1.95-2.35 3.8-3.51-1.08-.09-1.96-.05-2.73.08s-1.38.4-1.98.7c-.59.3-1.09.7-1.6 1.09-.52.39-1.01.82-1.56 1.2-.4.27-.81.6-1.26.87-.44.26-.95.42-1.48.38l-1.08-.09c-.03.01-.07.02-.1.03 1.15-.79 2.29-1.66 3.4-2.6 1.13-.96 2.23-2.01 3.27-3.12-.24.04-.46.1-.64.2.18-.1.4-.16.64-.2.08-.09.16-.18.25-.26-.08.09-.17.18-.25.27.57-.09 1.26-.03 1.75.04 1.42.19 2.49.1 3.33-.17.73-.26 1.27-.66 1.71-1.14.44-.49.76-1.07 1.1-1.69.35-.61.65-1.3 1.11-1.99.44-.69.97-1.42 1.75-2.16-2.11.27-3.34.91-4.32 1.75-.24.21-.45.44-.67.67s-.42.47-.62.71c-.2.25-.39.5-.59.75s-.42.49-.63.73c-.32.35-.62.77-1 1.1s-.8.61-1.32.69c-.34.06-.69.1-1.04.14l-.07.05c1.88-2.06 3.58-4.35 5.04-6.82.53-.21 1.18-.3 1.67-.34.7-.06 1.31-.16 1.83-.31.51-.15.94-.34 1.3-.57.32-.2.6-.42.83-.65.23-.24.4-.51.56-.78.3-.56.53-1.16.7-1.83.37-1.33.71-2.8 1.83-4.53-.48.17-.9.36-1.29.55s-.73.39-1.03.61c-.61.42-1.03.9-1.41 1.39-.38.5-.65 1.04-.93 1.58-.29.54-.55 1.11-.85 1.66-.23.4-.45.85-.73 1.25-.27.41-.62.76-1.1.94l-.96.36-.06.06c1.16-2.02 2.15-4.16 2.94-6.37.14-.37.27-.74.38-1.12-.19.13-.36.27-.47.43l.19-.31-.19.3c.11-.16.28-.3.47-.43.02-.06.04-.12.06-.18l.14-.43-.13.43c-.02.06-.04.12-.06.18.45-.31 1.06-.53 1.51-.66 1.33-.39 2.18-.91 2.79-1.47.55-.5.83-1.06 1.02-1.65s.26-1.21.29-1.87c.04-.66.08-1.37.18-2.13.05-.38.14-.78.24-1.2s.24-.86.43-1.33c-.86.52-1.48 1.04-1.97 1.56-.5.52-.82 1.06-1.07 1.61-.26.55-.43 1.11-.57 1.69-.16.57-.3 1.16-.48 1.75-.12.43-.24.9-.43 1.34s-.44.85-.85 1.12l-.84.53-.06.09.27-.86.35-1.32.17-.66.14-.67c.33-1.4.54-2.82.71-4.24-.06.06-.08.12-.13.18.05-.06.07-.12.13-.18.38-.38.92-.71 1.32-.92 1.16-.64 1.92-1.3 2.37-1.95"/><path clip-path="url(#a)" d="m101.07 118.47c3.16.53 3.57.03 4.01-.6.37 1.15 2.39.99 3.91 1.03-4.11 1.95-3.08 5.99-4.24 10.06-.79-4.15.59-8.03-3.68-10.49m-1.02-35.69c-4.62-1.96-9.21-4-13.79-6.06-1.85-.83-2.98-.35-3.87 1.5-2.11 4.38-4.28 8.74-6.63 12.99-1.12 2.02-.84 3.54.45 5.33 4.12 5.72 7.98 11.63 12.21 17.27 1.87 2.49 2.28 4.94 1.98 7.9-.22 2.17-.38 4.34-.52 6.53 4.16.33 10.15 2.02 16.68 7.74 3.28-.52 6.43-1.45 9.38-2.75-.19-3.99-.4-7.89-.45-11.79-.02-1.56.29-3.22.88-4.66 1.82-4.5 3.98-8.87 5.7-13.41.81-2.12.9-4.51 1.42-7.34-2.89 3.02-5.24 5.36-7.46 7.83-1.05 1.17-2.04 1.42-3.4.65-1.66-.95-3.36-1.82-5.23-2.83-.83 4.18-1.62 8.11-2.4 12.05-1.74-2.81-2.84-5.75-4.27-8.52-.9-1.73-2.09-3.42-3.53-4.73-3.1-2.82-6.43-5.38-9.7-8.07.69-1.48 1.3-2.79 2-4.29 1.32.4 2.39.79 3.49 1.04 3.65.82 7.08-.75 8.12-3.65.45-1.23.36-2.12-1.06-2.73m-2.4-8.73c2.99-5.43 2.77-6-3.23-8.07-.53-.18-1.42-.55-1.94-.49-.62.07-1.2.38-1.45.83-1.51 2.81-2.88 5.7-4.36 8.68 2.94 1.23 5.61 2.34 8.48 3.54.93-1.67 1.72-3.07 2.5-4.49m11.04 5.06c1.46-2.24 3.61-4.42 2.15-6.05-1.48-1.65-3.93-2.99-5.96-3.98-.28-.14-1.05-.38-1.32-.39-.67-.03-1.12.42-1.39.88-1.8 3.13-3.47 6.34-5.12 9.42 2.33 2.55 8.23 1.69 6.66 7.59 1.59-2.53 3.36-4.98 4.98-7.47m10.2 5.31c.39-.48 1.22-1.36 1.06-1.84-.21-.57-.59-.95-.98-1.31-1.48-1.37-3-2.71-4.56-4-1.29-1.07-2.21-.76-3.11.69-2.04 3.31-4.24 6.53-6.38 9.77-2.98 4.51-2.95 4.73 1.6 7.83.07.05.15.07.2.13 1.23 1.12 2.16.9 3.2-.4 2.93-3.66 5.98-7.24 8.97-10.87m2.69 1.93c-.31-.25-.66-.45-1.17-.8-2.81 3.28-5.6 6.53-8.39 9.78-2.44 2.83-2.34 3.97.87 5.96.56.35 1.88.27 2.37-.16 2.31-2.03 4.43-4.27 6.66-6.39 4.04-3.84 4.02-4.75-.34-8.39"/><path clip-path="url(#a)" d="m113.06 143.07c-7.31-9.65-18.21-11.98-18.21-11.98-7.31-1.72-17.36 2.32-17.36 2.32l-14.7 6.02c-7.65 3.09-13.84 3.87-13.84 3.87-8.69 1.62-14.8-4.41-14.8-4.41 5.1 6.21 12.19 7.05 12.19 7.05 7.66.99 17.88-3.18 17.88-3.18 6.96-3.18 17.88-7.22 17.88-7.22 6.77-2.51 12.7-2.06 12.7-2.06 10.29.66 16.62 7.57 18.26 9.59m.44.56s-.16-.22-.44-.56c.14.19.3.36.44.56m-18.23 2.22c-.79-.49-1.57-.99-2.36-1.49.2-.91.41-1.81.61-2.73-.02.02-.03.02-.04.03-.65.59-1.31 1.17-1.96 1.76-.03.03-.05.03-.08.01-.75-.49-1.5-.98-2.24-1.47-.02-.01-.03-.02-.05-.03 0 .02.01.04.02.06.36.84.71 1.67 1.07 2.51.01.03.02.05-.01.08-.56.49-1.13.97-1.69 1.46-.11.1-.22.19-.34.29h.04c.88-.07 1.75-.13 2.62-.2.05 0 .07.01.09.06.34.84.68 1.67 1.02 2.51.01.02.01.03.02.05.01-.02.02-.04.02-.06.18-.87.36-1.74.54-2.62.01-.04.03-.06.07-.06.8-.04 1.6-.09 2.41-.13.08-.01.16-.01.24-.02-.01 0-.01-.01 0-.01m-7.93-3.62c-.01 0-.01 0 0 0 0 .01 0 .01 0 0m3.2 7.71c.01-.07.01-.14.02-.21-.01 0-.01 0-.01 0 0 .01-.01.03-.01.04-.2.78-.54 1.5-1 2.16-.58.82-1.32 1.47-2.2 1.96-.47.25-.97.45-1.48.58-.48.12-.96.19-1.46.2-1.08.01-2.11-.22-3.07-.71-1.34-.68-2.33-1.7-3-3.04-.28-.56-.47-1.15-.58-1.77-.19-1.06-.13-2.12.19-3.15.33-1.07.89-1.99 1.69-2.77.7-.68 1.51-1.18 2.44-1.49.42-.14.86-.24 1.3-.29 1.13-.13 2.22.03 3.27.46.24.1.47.22.7.33-.01-.01-.01-.01-.02-.02-.93-.75-1.96-1.29-3.12-1.61-1.57-.43-3.13-.39-4.67.13-.57.19-1.1.45-1.61.76-.52.32-.99.7-1.42 1.13-.97.97-1.65 2.12-2.04 3.43-.56 1.88-.49 3.74.17 5.57.2.56.46 1.09.77 1.59.34.55.73 1.07 1.18 1.53 1.09 1.12 2.38 1.9 3.89 2.32 1.23.34 2.47.38 3.72.13.44-.09.86-.21 1.28-.38.65-.25 1.25-.58 1.8-.99.69-.51 1.29-1.12 1.78-1.83.86-1.23 1.34-2.58 1.49-4.06m40.77 14.82c-10.91-12.48-23.77-10.79-23.77-10.79-5.93.34-14.35 4.04-14.35 4.04-5 2.41-12.41 5.22-15.91 6.4-4.84 1.84-10.22 2.02-10.22 2.02-8.56.29-15.96-7.33-15.96-7.33 8.59 10.77 17.88 10.23 17.88 10.23 6.96.08 16.24-3.87 16.24-3.87 5.85-2.7 17.36-7.04 17.36-7.04 5.53-2.15 12.03-1.64 12.03-1.64 9.67.8 16.7 7.98 16.7 7.98"/><path clip-path="url(#a)" d="m87.41 174.57 3.44-2.69-2.46-.46-3.15 2.56.57-3.04-2.08-.39-1.4 7.5 2.08.39.36-1.94.92-.7 1.37 3.14 2.5.47zm5.56 5.15.24-2.11-2.14-.25-.24 2.11zm6.52-3.92 3.02-3.15-2.5-.1-2.75 2.98.13-3.09-2.11-.09-.32 7.62 2.11.09.08-1.97.81-.83 1.8 2.91 2.54.11zm6.18 2.17-2.16.07.07 2.12 2.16-.07zm4.36-4 2.28-.22-.18-1.84-6.66.63.17 1.85 2.28-.22.54 5.75 2.11-.2zm3.27 5.41 2.13-.34-.33-2.1-2.13.34zm4.79-4.77c-.26-1.08.26-2.14 1.29-2.39.71-.17 1.28.05 1.83.47l1.26-1.57c-.88-.75-2.01-1.15-3.52-.78-2.25.54-3.5 2.64-2.97 4.81v.02c.54 2.21 2.64 3.42 4.76 2.91 1.64-.4 2.41-1.34 2.88-2.47l-1.82-.73c-.31.65-.68 1.12-1.45 1.31-1.04.25-1.98-.44-2.25-1.55zm9.5 1.26-.68-2.01-2.04.69.68 2.01z"/><path clip-path="url(#a)" d="m92.43 60.09 3.68-.52-.13-.94-2.17.31.72-.74c.78-.81 1.15-1.28 1.03-2.11v-.01c-.13-.93-.9-1.44-1.93-1.29-.89.13-1.31.56-1.71 1.29l.86.51c.3-.51.54-.76.92-.81.39-.06.7.13.76.55.06.41-.15.72-.69 1.32l-1.46 1.59zm7.65-3.18c.02.91-.39 1.59-1.05 1.61-.67.01-1.12-.65-1.14-1.57v-.01c-.02-.92.39-1.59 1.05-1.61s1.12.66 1.14 1.57zm1.13-.04v-.01c-.03-1.45-.96-2.56-2.28-2.53-1.33.03-2.21 1.19-2.17 2.65v.01c.03 1.45.94 2.56 2.28 2.53s2.21-1.19 2.17-2.65m2.76 2.74.39-5.04-.75-.06-1.47.32.16.92.89-.15-.3 3.92zm4.74-1.93v.01c-.14.9-.67 1.5-1.33 1.39s-.98-.85-.83-1.75v-.01c.15-.9.67-1.49 1.33-1.39.65.1.97.85.83 1.75m-.66-2.74c-1.31-.21-2.39.77-2.62 2.2v.01c-.23 1.43.46 2.68 1.78 2.9 1.32.21 2.39-.77 2.62-2.2v-.01c.23-1.43-.48-2.69-1.78-2.9"/></g></svg>