<?xml version="1.0" encoding="utf-8"?>
<!-- Generator: Adobe Illustrator 23.0.1, SVG Export Plug-In . SVG Version: 6.00 Build 0)  -->
<svg version="1.1" id="Layer_1" xmlns="http://www.w3.org/2000/svg" xmlns:xlink="http://www.w3.org/1999/xlink" x="0px" y="0px"
	 viewBox="0 0 199.97 186.26" style="enable-background:new 0 0 199.97 186.26;" xml:space="preserve">
<style type="text/css">
	.st0{clip-path:url(#SVGID_2_);fill:#FFFFFF;}
</style>
<g>
	<defs>
		<rect id="SVGID_1_" x="6.44" y="6" width="187.09" height="174.26"/>
	</defs>
	<clipPath id="SVGID_2_">
		<use xlink:href="#SVGID_1_"  style="overflow:visible;"/>
	</clipPath>
	<path class="st0" d="M175.19,128.72c-3.07,7.93-7.35,15.24-12.62,21.73c0.09,0.02,0.19,0.03,0.28,0.05
		c3.23,0.78,6.42,1.66,9.66,2.39c2.69,0.6,4.66,0.47,6.34-2.49c1.54-2.73,3.18-5.4,4.71-8.13c1.03-1.84,0.67-3.99-0.81-5.56
		c-2.33-2.47-4.66-4.94-7.02-7.38C175.53,129.13,175.35,128.93,175.19,128.72 M20.38,87c-3.45,1.1-6.95,1.99-10.42,3.01
		C8.2,90.52,6.7,91.55,6.6,93.47c-0.08,1.69-0.12,3.38-0.14,5.07H6.44c0,0.58,0,1.17,0,1.75c0,0.18-0.01,0.35-0.01,0.53h0.01
		c0,1.15,0,2.3,0.01,3.45c0.02,2.48,1.05,4.03,3.41,4.81c2.79,0.92,5.62,1.76,8.47,2.5c0.73,0.19,1.41,0.41,2.04,0.69
		c-0.64-4.1-0.98-8.31-0.98-12.59C19.39,95.36,19.73,91.13,20.38,87 M24.78,70.64c3.06-7.93,7.34-15.25,12.61-21.73
		c-0.09-0.02-0.18-0.03-0.27-0.05c-3.23-0.78-6.43-1.66-9.66-2.39c-2.68-0.6-4.66-0.47-6.34,2.49c-1.54,2.73-3.18,5.4-4.71,8.14
		c-1.03,1.84-0.68,3.99,0.81,5.56c2.33,2.47,4.66,4.94,7.02,7.38C24.44,70.22,24.62,70.43,24.78,70.64 M49.43,36.91
		c6.48-5.23,13.79-9.47,21.7-12.51c-0.03-0.03-0.06-0.05-0.09-0.08c-2.53-2.39-5.04-4.81-7.55-7.24c-1.91-1.85-4.1-2.18-6.27-0.91
		c-2.5,1.45-5,2.89-7.52,4.32c-2.78,1.57-3.44,3.34-2.79,6.45C47.42,29.38,48.91,33.88,49.43,36.91 M99.99,19.08
		c4.27,0,8.46,0.33,12.54,0.97c-1.06-3.33-2-6.69-2.93-10.06c-0.74-2.66-2.28-3.96-4.99-3.97c-3.04-0.02-6.09-0.02-9.13,0
		c-2.56,0.01-4.09,1.05-4.88,3.47c-0.92,2.84-1.77,5.7-2.53,8.59c-0.19,0.71-0.42,1.38-0.7,1.99
		C91.48,19.42,95.69,19.08,99.99,19.08 M153.1,27.13c0.77-2.95,0.09-4.78-2.51-6.33c-2.55-1.52-5.16-2.95-7.71-4.47
		c-2.03-1.21-4.26-1.05-5.99,0.57c-2.47,2.32-4.93,4.66-7.38,7.01c-0.2,0.19-0.4,0.36-0.61,0.52c7.92,3.05,15.24,7.31,21.73,12.56
		c0.01-0.07,0.02-0.14,0.04-0.21C151.45,33.55,152.26,30.34,153.1,27.13 M141.26,153.65l-4.95-6.45l-0.41,0.31
		c-1,0.77-0.61,1.7,1.17,4.02c2.07,2.7,2.77,3.2,3.75,2.45L141.26,153.65z M39.11,121.79l1.34-0.26l-0.44-1.24l-1.23,0.64
		c-2.02,1.03-2.84,1.43-2.88,1.47l0.02,0.05C35.98,122.44,36.88,122.26,39.11,121.79 M58.82,50.27c0.44-0.37,0.42-1.08-0.33-1.96
		c-0.73-0.86-1.4-1.05-1.94-0.6l-0.48,0.4l2.21,2.61L58.82,50.27z M83.18,38.54l1.27-0.34l-0.55-1.27
		c-0.88-2.09-1.22-2.94-1.25-2.99l-0.05,0.01c0,0.06,0.11,0.97,0.41,3.23L83.18,38.54z M135.59,47.11l0.59-1.25
		c0.98-2.04,1.39-2.86,1.41-2.92l-0.04-0.03c-0.04,0.04-0.65,0.73-2.15,2.45l-0.91,1.02L135.59,47.11z M154.81,59.49
		c-0.57-0.78-1.25-0.54-4.01,1.46c-2.82,2.06-3.26,2.67-2.71,3.43c0.55,0.75,1.22,0.55,4-1.48
		C154.95,60.82,155.36,60.24,154.81,59.49 M159.72,67.18c-0.47-0.84-1.18-0.69-4.15,0.97c-3.05,1.7-3.56,2.25-3.1,3.08
		c0.45,0.81,1.14,0.69,4.15-0.99C159.69,68.52,160.17,67.99,159.72,67.18 M163.51,75.62l-0.14-0.37l-3.5,1.33l0.14,0.37
		c0.29,0.75,0.92,0.85,2.11,0.4C163.31,76.9,163.8,76.39,163.51,75.62 M167.61,93.2l-0.06-0.62l-3.41,0.3l0.06,0.69
		c0.05,0.57,0.64,0.96,1.79,0.86C167.13,94.33,167.68,93.89,167.61,93.2 M168.07,102.78l0-0.05c-0.05-0.02-0.96-0.18-3.21-0.57
		l-1.35-0.25l-0.05,1.32l1.38-0.14C167.11,102.87,168.02,102.8,168.07,102.78 M170.74,120.64c-0.19,0.65-0.73,0.9-1.48,0.67
		c-0.73-0.22-1.05-0.72-0.86-1.37c0.19-0.65,0.73-0.88,1.46-0.66C170.61,119.5,170.93,119.99,170.74,120.64 M170.14,100.06
		l-0.18,4.74l-10.36,1.28l-0.02,0.61l-2.17-0.08l0.14-3.69l2.17,0.08l-0.02,0.62l1.54-0.16l0.07-1.94l-1.52-0.27l-0.02,0.62
		l-2.17-0.08l0.13-3.44l2.17,0.08l-0.02,0.6l6.28,1.26c0.85,0.14,1.7,0.31,1.77,0.33l0.04-0.05c-0.01-0.14-0.01-0.25,0-0.41
		l0.01-0.2L170.14,100.06z M169.81,93.34c0.19,2.13-1.37,3.29-3.61,3.49c-1.44,0.13-2.47-0.21-3.13-1.19l-3.26,1.51l0.06,0.67
		l-2.16,0.19l-0.23-2.57l4.78-1.96l-0.02-0.2l-0.02-0.23l-2.75,0.24l0.05,0.55l-2.17,0.19l-0.33-3.71l2.16-0.19l0.07,0.82l8.09-0.72
		l-0.07-0.82l2.17-0.19L169.81,93.34z M168.98,86.66l-3.62,0.88l-0.53-2.16l1.51-0.37l-0.32-1.3l-2.75,0.67l0.48,1.96l-2.11,0.51
		l-0.48-1.96l-3.03,0.74l0.33,1.37l1.63-0.4l0.53,2.18l-3.74,0.91l-1.64-6.7l2.11-0.52l0.19,0.8l7.9-1.93l-0.19-0.8l2.11-0.52
		L168.98,86.66z M162.98,79.6c-2.51,0.96-4.11,0.27-4.83-1.61l-0.25-0.65l-2.13,0.81l0.32,0.83l-2.03,0.77l-1.47-3.86l2.03-0.77
		l0.29,0.77l7.6-2.89l-0.29-0.77l2.03-0.77l1.39,3.65C166.36,77,165.57,78.62,162.98,79.6 M157.87,72.41
		c-4.48,2.5-6.22,2.09-7.43-0.07c-1.18-2.12-0.69-3.82,3.87-6.37c4.49-2.51,6.22-2.09,7.42,0.06
		C162.92,68.16,162.41,69.87,157.87,72.41 M153.61,64.91c-4.15,3.03-5.92,2.82-7.38,0.82c-1.43-1.96-1.14-3.71,3.08-6.79
		c4.16-3.04,5.92-2.82,7.37-0.84C158.11,60.08,157.81,61.84,153.61,64.91 M153.05,53.76l-1.55,1.52l-0.42-0.43l-2.99,0.48
		l-2.81,5.21l0.42,0.43l-1.55,1.52l-2.49-2.55l1.55-1.52l0.36,0.37l1.66-2.99l-1.4,0.22l-1.52,1.48l0.4,0.41l-1.55,1.52l-2.61-2.68
		l1.55-1.52l0.57,0.59l5.82-5.68l-0.57-0.59l1.55-1.52l2.68,2.74l-1.55,1.52l-0.46-0.47l-0.88,0.86l-1.52,1.46l0.05,0.05
		c0.1-0.02,0.81-0.19,1.75-0.36l2.18-0.39l-0.49-0.5l1.55-1.52L153.05,53.76z M140.29,42.37l-4.26,9.52l0.51,0.33l-1.19,1.81
		l-3.08-2.03l1.19-1.82l0.52,0.34l0.66-1.4l-1.62-1.07l-1.02,1.16l0.52,0.34l-1.19,1.81l-2.87-1.89l1.19-1.81l0.51,0.33l4.33-4.73
		c0.56-0.66,1.15-1.29,1.2-1.34l-0.02-0.06c-0.13-0.06-0.22-0.12-0.35-0.21l-0.16-0.11l1.19-1.81L140.29,42.37z M133.16,37.77
		l-0.87,1.99l-0.75-0.33l-3.26,7.44l0.75,0.33l-0.87,1.99l-3.44-1.51l0.87-1.99l0.62,0.27l0.61-1.4c0.88-2.01,1.92-4.26,1.9-4.26
		l-0.07-0.03c-0.02-0.01-0.86,1.2-1.77,2.44l-1.44,1.92l-1.49-0.65l0.46-2.35c0.31-1.5,0.64-2.93,0.62-2.94l-0.07-0.03
		c-0.02-0.01-0.96,2.28-1.84,4.29l-0.61,1.4l0.62,0.27l-0.87,1.99l-3.27-1.43l0.87-1.99l0.75,0.33l3.26-7.44l-0.75-0.33l0.87-1.99
		l3.77,1.65l-1.24,5.19l0.06,0.03l2.99-4.43L133.16,37.77z M121.41,32.86l-0.52,2.11l-0.8-0.2l-2.44,10.01l-2.6-0.63l-0.4-8.21
		l-0.07-0.02c0,0.02-0.34,1.53-0.82,3.51l-0.5,2.04l0.8,0.19l-0.52,2.11l-3.39-0.83l0.52-2.11l0.8,0.19l1.93-7.89l-0.8-0.19
		l0.51-2.11l3.34,0.81l0.43,8.31l0.07,0.02c0-0.02,0.38-1.71,0.83-3.54l0.51-2.1l-0.8-0.19l0.52-2.11L121.41,32.86z M111.27,30.6
		l-0.3,2.15l-0.81-0.11l-1.13,8.05l0.81,0.11l-0.3,2.15l-4.02-0.56l0.3-2.15l0.81,0.11l1.13-8.05l-0.81-0.11l0.3-2.15L111.27,30.6z
		 M105.23,29.78l-0.03,2.17l-0.6-0.01l-1.78,2.45l1.69,5.67l0.61,0.01l-0.03,2.17l-3.56-0.04l0.03-2.17l0.52,0.01l-0.94-3.29
		l-0.83,1.15l-0.03,2.12l0.57,0.01l-0.03,2.17l-3.74-0.05l0.03-2.17l0.82,0.01l0.1-8.12l-0.82-0.01l0.03-2.17l3.83,0.05l-0.03,2.17
		l-0.66-0.01l-0.01,1.23l-0.05,2.1l0.07,0c0.05-0.09,0.44-0.71,0.98-1.49l1.27-1.82l-0.69-0.01l0.03-2.17L105.23,29.78z
		 M96.53,42.23l-6.66,0.76l-0.25-2.16l0.81-0.09l-0.92-8.07l-0.81,0.09l-0.25-2.16l4.04-0.46l0.25,2.16l-0.81,0.09l0.92,8.07
		l1.2-0.14l-0.18-1.58l2.23-0.26L96.53,42.23z M88.33,41.04l0.59-0.16l0.57,2.1l-3.56,0.96l-0.57-2.1l0.6-0.16l-0.61-1.42
		l-1.88,0.51l0.19,1.54l0.6-0.16l0.57,2.1l-3.32,0.9l-0.57-2.1l0.58-0.16l-0.67-6.37c-0.12-0.85-0.21-1.72-0.21-1.79l-0.06-0.02
		c-0.13,0.05-0.24,0.08-0.39,0.12l-0.19,0.05l-0.57-2.1l4.58-1.24L88.33,41.04z M76.98,35.78l-0.56,0.24l-0.61,2.97l3.88,4.47
		l0.56-0.24l0.87,1.99l-3.27,1.43l-0.87-1.99l0.47-0.21l-2.21-2.61l-0.29,1.39l0.85,1.94l0.52-0.23l0.87,1.99l-3.43,1.5l-0.87-1.99
		l0.75-0.33l-3.26-7.44l-0.75,0.33L68.78,37l3.51-1.54l0.87,1.99l-0.6,0.26l0.49,1.13l0.83,1.93l0.07-0.03
		c0.01-0.1,0.11-0.82,0.28-1.76l0.41-2.18L74,37.09l-0.87-1.99l2.99-1.31L76.98,35.78z M63.63,42.51l4.47,6.79l0.69-0.45l1.19,1.81
		l-3.39,2.23l-1.19-1.81l0.68-0.45l-4.47-6.79l-0.68,0.45l-1.19-1.81l3.39-2.23l1.19,1.81L63.63,42.51z M60.73,40.37
		c-0.57,0.37-1.12,0.21-1.54-0.43c-0.43-0.65-0.36-1.23,0.2-1.6s1.14-0.21,1.57,0.44C61.38,39.41,61.29,39.99,60.73,40.37
		 M60.34,46.77c0.93,1.1,1.25,2.14,0.83,3.24l3.11,1.81l0.52-0.44l1.4,1.66l-1.97,1.67l-4.36-2.78l-0.15,0.13l-0.18,0.15l1.79,2.11
		l0.42-0.36l1.4,1.66l-2.84,2.4l-1.4-1.66l0.63-0.53l-5.25-6.21l-0.63,0.53l-1.4-1.66l3.16-2.67
		C57.04,44.45,58.89,45.06,60.34,46.77 M50.69,50.05l2.72,2.54l-1.52,1.63l-1.14-1.06l-0.91,0.98l2.08,1.93l1.37-1.47l1.59,1.48
		l-1.37,1.47l2.28,2.13l0.96-1.03l-1.23-1.14l1.53-1.64l2.82,2.62l-4.7,5.05l-1.59-1.48l0.56-0.6l-5.95-5.54l-0.56,0.6l-1.59-1.48
		L50.69,50.05z M44.42,60.95l6.68,4.63l0.69-1l-1.3-0.9l1.28-1.84l3.09,2.14l-3.82,5.5l-1.79-1.24l0.47-0.67l-6.68-4.63l-0.47,0.67
		l-1.79-1.24l2.31-3.34l1.79,1.24L44.42,60.95z M39.88,63.95l1.9,1.06l-0.4,0.72l7.1,3.97l0.4-0.71l1.9,1.06l-1.98,3.54l-1.9-1.06
		l0.4-0.71l-7.1-3.97l-0.4,0.72l-1.9-1.06L39.88,63.95z M37.81,65.16c-0.33,0.59-0.9,0.7-1.57,0.33c-0.68-0.38-0.89-0.93-0.56-1.52
		c0.33-0.59,0.91-0.71,1.59-0.33C37.94,64.01,38.14,64.57,37.81,65.16 M35.28,72.58c0.38-0.86,0.86-1.2,1.46-1.3l0.02-0.05
		l-0.51-0.3l0.8-1.83l4.11,1.8l-0.89,2.04l-0.34-0.15c-1.04-0.46-1.95-0.62-2.29,0.17c-0.38,0.87,0.46,1.39,3.07,2.53
		c3.36,1.47,4.18,1.6,4.54,0.78c0.29-0.65-0.29-1.08-1.3-1.66l1.47-1.85c1.26,0.77,2.59,1.64,2.25,3.48c0.4-0.16,0.9-0.15,1.39,0.06
		c0.83,0.36,1.4,1.16,0.87,2.37c-0.21,0.47-0.56,0.96-0.74,1.06l-1.49-0.65c0.14-0.06,0.32-0.23,0.41-0.46
		c0.11-0.25,0.12-0.53-0.23-0.68c-0.47-0.21-0.78,0.26-0.96,0.73l-0.41-0.18c-1.04,0.96-2.88,1.03-6.61-0.6
		C34.93,75.69,34.65,74.03,35.28,72.58 M33.53,77.62l3.92,1.06l-0.58,2.15l-0.84-0.23c-0.93-0.25-1.32,0.03-1.45,0.53
		c-0.12,0.45,0.01,0.83,0.75,1.03c0.93,0.25,1.56-0.24,2.28-0.84c1.16-0.94,2.4-2.03,4.96-1.33c2.01,0.55,2.8,1.57,2.6,2.94
		c0.38-0.19,0.86-0.25,1.36-0.11c0.88,0.24,1.55,0.96,1.21,2.23c-0.13,0.5-0.4,1.02-0.57,1.14l-1.57-0.42
		c0.13-0.06,0.28-0.28,0.34-0.52C46,85,45.98,84.7,45.61,84.6c-0.5-0.13-0.73,0.38-0.84,0.86l-0.41-0.11l-0.49,1.82l-4.02-1.09
		l0.58-2.15l0.84,0.23c0.86,0.23,1.34-0.04,1.49-0.59c0.14-0.53-0.09-0.97-0.92-1.19c-0.86-0.23-1.48,0.14-2.42,0.84
		c-0.93,0.69-2.18,2.07-4.88,1.34c-1.84-0.5-2.63-1.62-2.23-3.1c0.3-1.12,0.8-1.52,1.16-1.64l0.02-0.07L33,79.57L33.53,77.62z
		 M31.44,85.7l2.15,0.36l-0.13,0.81l8.02,1.33l0.13-0.81l2.15,0.36l-0.66,4.01l-2.15-0.36l0.13-0.81l-8.02-1.33l-0.13,0.81
		l-2.15-0.36L31.44,85.7z M30.03,96.12l2.17-0.03l0.01,0.84l6.57-0.08c2.87-0.04,3.97,0.89,4,3.23c0.03,2.39-1.04,3.35-3.91,3.38
		l-6.57,0.08l0.01,0.82l-2.17,0.03l-0.05-3.87l2.17-0.03l0.01,0.57l6.65-0.08c0.91-0.01,1.55-0.07,1.54-0.98
		c-0.01-0.89-0.65-0.94-1.56-0.93l-6.65,0.08l0.01,0.57l-2.17,0.03L30.03,96.12z M29.91,87.54c-0.11,0.67-0.61,0.96-1.37,0.84
		c-0.77-0.13-1.15-0.57-1.04-1.24c0.11-0.67,0.61-0.98,1.39-0.85C29.64,86.41,30.02,86.87,29.91,87.54 M30.28,106.75l2.15-0.36
		l0.13,0.81l8.02-1.33l-0.13-0.81l2.14-0.36l0.62,3.71l-2.15,0.36l-0.11-0.67l-1.51,0.25c-2.16,0.36-4.61,0.71-4.61,0.73l0.01,0.07
		c0,0.02,1.47,0.06,3.01,0.15l2.39,0.16l0.26,1.6l-2.22,0.89c-1.42,0.56-2.8,1.06-2.8,1.08l0.01,0.07c0,0.02,2.44-0.44,4.6-0.8
		l1.51-0.25l-0.11-0.67l2.15-0.36l0.58,3.52l-2.15,0.36l-0.13-0.81l-8.02,1.33l0.13,0.81l-2.14,0.36l-0.67-4.06l5.03-1.79
		l-0.01-0.07l-5.34-0.09L30.28,106.75z M33.41,121.21l9.16-5l-0.2-0.57l2.05-0.72l1.23,3.48l-2.05,0.72l-0.21-0.59l-1.38,0.71
		l0.65,1.83l1.52-0.31l-0.21-0.59l2.05-0.72l1.14,3.24l-2.05,0.72l-0.2-0.57l-6.3,1.14c-0.84,0.18-1.7,0.33-1.77,0.34l-0.02,0.06
		c0.06,0.13,0.1,0.23,0.15,0.38l0.07,0.18l-2.05,0.72L33.41,121.21z M36.3,128.89l1.92-1.01l0.28,0.54l3.01,0.39l4.18-4.2
		l-0.28-0.54l1.92-1.01l1.66,3.15l-1.92,1.01l-0.24-0.46l-2.44,2.4l1.41,0.18l1.88-0.99l-0.27-0.51l1.92-1.01l1.75,3.31l-1.92,1.01
		l-0.38-0.72l-7.19,3.79l0.38,0.72l-1.92,1.01l-1.79-3.39l1.92-1.01l0.31,0.58l1.09-0.57l1.87-0.97l-0.03-0.06
		c-0.1,0-0.83-0.05-1.77-0.15l-2.21-0.25l0.32,0.61l-1.92,1.01L36.3,128.89z M148.67,134.51l6.45,4.95l0.5-0.65l1.72,1.32
		l-2.47,3.22l-1.72-1.32l0.5-0.65l-6.45-4.94l-0.74,0.96l1.26,0.96l-1.37,1.78l-2.98-2.29l4.08-5.32l1.72,1.32L148.67,134.51z
		 M142.25,138.98l1.52,1.55l-0.61,0.6l5.68,5.82l0.65-0.64l-1.22-1.25l1.25-1.22l2.74,2.8l-5.53,5.4l-2.74-2.8l1.25-1.22l1.22,1.25
		l0.65-0.64l-5.68-5.82l-0.61,0.6l-1.52-1.55L142.25,138.98z M138.93,145.2l-0.71,0.54l4.94,6.45l0.71-0.54l1.32,1.72l-3.24,2.48
		c-2.36,1.81-4.37,0.48-6.82-2.72c-2.38-3.1-3.23-5.29-0.89-7.08l3.36-2.58L138.93,145.2z M131.05,151.45
		c-0.72,0.43-1.47,0.21-1.93-0.57c-0.46-0.78-0.29-1.54,0.43-1.97c0.69-0.41,1.44-0.19,1.92,0.58
		C131.93,150.27,131.76,151.03,131.05,151.45 M158.92,133.63l0.38-0.73l-7.19-3.79l-0.38,0.73l-1.92-1.01l1.9-3.59l1.92,1.01
		l-0.38,0.73l7.19,3.79l0.38-0.73l1.92,1.01l-1.9,3.59L158.92,133.63z M162.88,133.38c0.32-0.6,0.88-0.72,1.56-0.36
		c0.69,0.37,0.91,0.9,0.6,1.5c-0.32,0.6-0.89,0.74-1.59,0.37C162.77,134.54,162.56,133.98,162.88,133.38 M166.09,123.33l-2.53,6.19
		l-3.45-1.41l0.85-2.08l1.43,0.59l0.45-1.11l-2.85-1.17l-0.75,1.83l-2-0.82l0.75-1.83l-2.67-1.09l-0.4,0.99l-2.01-0.82l1.63-3.99
		l2.01,0.82l-0.31,0.76l7.52,3.07l0.31-0.76L166.09,123.33z M167.25,109.43l-1.72-0.29l0.29-1.72l3.87,0.64l-1.26,7.63l-3.87-0.64
		l0.29-1.72l1.72,0.29l0.15-0.9l-8.02-1.33l-0.14,0.84l-2.14-0.36l0.68-4.08l2.14,0.36l-0.14,0.84l8.02,1.33L167.25,109.43z
		 M166.65,121.58l-2.08-0.62l0.23-0.79l-7.79-2.32l-0.23,0.79l-2.08-0.62l1.16-3.89l2.08,0.62l-0.23,0.79l7.79,2.32l0.23-0.79
		l2.08,0.62L166.65,121.58z M177.35,99.68c0-42.67-34.59-77.27-77.26-77.27S22.82,57,22.82,99.68c0,13.16,3.31,25.55,9.11,36.39
		c0.1,0.09,0.25,0.23,0.43,0.38c0.02,0.01,0.04,0.03,0.05,0.04c0.6,0.5,1.61,1.26,3.02,2c1.09,0.58,2.43,1.14,4.01,1.57
		c0.34,0.09,0.7,0.18,1.06,0.26c0.14,0.03,0.27,0.06,0.41,0.09c0.3,0.06,0.61,0.11,0.93,0.16c0.26,0.04,0.53,0.07,0.81,0.1
		c0.24,0.03,0.48,0.06,0.73,0.08c0.55,0.05,1.12,0.08,1.71,0.08c0.02,0,0.04,0,0.06,0c1.21,0.01,2.51-0.08,3.89-0.28
		c1.56-0.22,3.22-0.59,4.99-1.15c0,0,5.34-1.93,9.54-3.53c0.64-0.25,0.32-0.12,0.94-0.37c0.31-0.12,0.61-0.24,0.91-0.36
		c-9.09-9-14.99-21.69-14.99-35.48c0-27.42,22.23-49.64,49.65-49.64c27.42,0,49.64,22.23,49.64,49.64
		c0,21.79-14.04,40.3-33.57,46.98l14.61,17.24l4.1,4.78C160.07,155.95,177.35,129.83,177.35,99.68 M182.39,63.21
		c2.04-2.11,2.24-4.15,0.74-6.67c-1.38-2.31-2.71-4.64-4-7c-1.45-2.66-3.5-3.73-5.98-3.11c-3.46,0.86-6.93,1.67-10.4,2.5
		c-0.04,0.01-0.09,0.01-0.13,0.02c5.26,6.49,9.53,13.81,12.59,21.74C177.58,68.17,179.99,65.7,182.39,63.21 M193.53,98.53
		L193.53,98.53c-0.01-1.15-0.01-2.3-0.01-3.45c-0.02-2.48-1.05-4.03-3.41-4.8c-2.79-0.92-5.62-1.75-8.47-2.5
		c-0.73-0.19-1.41-0.41-2.04-0.69c0.64,4.1,0.98,8.31,0.98,12.59c0,4.32-0.35,8.55-1,12.68c3.45-1.1,6.96-2,10.43-3.01
		c1.75-0.51,3.26-1.54,3.36-3.46c0.08-1.69,0.12-3.38,0.14-5.07h0.02c0-0.59,0-1.17,0-1.76C193.52,98.89,193.53,98.71,193.53,98.53"
		/>
	<path class="st0" d="M75.05,130.95c0.1,0.08,0.2,0.16,0.3,0.24c0.15-0.05,0.31-0.11,0.46-0.16c-0.18-0.37-0.33-0.73-0.43-1.11
		c-0.13-0.52-0.12-1.06-0.14-1.71c-0.04-0.77-0.22-1.45-0.49-2.08c-0.33-0.74-0.79-1.44-1.16-2.19c-0.17-0.39-0.31-0.81-0.41-1.24
		c-0.05-0.22-0.09-0.44-0.12-0.66c-0.03-0.23-0.04-0.47-0.04-0.71c-1.22,1.32-1.63,2.77-1.46,4.22c0.1,0.71,0.35,1.41,0.7,2.08
		c0.38,0.64,0.85,1.25,1.41,1.76c0.33,0.29,0.68,0.51,0.95,0.85C74.82,130.5,74.95,130.7,75.05,130.95 M78.68,126.85
		c-0.68,1.17-0.91,2.35-0.77,3.45c0.73-0.24,1.46-0.47,2.18-0.68c-0.08-0.1-0.17-0.19-0.24-0.3c-0.26-0.35-0.49-0.73-0.7-1.13
		C78.96,127.78,78.8,127.33,78.68,126.85 M64.3,122.67c-0.98-0.84-2.2-1.48-4.32-1.75c0.78,0.74,1.31,1.47,1.75,2.17
		c0.46,0.68,0.76,1.37,1.11,1.99c0.35,0.61,0.67,1.2,1.1,1.69c0.45,0.48,0.99,0.88,1.71,1.14c0.83,0.27,1.91,0.37,3.33,0.17
		c0.49-0.07,1.18-0.14,1.75-0.05c-0.16-0.17-0.32-0.34-0.49-0.52l-0.07-0.05c-0.35-0.04-0.7-0.08-1.04-0.14
		c-0.52-0.08-0.94-0.35-1.32-0.69c-0.38-0.33-0.68-0.76-1-1.1c-0.22-0.24-0.43-0.48-0.63-0.73c-0.2-0.25-0.39-0.5-0.59-0.75
		c-0.2-0.24-0.4-0.48-0.62-0.71C64.75,123.1,64.54,122.87,64.3,122.67 M71.92,131.35c-0.52-0.39-1.02-0.79-1.6-1.09
		c-0.59-0.3-1.21-0.57-1.98-0.7c-0.77-0.13-1.65-0.17-2.73-0.08c1.85,1.17,2.85,2.4,3.8,3.52c0.1,0.11,0.2,0.22,0.3,0.33
		c0.91-0.37,1.99-0.79,3.17-1.24C72.56,131.84,72.24,131.59,71.92,131.35 M58.86,86.7c-0.22-0.63-0.59-1.31-1.15-2.08
		c0,0.95-0.16,1.74-0.33,2.45c-0.09,0.35-0.2,0.68-0.31,1c-0.11,0.32-0.21,0.62-0.31,0.92c-0.21,0.59-0.39,1.15-0.44,1.74
		c-0.05,0.58-0.01,1.17,0.29,1.81c0.32,0.71,0.88,1.47,1.89,2.3c0.35,0.29,0.78,0.7,1.07,1.14c0.02-0.21,0.03-0.41,0.06-0.62
		c-0.01-0.04-0.01-0.08-0.02-0.12l-0.52-0.76c-0.27-0.39-0.33-0.84-0.33-1.29c0-0.45,0.07-0.91,0.12-1.32
		c0.11-1.16,0.4-2.24,0.35-3.38C59.21,87.93,59.11,87.34,58.86,86.7 M70.88,68.79c0.51-0.9,0.77-2.03,0.6-3.73
		c-0.22,0.37-0.46,0.68-0.69,0.97c-0.23,0.29-0.46,0.55-0.7,0.78c-0.48,0.46-0.94,0.84-1.38,1.2c-0.22,0.18-0.43,0.36-0.62,0.54
		c-0.19,0.19-0.37,0.39-0.52,0.6c-0.31,0.42-0.55,0.9-0.62,1.54c-0.08,0.71-0.01,1.56,0.39,2.69c0.13,0.37,0.27,0.89,0.29,1.36
		c0.12-0.15,0.23-0.31,0.35-0.46c0.01-0.03,0.02-0.05,0.03-0.08l-0.04-0.82c-0.02-0.85,0.61-1.53,1.07-2.13
		c0.32-0.42,0.65-0.82,0.98-1.21C70.33,69.65,70.63,69.25,70.88,68.79 M77.35,65.57c-0.03,0.06-0.05,0.14-0.08,0.19h0
		C77.3,65.71,77.32,65.63,77.35,65.57 M75.13,67.44L75.13,67.44c-0.08,0.01-0.16,0.02-0.24,0.02h0h0
		C74.98,67.46,75.06,67.45,75.13,67.44 M74.88,67.47c-0.26,0.25-0.49,0.51-0.74,0.77h0C74.39,67.98,74.62,67.72,74.88,67.47
		 M69.9,72.39c-0.02,0-0.04,0.01-0.06,0.01h-0.01l-0.62,0.92c0,0,0,0,0,0l0.62-0.92l0,0C69.86,72.4,69.88,72.39,69.9,72.39
		 M67.6,74.86c0,0.17,0,0.33-0.05,0.47c0,0,0,0,0,0C67.6,75.2,67.6,75.03,67.6,74.86 M65.36,78.83L65.1,79.4l0,0L65.36,78.83z
		 M64.03,80.49c-0.07,0.31-0.13,0.62-0.19,0.93C63.9,81.11,63.96,80.8,64.03,80.49C64.03,80.49,64.03,80.49,64.03,80.49
		 M61.16,87.58l-0.01,1.14L61.16,87.58L61.16,87.58z M60.08,102.12L60.08,102.12c-0.05-0.27-0.09-0.55-0.13-0.83
		C59.99,101.57,60.03,101.85,60.08,102.12 M59.82,96.52C59.82,96.52,59.82,96.52,59.82,96.52c-0.06-0.25-0.09-0.5-0.13-0.76
		C59.73,96.02,59.77,96.27,59.82,96.52 M59.81,104.09l-0.18-0.47v0v0c0,0,0,0,0,0L59.81,104.09z M61.51,110.36
		c0.01-0.02,0.01-0.04,0.01-0.06C61.52,110.32,61.52,110.34,61.51,110.36L61.51,110.36L61.51,110.36z M61.53,112.59
		c0.19,0.13,0.36,0.27,0.47,0.43C61.89,112.87,61.72,112.72,61.53,112.59 M63.99,117.27L63.99,117.27L63.99,117.27l0.7,1.11
		L63.99,117.27z M64.85,120.08l0.42,0.44l0.5,0.48l-0.5-0.48L64.85,120.08z M82.19,60.97c0.71-0.68,1.3-1.55,1.62-3.15
		c-0.6,0.54-1.19,0.88-1.74,1.15c-0.55,0.28-1.08,0.47-1.58,0.65c-0.97,0.4-1.85,0.77-2.36,1.85c-0.29,0.59-0.47,1.39-0.47,2.5
		c0,0.37-0.03,0.85-0.15,1.26h0c0,0,0,0,0,0c-0.39,0.27-0.81,0.58-1.27,0.91c-1.05,0.78-2.26,1.75-3.55,2.94
		c0.01-0.02,0.02-0.04,0.03-0.06l0.09-0.78c0.12-0.82,0.83-1.36,1.37-1.86c0.38-0.35,0.76-0.67,1.13-1
		c0.38-0.32,0.74-0.66,1.04-1.06c0.31-0.4,0.58-0.84,0.78-1.4c0.1-0.28,0.18-0.59,0.24-0.94c0.07-0.34,0.11-0.71,0.14-1.13
		c-1.08,1.26-2.15,1.83-3.1,2.39c-0.48,0.27-0.91,0.55-1.28,0.91c-0.36,0.35-0.67,0.77-0.84,1.36c-0.19,0.66-0.26,1.49-0.07,2.63
		c0.06,0.37,0.11,0.88,0.06,1.33c0.06-0.06,0.13-0.12,0.19-0.18c-0.06,0.06-0.13,0.12-0.19,0.18v0c-1.41,1.34-2.88,2.94-4.32,4.82
		c-0.11,0.15-0.23,0.3-0.35,0.46c-0.19,0.25-0.37,0.51-0.56,0.77c-1.07,1.5-2.09,3.16-3.02,4.97c0.01-0.03,0.01-0.07,0.02-0.1
		l-0.19-0.83c-0.1-0.44-0.01-0.85,0.15-1.25c0.16-0.39,0.37-0.77,0.55-1.12c0.25-0.48,0.53-0.94,0.78-1.41
		c0.26-0.46,0.51-0.92,0.67-1.43c0.36-1.01,0.43-2.2-0.04-3.9c-0.66,1.65-1.53,2.6-2.29,3.5c-0.39,0.44-0.72,0.89-0.97,1.37
		c-0.25,0.48-0.39,1.02-0.36,1.67c0.02,0.37,0.08,0.76,0.22,1.2c0.14,0.44,0.36,0.93,0.65,1.46c0.2,0.36,0.43,0.87,0.54,1.34
		c0.06-0.12,0.12-0.24,0.18-0.36c-0.06,0.12-0.12,0.24-0.18,0.36v0c-1.01,2.03-1.9,4.23-2.61,6.57l0-0.12
		c-0.12-0.27-0.23-0.54-0.34-0.81c-0.17-0.42-0.17-0.86-0.09-1.29c0.09-0.43,0.25-0.84,0.36-1.24c0.14-0.54,0.36-1.05,0.53-1.57
		c0.17-0.52,0.34-1.03,0.42-1.58c0.04-0.27,0.06-0.56,0.06-0.85c0-0.29-0.02-0.6-0.07-0.92c-0.1-0.64-0.35-1.37-0.74-2.19
		c-0.19,0.9-0.44,1.64-0.76,2.26c-0.29,0.64-0.63,1.19-0.94,1.71c-0.29,0.53-0.56,1.04-0.73,1.57c-0.16,0.54-0.19,1.12-0.05,1.77
		c0.16,0.73,0.6,1.57,1.38,2.54c0.26,0.33,0.61,0.8,0.81,1.26v0v0c-0.41,1.45-0.76,2.94-1.02,4.48c-0.15,0.9-0.26,1.82-0.36,2.74
		c0,0,0,0,0,0c-0.02,0.2-0.04,0.41-0.06,0.61c0.04,0.06,0.05,0.12,0.09,0.18c-0.03-0.06-0.05-0.12-0.09-0.18
		c-0.05,0.6-0.1,1.2-0.12,1.81c-0.06,1.76-0.03,3.54,0.13,5.33c0.02,0.17,0.04,0.34,0.06,0.5l-0.05-0.12
		c-0.24-0.22-0.45-0.44-0.68-0.66c-0.34-0.34-0.51-0.78-0.61-1.23c-0.08-0.46-0.09-0.93-0.14-1.36c-0.08-0.59-0.07-1.18-0.1-1.76
		c-0.05-0.58-0.08-1.15-0.21-1.72c-0.07-0.29-0.16-0.57-0.28-0.86c-0.11-0.29-0.25-0.58-0.43-0.88c-0.36-0.59-0.88-1.21-1.58-1.87
		c0.15,0.96,0.21,1.79,0.14,2.54c-0.04,0.75-0.15,1.43-0.25,2.07c-0.08,0.64-0.14,1.25-0.09,1.84c0.06,0.6,0.26,1.18,0.66,1.77
		c0.45,0.65,1.22,1.31,2.37,1.94c0.4,0.22,0.94,0.54,1.32,0.92c0.16,0.16,0.29,0.33,0.37,0.5v0c-0.08-0.18-0.21-0.35-0.37-0.5
		c0.17,1.42,0.38,2.84,0.71,4.24l0.14,0.67l0.17,0.66l0.35,1.32l0.27,0.86l-0.06-0.09l-0.84-0.53c-0.41-0.28-0.66-0.68-0.85-1.12
		s-0.31-0.91-0.43-1.34c-0.17-0.59-0.32-1.18-0.48-1.75c-0.14-0.58-0.31-1.14-0.57-1.69c-0.24-0.55-0.57-1.08-1.07-1.61
		c-0.49-0.52-1.11-1.04-1.97-1.56c0.19,0.47,0.33,0.91,0.43,1.33c0.11,0.42,0.19,0.82,0.24,1.2c0.1,0.77,0.13,1.47,0.18,2.13
		c0.03,0.67,0.1,1.29,0.29,1.87c0.19,0.59,0.47,1.15,1.02,1.65c0.62,0.56,1.46,1.08,2.79,1.47c0.45,0.14,1.06,0.35,1.51,0.66
		c0.12,0.38,0.24,0.75,0.39,1.12c0.79,2.22,1.78,4.35,2.94,6.38l-0.06-0.06l-0.96-0.36c-0.49-0.18-0.83-0.53-1.1-0.94
		c-0.28-0.41-0.5-0.85-0.73-1.25c-0.3-0.56-0.56-1.12-0.85-1.66c-0.27-0.55-0.55-1.09-0.93-1.58c-0.39-0.5-0.81-0.97-1.41-1.4
		c-0.3-0.21-0.64-0.42-1.03-0.61c-0.38-0.19-0.8-0.38-1.28-0.56c1.13,1.73,1.47,3.2,1.83,4.53c0.16,0.67,0.39,1.27,0.69,1.83
		c0.16,0.28,0.33,0.54,0.56,0.78c0.23,0.24,0.5,0.46,0.83,0.66c0.36,0.22,0.79,0.41,1.3,0.56c0.52,0.15,1.13,0.25,1.83,0.31
		c0.48,0.04,1.14,0.13,1.67,0.34c0,0,0,0,0,0c0,0,0,0,0,0c1.46,2.46,3.16,4.75,5.04,6.81l0.61,0.39l-0.61-0.39
		c0.16,0.18,0.32,0.35,0.49,0.52c0.24,0.04,0.46,0.1,0.64,0.2c-0.18-0.1-0.4-0.16-0.64-0.2c1.05,1.11,2.14,2.16,3.27,3.12
		c0.15,0.12,0.3,0.24,0.44,0.37c0.21-0.08,0.43-0.15,0.64-0.23c0.02-0.01,0.04-0.02,0.07-0.02l-0.01-0.01l0,0
		c-0.03-0.11-0.06-0.21-0.1-0.3c-0.17-0.14-0.35-0.28-0.52-0.42c-1.73-1.45-3.37-3.1-4.89-4.89v0c0,0,0,0,0,0
		c-0.23-0.72-0.39-1.4-0.41-2.08c-0.02-0.52,0.09-1.01,0.22-1.65c0.15-0.76,0.08-1.42-0.02-2.09c-0.12-0.79-0.48-1.52-0.63-2.34
		c-0.08-0.41-0.15-0.82-0.14-1.26c0-0.44,0.05-0.89,0.13-1.35c-0.71,0.5-1.24,1.07-1.62,1.69c-0.19,0.31-0.34,0.65-0.45,0.98
		c-0.1,0.33-0.17,0.68-0.2,1.03c-0.03,0.35-0.03,0.71,0,1.07c0.04,0.36,0.12,0.71,0.22,1.06c0.11,0.35,0.24,0.69,0.39,1.03
		c0.17,0.33,0.36,0.65,0.57,0.95c0.25,0.35,0.52,0.65,0.72,1.02c0.15,0.29,0.23,0.51,0.26,0.77c0.12,0.16,0.25,0.31,0.38,0.46
		c-0.13-0.16-0.25-0.31-0.38-0.46c0.01,0.1,0.02,0.2,0.02,0.31v0.01c0.3,0.33,0.63,0.64,0.95,0.95c-0.33-0.31-0.65-0.62-0.95-0.95
		v-0.01c0-0.11-0.01-0.21-0.02-0.31c-1.5-1.91-2.85-3.98-4-6.16c0,0.03,0,0.05,0,0.07v0v0c0-0.03,0-0.05,0-0.07
		c-0.06-0.11-0.11-0.22-0.17-0.33c0.06,0.11,0.11,0.22,0.17,0.33c-0.05-0.76-0.08-1.43,0.04-2.09c0.1-0.5,0.33-0.96,0.56-1.53
		c0.15-0.34,0.23-0.67,0.3-1.01c0.07-0.33,0.11-0.66,0.12-0.99c0.01-0.77-0.12-1.55-0.12-2.36c-0.01-0.4,0.04-0.82,0.13-1.24
		c0.09-0.42,0.22-0.84,0.39-1.26c-1.54,0.65-2.51,1.75-2.92,3.07c-0.19,0.65-0.28,1.36-0.23,2.07c0.07,0.7,0.22,1.43,0.51,2.09
		c0.16,0.38,0.38,0.71,0.48,1.12c0.07,0.32,0.1,0.55,0.08,0.81l0,0c0,0.04-0.01,0.09-0.02,0.14c0.01-0.05,0.01-0.09,0.02-0.14
		c-0.55-1.14-1.05-2.31-1.48-3.51c-0.17-0.42-0.31-0.84-0.44-1.27l-0.41-1.28l-0.17-0.63c0.11-0.74,0.19-1.37,0.46-1.98
		c0.19-0.46,0.5-0.85,0.84-1.34c0.4-0.59,0.65-1.2,0.8-1.82c0.08-0.37,0.13-0.75,0.18-1.13c0.05-0.38,0.09-0.77,0.16-1.16
		c0.19-0.78,0.48-1.55,1.01-2.29c-0.81,0.16-1.5,0.45-2.07,0.86c-0.56,0.4-1,0.91-1.34,1.5c-0.33,0.59-0.52,1.24-0.62,1.94
		c-0.08,0.69-0.06,1.4,0.07,2.1c0.08,0.4,0.23,0.76,0.24,1.16c0.01,0.32-0.02,0.55-0.09,0.79l0.01,0.03l-0.01-0.03
		c-0.03,0.08-0.06,0.16-0.09,0.25c0.04-0.09,0.07-0.17,0.09-0.25l-0.13-0.59c-0.42-1.74-0.66-3.51-0.85-5.27
		c-0.03-0.33-0.05-0.66-0.08-0.99v0c0.22-0.68,0.48-1.27,0.83-1.81c0.26-0.4,0.62-0.71,1.06-1.12c0.52-0.49,0.83-1.02,1.11-1.59
		c0.16-0.33,0.28-0.69,0.39-1.04c0.11-0.36,0.24-0.72,0.39-1.08c0.29-0.71,0.78-1.38,1.39-2c-1.59,0-2.85,0.6-3.69,1.6
		c-0.42,0.5-0.77,1.09-0.97,1.73c-0.22,0.64-0.35,1.33-0.35,2.01c0,0.39,0.04,0.76-0.01,1.15c-0.04,0.31-0.11,0.52-0.23,0.74
		c-0.03-0.96-0.04-1.91-0.01-2.86c0.05-1.3,0.16-2.58,0.32-3.84c-0.01,0.02-0.02,0.03-0.03,0.05h0h0c0.01-0.02,0.02-0.04,0.03-0.05
		c0.06-0.42,0.11-0.84,0.18-1.26c-0.06,0.42-0.12,0.84-0.18,1.26c0.37-0.6,0.68-1.13,1.14-1.56c0.34-0.33,0.74-0.56,1.22-0.86
		c0.57-0.37,1.01-0.81,1.37-1.31c0.43-0.58,0.72-1.25,1.15-1.88c0.44-0.62,0.98-1.19,1.71-1.65c-0.77-0.15-1.47-0.14-2.12,0.01
		c-0.64,0.15-1.21,0.44-1.71,0.83c-1,0.79-1.67,2.02-1.97,3.32c-0.08,0.37-0.08,0.74-0.22,1.1c-0.1,0.28-0.22,0.47-0.37,0.66
		c0.36-2.2,0.9-4.31,1.57-6.31c-0.02,0.02-0.03,0.03-0.05,0.05h0c0.08-0.39,0.17-0.76,0.27-1.15l0,0c0.08-0.05,0.14-0.1,0.21-0.15
		c0.75-2.03,1.64-3.95,2.61-5.7c0,0,0,0,0,0c0.53-0.4,0.99-0.75,1.54-0.98c0.41-0.17,0.85-0.23,1.38-0.34
		c0.62-0.14,1.17-0.37,1.65-0.69c0.56-0.38,1.08-0.86,1.65-1.28c0.6-0.4,1.28-0.72,2.08-0.89c-1.26-0.79-2.5-0.89-3.67-0.54
		c-0.57,0.19-1.11,0.49-1.6,0.87c-0.47,0.4-0.91,0.87-1.26,1.39c-0.2,0.31-0.33,0.63-0.58,0.89c-0.19,0.21-0.35,0.34-0.55,0.45
		c0,0,0,0,0,0c-0.01,0.01-0.03,0.01-0.04,0.02c0.01-0.01,0.03-0.01,0.04-0.02c0.52-0.87,1.06-1.7,1.61-2.48
		c0.61-0.88,1.23-1.7,1.86-2.47c0,0,0,0,0,0c0.57-0.3,1.08-0.55,1.64-0.67c0.42-0.1,0.85-0.08,1.37-0.1
		c0.63-0.01,1.19-0.16,1.7-0.38c0.61-0.25,1.17-0.64,1.8-0.94c0.65-0.28,1.34-0.49,2.14-0.51c-1.07-0.96-2.25-1.28-3.42-1.13
		c-1.16,0.15-2.27,0.79-3.12,1.68c-0.25,0.25-0.42,0.54-0.7,0.75c-0.22,0.17-0.39,0.27-0.6,0.34c-0.18,0.21-0.36,0.42-0.54,0.64
		c0.18-0.21,0.36-0.43,0.54-0.63l0,0c1.42-1.63,2.83-3,4.13-4.12c0,0,0,0,0,0c0,0,0,0,0,0c0.28-0.09,0.55-0.17,0.81-0.24
		c0.29-0.06,0.57-0.11,0.86-0.12c0.42-0.02,0.82,0.06,1.32,0.13c0.61,0.1,1.16,0.04,1.69-0.08c0.63-0.14,1.23-0.42,1.88-0.61
		c0.67-0.16,1.36-0.24,2.13-0.15c-0.87-1.09-1.94-1.58-3.09-1.63c-1.13-0.04-2.3,0.39-3.26,1.1c-0.28,0.19-0.49,0.44-0.79,0.6
		c-0.23,0.12-0.41,0.19-0.62,0.22c0.45-0.37,0.89-0.71,1.3-1.02c0.64-0.47,1.2-0.89,1.72-1.22c0.51-0.34,0.94-0.63,1.31-0.84
		c0.36-0.22,0.64-0.39,0.82-0.5c0.11-0.07,0.18-0.11,0.23-0.14c-0.12-0.05-0.24-0.1-0.36-0.15c-0.01,0-0.01,0.01-0.02,0.01
		c-0.19,0.11-0.47,0.28-0.83,0.5c-0.37,0.21-0.81,0.5-1.32,0.84c0,0-0.01,0-0.01,0c-0.06,0.07-0.2,0.23-0.34,0.39
		c-0.07,0.07-0.12,0.14-0.17,0.21c0.06-0.07,0.11-0.13,0.17-0.21c0.14-0.16,0.27-0.32,0.34-0.39c0,0,0,0,0,0
		C77.99,64.9,78,64.89,78,64.89l0.21-0.72c0.22-0.79,1.01-1.15,1.59-1.57C80.62,62.05,81.47,61.61,82.19,60.97 M62.54,85.07
		L62.54,85.07c-0.06,0.05-0.13,0.1-0.21,0.15l0,0c-0.1,0.38-0.2,0.76-0.28,1.14c0.02-0.02,0.03-0.03,0.05-0.05
		c0.44-0.51,0.88-0.93,1.37-1.27c0.37-0.26,0.81-0.4,1.33-0.6c0.63-0.24,1.09-0.6,1.54-1c0.26-0.24,0.49-0.5,0.71-0.78
		c0.23-0.27,0.47-0.55,0.73-0.81c0.51-0.53,1.17-0.95,1.93-1.28C68.32,80,67,80.1,65.91,80.68c-1.1,0.58-1.98,1.62-2.48,2.82
		c-0.14,0.34-0.23,0.69-0.42,1.01C62.85,84.75,62.72,84.92,62.54,85.07 M84.32,63.69c1.53-0.98,2.03-2.22,3.81-2.76
		c-1.5-0.81-2.84-1.39-4.33-0.59c-1.53,0.83-1.92,2.23-3.3,2.99c-0.15,0.08-0.24,0.17-0.35,0.24c0.12,0.05,0.24,0.1,0.36,0.15
		C81.9,64.28,83.09,64.48,84.32,63.69"/>
	<path class="st0" d="M128.15,69.09c0.13,0.13,0.27,0.25,0.41,0.39c-0.06-0.44-0.01-0.96,0.06-1.33c0.19-1.14,0.12-1.97-0.07-2.63
		c-0.17-0.59-0.47-1.01-0.84-1.36c-0.37-0.36-0.8-0.64-1.28-0.91c-0.95-0.56-2.02-1.12-3.1-2.39c0.03,0.42,0.07,0.79,0.14,1.13
		c0.06,0.35,0.14,0.66,0.24,0.94c0.19,0.57,0.47,1,0.78,1.4c0.31,0.4,0.66,0.74,1.04,1.06c0.37,0.33,0.75,0.66,1.13,1
		c0.54,0.5,1.25,1.04,1.37,1.86l0.09,0.78C128.13,69.05,128.14,69.07,128.15,69.09 M141.01,96.52L141.01,96.52
		c0.09-0.38,0.14-0.77,0.2-1.16v0C141.15,95.75,141.1,96.13,141.01,96.52 M141.17,104.04c0.02-0.14,0.03-0.28,0.05-0.42l0,0
		C141.2,103.76,141.18,103.9,141.17,104.04 M140.83,104.59l-0.05,0.14v0L140.83,104.59z M140.53,94.02L140.53,94.02
		c-0.01-0.01-0.01-0.02-0.02-0.03C140.52,94,140.52,94.01,140.53,94.02l-0.05-1.21h0L140.53,94.02z M138.78,86.36L138.78,86.36z
		 M138.51,85.22L138.51,85.22L138.51,85.22L138.51,85.22z M135.73,79.4L135.73,79.4l-0.11-0.24L135.73,79.4z M133.29,75.33
		c-0.05-0.15-0.12-0.3-0.17-0.44C133.17,75.04,133.23,75.18,133.29,75.33L133.29,75.33z M131.62,73.33
		c-0.01-0.01-0.03-0.01-0.04-0.02C131.59,73.31,131.6,73.32,131.62,73.33L131,72.41v0v0L131.62,73.33z M126.69,68.24L126.69,68.24
		c-0.1-0.1-0.2-0.21-0.3-0.32C126.49,68.03,126.59,68.13,126.69,68.24 M123.57,65.76L123.57,65.76c-0.06-0.08-0.09-0.19-0.13-0.29
		C123.48,65.57,123.51,65.69,123.57,65.76 M139.77,109.17L139.77,109.17c-0.02-0.04-0.03-0.08-0.04-0.12
		C139.74,109.08,139.76,109.12,139.77,109.17L139.77,109.17z M139.58,109.29l-0.09,0.34l-0.07,0.25l0.07-0.25L139.58,109.29z
		 M135.4,120.81c-0.12,0.06-0.25,0.11-0.34,0.19h0C135.16,120.93,135.28,120.87,135.4,120.81 M132.12,124.78
		c-0.3,0.33-0.63,0.64-0.95,0.95C131.49,125.42,131.82,125.11,132.12,124.78L132.12,124.78L132.12,124.78z M130.59,127.5
		L130.59,127.5l-0.39,0.25L130.59,127.5z M123.43,133.75c-0.43,0.15-0.85,0.3-1.27,0.44c0,0,0,0,0,0
		C122.58,134.04,123.01,133.9,123.43,133.75z M117.77,136.27L117.77,136.27l-1.33,0.46L117.77,136.27L117.77,136.27z M114.83,138.31
		c-0.15,0.06-0.29,0.11-0.43,0.16C114.54,138.42,114.69,138.37,114.83,138.31C114.83,138.31,114.83,138.32,114.83,138.31
		 M113.59,138.44c-0.06,0.01-0.13,0.01-0.19,0.02C113.47,138.46,113.53,138.45,113.59,138.44 M144.83,101.36
		c0.4-0.58,0.59-1.17,0.66-1.77c0.05-0.6-0.01-1.2-0.09-1.84c-0.1-0.64-0.21-1.32-0.25-2.07c-0.07-0.75-0.01-1.58,0.14-2.54
		c-0.7,0.66-1.22,1.28-1.58,1.87c-0.18,0.3-0.32,0.59-0.43,0.88c-0.12,0.29-0.21,0.58-0.28,0.86c-0.14,0.57-0.17,1.14-0.22,1.72
		c-0.04,0.58-0.03,1.17-0.1,1.76c-0.05,0.43-0.06,0.9-0.14,1.36c-0.1,0.45-0.27,0.89-0.61,1.23c-0.23,0.23-0.44,0.45-0.68,0.67
		l-0.05,0.12c0.02-0.17,0.04-0.34,0.05-0.5c0.16-1.79,0.18-3.57,0.13-5.33c-0.03-0.61-0.07-1.21-0.12-1.81
		c0-0.05-0.01-0.1-0.01-0.14c0,0.05,0.01,0.1,0.01,0.14c0.29-0.44,0.72-0.86,1.07-1.14c1.01-0.83,1.57-1.59,1.89-2.3
		c0.29-0.64,0.33-1.23,0.28-1.81c-0.04-0.58-0.23-1.14-0.43-1.74c-0.1-0.3-0.21-0.6-0.31-0.92c-0.11-0.32-0.22-0.65-0.31-1
		c-0.17-0.71-0.33-1.49-0.33-2.45c-0.56,0.77-0.93,1.44-1.15,2.08c-0.24,0.64-0.34,1.22-0.35,1.79c-0.05,1.14,0.24,2.22,0.35,3.38
		c0.05,0.42,0.12,0.87,0.12,1.32c-0.01,0.45-0.06,0.89-0.33,1.29l-0.52,0.76c-0.01,0.04-0.01,0.07-0.02,0.11
		c-0.09-0.92-0.21-1.84-0.36-2.74c-0.26-1.54-0.61-3.04-1.02-4.48c-0.09,0.2-0.14,0.4-0.15,0.59v0c0-0.19,0.06-0.39,0.15-0.59
		c-0.04-0.14-0.08-0.29-0.12-0.43c0.04,0.14,0.08,0.28,0.12,0.43v0c0.19-0.47,0.55-0.94,0.81-1.27c0.78-0.97,1.22-1.81,1.38-2.54
		c0.14-0.65,0.1-1.23-0.05-1.77c-0.17-0.54-0.44-1.04-0.73-1.57c-0.31-0.52-0.65-1.07-0.94-1.71c-0.32-0.63-0.57-1.37-0.76-2.26
		c-0.38,0.82-0.63,1.54-0.74,2.19c-0.05,0.32-0.07,0.63-0.07,0.92c0,0.3,0.02,0.58,0.06,0.85c0.08,0.55,0.25,1.06,0.42,1.58
		c0.17,0.52,0.39,1.03,0.53,1.57c0.11,0.39,0.27,0.81,0.36,1.24c0.08,0.43,0.08,0.87-0.09,1.29c-0.12,0.27-0.22,0.54-0.34,0.81
		l0,0.12c-0.71-2.34-1.6-4.54-2.61-6.57v0c0.1-0.48,0.34-0.98,0.54-1.34c0.29-0.53,0.51-1.02,0.65-1.47c0.14-0.44,0.2-0.84,0.22-1.2
		c0.03-0.65-0.11-1.19-0.36-1.67c-0.25-0.48-0.58-0.93-0.97-1.37c-0.76-0.9-1.64-1.85-2.29-3.5c-0.47,1.71-0.4,2.89-0.04,3.9
		c0.17,0.51,0.41,0.97,0.68,1.43c0.25,0.47,0.53,0.93,0.78,1.41c0.18,0.35,0.39,0.73,0.55,1.12c0.16,0.39,0.25,0.81,0.15,1.24
		l-0.19,0.83c0.01,0.03,0.01,0.07,0.02,0.1c0,0,0,0,0,0c0.08,0.37,0.16,0.74,0.22,1.11v0c-0.06-0.37-0.14-0.74-0.22-1.11
		c-0.93-1.81-1.95-3.47-3.02-4.97c-0.18-0.26-0.37-0.52-0.56-0.77c0.02-0.47,0.16-0.99,0.29-1.36c0.4-1.13,0.47-1.99,0.39-2.69
		c-0.07-0.64-0.31-1.11-0.62-1.54c-0.16-0.21-0.33-0.41-0.52-0.6c-0.19-0.19-0.41-0.36-0.62-0.54c-0.44-0.36-0.9-0.75-1.38-1.2
		c-0.24-0.23-0.47-0.49-0.7-0.78c-0.23-0.29-0.47-0.61-0.69-0.98c-0.17,1.7,0.09,2.83,0.6,3.73c0.24,0.46,0.55,0.87,0.88,1.26
		c0.32,0.4,0.65,0.8,0.98,1.21c0.46,0.61,1.1,1.28,1.07,2.13l-0.05,0.82c0.01,0.03,0.02,0.05,0.03,0.08c0.08,0.1,0.15,0.2,0.23,0.31
		c-0.08-0.1-0.15-0.2-0.23-0.31c0,0,0,0,0,0c-1.43-1.88-2.91-3.48-4.32-4.82c0,0.04,0.03,0.08,0.03,0.12
		c-0.01-0.04-0.03-0.07-0.03-0.12c-0.14-0.13-0.28-0.26-0.41-0.39c0.19,0.32,0.38,0.63,0.57,0.95c0,0,0,0,0,0
		c-0.18-0.32-0.38-0.63-0.57-0.95c-1.28-1.19-2.5-2.17-3.55-2.95c-0.46-0.33-0.88-0.64-1.27-0.91h0c-0.12-0.41-0.15-0.9-0.15-1.26
		c0-1.12-0.18-1.91-0.47-2.5c-0.51-1.07-1.39-1.44-2.36-1.85c-0.5-0.18-1.03-0.37-1.58-0.65c-0.56-0.27-1.14-0.61-1.74-1.15
		c0.33,1.6,0.92,2.47,1.62,3.15c0.72,0.64,1.56,1.08,2.39,1.63c0.58,0.42,1.37,0.79,1.59,1.57l0.21,0.72c0,0,0.01,0.02,0.04,0.04
		c0,0,0,0,0,0c0.06,0.07,0.2,0.23,0.34,0.39c0.14,0.16,0.25,0.29,0.31,0.37c-0.06-0.08-0.17-0.21-0.31-0.37
		c-0.14-0.16-0.27-0.32-0.34-0.39c0,0,0,0-0.01,0c-0.51-0.34-0.95-0.63-1.32-0.84c-0.36-0.22-0.65-0.39-0.83-0.5
		c-0.01-0.01-0.01-0.01-0.02-0.01c-0.11-0.06-0.2-0.15-0.35-0.24c-1.39-0.76-1.77-2.17-3.3-2.99c-1.49-0.79-2.83-0.21-4.33,0.59
		c1.78,0.53,2.29,1.78,3.81,2.76c1.23,0.79,2.41,0.59,3.8,0.03c0.05,0.03,0.12,0.07,0.23,0.14c0.19,0.11,0.46,0.28,0.82,0.5
		c0.37,0.21,0.8,0.5,1.31,0.84c0.51,0.33,1.08,0.75,1.72,1.22c0.41,0.31,0.85,0.65,1.31,1.02c0.07,0.01,0.15,0.02,0.24,0.02h0l0,0
		c-0.09,0-0.17-0.01-0.24-0.02c0,0,0,0,0,0c-0.21-0.03-0.39-0.1-0.62-0.22c-0.3-0.16-0.52-0.41-0.79-0.6
		c-0.96-0.71-2.13-1.13-3.26-1.1c-1.15,0.05-2.22,0.54-3.09,1.63c0.77-0.1,1.47-0.01,2.13,0.14c0.65,0.19,1.25,0.47,1.88,0.61
		c0.53,0.13,1.08,0.18,1.69,0.08c0.5-0.07,0.91-0.16,1.32-0.13c0.28,0.02,0.57,0.06,0.85,0.12c0.26,0.07,0.53,0.15,0.82,0.24
		c-0.3-0.26-0.59-0.5-0.87-0.73c0.28,0.23,0.57,0.47,0.87,0.73c0.02,0.01,0.04,0.01,0.06,0.02v0c-0.02-0.01-0.04-0.01-0.06-0.02
		c1.3,1.12,2.71,2.49,4.13,4.12c0,0,0,0,0,0c0.17,0.2,0.35,0.41,0.52,0.62c-0.17-0.21-0.35-0.42-0.52-0.62
		c-0.21-0.07-0.38-0.17-0.6-0.34c-0.28-0.21-0.45-0.51-0.7-0.75c-0.85-0.89-1.96-1.53-3.12-1.68c-1.17-0.15-2.35,0.17-3.42,1.13
		c0.8,0.02,1.49,0.24,2.14,0.51c0.63,0.3,1.18,0.69,1.8,0.94c0.51,0.22,1.07,0.37,1.7,0.38c0.52,0.01,0.95,0,1.37,0.1
		c0.57,0.12,1.07,0.38,1.64,0.67l0,0h0c0.63,0.77,1.25,1.59,1.86,2.47c0.55,0.78,1.09,1.61,1.61,2.48c0.07,0.04,0.14,0.07,0.22,0.11
		h0h0c-0.08-0.04-0.15-0.07-0.22-0.11c-0.2-0.11-0.35-0.24-0.55-0.45c-0.25-0.27-0.38-0.59-0.57-0.89c-0.35-0.52-0.79-1-1.26-1.39
		c-0.5-0.38-1.04-0.68-1.6-0.87c-1.17-0.35-2.41-0.24-3.67,0.54c0.8,0.18,1.47,0.5,2.07,0.89c0.58,0.42,1.09,0.9,1.65,1.28
		c0.48,0.31,1.03,0.55,1.65,0.69c0.53,0.11,0.97,0.17,1.38,0.34c0.54,0.23,1.01,0.58,1.54,0.98c0,0,0,0,0,0
		c0.01,0.01,0.02,0.01,0.02,0.02c-0.01,0-0.01-0.01-0.02-0.02c0.97,1.75,1.86,3.66,2.61,5.7c-0.18-0.15-0.31-0.31-0.46-0.56
		c-0.19-0.32-0.28-0.66-0.43-1c-0.5-1.2-1.39-2.24-2.48-2.82c-1.09-0.58-2.42-0.68-3.81-0.12c0.75,0.33,1.42,0.76,1.93,1.29
		c0.26,0.26,0.5,0.54,0.73,0.81c0.23,0.28,0.45,0.54,0.71,0.78c0.45,0.4,0.92,0.76,1.54,1c0.52,0.2,0.96,0.34,1.33,0.6
		c0.49,0.34,0.93,0.76,1.37,1.27c0.01,0.01,0.02,0.02,0.03,0.04c-0.01-0.01-0.02-0.02-0.03-0.04c0.67,2,1.21,4.11,1.57,6.31
		c0.05,0.06,0.1,0.11,0.15,0.17c-0.05-0.06-0.11-0.11-0.15-0.16c0,0,0,0,0,0c-0.16-0.19-0.27-0.38-0.37-0.66
		c-0.14-0.36-0.14-0.73-0.22-1.1c-0.3-1.31-0.97-2.54-1.97-3.32c-0.51-0.39-1.07-0.68-1.71-0.83c-0.65-0.15-1.35-0.15-2.12,0
		c0.73,0.46,1.27,1.03,1.71,1.65c0.42,0.62,0.72,1.3,1.15,1.88c0.35,0.49,0.79,0.94,1.37,1.31c0.48,0.31,0.89,0.54,1.22,0.86
		c0.46,0.44,0.77,0.96,1.14,1.56v0c0.16,1.26,0.27,2.54,0.32,3.84c0.02,0.95,0.02,1.9-0.01,2.86c-0.12-0.22-0.18-0.43-0.23-0.74
		c-0.05-0.39-0.01-0.76-0.01-1.15c0-0.69-0.13-1.38-0.35-2.01c-0.2-0.64-0.55-1.23-0.97-1.73c-0.84-1-2.11-1.6-3.69-1.6
		c0.6,0.62,1.1,1.29,1.38,2c0.15,0.36,0.28,0.72,0.4,1.08c0.11,0.36,0.23,0.71,0.39,1.04c0.29,0.57,0.59,1.1,1.11,1.59
		c0.43,0.41,0.8,0.72,1.06,1.12c0.35,0.53,0.61,1.13,0.83,1.81c0.01,0.02,0.01,0.04,0.02,0.06c0,0,0,0,0,0v0
		c-0.01-0.02-0.01-0.04-0.02-0.06c-0.02,0.33-0.04,0.66-0.08,0.99c-0.19,1.76-0.43,3.53-0.85,5.27l-0.13,0.59c0,0,0,0,0,0
		l-0.01,0.04l0.01-0.04c-0.08-0.24-0.11-0.48-0.09-0.79c0.01-0.4,0.16-0.76,0.24-1.16c0.12-0.7,0.15-1.41,0.06-2.1
		c-0.11-0.69-0.29-1.35-0.62-1.94c-0.34-0.59-0.78-1.1-1.34-1.5c-0.57-0.4-1.26-0.69-2.07-0.86c0.53,0.74,0.82,1.51,1.01,2.29
		c0.08,0.39,0.11,0.78,0.16,1.16c0.05,0.38,0.1,0.76,0.18,1.13c0.14,0.62,0.4,1.23,0.79,1.82c0.34,0.5,0.64,0.88,0.84,1.34
		c0.27,0.61,0.35,1.25,0.46,1.98l0,0c0,0.02,0.01,0.04,0.01,0.07v0v0v0c0-0.02-0.01-0.04-0.01-0.07l-0.17,0.63l-0.41,1.28
		c-0.13,0.43-0.27,0.85-0.44,1.27c-0.43,1.2-0.93,2.37-1.48,3.51c0,0.04,0.01,0.07,0.01,0.11c0-0.03-0.01-0.07-0.01-0.11
		c-0.02-0.26,0.01-0.5,0.08-0.81c0.1-0.4,0.32-0.74,0.48-1.12c0.29-0.66,0.43-1.39,0.51-2.09c0.05-0.71-0.03-1.42-0.23-2.07
		c-0.41-1.32-1.38-2.42-2.93-3.07c0.17,0.42,0.3,0.84,0.39,1.26c0.09,0.42,0.14,0.83,0.13,1.24c0,0.81-0.14,1.6-0.12,2.36
		c0.01,0.33,0.05,0.66,0.12,0.99c0.07,0.33,0.15,0.66,0.3,1c0.24,0.57,0.46,1.03,0.57,1.53c0.12,0.66,0.08,1.33,0.04,2.09
		c0.18-0.33,0.34-0.67,0.51-1.01c-0.17,0.34-0.33,0.68-0.51,1.01c0,0.03,0,0.05-0.01,0.07v0l0.7-1.11v0l0,0l-0.7,1.11h0
		c0-0.03,0-0.05,0-0.07c-1.15,2.19-2.5,4.25-4,6.16c-0.01,0.04-0.01,0.08-0.01,0.11c0-0.04,0-0.08,0.01-0.11v0
		c0.03-0.26,0.11-0.48,0.26-0.77c0.2-0.37,0.48-0.67,0.72-1.02c0.21-0.31,0.4-0.62,0.57-0.95c0.15-0.34,0.29-0.68,0.39-1.03
		c0.1-0.35,0.19-0.7,0.22-1.06c0.03-0.36,0.04-0.72,0-1.07c-0.03-0.35-0.1-0.7-0.2-1.03c-0.11-0.34-0.26-0.67-0.45-0.98
		c-0.38-0.63-0.92-1.2-1.62-1.69c0.09,0.46,0.13,0.91,0.13,1.35c0.01,0.44-0.06,0.85-0.14,1.26c-0.15,0.82-0.5,1.55-0.63,2.34
		c-0.11,0.67-0.17,1.33-0.02,2.09c0.13,0.63,0.24,1.13,0.22,1.65c-0.03,0.68-0.18,1.36-0.41,2.08c0.19-0.22,0.37-0.46,0.56-0.68
		c-0.18,0.23-0.37,0.46-0.56,0.68c-0.01,0.02-0.01,0.04-0.02,0.06c0.01-0.02,0.01-0.04,0.02-0.06c-1.51,1.8-3.16,3.44-4.89,4.89
		c-0.17,0.15-0.35,0.28-0.52,0.43c-0.01,0.03-0.02,0.07-0.03,0.1c0.01-0.03,0.02-0.07,0.03-0.11c0.1-0.25,0.23-0.45,0.43-0.71
		c0.27-0.34,0.63-0.56,0.95-0.85c0.56-0.51,1.04-1.13,1.41-1.76c0.35-0.67,0.6-1.36,0.7-2.08c0.17-1.45-0.24-2.9-1.46-4.22
		c0,0.24-0.02,0.48-0.04,0.71c-0.03,0.23-0.08,0.45-0.12,0.66c-0.1,0.43-0.24,0.85-0.41,1.24c-0.37,0.76-0.83,1.45-1.16,2.19
		c-0.27,0.63-0.44,1.32-0.49,2.08c-0.03,0.65-0.01,1.18-0.14,1.71c-0.19,0.66-0.5,1.28-0.88,1.97c0,0,0,0,0,0
		c-2.15,1.62-4.39,2.98-6.63,4.08c-0.03,0.04-0.06,0.09-0.08,0.14c0.03-0.05,0.06-0.1,0.08-0.14c0,0,0,0,0,0
		c0.15-0.22,0.32-0.4,0.58-0.6c0.35-0.28,0.77-0.4,1.15-0.62c1.35-0.78,2.48-1.95,2.98-3.35c0.52-1.38,0.4-2.97-0.5-4.54
		c-0.12,0.47-0.28,0.92-0.47,1.34c-0.2,0.4-0.44,0.78-0.7,1.13c-0.26,0.36-0.56,0.66-0.84,0.96c-0.29,0.31-0.56,0.63-0.8,0.96
		c-0.42,0.56-0.75,1.2-0.96,1.97c-0.18,0.64-0.29,1.17-0.54,1.66c-0.32,0.65-0.8,1.17-1.33,1.77c0.21-0.09,0.42-0.2,0.63-0.3
		c-0.21,0.1-0.42,0.2-0.63,0.3c-0.03,0.03-0.05,0.05-0.07,0.08v0h0l0,0c0.03-0.03,0.05-0.05,0.07-0.08
		c-2.17,0.97-4.32,1.7-6.37,2.22c-0.07,0.02-0.14,0.03-0.21,0.05c0,0.03-0.01,0.06-0.01,0.09c0.23,0.23,0.45,0.47,0.68,0.71
		c1.15-0.31,2.33-0.68,3.53-1.12c0,0,0,0,0,0c0,0,0,0,0,0c0.17,0.06,0.34,0.12,0.5,0.2c0.41,0.2,0.81,0.43,1.11,0.64
		c0.62,0.43,1.2,0.75,1.74,0.98c0.54,0.23,1.02,0.35,1.48,0.41c0.41,0.05,0.79,0.05,1.14,0c0.36-0.05,0.69-0.16,1.01-0.28
		c0.64-0.26,1.24-0.63,1.83-1.08c0.61-0.44,1.24-0.9,1.97-1.37c0.37-0.23,0.77-0.44,1.21-0.65c0.43-0.22,0.91-0.42,1.45-0.6
		c-1.07-0.35-1.94-0.5-2.75-0.55c-0.8-0.05-1.49,0.06-2.14,0.24c-0.66,0.17-1.26,0.42-1.86,0.71c-0.61,0.26-1.21,0.56-1.84,0.83
		c-0.93,0.35-1.96,0.96-3.03,0.6l-1.06-0.35c-0.01,0-0.03,0-0.04,0.01c2.66-1.04,5.38-2.42,8.01-4.17c-0.02,0-0.04,0.01-0.06,0
		c0.02,0,0.04,0,0.06,0c0.18-0.12,0.36-0.24,0.54-0.37c-0.18,0.12-0.36,0.25-0.54,0.37c0.6,0.05,1.27,0.27,1.73,0.44
		c1.37,0.52,2.49,0.7,3.36,0.59c1.6-0.16,2.52-1.09,3.47-2.18c0.95-1.11,1.95-2.35,3.8-3.51c-1.08-0.09-1.96-0.05-2.73,0.08
		c-0.77,0.13-1.38,0.4-1.98,0.7c-0.59,0.3-1.09,0.7-1.6,1.09c-0.52,0.39-1.01,0.82-1.56,1.2c-0.4,0.27-0.81,0.6-1.26,0.87
		c-0.44,0.26-0.95,0.42-1.48,0.38l-1.08-0.09c-0.03,0.01-0.07,0.02-0.1,0.03c1.15-0.79,2.29-1.66,3.4-2.6
		c1.13-0.96,2.23-2.01,3.27-3.12c-0.24,0.04-0.46,0.1-0.64,0.2h0c0.18-0.1,0.4-0.16,0.64-0.2c0.08-0.09,0.16-0.18,0.25-0.26
		c-0.08,0.09-0.17,0.18-0.25,0.27c0.57-0.09,1.26-0.03,1.75,0.04c1.42,0.19,2.49,0.1,3.33-0.17c0.73-0.26,1.27-0.66,1.71-1.14
		c0.44-0.49,0.76-1.07,1.1-1.69c0.35-0.61,0.65-1.3,1.11-1.99c0.44-0.69,0.97-1.42,1.75-2.16c-2.11,0.27-3.34,0.91-4.32,1.75
		c-0.24,0.21-0.45,0.44-0.67,0.67c-0.22,0.23-0.42,0.47-0.62,0.71c-0.2,0.25-0.39,0.5-0.59,0.75c-0.2,0.25-0.42,0.49-0.63,0.73
		c-0.32,0.35-0.62,0.77-1,1.1c-0.38,0.33-0.8,0.61-1.32,0.69c-0.34,0.06-0.69,0.1-1.04,0.14l-0.07,0.05
		c1.88-2.06,3.58-4.35,5.04-6.82l0,0c0.53-0.21,1.18-0.3,1.67-0.34c0.7-0.06,1.31-0.16,1.83-0.31c0.51-0.15,0.94-0.34,1.3-0.57
		c0.32-0.2,0.6-0.42,0.83-0.65c0.23-0.24,0.4-0.51,0.56-0.78c0.3-0.56,0.53-1.16,0.7-1.83c0.37-1.33,0.71-2.8,1.83-4.53
		c-0.48,0.17-0.9,0.36-1.29,0.55c-0.39,0.19-0.73,0.39-1.03,0.61c-0.61,0.42-1.03,0.9-1.41,1.39c-0.38,0.5-0.65,1.04-0.93,1.58
		c-0.29,0.54-0.55,1.11-0.85,1.66c-0.23,0.4-0.45,0.85-0.73,1.25c-0.27,0.41-0.62,0.76-1.1,0.94l-0.96,0.36l-0.06,0.06
		c1.16-2.02,2.15-4.16,2.94-6.37c0.14-0.37,0.27-0.74,0.38-1.12c-0.19,0.13-0.36,0.27-0.47,0.43l0,0l0.19-0.31l-0.19,0.3
		c0.11-0.16,0.28-0.3,0.47-0.43c0,0,0,0,0,0c0,0,0,0,0,0c0.02-0.06,0.04-0.12,0.06-0.18l0.14-0.43l-0.13,0.43
		c-0.02,0.06-0.04,0.12-0.06,0.18c0.45-0.31,1.06-0.53,1.51-0.66c1.33-0.39,2.18-0.91,2.79-1.47c0.55-0.5,0.83-1.06,1.02-1.65
		c0.19-0.59,0.26-1.21,0.29-1.87c0.04-0.66,0.08-1.37,0.18-2.13c0.05-0.38,0.14-0.78,0.24-1.2c0.1-0.42,0.24-0.86,0.43-1.33
		c-0.86,0.52-1.48,1.04-1.97,1.56c-0.5,0.52-0.82,1.06-1.07,1.61c-0.26,0.55-0.43,1.11-0.57,1.69c-0.16,0.57-0.3,1.16-0.48,1.75
		c-0.12,0.43-0.24,0.9-0.43,1.34c-0.19,0.44-0.44,0.85-0.85,1.12l-0.84,0.53l-0.06,0.09l0.27-0.86l0.35-1.32l0.17-0.66l0.14-0.67
		c0.33-1.4,0.54-2.82,0.71-4.24l0,0c-0.06,0.06-0.08,0.12-0.13,0.18c0.05-0.06,0.07-0.12,0.13-0.18v0c0.38-0.38,0.92-0.71,1.32-0.92
		C143.62,102.67,144.38,102.01,144.83,101.36"/>
	<path class="st0" d="M101.07,118.47c3.16,0.53,3.57,0.03,4.01-0.6c0.37,1.15,2.39,0.99,3.91,1.03c-4.11,1.95-3.08,5.99-4.24,10.06
		C103.96,124.81,105.34,120.93,101.07,118.47 M100.05,82.78c-4.62-1.96-9.21-4-13.79-6.06c-1.85-0.83-2.98-0.35-3.87,1.5
		c-2.11,4.38-4.28,8.74-6.63,12.99c-1.12,2.02-0.84,3.54,0.45,5.33c4.12,5.72,7.98,11.63,12.21,17.27c1.87,2.49,2.28,4.94,1.98,7.9
		c-0.22,2.17-0.38,4.34-0.52,6.53c4.16,0.33,10.15,2.02,16.68,7.74c3.28-0.52,6.43-1.45,9.38-2.75c-0.19-3.99-0.4-7.89-0.45-11.79
		c-0.02-1.56,0.29-3.22,0.88-4.66c1.82-4.5,3.98-8.87,5.7-13.41c0.81-2.12,0.9-4.51,1.42-7.34c-2.89,3.02-5.24,5.36-7.46,7.83
		c-1.05,1.17-2.04,1.42-3.4,0.65c-1.66-0.95-3.36-1.82-5.23-2.83c-0.83,4.18-1.62,8.11-2.4,12.05c-1.74-2.81-2.84-5.75-4.27-8.52
		c-0.9-1.73-2.09-3.42-3.53-4.73c-3.1-2.82-6.43-5.38-9.7-8.07c0.69-1.48,1.3-2.79,2-4.29c1.32,0.4,2.39,0.79,3.49,1.04
		c3.65,0.82,7.08-0.75,8.12-3.65C101.56,84.28,101.47,83.39,100.05,82.78 M97.65,74.05c2.99-5.43,2.77-6-3.23-8.07
		c-0.53-0.18-1.42-0.55-1.94-0.49c-0.62,0.07-1.2,0.38-1.45,0.83c-1.51,2.81-2.88,5.7-4.36,8.68c2.94,1.23,5.61,2.34,8.48,3.54
		C96.08,76.87,96.87,75.47,97.65,74.05 M108.69,79.11c1.46-2.24,3.61-4.42,2.15-6.05c-1.48-1.65-3.93-2.99-5.96-3.98
		c-0.28-0.14-1.05-0.38-1.32-0.39c-0.67-0.03-1.12,0.42-1.39,0.88c-1.8,3.13-3.47,6.34-5.12,9.42c2.33,2.55,8.23,1.69,6.66,7.59
		C105.3,84.05,107.07,81.6,108.69,79.11 M118.89,84.42c0.39-0.48,1.22-1.36,1.06-1.84c-0.21-0.57-0.59-0.95-0.98-1.31
		c-1.48-1.37-3-2.71-4.56-4c-1.29-1.07-2.21-0.76-3.11,0.69c-2.04,3.31-4.24,6.53-6.38,9.77c-2.98,4.51-2.95,4.73,1.6,7.83
		c0.07,0.05,0.15,0.07,0.2,0.13c1.23,1.12,2.16,0.9,3.2-0.4C112.85,91.63,115.9,88.05,118.89,84.42 M121.58,86.35
		c-0.31-0.25-0.66-0.45-1.17-0.8c-2.81,3.28-5.6,6.53-8.39,9.78c-2.44,2.83-2.34,3.97,0.87,5.96c0.56,0.35,1.88,0.27,2.37-0.16
		c2.31-2.03,4.43-4.27,6.66-6.39C125.96,90.9,125.94,89.99,121.58,86.35"/>
	<path class="st0" d="M113.06,143.07c-7.31-9.65-18.21-11.98-18.21-11.98c-7.31-1.72-17.36,2.32-17.36,2.32l-14.7,6.02
		c-7.65,3.09-13.84,3.87-13.84,3.87c-8.69,1.62-14.8-4.41-14.8-4.41c5.1,6.21,12.19,7.05,12.19,7.05
		c7.66,0.99,17.88-3.18,17.88-3.18c6.96-3.18,17.88-7.22,17.88-7.22c6.77-2.51,12.7-2.06,12.7-2.06
		C105.09,134.14,111.42,141.05,113.06,143.07 M113.5,143.63c0,0-0.16-0.22-0.44-0.56C113.2,143.26,113.36,143.43,113.5,143.63
		 M95.27,145.85c-0.79-0.49-1.57-0.99-2.36-1.49c0.2-0.91,0.41-1.81,0.61-2.73c-0.02,0.02-0.03,0.02-0.04,0.03
		c-0.65,0.59-1.31,1.17-1.96,1.76c-0.03,0.03-0.05,0.03-0.08,0.01c-0.75-0.49-1.5-0.98-2.24-1.47c-0.02-0.01-0.03-0.02-0.05-0.03
		c0,0.02,0.01,0.04,0.02,0.06c0.36,0.84,0.71,1.67,1.07,2.51c0.01,0.03,0.02,0.05-0.01,0.08c-0.56,0.49-1.13,0.97-1.69,1.46
		c-0.11,0.1-0.22,0.19-0.34,0.29c0.02,0,0.03,0,0.04,0c0.88-0.07,1.75-0.13,2.62-0.2c0.05,0,0.07,0.01,0.09,0.06
		c0.34,0.84,0.68,1.67,1.02,2.51c0.01,0.02,0.01,0.03,0.02,0.05c0.01-0.02,0.02-0.04,0.02-0.06c0.18-0.87,0.36-1.74,0.54-2.62
		c0.01-0.04,0.03-0.06,0.07-0.06c0.8-0.04,1.6-0.09,2.41-0.13c0.08-0.01,0.16-0.01,0.24-0.02
		C95.26,145.86,95.26,145.85,95.27,145.85 M87.34,142.23C87.33,142.23,87.33,142.23,87.34,142.23
		C87.33,142.23,87.33,142.23,87.34,142.23C87.34,142.24,87.34,142.24,87.34,142.23 M90.54,149.94c0.01-0.07,0.01-0.14,0.02-0.21
		c-0.01,0-0.01,0-0.01,0c0,0.01-0.01,0.03-0.01,0.04c-0.2,0.78-0.54,1.5-1,2.16c-0.58,0.82-1.32,1.47-2.2,1.96
		c-0.47,0.25-0.97,0.45-1.48,0.58c-0.48,0.12-0.96,0.19-1.46,0.2c-1.08,0.01-2.11-0.22-3.07-0.71c-1.34-0.68-2.33-1.7-3-3.04
		c-0.28-0.56-0.47-1.15-0.58-1.77c-0.19-1.06-0.13-2.12,0.19-3.15c0.33-1.07,0.89-1.99,1.69-2.77c0.7-0.68,1.51-1.18,2.44-1.49
		c0.42-0.14,0.86-0.24,1.3-0.29c1.13-0.13,2.22,0.03,3.27,0.46c0.24,0.1,0.47,0.22,0.7,0.33c-0.01-0.01-0.01-0.01-0.02-0.02
		c-0.93-0.75-1.96-1.29-3.12-1.61c-1.57-0.43-3.13-0.39-4.67,0.13c-0.57,0.19-1.1,0.45-1.61,0.76c-0.52,0.32-0.99,0.7-1.42,1.13
		c-0.97,0.97-1.65,2.12-2.04,3.43c-0.56,1.88-0.49,3.74,0.17,5.57c0.2,0.56,0.46,1.09,0.77,1.59c0.34,0.55,0.73,1.07,1.18,1.53
		c1.09,1.12,2.38,1.9,3.89,2.32c1.23,0.34,2.47,0.38,3.72,0.13c0.44-0.09,0.86-0.21,1.28-0.38c0.65-0.25,1.25-0.58,1.8-0.99
		c0.69-0.51,1.29-1.12,1.78-1.83C89.91,152.77,90.39,151.42,90.54,149.94 M131.31,164.76c-10.91-12.48-23.77-10.79-23.77-10.79
		c-5.93,0.34-14.35,4.04-14.35,4.04c-5,2.41-12.41,5.22-15.91,6.4c-4.84,1.84-10.22,2.02-10.22,2.02
		c-8.56,0.29-15.96-7.33-15.96-7.33c8.59,10.77,17.88,10.23,17.88,10.23c6.96,0.08,16.24-3.87,16.24-3.87
		c5.85-2.7,17.36-7.04,17.36-7.04c5.53-2.15,12.03-1.64,12.03-1.64C124.28,157.58,131.31,164.76,131.31,164.76"/>
	<path class="st0" d="M87.41,174.57l3.44-2.69l-2.46-0.46l-3.15,2.56l0.57-3.04l-2.08-0.39l-1.4,7.5l2.08,0.39l0.36-1.94l0.92-0.7
		l1.37,3.14l2.5,0.47L87.41,174.57z M92.97,179.72l0.24-2.11l-2.14-0.25l-0.24,2.11L92.97,179.72z M99.49,175.8l3.02-3.15l-2.5-0.1
		l-2.75,2.98l0.13-3.09l-2.11-0.09l-0.32,7.62l2.11,0.09l0.08-1.97l0.81-0.83l1.8,2.91l2.54,0.11L99.49,175.8z M105.67,177.97
		l-2.16,0.07l0.07,2.12l2.16-0.07L105.67,177.97z M110.03,173.97l2.28-0.22l-0.18-1.84l-6.66,0.63l0.17,1.85l2.28-0.22l0.54,5.75
		l2.11-0.2L110.03,173.97z M113.3,179.38l2.13-0.34l-0.33-2.1l-2.13,0.34L113.3,179.38z M118.09,174.61
		c-0.26-1.08,0.26-2.14,1.29-2.39c0.71-0.17,1.28,0.05,1.83,0.47l1.26-1.57c-0.88-0.75-2.01-1.15-3.52-0.78
		c-2.25,0.54-3.5,2.64-2.97,4.81l0,0.02c0.54,2.21,2.64,3.42,4.76,2.91c1.64-0.4,2.41-1.34,2.88-2.47l-1.82-0.73
		c-0.31,0.65-0.68,1.12-1.45,1.31c-1.04,0.25-1.98-0.44-2.25-1.55L118.09,174.61z M127.59,175.87l-0.68-2.01l-2.04,0.69l0.68,2.01
		L127.59,175.87z"/>
	<path class="st0" d="M92.43,60.09l3.68-0.52l-0.13-0.94l-2.17,0.31l0.72-0.74c0.78-0.81,1.15-1.28,1.03-2.11l0-0.01
		c-0.13-0.93-0.9-1.44-1.93-1.29c-0.89,0.13-1.31,0.56-1.71,1.29l0.86,0.51c0.3-0.51,0.54-0.76,0.92-0.81
		c0.39-0.06,0.7,0.13,0.76,0.55c0.06,0.41-0.15,0.72-0.69,1.32l-1.46,1.59L92.43,60.09z M100.08,56.91
		c0.02,0.91-0.39,1.59-1.05,1.61c-0.67,0.01-1.12-0.65-1.14-1.57l0-0.01c-0.02-0.92,0.39-1.59,1.05-1.61
		c0.66-0.02,1.12,0.66,1.14,1.57L100.08,56.91z M101.21,56.87v-0.01c-0.03-1.45-0.96-2.56-2.28-2.53c-1.33,0.03-2.21,1.19-2.17,2.65
		v0.01c0.03,1.45,0.94,2.56,2.28,2.53C100.38,59.49,101.25,58.33,101.21,56.87 M103.97,59.61l0.39-5.04l-0.75-0.06l-1.47,0.32
		l0.16,0.92l0.89-0.15l-0.3,3.92L103.97,59.61z M108.71,57.68l0,0.01c-0.14,0.9-0.67,1.5-1.33,1.39c-0.66-0.11-0.98-0.85-0.83-1.75
		l0-0.01c0.15-0.9,0.67-1.49,1.33-1.39C108.53,56.03,108.85,56.78,108.71,57.68 M108.05,54.94c-1.31-0.21-2.39,0.77-2.62,2.2l0,0.01
		c-0.23,1.43,0.46,2.68,1.78,2.9c1.32,0.21,2.39-0.77,2.62-2.2l0-0.01C110.06,56.41,109.35,55.15,108.05,54.94"/>
</g>
</svg>
